<svg xmlns="http://www.w3.org/2000/svg" width="116.842" height="116.842" viewBox="0 0 116.842 116.842">
  <g id="Grupo_2686" data-name="Grupo 2686" transform="translate(-765.2 -1173.758)">
    <circle id="Elipse_780" data-name="Elipse 780" cx="58.421" cy="58.421" r="58.421" transform="translate(765.2 1173.758)" fill="#01888b"/>
    <g id="Grupo_2685" data-name="Grupo 2685">
      <path id="Trazado_9679" data-name="Trazado 9679" d="M822.922,1240.145a.554.554,0,0,0,.469.626.243.243,0,0,0,.306.289,47.346,47.346,0,0,0,6.129-2.358,39.954,39.954,0,0,1,6.2-3.3,7.617,7.617,0,0,1,7.613,1.381,25.218,25.218,0,0,0,6.051,3.371.388.388,0,0,0,.546-.378c.01-3.1-.761-6.911-3.247-9.038a2.672,2.672,0,0,0-2.007-.583,5.347,5.347,0,0,1-2.874-1.048,8.58,8.58,0,0,0-4.887-1.249C830.2,1228.023,823.889,1233.07,822.922,1240.145Z" fill="#fff"/>
      <path id="Trazado_9680" data-name="Trazado 9680" d="M791.4,1244.211a35.82,35.82,0,0,1,12.273-5.349,18.749,18.749,0,0,0,5.6-2.164c1.6-.985,3.631-2.422,5.531-1.888a2.977,2.977,0,0,1,1.1.863c.316.391,1.1.225,1-.364a8.162,8.162,0,0,0-5.125-6.368c-3.057-1.133-5.825-.209-8.433,1.483-1.64,1.064-3.448,1.514-5.156,2.413a11.847,11.847,0,0,0-3.25,2.564c-2.127,2.351-3.235,5.255-4.259,8.2A.488.488,0,0,0,791.4,1244.211Z" fill="#fff"/>
      <path id="Trazado_9681" data-name="Trazado 9681" d="M788.692,1226.478c1.929-1.692,4.027-3.46,6.52-4.233a16.563,16.563,0,0,1,4.035-.367c.706-.046,1.393-.246,2.1-.285a8.352,8.352,0,0,1,2.467.353,19.972,19.972,0,0,1,8.506,3.875c2.147,1.809,4.339,3.85,5.486,6.461a.557.557,0,0,0,.563.333.181.181,0,0,0,.2-.052.488.488,0,0,0,.283-.514c-.029-.3-.065-.6-.1-.9.319-3.541.079-7.324-2.06-10.289a5.864,5.864,0,0,0-3.717-2.49,9.241,9.241,0,0,1-3.311-.777c-.986-.546-1.928-1.141-2.96-1.6-3.566-1.6-7.458-1.892-10.92.115-3.723,2.158-5.843,6.1-7.8,9.776C787.775,1226.28,788.327,1226.8,788.692,1226.478Z" fill="#fff"/>
      <path id="Trazado_9682" data-name="Trazado 9682" d="M785.093,1206.092c-.037.951.729,1.38,1.578,1.424a29.888,29.888,0,0,0,5.333-.683c1.834-.254,3.669-.555,5.515-.712a17.568,17.568,0,0,1,10.729,2.755,20.337,20.337,0,0,1,7.051,6.569c1.411,2.274,1.907,5.244,4.4,6.654.406.23.786-.178.788-.561a65.3,65.3,0,0,0-.453-8.093,20.725,20.725,0,0,0-.726-6.015,13.264,13.264,0,0,0-5.64-7.668c-5.743-3.649-12.86-4.015-19.306-2.115a13.8,13.8,0,0,0-7.3,5.143C786.417,1203.66,785.136,1204.967,785.093,1206.092Z" fill="#fff"/>
      <path id="Trazado_9683" data-name="Trazado 9683" d="M822.945,1215.888a.529.529,0,0,0,.945.289,5.167,5.167,0,0,0,1.975-1.9,39.418,39.418,0,0,0,2.6-3.821c.846-1.408,1.518-2.894,2.3-4.331a8.906,8.906,0,0,1,3.587-3.536c2.857-1.654,5.526-2.786,8.872-2.753,3.365.034,6.731.117,10.1.176a.481.481,0,0,0,.312-.82c-2.859-2.808-6.383-5.577-10.378-6.478a7.663,7.663,0,0,0-4.934.366,21.8,21.8,0,0,1-3.046,1.6c-.965.281-1.992.3-2.963.558C823.945,1197.508,822.3,1208.629,822.945,1215.888Z" fill="#fff"/>
      <path id="Trazado_9684" data-name="Trazado 9684" d="M823.906,1225.726c-.052.325-.1.653-.122.986-.041.5.62.964.981.467a29.751,29.751,0,0,1,5.543-6.383c2.365-1.82,5.022-2,7.759-2.876,1.395-.446,2.684-1.167,4.076-1.617a12.943,12.943,0,0,1,4.762-.368,9.074,9.074,0,0,1,5.021,1.395,15.81,15.81,0,0,1,3.154,3.241c.247.317.88.273.92-.2.322-3.791-2.076-8.217-4.624-10.909a11.759,11.759,0,0,0-11.253-3.128c-3.935.862-8.337,3.291-10.708,6.621a41.726,41.726,0,0,0-5.612,12.54A.2.2,0,0,0,823.906,1225.726Z" fill="#fff"/>
      <path id="Trazado_9685" data-name="Trazado 9685" d="M823.581,1212.1a33.48,33.48,0,0,1,5.326-9.862,13.191,13.191,0,0,1,8.536-5.187c4.163-.722,8.644-.934,12.544.929.242.115.041.476-.2.364a15.528,15.528,0,0,0-7.712-1.14,26.074,26.074,0,0,0-6.535,1.157c-4.434,1.533-7.325,5.965-9.314,9.986-4.434,8.964-4.711,19.322-5.045,29.12-.013.377-.591.4-.591.021C820.61,1228.923,820.7,1220.272,823.581,1212.1Z" fill="#fff"/>
      <path id="Trazado_9686" data-name="Trazado 9686" d="M821.282,1235.027a58.072,58.072,0,0,1,1.66-6.412,32.088,32.088,0,0,1,5.053-9.792c4.045-5.2,10.232-8.743,16.966-7.729a12.984,12.984,0,0,1,8.794,5.2c.161.225-.181.456-.349.243a13.6,13.6,0,0,0-10.79-4.852,16.994,16.994,0,0,0-11.12,4.655,27.12,27.12,0,0,0-6.925,10.489,49.908,49.908,0,0,0-2.165,7.372c-.253,1.155-.475,2.316-.686,3.479a17.417,17.417,0,0,1-.74,3.553.326.326,0,0,1-.614-.111C820.211,1239.168,820.891,1236.944,821.282,1235.027Z" fill="#fff"/>
      <path id="Trazado_9687" data-name="Trazado 9687" d="M829.267,1233.608a16.217,16.217,0,0,1,10.016-2.77,11.277,11.277,0,0,1,5.331,1.656,9.336,9.336,0,0,1,3.133,4.367c.1.245-.275.376-.385.141a8.723,8.723,0,0,0-3.907-4.373,11.44,11.44,0,0,0-5.375-1.008,16.357,16.357,0,0,0-9.26,3.442,19.079,19.079,0,0,0-6.207,8.777c-1.347,3.719-1.495,7.515-1.565,11.424a.349.349,0,0,1-.695.062C819.237,1247.409,822.435,1238.1,829.267,1233.608Z" fill="#fff"/>
      <path id="Trazado_9688" data-name="Trazado 9688" d="M794.019,1240.008c2.334-2.885,5.534-4.864,8.763-6.62,3.092-1.682,6.733-2.971,10.23-1.793,3.166,1.067,4.93,4.058,5.961,7.058a29.593,29.593,0,0,1,1.718,11.442c-.036.495-.84.448-.867-.039a42.523,42.523,0,0,0-1.452-10.307c-.973-3.2-2.671-6.533-6.165-7.449-3.445-.9-6.851.56-9.846,2.14a26.222,26.222,0,0,0-8.019,5.845C794.165,1240.494,793.847,1240.221,794.019,1240.008Z" fill="#fff"/>
      <path id="Trazado_9689" data-name="Trazado 9689" d="M791.643,1221.734c3.22-2.648,6.99-4.671,11.276-4.2,4.432.482,8.2,3.212,11.058,6.49a24.119,24.119,0,0,1,5.758,11.844,52.92,52.92,0,0,1,.735,14.981.479.479,0,0,1-.944-.042,119.912,119.912,0,0,0-.585-13.478,22.722,22.722,0,0,0-4.693-11.6c-2.667-3.426-6.174-6.418-10.547-7.264-4.426-.857-8.319,1.112-11.819,3.615C791.659,1222.238,791.438,1221.9,791.643,1221.734Z" fill="#fff"/>
      <path id="Trazado_9690" data-name="Trazado 9690" d="M791.006,1203.9c3.17-2.08,6.934-2.4,10.634-2.166a26.867,26.867,0,0,1,6.2.873,14.5,14.5,0,0,1,5.042,3c6.43,5.6,8.3,14.522,8.425,22.68.087,5.56-.323,11.122-.344,16.684,0,.67-1.027.8-1.058.107-.385-8.579,1.14-17.17-.521-25.693a24.907,24.907,0,0,0-4.741-10.687,17.814,17.814,0,0,0-4.373-4.014,13.817,13.817,0,0,0-6.019-1.913c-4.361-.544-9.07-.834-13.012,1.46C791.019,1204.368,790.783,1204.05,791.006,1203.9Z" fill="#fff"/>
      <path id="Trazado_9691" data-name="Trazado 9691" d="M818.6,1239.179c-.234,3.149.537,6.219.637,9.36.171,5.368-1.277,10.934,1.11,16.012.268.57,1.211.611,1.314-.112a122.951,122.951,0,0,0,1.145-20.445c-.09-3.735-.829-7.03-.443-10.754.234-2.256.694-8.476.192-12C822.485,1220.771,819.164,1231.559,818.6,1239.179Z" fill="#fff"/>
      <path id="Trazado_9692" data-name="Trazado 9692" d="M812.864,1247.99c-.229,3.469,1.371,5,1.432,6.39.016.365.338-.595.335-.953-.009-1.489-.39-1.329.34-3.733.187-.616,1.508-3.926,3.174-2.3a3.961,3.961,0,0,1,.641,1.908c.376,2.244.076,3.464.03,5.725-.054,2.613-.1,5.225-.164,7.838-.035,1.492.235,3.511-.615,4.832a14.3,14.3,0,0,0-1.542,2.189c-2.476,5.942,7.106,12.848,12.187,9.5,2.562-1.687,2.336-4.763.4-6.83-1.426-1.524-3.494-2.373-4.389-4.365a16.121,16.121,0,0,1-1.064-5.152c-.557-6.355,1.141-14.947-3.536-20.174-1.658-1.853-5.217-2.652-6.317.1C813.255,1244.271,813.068,1244.905,812.864,1247.99Z" fill="#fff"/>
      <path id="Trazado_9693" data-name="Trazado 9693" d="M817.065,1272.512a2.052,2.052,0,0,0-2.054,1.221c-.35.75-.32,1.451-.968,2.067a4.685,4.685,0,0,1-2.231.992c-.152.036-.107.281.046.246a4.59,4.59,0,0,0,2.573-1.265,4.427,4.427,0,0,0,.652-1.347,2.684,2.684,0,0,1,1.995-1.7A.111.111,0,0,0,817.065,1272.512Z" fill="#fff"/>
      <path id="Trazado_9694" data-name="Trazado 9694" d="M829.268,1277.878c-.041-.125-.226-.05-.207.071.152.952,1.43,1.014,1.538,1.995.015.139.208.111.225-.014C830.961,1278.941,829.532,1278.687,829.268,1277.878Z" fill="#fff"/>
      <path id="Trazado_9695" data-name="Trazado 9695" d="M815.817,1275.79c-.063-.846-.629-1.656-.122-2.483.066-.108-.086-.216-.157-.112a1.667,1.667,0,0,0-.223,1.349,4.024,4.024,0,0,1-.056,2.783c-.066.141.154.218.221.081A3.094,3.094,0,0,0,815.817,1275.79Z" fill="#fff"/>
      <path id="Trazado_9696" data-name="Trazado 9696" d="M818.24,1274.623a1.689,1.689,0,0,0-.849.908c-.257.674.024,1.636-.713,2.048-.137.077-.032.3.106.225a1.377,1.377,0,0,0,.664-1.019c.157-.78.1-1.512.9-1.929C818.494,1274.781,818.386,1274.549,818.24,1274.623Z" fill="#fff"/>
      <path id="Trazado_9697" data-name="Trazado 9697" d="M820.927,1276.93c-.932-.313-1.617.8-1.828,1.59a11.371,11.371,0,0,1-.482,2.3,3.7,3.7,0,0,1-2.008,1.588c-.1.049-.05.238.065.2a3.753,3.753,0,0,0,2.285-1.739,7.9,7.9,0,0,0,.514-1.708,5.093,5.093,0,0,1,.268-.914c.3-.643.662-.764,1.2-1.059A.145.145,0,0,0,820.927,1276.93Z" fill="#fff"/>
      <path id="Trazado_9698" data-name="Trazado 9698" d="M824.995,1285.129a4.9,4.9,0,0,1-1.047-1.9,6.063,6.063,0,0,1,.36-2.236,2.792,2.792,0,0,0-.2-2.191c-.068-.106-.243-.01-.214.108.332,1.341-.263,2.525-.23,3.864a3.882,3.882,0,0,0,1.179,2.493C824.933,1285.364,825.07,1285.237,824.995,1285.129Z" fill="#fff"/>
      <path id="Trazado_9699" data-name="Trazado 9699" d="M823.2,1278.772a.11.11,0,0,0-.216.044c.148,1.291-.867,2.232-1.526,3.187a4.129,4.129,0,0,0-.72,2.089.1.1,0,1,0,.19.014c.141-1.383.92-2.086,1.711-3.1A2.5,2.5,0,0,0,823.2,1278.772Z" fill="#fff"/>
      <path id="Trazado_9700" data-name="Trazado 9700" d="M820.017,1276.88a3.264,3.264,0,0,0-1.686.974c-.666.723-.864,1.8-1.794,2.26-.994.492-1.736-.091-2.692-.233a1.244,1.244,0,0,0-1.337.514c-.063.1.07.238.155.144.763-.846,1.755-.026,2.609.1a2.389,2.389,0,0,0,1.624-.349,3.227,3.227,0,0,0,1.067-1.3,3.98,3.98,0,0,1,2.117-1.919C820.188,1277.033,820.127,1276.854,820.017,1276.88Z" fill="#fff"/>
      <path id="Trazado_9701" data-name="Trazado 9701" d="M829.557,1283.91a4.238,4.238,0,0,1-1.3-2.012c-.153-.546-.151-1.113-.254-1.667a4.035,4.035,0,0,0-1.317-2.29c-.1-.1-.267.089-.166.19a4.085,4.085,0,0,1,1.115,1.88c.151.594.125,1.218.289,1.81a4.716,4.716,0,0,0,1.49,2.308C829.537,1284.239,829.68,1284.02,829.557,1283.91Z" fill="#fff"/>
      <path id="Trazado_9702" data-name="Trazado 9702" d="M830.653,1281.1a3.288,3.288,0,0,0-.837-.9c-.611-.437-1.453-.594-1.693-1.435-.04-.142-.282-.158-.276.018.027.772.551,1.13,1.188,1.432a3.033,3.033,0,0,1,1.946,3.149.1.1,0,0,0,.2.015A3.266,3.266,0,0,0,830.653,1281.1Z" fill="#fff"/>
      <path id="Trazado_9703" data-name="Trazado 9703" d="M826.453,1283.77a3.772,3.772,0,0,1-.445-2.673,2.472,2.472,0,0,0-.212-1.668.122.122,0,0,0-.218.109c.4.871-.014,1.705.015,2.6a3.682,3.682,0,0,0,.643,1.741C826.315,1284.015,826.531,1283.911,826.453,1283.77Z" fill="#fff"/>
      <path id="Trazado_9704" data-name="Trazado 9704" d="M828.106,1281.7c-.012-.1-.188-.1-.182.011.062,1.205-.519,1.981-.853,3.066a4.02,4.02,0,0,0,0,2.315c.039.138.252.1.216-.044a4.342,4.342,0,0,1,.438-3.159A3.925,3.925,0,0,0,828.106,1281.7Z" fill="#fff"/>
      <path id="Trazado_9705" data-name="Trazado 9705" d="M827.3,1284.706c-.036-.1-.2-.042-.172.06.3.984,1.592,1.469,1.569,2.563,0,.149.22.167.224.017C828.95,1286.149,827.666,1285.715,827.3,1284.706Z" fill="#fff"/>
      <path id="Trazado_9706" data-name="Trazado 9706" d="M822.261,1280.925c-.543.505-1.352.566-1.933,1.052a3.283,3.283,0,0,0-1.085,1.677.11.11,0,0,0,.206.076,3.574,3.574,0,0,1,1.425-1.836,7.279,7.279,0,0,0,1.505-.828C822.464,1280.983,822.349,1280.843,822.261,1280.925Z" fill="#fff"/>
      <path id="Trazado_9707" data-name="Trazado 9707" d="M819.885,1280.76c-.022-.826-.7-1.584-.463-2.407.033-.116-.133-.179-.172-.063a1.787,1.787,0,0,0,.1,1.28,2.949,2.949,0,0,1-.176,2.734.111.111,0,0,0,.181.129A2.651,2.651,0,0,0,819.885,1280.76Z" fill="#fff"/>
      <path id="Trazado_9708" data-name="Trazado 9708" d="M818.7,1277.485c-.878.926-2.874.4-3.276,1.892a.1.1,0,0,0,.187.069c.645-1.341,2.373-.757,3.225-1.835C818.9,1277.528,818.769,1277.407,818.7,1277.485Z" fill="#fff"/>
    </g>
  </g>
</svg>
