<svg xmlns="http://www.w3.org/2000/svg" width="663" height="362" viewBox="0 0 663 362">
  <g id="Grupo_3137" data-name="Grupo 3137" transform="translate(-204 -1303)">
    <g id="Grupo_3136" data-name="Grupo 3136" transform="translate(0 -43)">
      <g id="Grupo_3134" data-name="Grupo 3134" transform="translate(114)">
        <rect id="Rectángulo_2663" data-name="Rectángulo 2663" width="302" height="51" transform="translate(90 1346)" fill="#80cbc4"/>
        <text id="Factores_internos" data-name="Factores internos" transform="translate(110 1359)" fill="#00223d" font-size="18" font-family="CerebriSans-Bold, Cerebri Sans" font-weight="700"><tspan x="56.249" y="17">Factores internos</tspan></text>
        <rect id="Rectángulo_2665" data-name="Rectángulo 2665" width="302" height="301" transform="translate(90 1394)" fill="#dcf1f9"/>
        <g id="Grupo_3130" data-name="Grupo 3130" transform="translate(20)">
          <text id="Edad_o_estado_del_cultivo._Composición_química_de_los_tejidos._Tamaño._Espesor_de_la_corteza._Especie_y_variedad._" data-name="Edad o estado del cultivo.
Composición química de los tejidos.
Tamaño.
Espesor de la corteza.
Especie y variedad.
" transform="translate(120 1433)" fill="#00223d" font-size="18" font-family="CerebriSans-Regular, Cerebri Sans"><tspan x="0" y="17">Edad o estado del cultivo.</tspan><tspan x="0" y="52">Composición química de </tspan><tspan x="0" y="87">los tejidos.</tspan><tspan x="0" y="122">Tamaño.</tspan><tspan x="0" y="157">Espesor de la corteza.</tspan><tspan x="0" y="192">Especie y variedad.</tspan></text>
          <g id="Grupo_3129" data-name="Grupo 3129">
            <circle id="Elipse_916" data-name="Elipse 916" cx="5" cy="5" r="5" transform="translate(95 1439)" fill="#0288d1"/>
            <circle id="Elipse_917" data-name="Elipse 917" cx="5" cy="5" r="5" transform="translate(95 1474)" fill="#0288d1"/>
            <circle id="Elipse_918" data-name="Elipse 918" cx="5" cy="5" r="5" transform="translate(95 1545)" fill="#0288d1"/>
            <circle id="Elipse_919" data-name="Elipse 919" cx="5" cy="5" r="5" transform="translate(95 1580)" fill="#0288d1"/>
            <circle id="Elipse_920" data-name="Elipse 920" cx="5" cy="5" r="5" transform="translate(95 1615)" fill="#0288d1"/>
          </g>
        </g>
      </g>
      <rect id="Rectángulo_2667" data-name="Rectángulo 2667" width="258" height="13" transform="translate(228 1695)" fill="#bbdfea"/>
    </g>
    <g id="Grupo_3135" data-name="Grupo 3135" transform="translate(0 -43)">
      <g id="Grupo_3133" data-name="Grupo 3133">
        <rect id="Rectángulo_2664" data-name="Rectángulo 2664" width="302" height="51" transform="translate(560 1346)" fill="#fff1c7"/>
        <text id="Factores_externos" data-name="Factores externos" transform="translate(580 1359)" fill="#00223d" font-size="18" font-family="CerebriSans-Bold, Cerebri Sans" font-weight="700"><tspan x="54.061" y="17">Factores externos</tspan></text>
        <rect id="Rectángulo_2666" data-name="Rectángulo 2666" width="302" height="301" transform="translate(560 1394)" fill="#dcf1f9"/>
        <g id="Grupo_3132" data-name="Grupo 3132" transform="translate(15)">
          <text id="Temperatura._Humedad._Contenido_de_O2_y_CO2._Concentración_de_etileno._Luz._Fecha_de_recolección._Lesiones_en_el_fruto._" data-name="Temperatura.
Humedad.
Contenido de O2 y CO2.
Concentración de etileno.
Luz.
Fecha de recolección.
Lesiones en el fruto.
" transform="translate(590 1433)" fill="#00223d" font-size="18" font-family="CerebriSans-Regular, Cerebri Sans"><tspan x="0" y="17">Temperatura.</tspan><tspan x="0" y="52">Humedad.</tspan><tspan x="0" y="87">Contenido de O2 y CO2.</tspan><tspan x="0" y="122">Concentración de etileno.</tspan><tspan x="0" y="157">Luz.</tspan><tspan x="0" y="192">Fecha de recolección.</tspan><tspan x="0" y="227">Lesiones en el fruto.</tspan></text>
          <g id="Grupo_3131" data-name="Grupo 3131">
            <circle id="Elipse_921" data-name="Elipse 921" cx="5" cy="5" r="5" transform="translate(565 1439)" fill="#0288d1"/>
            <circle id="Elipse_922" data-name="Elipse 922" cx="5" cy="5" r="5" transform="translate(565 1474)" fill="#0288d1"/>
            <circle id="Elipse_923" data-name="Elipse 923" cx="5" cy="5" r="5" transform="translate(565 1545)" fill="#0288d1"/>
            <circle id="Elipse_924" data-name="Elipse 924" cx="5" cy="5" r="5" transform="translate(565 1580)" fill="#0288d1"/>
            <circle id="Elipse_925" data-name="Elipse 925" cx="5" cy="5" r="5" transform="translate(565 1615)" fill="#0288d1"/>
            <circle id="Elipse_926" data-name="Elipse 926" cx="5" cy="5" r="5" transform="translate(565 1650)" fill="#0288d1"/>
          </g>
        </g>
      </g>
      <rect id="Rectángulo_2668" data-name="Rectángulo 2668" width="258" height="13" transform="translate(584 1695)" fill="#bbdfea"/>
    </g>
  </g>
</svg>
