<svg xmlns="http://www.w3.org/2000/svg" width="356" height="315.773" viewBox="0 0 356 315.773">
  <g id="Grupo_2598" data-name="Grupo 2598" transform="translate(-3.592 -2028.147)">
    <g id="Grupo_2588" data-name="Grupo 2588" transform="translate(48.36 2144.125)">
      <g id="Grupo_2582" data-name="Grupo 2582" transform="translate(213.732)">
        <g id="Grupo_2581" data-name="Grupo 2581" transform="translate(0)">
          <path id="Trazado_8555" data-name="Trazado 8555" d="M169.89,2121.287a.55.55,0,0,0,.476.609.241.241,0,0,0,.309.279,46.368,46.368,0,0,0,6.008-2.452,39.4,39.4,0,0,1,6.058-3.38,7.526,7.526,0,0,1,7.548,1.211,24.927,24.927,0,0,0,6.046,3.209.383.383,0,0,0,.531-.385c-.052-3.064-.89-6.811-3.389-8.863a2.63,2.63,0,0,0-1.993-.536,5.269,5.269,0,0,1-2.861-.979,8.5,8.5,0,0,0-4.852-1.134C176.838,2109.166,170.7,2114.279,169.89,2121.287Z" transform="translate(-133.046 -2081.496)" fill="#6a9d13"/>
          <path id="Trazado_8556" data-name="Trazado 8556" d="M152.483,2126.053a35.374,35.374,0,0,1,12.318-4.818,18.56,18.56,0,0,0,5.612-1.927c1.613-.911,3.675-2.254,5.53-1.655a2.941,2.941,0,0,1,1.059.893c.3.4,1.08.265,1.005-.322a8.067,8.067,0,0,0-4.82-6.48c-2.975-1.234-5.744-.426-8.383,1.147-1.659.987-3.461,1.364-5.181,2.188a11.708,11.708,0,0,0-3.307,2.408c-2.188,2.241-3.392,5.067-4.513,7.939C151.641,2125.845,152.047,2126.328,152.483,2126.053Z" transform="translate(-147.107 -2079.72)" fill="#789714"/>
          <path id="Trazado_8557" data-name="Trazado 8557" d="M151.352,2113.983c2-1.556,4.175-3.177,6.68-3.794a16.328,16.328,0,0,1,4-.126c.7-.005,1.389-.161,2.087-.158a8.247,8.247,0,0,1,2.412.492,19.721,19.721,0,0,1,8.163,4.321c2.014,1.909,4.055,4.051,5.035,6.694a.547.547,0,0,0,.535.36.178.178,0,0,0,.2-.039.482.482,0,0,0,.309-.49c-.011-.3-.028-.6-.044-.9.522-3.474.508-7.219-1.43-10.269a5.783,5.783,0,0,0-3.52-2.674,9.122,9.122,0,0,1-3.22-.959c-.941-.6-1.835-1.238-2.826-1.755-3.424-1.783-7.246-2.3-10.779-.526-3.8,1.911-6.12,5.677-8.26,9.187C150.458,2113.735,150.973,2114.278,151.352,2113.983Z" transform="translate(-147.987 -2085.99)" fill="#6a9d13"/>
          <path id="Trazado_8558" data-name="Trazado 8558" d="M149.148,2104.951c-.071.937.668,1.391,1.5,1.465a29.533,29.533,0,0,0,5.293-.474c1.82-.181,3.644-.408,5.472-.493a17.352,17.352,0,0,1,10.489,3.124,20.1,20.1,0,0,1,6.715,6.75c1.307,2.3,1.685,5.25,4.094,6.737.394.242.783-.146.8-.524a65.064,65.064,0,0,0-.142-8.008,20.523,20.523,0,0,0-.492-5.967,13.107,13.107,0,0,0-5.278-7.782c-5.534-3.82-12.547-4.449-18.984-2.815a13.618,13.618,0,0,0-7.4,4.8C150.548,2102.6,149.233,2103.841,149.148,2104.951Z" transform="translate(-149.143 -2091.381)" fill="#80af1b"/>
          <path id="Trazado_8559" data-name="Trazado 8559" d="M169.573,2116.872a.522.522,0,0,0,.938.27,5.1,5.1,0,0,0,1.92-1.907,39.006,39.006,0,0,0,2.509-3.817c.813-1.4,1.455-2.882,2.209-4.316a8.8,8.8,0,0,1,3.486-3.55,16.5,16.5,0,0,1,8.722-2.859c3.326-.021,6.653.007,9.978.012a.475.475,0,0,0,.295-.815c-2.87-2.728-6.394-5.408-10.356-6.236a7.567,7.567,0,0,0-4.868.441,21.442,21.442,0,0,1-2.985,1.634c-.948.293-1.963.324-2.918.6C170.269,2098.7,168.822,2109.709,169.573,2116.872Z" transform="translate(-133.425 -2093.45)" fill="#a5c82b"/>
          <path id="Trazado_8560" data-name="Trazado 8560" d="M170.639,2118.721c-.062.317-.117.641-.156.968-.06.492.575.975.95.5a29.413,29.413,0,0,1,5.713-6.093c2.4-1.709,5.035-1.787,7.77-2.549,1.394-.387,2.694-1.052,4.087-1.442a12.789,12.789,0,0,1,4.715-.185,8.977,8.977,0,0,1,4.905,1.566,15.713,15.713,0,0,1,2.991,3.32c.233.321.86.3.916-.162.46-3.731-1.74-8.191-4.154-10.945a11.62,11.62,0,0,0-10.993-3.513c-3.918.7-8.356,2.936-10.823,6.134a41.276,41.276,0,0,0-6.014,12.171A.194.194,0,0,0,170.639,2118.721Z" transform="translate(-132.587 -2088.391)" fill="#80af1b"/>
          <path id="Trazado_8561" data-name="Trazado 8561" d="M171.133,2111.443a33.083,33.083,0,0,1,5.106-9.828,13.036,13.036,0,0,1,8.351-5.26c4.1-.778,8.525-1.061,12.407.719.24.11.048.469-.192.363a15.353,15.353,0,0,0-7.639-1,25.658,25.658,0,0,0-6.438,1.249c-4.357,1.584-7.141,6.008-9.043,10.013-4.238,8.926-4.348,19.162-4.522,28.849-.007.373-.577.408-.583.03C168.465,2128.115,168.414,2119.566,171.133,2111.443Z" transform="translate(-134.091 -2091.667)" fill="#80af1b"/>
          <path id="Trazado_8562" data-name="Trazado 8562" d="M169.412,2125.7a57.116,57.116,0,0,1,1.881-6.27,31.674,31.674,0,0,1,5.356-9.477c4.191-4.983,10.432-8.248,17.044-6.992a12.824,12.824,0,0,1,8.486,5.467c.151.227-.2.442-.353.225a13.443,13.443,0,0,0-10.471-5.2,16.792,16.792,0,0,0-11.155,4.177,26.813,26.813,0,0,0-7.232,10.1,49.28,49.28,0,0,0-2.415,7.2c-.293,1.131-.556,2.27-.808,3.41a17.231,17.231,0,0,1-.865,3.479.322.322,0,0,1-.6-.133C168.2,2129.742,168.954,2127.572,169.412,2125.7Z" transform="translate(-134.3 -2086.282)" fill="#719716"/>
          <path id="Trazado_8563" data-name="Trazado 8563" d="M177.893,2112.968a16.019,16.019,0,0,1,9.994-2.358,11.11,11.11,0,0,1,5.2,1.836,9.223,9.223,0,0,1,2.929,4.429c.094.247-.284.361-.385.124a8.625,8.625,0,0,0-3.692-4.464,11.3,11.3,0,0,0-5.269-1.2,16.151,16.151,0,0,0-9.273,3.05c-2.959,2.078-4.726,5.488-6.077,8.818-1.469,3.621-2.728,12.144-2.945,16a.344.344,0,0,1-.687.035C166.883,2131.382,170.979,2117.142,177.893,2112.968Z" transform="translate(-134.831 -2080.204)" fill="#7ba819"/>
          <path id="Trazado_8564" data-name="Trazado 8564" d="M153.74,2120.821c2.414-2.76,5.648-4.595,8.9-6.207,3.115-1.543,6.76-2.68,10.168-1.384,3.085,1.172,4.715,4.191,5.619,7.193,1.083,3.586,1.094,12.791.678,16.528-.053.487-.845.41-.854-.071-.055-3.483.435-12-.458-15.4-.84-3.2-2.391-6.55-5.808-7.587-3.367-1.021-6.784.295-9.8,1.742a25.921,25.921,0,0,0-8.138,5.47C153.866,2121.305,153.562,2121.025,153.74,2120.821Z" transform="translate(-145.618 -2078.539)" fill="#72870f"/>
          <path id="Trazado_8565" data-name="Trazado 8565" d="M152.821,2108.728c3.279-2.493,7.077-4.348,11.292-3.726,4.358.643,7.978,3.479,10.674,6.823a23.836,23.836,0,0,1,5.239,11.912c.693,4.79.29,15.19-.424,19.986a.473.473,0,0,1-.931-.078c.107-4.474.909-14.021.517-18.5a22.47,22.47,0,0,0-4.2-11.626c-2.5-3.483-5.855-6.569-10.141-7.569-4.337-1.012-8.255.785-11.807,3.124C152.818,2109.225,152.611,2108.887,152.821,2108.728Z" transform="translate(-146.357 -2084.58)" fill="#82aa17"/>
          <path id="Trazado_8566" data-name="Trazado 8566" d="M152.521,2100.829c3.207-1.934,6.937-2.112,10.581-1.739a26.6,26.6,0,0,1,6.093,1.1,14.327,14.327,0,0,1,4.864,3.155c6.138,5.768,7.646,14.652,7.465,22.711-.124,5.493-1.325,16.135-1.556,21.625-.027.663-1.043.753-1.048.067-.057-8.486,2.359-22.075,1.041-30.554a24.61,24.61,0,0,0-4.28-10.73,17.568,17.568,0,0,0-4.165-4.127,13.668,13.668,0,0,0-5.871-2.117c-4.285-.7-8.924-1.164-12.9.952C152.518,2101.287,152.3,2100.964,152.521,2100.829Z" transform="translate(-146.595 -2089.196)" fill="#719716"/>
          <path id="Trazado_8567" data-name="Trazado 8567" d="M167.827,2130.6a89.853,89.853,0,0,1,3.609-20.65l.652.217a89.133,89.133,0,0,0-3.573,20.475Z" transform="translate(-134.645 -2080.649)" fill="#719716"/>
          <path id="Trazado_8568" data-name="Trazado 8568" d="M171.87,2107.837a10.436,10.436,0,0,1-.982,1.387,11.331,11.331,0,0,0-1.355,1.986,2.662,2.662,0,0,0,.364,3.23.159.159,0,0,0,.126.037,1.326,1.326,0,0,0,.4.146,2.077,2.077,0,0,0,1.875-.772,5.926,5.926,0,0,0,1.4-3.422,4.406,4.406,0,0,0-.364-1.907,7.943,7.943,0,0,0-.989-2.23A7.4,7.4,0,0,1,171.87,2107.837Z" transform="translate(-133.609 -2083.489)" fill="#c64930"/>
          <path id="Trazado_8569" data-name="Trazado 8569" d="M171.87,2107.838a10.441,10.441,0,0,1-.982,1.387,11.32,11.32,0,0,0-1.355,1.986,2.662,2.662,0,0,0,.364,3.23.159.159,0,0,0,.126.037,1.456,1.456,0,0,0,.352.133,3.4,3.4,0,0,0,.591-.62,9.825,9.825,0,0,0,1.65-3.758,5.974,5.974,0,0,0,.032-2.007,12.218,12.218,0,0,0-.263-1.877c-.012-.02-.025-.041-.039-.06A7.359,7.359,0,0,1,171.87,2107.838Z" transform="translate(-133.609 -2083.489)" fill="#e26344"/>
          <path id="Trazado_8570" data-name="Trazado 8570" d="M167.767,2126.6c-.252,2.24-.373,9.618-.387,11.862-.023,3.836-1.575,11-.011,14.686a.493.493,0,0,0,.941-.045,131.024,131.024,0,0,0,1.74-17.786c.037-2.67.187-10.207.563-12.853a45.209,45.209,0,0,0,.465-8.559A57.429,57.429,0,0,0,167.767,2126.6Z" transform="translate(-135.542 -2077.586)" fill="#98c40e"/>
          <path id="Trazado_8571" data-name="Trazado 8571" d="M164.536,2129.49c-.258,2.469.842,3.609.849,4.6,0,.26.258-.416.265-.671a5.005,5.005,0,0,1,.345-2.656c.149-.435,1.183-2.76,2.328-1.557a2.841,2.841,0,0,1,.4,1.379,18.527,18.527,0,0,1-.135,4.087c-.11,1.863-.583,6.955-.7,8.818-.066,1.063.073,2.511-.57,3.431a10.254,10.254,0,0,0-1.16,1.521c-1.929,4.174,4.722,9.363,8.44,7.113,1.874-1.133,1.8-3.335.472-4.863-.977-1.128-2.43-1.79-3.014-3.236a11.482,11.482,0,0,1-.618-3.7c-.226-4.552,1.588-13.865-1.607-17.723-1.133-1.367-3.651-2.035-4.511-.1A9.266,9.266,0,0,0,164.536,2129.49Z" transform="translate(-137.229 -2069.181)" fill="#80af1b"/>
        </g>
        <path id="Trazado_8572" data-name="Trazado 8572" d="M167.345,2139.151a1.466,1.466,0,0,0-1.5.815c-.27.525-.268,1.026-.748,1.449a3.334,3.334,0,0,1-1.62.647c-.108.023-.083.2.027.178a3.275,3.275,0,0,0,1.87-.833,3.152,3.152,0,0,0,.5-.943,1.92,1.92,0,0,1,1.471-1.156A.08.08,0,0,0,167.345,2139.151Z" transform="translate(-138.073 -2057.998)" fill="#9a9a9a"/>
        <path id="Trazado_8573" data-name="Trazado 8573" d="M170.511,2141.508c-.025-.089-.16-.041-.149.046.082.684.993.764,1.043,1.465.007.1.146.085.162,0C171.691,2142.314,170.678,2142.094,170.511,2141.508Z" transform="translate(-132.678 -2056.194)" fill="#9a9a9a"/>
        <path id="Trazado_8574" data-name="Trazado 8574" d="M165.27,2141.267c-.021-.605-.4-1.2-.02-1.774.05-.077-.055-.158-.108-.085a1.189,1.189,0,0,0-.2.957,2.878,2.878,0,0,1-.117,1.983c-.05.1.1.16.156.064A2.218,2.218,0,0,0,165.27,2141.267Z" transform="translate(-136.979 -2057.808)" fill="#9a9a9a"/>
        <path id="Trazado_8575" data-name="Trazado 8575" d="M166.609,2140.015a1.193,1.193,0,0,0-.63.624c-.2.474-.028,1.168-.565,1.442-.1.051-.032.214.069.163a.978.978,0,0,0,.5-.709c.133-.552.114-1.076.7-1.351C166.784,2140.134,166.713,2139.965,166.609,2140.015Z" transform="translate(-136.556 -2057.323)" fill="#9a9a9a"/>
        <path id="Trazado_8576" data-name="Trazado 8576" d="M168.539,2141c-.657-.249-1.176.523-1.348,1.085a8.064,8.064,0,0,1-.407,1.629,2.642,2.642,0,0,1-1.476,1.078c-.076.032-.043.169.041.146a2.686,2.686,0,0,0,1.678-1.178,5.7,5.7,0,0,0,.412-1.206,3.688,3.688,0,0,1,.217-.645c.231-.451.494-.528.884-.723A.1.1,0,0,0,168.539,2141Z" transform="translate(-136.632 -2056.588)" fill="#9a9a9a"/>
        <path id="Trazado_8577" data-name="Trazado 8577" d="M169.006,2146.335a3.527,3.527,0,0,1-.7-1.385,4.345,4.345,0,0,1,.318-1.586,2,2,0,0,0-.083-1.57c-.046-.077-.174-.012-.156.071.2.966-.256,1.8-.27,2.752a2.773,2.773,0,0,0,.774,1.81A.073.073,0,0,0,169.006,2146.335Z" transform="translate(-134.419 -2055.961)" fill="#9a9a9a"/>
        <path id="Trazado_8578" data-name="Trazado 8578" d="M168.824,2141.783a.078.078,0,1,0-.154.025c.071.925-.68,1.57-1.176,2.232a2.962,2.962,0,0,0-.572,1.472.069.069,0,0,0,.137.014,4.1,4.1,0,0,1,1.305-2.167A1.785,1.785,0,0,0,168.824,2141.783Z" transform="translate(-135.347 -2055.995)" fill="#9a9a9a"/>
        <path id="Trazado_8579" data-name="Trazado 8579" d="M169.133,2140.946a2.314,2.314,0,0,0-1.229.648c-.5.5-.666,1.261-1.343,1.564-.723.323-1.236-.112-1.915-.24a.888.888,0,0,0-.968.33c-.048.069.043.173.107.106.567-.582,1.254.031,1.859.146a1.709,1.709,0,0,0,1.169-.2,2.32,2.32,0,0,0,.8-.9,2.85,2.85,0,0,1,1.563-1.313C169.25,2141.059,169.213,2140.93,169.133,2140.946Z" transform="translate(-137.874 -2056.594)" fill="#9a9a9a"/>
        <path id="Trazado_8580" data-name="Trazado 8580" d="M171.358,2145.821a3.036,3.036,0,0,1-.876-1.473c-.094-.392-.076-.8-.135-1.195a2.894,2.894,0,0,0-.877-1.672c-.073-.071-.194.057-.124.132a2.923,2.923,0,0,1,.744,1.373c.092.428.057.872.158,1.3a3.353,3.353,0,0,0,1,1.687C171.335,2146.056,171.444,2145.9,171.358,2145.821Z" transform="translate(-133.482 -2056.194)" fill="#9a9a9a"/>
        <path id="Trazado_8581" data-name="Trazado 8581" d="M171.8,2143.595a2.4,2.4,0,0,0-.574-.663c-.424-.328-1.021-.463-1.169-1.069-.025-.1-.2-.12-.2,0,0,.552.362.822.808,1.054a2.167,2.167,0,0,1,1.3,2.3.072.072,0,1,0,.142.016A2.337,2.337,0,0,0,171.8,2143.595Z" transform="translate(-133.066 -2055.946)" fill="#9a9a9a"/>
        <path id="Trazado_8582" data-name="Trazado 8582" d="M169.474,2145.2a2.7,2.7,0,0,1-.245-1.92,1.764,1.764,0,0,0-.107-1.2.087.087,0,0,0-.158.073c.265.633-.057,1.217-.06,1.856a2.633,2.633,0,0,0,.412,1.261C169.369,2145.366,169.526,2145.3,169.474,2145.2Z" transform="translate(-133.809 -2055.752)" fill="#9a9a9a"/>
        <path id="Trazado_8583" data-name="Trazado 8583" d="M170.348,2143.031c-.005-.074-.131-.073-.131,0a5.865,5.865,0,0,1-.693,2.165,2.862,2.862,0,0,0-.059,1.652c.023.1.176.076.155-.025a3.1,3.1,0,0,1,.4-2.243A2.807,2.807,0,0,0,170.348,2143.031Z" transform="translate(-133.446 -2055.018)" fill="#9a9a9a"/>
        <path id="Trazado_8584" data-name="Trazado 8584" d="M169.605,2144.218c-.023-.071-.144-.036-.124.039.186.71,1.1,1.09,1.05,1.872-.007.1.153.124.16.018C170.745,2145.292,169.84,2144.948,169.605,2144.218Z" transform="translate(-133.363 -2054.084)" fill="#9a9a9a"/>
        <path id="Trazado_8585" data-name="Trazado 8585" d="M168.56,2142.611c-.4.346-.98.367-1.408.7a2.34,2.34,0,0,0-.821,1.167.078.078,0,0,0,.146.059,2.551,2.551,0,0,1,1.066-1.27,5.244,5.244,0,0,0,1.1-.55C168.7,2142.659,168.624,2142.556,168.56,2142.611Z" transform="translate(-135.809 -2055.313)" fill="#9a9a9a"/>
        <path id="Trazado_8586" data-name="Trazado 8586" d="M166.879,2143.3c.007-.592-.456-1.149-.266-1.731a.065.065,0,1,0-.121-.05,1.292,1.292,0,0,0,.037.919,2.1,2.1,0,0,1-.2,1.944.08.08,0,0,0,.126.1A1.89,1.89,0,0,0,166.879,2143.3Z" transform="translate(-135.819 -2056.182)" fill="#9a9a9a"/>
        <path id="Trazado_8587" data-name="Trazado 8587" d="M167.25,2141.174c-.652.637-2.062.209-2.39,1.263a.071.071,0,0,0,.131.053c.5-.94,1.714-.476,2.351-1.222C167.392,2141.211,167.3,2141.121,167.25,2141.174Z" transform="translate(-136.951 -2056.428)" fill="#9a9a9a"/>
      </g>
      <g id="Grupo_2584" data-name="Grupo 2584" transform="translate(0 9.593)">
        <g id="Grupo_2583" data-name="Grupo 2583">
          <path id="Trazado_8588" data-name="Trazado 8588" d="M49.546,2126.688a.547.547,0,0,0,.476.609.241.241,0,0,0,.309.281,46.666,46.666,0,0,0,6.006-2.455,39.733,39.733,0,0,1,6.06-3.38,7.531,7.531,0,0,1,7.548,1.212,24.893,24.893,0,0,0,6.046,3.209.383.383,0,0,0,.531-.385c-.051-3.064-.89-6.811-3.389-8.862a2.649,2.649,0,0,0-1.994-.536,5.279,5.279,0,0,1-2.859-.977,8.48,8.48,0,0,0-4.854-1.137C56.494,2114.569,50.36,2119.68,49.546,2126.688Z" transform="translate(-12.702 -2086.898)" fill="#6a9d13"/>
          <path id="Trazado_8589" data-name="Trazado 8589" d="M32.139,2131.453a35.407,35.407,0,0,1,12.318-4.818,18.537,18.537,0,0,0,5.61-1.925c1.613-.913,3.676-2.255,5.532-1.657a2.93,2.93,0,0,1,1.057.9c.3.4,1.082.263,1.007-.323a8.065,8.065,0,0,0-4.82-6.479c-2.977-1.235-5.745-.426-8.383,1.146-1.659.989-3.461,1.366-5.182,2.188a11.72,11.72,0,0,0-3.305,2.41c-2.188,2.241-3.392,5.065-4.515,7.938C31.3,2131.247,31.7,2131.73,32.139,2131.453Z" transform="translate(-26.764 -2085.122)" fill="#789714"/>
          <path id="Trazado_8590" data-name="Trazado 8590" d="M31.006,2119.385c2-1.556,4.175-3.177,6.68-3.793a16.419,16.419,0,0,1,4-.126c.7,0,1.389-.16,2.089-.158a8.286,8.286,0,0,1,2.412.492,19.741,19.741,0,0,1,8.163,4.321c2.012,1.911,4.055,4.051,5.033,6.694a.549.549,0,0,0,.536.361.176.176,0,0,0,.2-.039.482.482,0,0,0,.309-.49c-.011-.3-.03-.6-.044-.9.522-3.474.506-7.219-1.43-10.269a5.8,5.8,0,0,0-3.522-2.673,9.106,9.106,0,0,1-3.218-.961c-.941-.6-1.836-1.238-2.827-1.755-3.424-1.781-7.244-2.3-10.777-.525-3.8,1.911-6.12,5.678-8.26,9.188C30.114,2119.135,30.628,2119.679,31.006,2119.385Z" transform="translate(-27.643 -2091.392)" fill="#6a9d13"/>
          <path id="Trazado_8591" data-name="Trazado 8591" d="M28.8,2110.352c-.073.938.668,1.391,1.5,1.465a29.346,29.346,0,0,0,5.291-.472c1.82-.181,3.644-.41,5.474-.5a17.362,17.362,0,0,1,10.489,3.124,20.072,20.072,0,0,1,6.713,6.752c1.309,2.3,1.687,5.25,4.1,6.735.393.243.783-.146.8-.524a64.729,64.729,0,0,0-.142-8.008,20.45,20.45,0,0,0-.49-5.966,13.1,13.1,0,0,0-5.28-7.784c-5.532-3.819-12.546-4.449-18.982-2.815a13.632,13.632,0,0,0-7.4,4.8C30.2,2108,28.889,2109.242,28.8,2110.352Z" transform="translate(-28.799 -2096.782)" fill="#80af1b"/>
          <path id="Trazado_8592" data-name="Trazado 8592" d="M49.228,2122.273a.522.522,0,0,0,.938.272,5.108,5.108,0,0,0,1.922-1.909,38.871,38.871,0,0,0,2.509-3.817c.813-1.4,1.453-2.882,2.208-4.314a8.8,8.8,0,0,1,3.488-3.55,16.494,16.494,0,0,1,8.722-2.861c3.325-.021,6.651.009,9.978.014a.476.476,0,0,0,.295-.815c-2.87-2.73-6.4-5.41-10.356-6.237a7.578,7.578,0,0,0-4.87.44,21.37,21.37,0,0,1-2.984,1.634c-.948.293-1.962.323-2.918.6C49.924,2104.1,48.478,2115.112,49.228,2122.273Z" transform="translate(-13.081 -2098.852)" fill="#a5c82b"/>
          <path id="Trazado_8593" data-name="Trazado 8593" d="M50.3,2124.121c-.064.32-.119.641-.158.97-.059.49.577.973.952.5a29.375,29.375,0,0,1,5.713-6.093c2.4-1.708,5.033-1.787,7.77-2.547,1.394-.387,2.692-1.051,4.085-1.444a12.85,12.85,0,0,1,4.715-.185,8.984,8.984,0,0,1,4.905,1.567,15.711,15.711,0,0,1,2.993,3.319c.231.323.858.3.916-.161.46-3.732-1.742-8.191-4.156-10.946a11.613,11.613,0,0,0-10.992-3.511c-3.92.7-8.356,2.934-10.823,6.133a41.239,41.239,0,0,0-6.014,12.171A.191.191,0,0,0,50.3,2124.121Z" transform="translate(-12.243 -2093.794)" fill="#80af1b"/>
          <path id="Trazado_8594" data-name="Trazado 8594" d="M50.787,2116.844a33.092,33.092,0,0,1,5.106-9.827,13.028,13.028,0,0,1,8.351-5.26c4.1-.779,8.527-1.06,12.407.718.242.11.05.47-.192.364a15.346,15.346,0,0,0-7.639-1,25.843,25.843,0,0,0-6.438,1.249c-4.355,1.583-7.141,6.008-9.042,10.013-4.239,8.926-4.348,19.165-4.522,28.849-.007.374-.579.409-.584.031C48.122,2133.515,48.07,2124.969,50.787,2116.844Z" transform="translate(-13.747 -2097.069)" fill="#80af1b"/>
          <path id="Trazado_8595" data-name="Trazado 8595" d="M49.067,2131.1a57.42,57.42,0,0,1,1.881-6.268,31.7,31.7,0,0,1,5.358-9.479c4.19-4.981,10.432-8.248,17.043-6.992a12.832,12.832,0,0,1,8.488,5.467c.149.227-.2.442-.355.225a13.428,13.428,0,0,0-10.47-5.195,16.784,16.784,0,0,0-11.155,4.176,26.793,26.793,0,0,0-7.232,10.1,48.956,48.956,0,0,0-2.415,7.2c-.295,1.13-.558,2.268-.81,3.408a17.267,17.267,0,0,1-.863,3.481.322.322,0,0,1-.6-.133C47.854,2135.145,48.608,2132.974,49.067,2131.1Z" transform="translate(-13.955 -2091.684)" fill="#719716"/>
          <path id="Trazado_8596" data-name="Trazado 8596" d="M57.549,2118.369a16.021,16.021,0,0,1,9.994-2.359,11.17,11.17,0,0,1,5.2,1.836,9.233,9.233,0,0,1,2.929,4.431c.094.245-.286.361-.385.123a8.629,8.629,0,0,0-3.694-4.465,11.291,11.291,0,0,0-5.268-1.2,16.167,16.167,0,0,0-9.273,3.049c-2.961,2.08-4.726,5.49-6.077,8.818-1.469,3.621-2.73,12.144-2.945,16a.345.345,0,0,1-.689.036C46.54,2136.783,50.634,2122.543,57.549,2118.369Z" transform="translate(-14.487 -2085.606)" fill="#7ba819"/>
          <path id="Trazado_8597" data-name="Trazado 8597" d="M33.4,2126.221c2.414-2.76,5.646-4.593,8.9-6.206,3.117-1.545,6.759-2.68,10.168-1.385,3.087,1.172,4.715,4.193,5.621,7.193,1.082,3.588,1.092,12.791.678,16.527-.055.489-.847.41-.854-.071-.055-3.483.433-12-.458-15.4-.84-3.2-2.392-6.552-5.808-7.587-3.367-1.021-6.786.295-9.8,1.74a25.958,25.958,0,0,0-8.139,5.47C33.522,2126.706,33.218,2126.425,33.4,2126.221Z" transform="translate(-25.274 -2083.941)" fill="#72870f"/>
          <path id="Trazado_8598" data-name="Trazado 8598" d="M32.477,2114.13c3.279-2.5,7.077-4.349,11.292-3.727,4.358.642,7.976,3.481,10.674,6.825a23.848,23.848,0,0,1,5.239,11.91c.693,4.792.288,15.19-.426,19.986a.473.473,0,0,1-.931-.076c.108-4.473.911-14.024.517-18.5a22.456,22.456,0,0,0-4.2-11.628c-2.5-3.483-5.854-6.569-10.141-7.569-4.337-1.012-8.255.785-11.805,3.124C32.474,2114.628,32.268,2114.289,32.477,2114.13Z" transform="translate(-26.013 -2089.981)" fill="#82aa17"/>
          <path id="Trazado_8599" data-name="Trazado 8599" d="M32.178,2106.229c3.207-1.934,6.937-2.11,10.581-1.736a26.331,26.331,0,0,1,6.092,1.1,14.32,14.32,0,0,1,4.866,3.152c6.138,5.768,7.646,14.652,7.463,22.711-.123,5.493-1.323,16.135-1.554,21.626-.028.663-1.044.751-1.048.065-.057-8.485,2.359-22.075,1.039-30.552a24.6,24.6,0,0,0-4.278-10.732,17.6,17.6,0,0,0-4.167-4.127,13.641,13.641,0,0,0-5.87-2.116c-4.286-.7-8.924-1.165-12.9.952C32.172,2106.687,31.95,2106.366,32.178,2106.229Z" transform="translate(-26.251 -2094.598)" fill="#719716"/>
          <path id="Trazado_8600" data-name="Trazado 8600" d="M47.483,2136a89.873,89.873,0,0,1,3.609-20.651l.652.219a89.163,89.163,0,0,0-3.575,20.474Z" transform="translate(-14.301 -2086.051)" fill="#719716"/>
          <path id="Trazado_8601" data-name="Trazado 8601" d="M51.526,2113.239a10.456,10.456,0,0,1-.982,1.387,11.485,11.485,0,0,0-1.357,1.987,2.663,2.663,0,0,0,.366,3.229.151.151,0,0,0,.124.037,1.435,1.435,0,0,0,.4.147,2.076,2.076,0,0,0,1.875-.773,5.954,5.954,0,0,0,1.4-3.424,4.4,4.4,0,0,0-.364-1.907,7.925,7.925,0,0,0-.991-2.231A7.194,7.194,0,0,1,51.526,2113.239Z" transform="translate(-13.265 -2088.891)" fill="#c64930"/>
          <path id="Trazado_8602" data-name="Trazado 8602" d="M51.526,2113.239a10.456,10.456,0,0,1-.982,1.387,11.485,11.485,0,0,0-1.357,1.987,2.663,2.663,0,0,0,.366,3.229.151.151,0,0,0,.124.037,1.41,1.41,0,0,0,.353.133,3.424,3.424,0,0,0,.591-.618,9.805,9.805,0,0,0,1.648-3.76,5.927,5.927,0,0,0,.032-2.007,12.017,12.017,0,0,0-.261-1.877c-.014-.019-.027-.039-.041-.059A7.194,7.194,0,0,1,51.526,2113.239Z" transform="translate(-13.265 -2088.891)" fill="#e26344"/>
          <path id="Trazado_8603" data-name="Trazado 8603" d="M47.423,2132c-.254,2.241-.373,9.618-.387,11.863-.025,3.835-1.575,11-.011,14.686a.493.493,0,0,0,.941-.044,130.778,130.778,0,0,0,1.739-17.789c.039-2.667.188-10.2.565-12.853a45.21,45.21,0,0,0,.464-8.558A57.5,57.5,0,0,0,47.423,2132Z" transform="translate(-15.198 -2082.988)" fill="#98c40e"/>
          <path id="Trazado_8604" data-name="Trazado 8604" d="M44.192,2134.892c-.258,2.47.842,3.608.847,4.6,0,.261.258-.416.266-.672a5.017,5.017,0,0,1,.343-2.655c.151-.433,1.185-2.76,2.328-1.556a2.8,2.8,0,0,1,.4,1.379,18.523,18.523,0,0,1-.133,4.086c-.11,1.863-.583,6.955-.7,8.817-.066,1.064.073,2.512-.57,3.432a10.227,10.227,0,0,0-1.16,1.52c-1.929,4.174,4.721,9.363,8.438,7.113,1.875-1.133,1.8-3.336.474-4.863-.977-1.126-2.43-1.789-3.014-3.234a11.488,11.488,0,0,1-.62-3.707c-.224-4.55,1.588-13.864-1.607-17.723-1.133-1.368-3.651-2.033-4.511-.1A9.339,9.339,0,0,0,44.192,2134.892Z" transform="translate(-16.885 -2074.583)" fill="#80af1b"/>
        </g>
        <path id="Trazado_8605" data-name="Trazado 8605" d="M47,2144.552a1.467,1.467,0,0,0-1.5.817c-.27.526-.268,1.027-.746,1.449a3.37,3.37,0,0,1-1.62.646c-.11.021-.083.2.027.176a3.278,3.278,0,0,0,1.87-.833,3.146,3.146,0,0,0,.5-.943A1.917,1.917,0,0,1,47,2144.708.08.08,0,0,0,47,2144.552Z" transform="translate(-17.729 -2063.4)" fill="#9a9a9a"/>
        <path id="Trazado_8606" data-name="Trazado 8606" d="M50.167,2146.91c-.027-.091-.16-.042-.149.045.082.684.993.764,1.043,1.467.007.1.146.084.162-.005C51.347,2147.715,50.334,2147.495,50.167,2146.91Z" transform="translate(-12.334 -2061.596)" fill="#9a9a9a"/>
        <path id="Trazado_8607" data-name="Trazado 8607" d="M44.926,2146.667c-.023-.6-.4-1.2-.02-1.775a.069.069,0,0,0-.11-.083,1.19,1.19,0,0,0-.2.955,2.872,2.872,0,0,1-.115,1.985c-.052.1.1.16.155.064A2.212,2.212,0,0,0,44.926,2146.667Z" transform="translate(-16.635 -2063.21)" fill="#9a9a9a"/>
        <path id="Trazado_8608" data-name="Trazado 8608" d="M46.263,2145.416a1.2,1.2,0,0,0-.63.625c-.2.472-.027,1.167-.565,1.442-.1.05-.03.213.071.164a.987.987,0,0,0,.5-.709c.133-.554.112-1.078.7-1.353C46.441,2145.535,46.37,2145.366,46.263,2145.416Z" transform="translate(-16.212 -2062.724)" fill="#9a9a9a"/>
        <path id="Trazado_8609" data-name="Trazado 8609" d="M48.2,2146.4c-.657-.249-1.176.524-1.348,1.085a8.163,8.163,0,0,1-.407,1.629,2.651,2.651,0,0,1-1.478,1.08c-.075.032-.041.167.043.146a2.685,2.685,0,0,0,1.677-1.179,5.6,5.6,0,0,0,.414-1.2,3.568,3.568,0,0,1,.217-.646c.229-.45.494-.526.884-.723A.1.1,0,0,0,48.2,2146.4Z" transform="translate(-16.288 -2061.99)" fill="#9a9a9a"/>
        <path id="Trazado_8610" data-name="Trazado 8610" d="M48.662,2151.736a3.5,3.5,0,0,1-.7-1.385,4.35,4.35,0,0,1,.318-1.586,1.983,1.983,0,0,0-.085-1.568c-.044-.078-.172-.014-.155.071.2.966-.258,1.8-.27,2.751a2.774,2.774,0,0,0,.774,1.812C48.611,2151.9,48.712,2151.816,48.662,2151.736Z" transform="translate(-14.075 -2061.363)" fill="#9a9a9a"/>
        <path id="Trazado_8611" data-name="Trazado 8611" d="M48.48,2147.184a.079.079,0,0,0-.156.024c.071.925-.678,1.57-1.176,2.234a2.95,2.95,0,0,0-.57,1.47.068.068,0,0,0,.135.016,4.1,4.1,0,0,1,1.307-2.168A1.788,1.788,0,0,0,48.48,2147.184Z" transform="translate(-15.003 -2061.396)" fill="#9a9a9a"/>
        <path id="Trazado_8612" data-name="Trazado 8612" d="M48.789,2146.346a2.35,2.35,0,0,0-1.231.648c-.494.5-.666,1.263-1.341,1.565-.723.325-1.238-.112-1.915-.24a.889.889,0,0,0-.97.331c-.046.069.044.172.108.108.567-.584,1.252.029,1.858.144a1.705,1.705,0,0,0,1.169-.2,2.309,2.309,0,0,0,.8-.9,2.836,2.836,0,0,1,1.563-1.311A.075.075,0,0,0,48.789,2146.346Z" transform="translate(-17.53 -2061.996)" fill="#9a9a9a"/>
        <path id="Trazado_8613" data-name="Trazado 8613" d="M51.014,2151.222a3,3,0,0,1-.876-1.47c-.094-.394-.078-.8-.137-1.2a2.871,2.871,0,0,0-.877-1.671c-.073-.071-.192.057-.123.131a2.925,2.925,0,0,1,.744,1.373c.092.428.055.872.156,1.3a3.363,3.363,0,0,0,1,1.688C50.991,2151.457,51.1,2151.3,51.014,2151.222Z" transform="translate(-13.138 -2061.595)" fill="#9a9a9a"/>
        <path id="Trazado_8614" data-name="Trazado 8614" d="M51.456,2149a2.366,2.366,0,0,0-.572-.664c-.424-.328-1.021-.463-1.17-1.069-.025-.1-.2-.121-.2.005,0,.551.362.821.81,1.053a2.171,2.171,0,0,1,1.3,2.3.072.072,0,0,0,.144.016A2.325,2.325,0,0,0,51.456,2149Z" transform="translate(-12.722 -2061.348)" fill="#9a9a9a"/>
        <path id="Trazado_8615" data-name="Trazado 8615" d="M49.128,2150.6a2.7,2.7,0,0,1-.243-1.922,1.77,1.77,0,0,0-.107-1.2.087.087,0,0,0-.158.073c.263.632-.057,1.215-.06,1.856a2.629,2.629,0,0,0,.41,1.259C49.024,2150.768,49.182,2150.7,49.128,2150.6Z" transform="translate(-13.465 -2061.153)" fill="#9a9a9a"/>
        <path id="Trazado_8616" data-name="Trazado 8616" d="M50,2148.432c-.005-.074-.131-.073-.13,0a5.9,5.9,0,0,1-.693,2.165,2.882,2.882,0,0,0-.06,1.654c.025.1.178.076.155-.027a3.108,3.108,0,0,1,.4-2.243A2.8,2.8,0,0,0,50,2148.432Z" transform="translate(-13.102 -2060.42)" fill="#9a9a9a"/>
        <path id="Trazado_8617" data-name="Trazado 8617" d="M49.26,2149.619c-.023-.072-.144-.036-.124.039.188.71,1.1,1.093,1.05,1.872-.005.107.153.125.16.018C50.4,2150.694,49.5,2150.351,49.26,2149.619Z" transform="translate(-13.019 -2059.486)" fill="#9a9a9a"/>
        <path id="Trazado_8618" data-name="Trazado 8618" d="M48.216,2148.013c-.4.346-.98.367-1.408.7a2.346,2.346,0,0,0-.821,1.167.078.078,0,1,0,.144.061,2.564,2.564,0,0,1,1.067-1.272,5.116,5.116,0,0,0,1.1-.551C48.358,2148.059,48.28,2147.956,48.216,2148.013Z" transform="translate(-15.465 -2060.714)" fill="#9a9a9a"/>
        <path id="Trazado_8619" data-name="Trazado 8619" d="M46.533,2148.7c.007-.59-.455-1.149-.265-1.73.027-.082-.091-.131-.121-.05a1.276,1.276,0,0,0,.037.916,2.106,2.106,0,0,1-.2,1.947.079.079,0,0,0,.126.1A1.884,1.884,0,0,0,46.533,2148.7Z" transform="translate(-15.475 -2061.583)" fill="#9a9a9a"/>
        <path id="Trazado_8620" data-name="Trazado 8620" d="M46.9,2146.576c-.652.637-2.062.209-2.389,1.261a.071.071,0,0,0,.131.053c.5-.938,1.714-.474,2.351-1.22C47.049,2146.612,46.96,2146.521,46.9,2146.576Z" transform="translate(-16.606 -2061.83)" fill="#9a9a9a"/>
      </g>
      <g id="Grupo_2585" data-name="Grupo 2585" transform="translate(184.452 21.701)">
        <path id="Trazado_8621" data-name="Trazado 8621" d="M142.506,2120.4a.249.249,0,0,0,.218.276c-.016.071.06.162.142.126a21.274,21.274,0,0,0,2.733-1.142,18.123,18.123,0,0,1,2.751-1.564,3.435,3.435,0,0,1,3.451.524,11.3,11.3,0,0,0,2.771,1.442.176.176,0,0,0,.242-.177,5.4,5.4,0,0,0-1.581-4.032,1.206,1.206,0,0,0-.913-.238,2.4,2.4,0,0,1-1.309-.435,3.879,3.879,0,0,0-2.218-.5A6.589,6.589,0,0,0,142.506,2120.4Z" transform="translate(-125.015 -2098.68)" fill="#6a9d13"/>
        <path id="Trazado_8622" data-name="Trazado 8622" d="M134.681,2122.367a16.161,16.161,0,0,1,5.463-2.567,8.556,8.556,0,0,0,2.5-1.048c.707-.465,1.606-1.139,2.469-.923a1.342,1.342,0,0,1,.508.376c.149.172.5.087.449-.178a3.685,3.685,0,0,0-2.392-2.8,4.1,4.1,0,0,0-3.783.776c-.725.5-1.534.729-2.293,1.155a5.341,5.341,0,0,0-1.431,1.2,10.33,10.33,0,0,0-1.813,3.751A.219.219,0,0,0,134.681,2122.367Z" transform="translate(-131.349 -2098.405)" fill="#789714"/>
        <path id="Trazado_8623" data-name="Trazado 8623" d="M133.868,2117.072a8.539,8.539,0,0,1,2.884-1.992,7.517,7.517,0,0,1,1.815-.217c.316-.03.623-.128.941-.154a3.78,3.78,0,0,1,1.117.126,9.038,9.038,0,0,1,3.884,1.638,8.548,8.548,0,0,1,2.556,2.841.248.248,0,0,0,.258.142.078.078,0,0,0,.089-.024.22.22,0,0,0,.121-.236c-.016-.135-.037-.271-.055-.405a6.773,6.773,0,0,0-1.062-4.612,2.647,2.647,0,0,0-1.707-1.074,4.121,4.121,0,0,1-1.5-.307c-.451-.232-.883-.489-1.355-.684a5.282,5.282,0,0,0-4.921.192c-1.65,1.021-2.554,2.827-3.387,4.507C133.453,2117,133.708,2117.22,133.868,2117.072Z" transform="translate(-131.984 -2101.068)" fill="#6a9d13"/>
        <path id="Trazado_8624" data-name="Trazado 8624" d="M132.657,2111.515c-.005.43.346.613.728.622a13.417,13.417,0,0,0,2.4-.377c.824-.138,1.646-.3,2.478-.392a7.926,7.926,0,0,1,4.872,1.1,9.18,9.18,0,0,1,3.263,2.87c.664,1.007.927,2.339,2.069,2.943.186.1.352-.091.348-.263a29.291,29.291,0,0,0-.309-3.643,9.37,9.37,0,0,0-.4-2.7,5.993,5.993,0,0,0-2.641-3.384,10.618,10.618,0,0,0-8.731-.7A6.221,6.221,0,0,0,133.5,2110C133.222,2110.4,132.661,2111.007,132.657,2111.515Z" transform="translate(-132.657 -2104.654)" fill="#80af1b"/>
        <path id="Trazado_8625" data-name="Trazado 8625" d="M142.379,2116.458a.238.238,0,0,0,.43.118,2.315,2.315,0,0,0,.865-.881,17.409,17.409,0,0,0,1.124-1.756c.362-.645.646-1.323.982-1.98a4.019,4.019,0,0,1,1.572-1.641,7.528,7.528,0,0,1,3.964-1.355c1.517-.028,3.035-.034,4.554-.05a.218.218,0,0,0,.13-.375,10.336,10.336,0,0,0-4.761-2.786,3.457,3.457,0,0,0-2.22.229,9.91,9.91,0,0,1-1.352.762c-.432.139-.9.158-1.328.29C142.592,2108.161,142,2113.194,142.379,2116.458Z" transform="translate(-125.19 -2105.668)" fill="#a5c82b"/>
        <path id="Trazado_8626" data-name="Trazado 8626" d="M142.673,2118.225c-.02.147-.034.295-.043.446-.012.225.293.426.449.2a13.379,13.379,0,0,1,2.415-2.948c1.043-.851,2.238-.966,3.461-1.4.622-.218,1.193-.561,1.815-.781a5.855,5.855,0,0,1,2.142-.227,4.09,4.09,0,0,1,2.282.564,7.169,7.169,0,0,1,1.463,1.419c.115.14.4.112.412-.1a7.137,7.137,0,0,0-2.225-4.858,5.3,5.3,0,0,0-5.113-1.264,8.4,8.4,0,0,0-4.74,3.122,18.806,18.806,0,0,0-2.369,5.724A.089.089,0,0,0,142.673,2118.225Z" transform="translate(-124.925 -2103.013)" fill="#80af1b"/>
        <path id="Trazado_8627" data-name="Trazado 8627" d="M142.938,2113.955a15.1,15.1,0,0,1,2.273-4.515,5.951,5.951,0,0,1,3.781-2.448,9.359,9.359,0,0,1,5.665.258c.11.048.025.213-.085.165a7.016,7.016,0,0,0-3.492-.414,11.8,11.8,0,0,0-2.93.6c-1.978.748-3.225,2.783-4.071,4.622-1.883,4.1-1.874,8.77-1.9,13.192,0,.169-.261.188-.265.016C141.815,2121.577,141.742,2117.678,142.938,2113.955Z" transform="translate(-125.511 -2104.882)" fill="#80af1b"/>
        <path id="Trazado_8628" data-name="Trazado 8628" d="M142.207,2121.483a26.264,26.264,0,0,1,.664-2.912,14.477,14.477,0,0,1,2.153-4.479,8.288,8.288,0,0,1,7.548-3.7,5.843,5.843,0,0,1,4.03,2.231c.076.1-.075.208-.153.113a6.14,6.14,0,0,0-4.927-2.048,7.66,7.66,0,0,0-4.953,2.242,12.26,12.26,0,0,0-2.985,4.816,22.258,22.258,0,0,0-.881,3.352c-.1.523-.185,1.049-.265,1.577a7.777,7.777,0,0,1-.288,1.611.148.148,0,0,1-.279-.042A10.494,10.494,0,0,1,142.207,2121.483Z" transform="translate(-125.521 -2102.045)" fill="#719716"/>
        <path id="Trazado_8629" data-name="Trazado 8629" d="M145.764,2116.8a7.308,7.308,0,0,1,4.479-1.378,5.1,5.1,0,0,1,2.424.677,4.224,4.224,0,0,1,1.469,1.929c.05.11-.119.174-.172.069a3.936,3.936,0,0,0-1.817-1.922,5.181,5.181,0,0,0-2.437-.385,7.374,7.374,0,0,0-4.129,1.671,8.614,8.614,0,0,0-2.685,4.037,15.557,15.557,0,0,0-.558,5.168.157.157,0,0,1-.313.037C141.42,2123.151,142.742,2118.911,145.764,2116.8Z" transform="translate(-125.498 -2098.105)" fill="#7ba819"/>
        <path id="Trazado_8630" data-name="Trazado 8630" d="M135.177,2119.915a12.667,12.667,0,0,1,3.865-3.1,5.862,5.862,0,0,1,4.589-.94,4.7,4.7,0,0,1,2.778,3.1,13.346,13.346,0,0,1,.922,5.134c-.011.224-.373.214-.391-.005a19.226,19.226,0,0,0-.789-4.628c-.48-1.429-1.288-2.91-2.875-3.278a6.263,6.263,0,0,0-4.41,1.093,11.863,11.863,0,0,0-3.54,2.737C135.25,2120.132,135.1,2120.013,135.177,2119.915Z" transform="translate(-130.717 -2097.879)" fill="#72870f"/>
        <path id="Trazado_8631" data-name="Trazado 8631" d="M134.448,2114.354a6.889,6.889,0,0,1,5.028-2.041,7.972,7.972,0,0,1,5.069,2.783,10.868,10.868,0,0,1,2.747,5.264,23.846,23.846,0,0,1,.524,6.744.216.216,0,0,1-.426-.007,54.15,54.15,0,0,0-.437-6.066,10.249,10.249,0,0,0-2.264-5.169,8.237,8.237,0,0,0-4.849-3.138c-2.005-.329-3.735.609-5.28,1.781C134.461,2114.58,134.358,2114.432,134.448,2114.354Z" transform="translate(-131.294 -2100.525)" fill="#82aa17"/>
        <path id="Trazado_8632" data-name="Trazado 8632" d="M134.159,2109.425a7.651,7.651,0,0,1,4.765-1.114,12.03,12.03,0,0,1,2.808.314,6.52,6.52,0,0,1,2.311,1.288c2.971,2.44,3.929,6.44,4.09,10.115.11,2.506,0,5.019.06,7.525.007.3-.453.375-.476.062-.284-3.861.293-7.754-.567-11.574a11.205,11.205,0,0,0-2.275-4.756,8.021,8.021,0,0,0-2.021-1.753,6.214,6.214,0,0,0-2.739-.785c-1.973-.19-4.1-.259-5.847.826C134.17,2109.635,134.06,2109.494,134.159,2109.425Z" transform="translate(-131.522 -2103.626)" fill="#719716"/>
        <path id="Trazado_8633" data-name="Trazado 8633" d="M141.4,2121.245a39.562,39.562,0,0,0,.407,4.211c.147,2.417-.433,4.944.707,7.2.128.252.554.26.591-.067a55.267,55.267,0,0,0,.252-9.232,36.648,36.648,0,0,1-.337-4.841,28.514,28.514,0,0,0-.067-5.412A36.264,36.264,0,0,0,141.4,2121.245Z" transform="translate(-125.876 -2099.901)" fill="#98c40e"/>
        <path id="Trazado_8634" data-name="Trazado 8634" d="M140.01,2121.328c-.059,1.566.682,2.238.728,2.861.012.165.144-.271.139-.433a3.167,3.167,0,0,1,.1-1.687c.076-.281.629-1.789,1.4-1.08a1.779,1.779,0,0,1,.313.852,11.718,11.718,0,0,1,.089,2.581q.013,1.767.027,3.535a4.365,4.365,0,0,1-.215,2.186,6.5,6.5,0,0,0-.668,1.008c-1.039,2.709,3.369,5.7,5.616,4.125a1.941,1.941,0,0,0,.094-3.083c-.662-.669-1.606-1.025-2.035-1.911a7.244,7.244,0,0,1-.545-2.309c-.334-2.858.321-6.752-1.854-9.048-.771-.814-2.385-1.128-2.847.125A5.9,5.9,0,0,0,140.01,2121.328Z" transform="translate(-126.953 -2095.937)" fill="#80af1b"/>
        <path id="Trazado_8635" data-name="Trazado 8635" d="M142.281,2126.159a.923.923,0,0,0-.909.577c-.149.343-.126.657-.41.945a2.113,2.113,0,0,1-.993.474c-.068.019-.044.129.023.11a2.06,2.06,0,0,0,1.144-.6,1.971,1.971,0,0,0,.277-.616,1.211,1.211,0,0,1,.877-.791A.05.05,0,0,0,142.281,2126.159Z" transform="translate(-127.014 -2089.771)" fill="#9a9a9a"/>
        <path id="Trazado_8636" data-name="Trazado 8636" d="M144.43,2127.443c-.02-.055-.1-.019-.092.036.082.426.659.439.719.879.009.062.094.048.1-.009C145.208,2127.9,144.559,2127.805,144.43,2127.443Z" transform="translate(-123.594 -2088.793)" fill="#9a9a9a"/>
        <path id="Trazado_8637" data-name="Trazado 8637" d="M141.078,2127.517c-.039-.38-.305-.739-.087-1.117a.044.044,0,0,0-.073-.048.749.749,0,0,0-.082.611,1.824,1.824,0,0,1,.011,1.254c-.028.065.071.1.1.034A1.392,1.392,0,0,0,141.078,2127.517Z" transform="translate(-126.332 -2089.634)" fill="#9a9a9a"/>
        <path id="Trazado_8638" data-name="Trazado 8638" d="M141.87,2126.688a.757.757,0,0,0-.371.421c-.108.307.032.737-.295.932-.062.036-.011.137.05.1a.613.613,0,0,0,.286-.467c.06-.354.027-.684.382-.882C141.986,2126.757,141.934,2126.654,141.87,2126.688Z" transform="translate(-126.046 -2089.363)" fill="#9a9a9a"/>
        <path id="Trazado_8639" data-name="Trazado 8639" d="M143.095,2127.26c-.423-.128-.718.381-.8.741a5.157,5.157,0,0,1-.188,1.045,1.66,1.66,0,0,1-.884.74c-.046.025-.02.108.032.091a1.687,1.687,0,0,0,1.007-.813,3.508,3.508,0,0,0,.21-.776,2.242,2.242,0,0,1,.11-.416c.126-.293.288-.353.527-.492A.067.067,0,0,0,143.095,2127.26Z" transform="translate(-126.031 -2088.929)" fill="#9a9a9a"/>
        <path id="Trazado_8640" data-name="Trazado 8640" d="M143.634,2130.553a2.213,2.213,0,0,1-.5-.844,2.7,2.7,0,0,1,.133-1.012,1.266,1.266,0,0,0-.119-.986c-.032-.046-.11,0-.1.052a7.573,7.573,0,0,1-.053,1.746,1.751,1.751,0,0,0,.563,1.108A.047.047,0,0,0,143.634,2130.553Z" transform="translate(-124.63 -2088.579)" fill="#9a9a9a"/>
        <path id="Trazado_8641" data-name="Trazado 8641" d="M143.31,2127.719a.05.05,0,0,0-.1.023c.083.58-.361,1.018-.646,1.456a1.856,1.856,0,0,0-.3.952.043.043,0,1,0,.085,0,2.6,2.6,0,0,1,.732-1.421A1.125,1.125,0,0,0,143.31,2127.719Z" transform="translate(-125.198 -2088.587)" fill="#9a9a9a"/>
        <path id="Trazado_8642" data-name="Trazado 8642" d="M143.5,2127.246a1.457,1.457,0,0,0-.748.461c-.291.334-.366.823-.78,1.041-.44.234-.783-.018-1.217-.069a.557.557,0,0,0-.595.249c-.028.044.034.106.071.062.332-.39.79-.034,1.177.015a1.094,1.094,0,0,0,.728-.178,1.5,1.5,0,0,0,.464-.6,1.789,1.789,0,0,1,.929-.892A.048.048,0,0,0,143.5,2127.246Z" transform="translate(-126.842 -2088.926)" fill="#9a9a9a"/>
        <path id="Trazado_8643" data-name="Trazado 8643" d="M145.144,2130.124a1.91,1.91,0,0,1-.613-.889c-.076-.244-.082-.5-.137-.748a1.812,1.812,0,0,0-.622-1.016c-.05-.041-.121.044-.073.089a1.84,1.84,0,0,1,.526.833c.076.266.073.547.155.811a2.124,2.124,0,0,0,.7,1.022C145.14,2130.273,145.2,2130.172,145.144,2130.124Z" transform="translate(-124.1 -2088.759)" fill="#9a9a9a"/>
        <path id="Trazado_8644" data-name="Trazado 8644" d="M145.33,2128.7a1.481,1.481,0,0,0-.389-.392c-.281-.19-.662-.249-.781-.625-.02-.064-.13-.068-.124.012.023.346.263.5.554.628a1.373,1.373,0,0,1,.918,1.395.045.045,0,1,0,.091.005A1.476,1.476,0,0,0,145.33,2128.7Z" transform="translate(-123.828 -2088.62)" fill="#9a9a9a"/>
        <path id="Trazado_8645" data-name="Trazado 8645" d="M143.916,2129.81a1.709,1.709,0,0,1-.234-1.2,1.114,1.114,0,0,0-.117-.749.055.055,0,0,0-.1.053c.192.387.014.767.039,1.172a1.656,1.656,0,0,0,.313.776C143.857,2129.924,143.953,2129.872,143.916,2129.81Z" transform="translate(-124.273 -2088.468)" fill="#9a9a9a"/>
        <path id="Trazado_8646" data-name="Trazado 8646" d="M144.336,2128.425c-.007-.048-.085-.041-.082.007a3.722,3.722,0,0,1-.346,1.392,1.834,1.834,0,0,0,.032,1.044c.02.062.115.041.1-.023a1.958,1.958,0,0,1,.156-1.429A1.758,1.758,0,0,0,144.336,2128.425Z" transform="translate(-123.974 -2088.035)" fill="#9a9a9a"/>
        <path id="Trazado_8647" data-name="Trazado 8647" d="M143.972,2129.188c-.016-.044-.091-.016-.076.029.147.44.737.641.741,1.136,0,.066.1.071.1,0C144.736,2129.817,144.152,2129.638,143.972,2129.188Z" transform="translate(-123.937 -2087.434)" fill="#9a9a9a"/>
        <path id="Trazado_8648" data-name="Trazado 8648" d="M143.213,2128.261c-.238.234-.6.271-.858.5a1.467,1.467,0,0,0-.467.769.049.049,0,1,0,.092.032,1.611,1.611,0,0,1,.62-.845,3.418,3.418,0,0,0,.668-.393C143.3,2128.284,143.252,2128.222,143.213,2128.261Z" transform="translate(-125.495 -2088.146)" fill="#9a9a9a"/>
        <path id="Trazado_8649" data-name="Trazado 8649" d="M142.181,2128.726c-.021-.373-.336-.705-.24-1.08a.042.042,0,0,0-.08-.025.822.822,0,0,0,.062.576,1.325,1.325,0,0,1-.044,1.234.051.051,0,0,0,.084.057A1.2,1.2,0,0,0,142.181,2128.726Z" transform="translate(-125.537 -2088.656)" fill="#9a9a9a"/>
        <path id="Trazado_8650" data-name="Trazado 8650" d="M142.339,2127.413c-.384.43-1.291.22-1.453.9a.045.045,0,0,0,.085.03c.273-.613,1.06-.373,1.43-.868C142.429,2127.431,142.37,2127.377,142.339,2127.413Z" transform="translate(-126.273 -2088.804)" fill="#9a9a9a"/>
      </g>
      <g id="Grupo_2586" data-name="Grupo 2586" transform="translate(64.609 29.672)">
        <path id="Trazado_8651" data-name="Trazado 8651" d="M75.026,2124.892a.251.251,0,0,0,.22.277.109.109,0,0,0,.142.126,21.215,21.215,0,0,0,2.731-1.142,17.773,17.773,0,0,1,2.753-1.564,3.432,3.432,0,0,1,3.449.524,11.421,11.421,0,0,0,2.771,1.44.174.174,0,0,0,.242-.178,5.4,5.4,0,0,0-1.579-4.031,1.208,1.208,0,0,0-.913-.236,2.43,2.43,0,0,1-1.309-.436,3.869,3.869,0,0,0-2.218-.5A6.593,6.593,0,0,0,75.026,2124.892Z" transform="translate(-57.536 -2103.168)" fill="#6a9d13"/>
        <path id="Trazado_8652" data-name="Trazado 8652" d="M67.2,2126.856a16.16,16.16,0,0,1,5.463-2.57,8.417,8.417,0,0,0,2.5-1.048c.707-.464,1.6-1.139,2.469-.922a1.344,1.344,0,0,1,.508.375c.147.172.5.087.448-.176a3.674,3.674,0,0,0-2.39-2.8,4.1,4.1,0,0,0-3.783.776c-.725.5-1.534.726-2.293,1.155a5.334,5.334,0,0,0-1.431,1.2,10.357,10.357,0,0,0-1.815,3.753A.22.22,0,0,0,67.2,2126.856Z" transform="translate(-63.87 -2102.893)" fill="#789714"/>
        <path id="Trazado_8653" data-name="Trazado 8653" d="M66.389,2121.561a8.512,8.512,0,0,1,2.886-1.992,7.371,7.371,0,0,1,1.813-.217c.318-.03.625-.13.943-.156a3.763,3.763,0,0,1,1.115.128,8.992,8.992,0,0,1,3.884,1.637,8.5,8.5,0,0,1,2.557,2.842.25.25,0,0,0,.258.142.081.081,0,0,0,.089-.027.219.219,0,0,0,.121-.235c-.016-.135-.037-.27-.055-.405a6.781,6.781,0,0,0-1.062-4.612,2.645,2.645,0,0,0-1.707-1.074,4.155,4.155,0,0,1-1.5-.307c-.451-.235-.884-.49-1.355-.684a5.275,5.275,0,0,0-4.921.192c-1.65,1.022-2.556,2.826-3.387,4.508C65.973,2121.483,66.229,2121.71,66.389,2121.561Z" transform="translate(-64.504 -2105.556)" fill="#6a9d13"/>
        <path id="Trazado_8654" data-name="Trazado 8654" d="M65.178,2116c0,.43.346.613.73.622a13.464,13.464,0,0,0,2.4-.377c.822-.138,1.646-.3,2.476-.393a7.936,7.936,0,0,1,4.872,1.1,9.169,9.169,0,0,1,3.263,2.872c.666,1.005.929,2.339,2.071,2.941.186.1.352-.089.348-.263a29.613,29.613,0,0,0-.309-3.641,9.3,9.3,0,0,0-.4-2.7,5.981,5.981,0,0,0-2.641-3.384,10.614,10.614,0,0,0-8.729-.705,6.224,6.224,0,0,0-3.223,2.412C65.745,2114.89,65.183,2115.5,65.178,2116Z" transform="translate(-65.178 -2109.142)" fill="#80af1b"/>
        <path id="Trazado_8655" data-name="Trazado 8655" d="M74.9,2120.948a.238.238,0,0,0,.43.117,2.317,2.317,0,0,0,.867-.881,17.755,17.755,0,0,0,1.122-1.756c.364-.645.646-1.323.984-1.982a4,4,0,0,1,1.572-1.639,7.51,7.51,0,0,1,3.962-1.355c1.518-.028,3.037-.035,4.554-.052a.217.217,0,0,0,.13-.373,10.307,10.307,0,0,0-4.761-2.786,3.449,3.449,0,0,0-2.218.227,9.813,9.813,0,0,1-1.353.764c-.432.139-.893.158-1.328.29C75.114,2112.649,74.518,2117.684,74.9,2120.948Z" transform="translate(-57.711 -2110.157)" fill="#a5c82b"/>
        <path id="Trazado_8656" data-name="Trazado 8656" d="M75.2,2122.715c-.02.145-.036.294-.043.446-.012.226.291.427.448.2a13.412,13.412,0,0,1,2.417-2.948c1.043-.851,2.238-.966,3.46-1.4.623-.22,1.2-.561,1.817-.781a5.806,5.806,0,0,1,2.142-.227,4.077,4.077,0,0,1,2.28.563,7.124,7.124,0,0,1,1.463,1.42c.115.141.4.112.412-.1a7.123,7.123,0,0,0-2.224-4.857,5.3,5.3,0,0,0-5.113-1.266,8.4,8.4,0,0,0-4.742,3.124,18.836,18.836,0,0,0-2.367,5.724A.088.088,0,0,0,75.2,2122.715Z" transform="translate(-57.446 -2107.502)" fill="#80af1b"/>
        <path id="Trazado_8657" data-name="Trazado 8657" d="M75.459,2118.444a15.083,15.083,0,0,1,2.275-4.514,5.952,5.952,0,0,1,3.779-2.45,9.4,9.4,0,0,1,5.667.258c.11.05.025.215-.085.167a7,7,0,0,0-3.492-.414,11.713,11.713,0,0,0-2.93.605c-1.98.748-3.225,2.783-4.071,4.621-1.883,4.1-1.874,8.77-1.9,13.191,0,.17-.261.19-.266.018C74.336,2126.067,74.265,2122.167,75.459,2118.444Z" transform="translate(-58.032 -2109.371)" fill="#80af1b"/>
        <path id="Trazado_8658" data-name="Trazado 8658" d="M74.727,2125.971a26.367,26.367,0,0,1,.666-2.911,14.479,14.479,0,0,1,2.151-4.479,8.3,8.3,0,0,1,7.55-3.7,5.856,5.856,0,0,1,4.03,2.233c.075.1-.076.206-.155.113a6.127,6.127,0,0,0-4.927-2.048,7.662,7.662,0,0,0-4.952,2.241,12.2,12.2,0,0,0-2.985,4.817,22.484,22.484,0,0,0-.883,3.351c-.1.524-.183,1.05-.263,1.577a8.036,8.036,0,0,1-.288,1.611.148.148,0,0,1-.279-.042A10.512,10.512,0,0,1,74.727,2125.971Z" transform="translate(-58.042 -2106.533)" fill="#719716"/>
        <path id="Trazado_8659" data-name="Trazado 8659" d="M78.284,2121.289a7.31,7.31,0,0,1,4.479-1.377,5.067,5.067,0,0,1,2.426.677,4.206,4.206,0,0,1,1.467,1.928c.051.109-.119.172-.171.068a3.943,3.943,0,0,0-1.819-1.92,5.147,5.147,0,0,0-2.435-.386,7.365,7.365,0,0,0-4.129,1.671,8.6,8.6,0,0,0-2.685,4.035,15.621,15.621,0,0,0-.559,5.17.157.157,0,0,1-.311.037C73.942,2127.64,75.263,2123.4,78.284,2121.289Z" transform="translate(-58.018 -2102.593)" fill="#7ba819"/>
        <path id="Trazado_8660" data-name="Trazado 8660" d="M67.7,2124.4a12.721,12.721,0,0,1,3.865-3.1,5.865,5.865,0,0,1,4.587-.94,4.7,4.7,0,0,1,2.778,3.1,13.316,13.316,0,0,1,.922,5.136c-.009.224-.373.213-.391-.007a19.19,19.19,0,0,0-.787-4.626c-.48-1.431-1.288-2.911-2.875-3.279a6.267,6.267,0,0,0-4.41,1.091,11.8,11.8,0,0,0-3.54,2.739A.1.1,0,0,1,67.7,2124.4Z" transform="translate(-63.238 -2102.368)" fill="#72870f"/>
        <path id="Trazado_8661" data-name="Trazado 8661" d="M66.969,2118.842A6.9,6.9,0,0,1,72,2116.8a7.978,7.978,0,0,1,5.067,2.783,10.9,10.9,0,0,1,2.749,5.266,23.91,23.91,0,0,1,.524,6.743.216.216,0,0,1-.426-.007,54.2,54.2,0,0,0-.437-6.069,10.266,10.266,0,0,0-2.266-5.166,8.231,8.231,0,0,0-4.847-3.139c-2.007-.328-3.735.609-5.282,1.782C66.983,2119.069,66.879,2118.922,66.969,2118.842Z" transform="translate(-63.815 -2105.014)" fill="#82aa17"/>
        <path id="Trazado_8662" data-name="Trazado 8662" d="M66.68,2113.912a7.667,7.667,0,0,1,4.765-1.112,12.136,12.136,0,0,1,2.808.313,6.535,6.535,0,0,1,2.312,1.29c2.969,2.44,3.927,6.438,4.09,10.115.11,2.5,0,5.017.059,7.524.007.3-.451.374-.474.063-.284-3.863.291-7.754-.567-11.574a11.233,11.233,0,0,0-2.275-4.758,8.065,8.065,0,0,0-2.023-1.753,6.265,6.265,0,0,0-2.737-.785c-1.973-.188-4.1-.258-5.847.825C66.692,2114.122,66.582,2113.981,66.68,2113.912Z" transform="translate(-64.042 -2108.114)" fill="#719716"/>
        <path id="Trazado_8663" data-name="Trazado 8663" d="M73.925,2125.733a39.6,39.6,0,0,0,.407,4.213c.147,2.417-.435,4.944.707,7.2a.311.311,0,0,0,.591-.067,55.639,55.639,0,0,0,.252-9.23,36.942,36.942,0,0,1-.339-4.841,28.52,28.52,0,0,0-.067-5.412A36.265,36.265,0,0,0,73.925,2125.733Z" transform="translate(-58.396 -2104.389)" fill="#98c40e"/>
        <path id="Trazado_8664" data-name="Trazado 8664" d="M72.532,2125.815c-.059,1.566.682,2.237.726,2.863.012.163.146-.274.14-.433a3.148,3.148,0,0,1,.1-1.687c.076-.281.629-1.791,1.4-1.08a1.79,1.79,0,0,1,.313.852,11.592,11.592,0,0,1,.087,2.579q.016,1.768.027,3.536a4.37,4.37,0,0,1-.213,2.186,6.5,6.5,0,0,0-.668,1.005c-1.039,2.712,3.369,5.7,5.616,4.127a1.942,1.942,0,0,0,.092-3.085c-.661-.668-1.606-1.025-2.034-1.911a7.287,7.287,0,0,1-.547-2.307c-.332-2.858.323-6.752-1.852-9.049-.773-.813-2.387-1.127-2.847.126A5.894,5.894,0,0,0,72.532,2125.815Z" transform="translate(-59.473 -2100.425)" fill="#80af1b"/>
        <path id="Trazado_8665" data-name="Trazado 8665" d="M74.8,2130.649a.927.927,0,0,0-.911.575c-.147.343-.126.659-.41.945a2.1,2.1,0,0,1-.993.476c-.067.018-.044.128.025.11a2.061,2.061,0,0,0,1.144-.6,1.986,1.986,0,0,0,.275-.615,1.213,1.213,0,0,1,.877-.79A.05.05,0,0,0,74.8,2130.649Z" transform="translate(-59.535 -2094.259)" fill="#9a9a9a"/>
        <path id="Trazado_8666" data-name="Trazado 8666" d="M76.952,2131.932c-.021-.055-.1-.019-.092.036.08.426.657.439.719.879.007.062.094.046.1-.009C77.728,2132.39,77.081,2132.295,76.952,2131.932Z" transform="translate(-56.114 -2093.281)" fill="#9a9a9a"/>
        <path id="Trazado_8667" data-name="Trazado 8667" d="M73.6,2132.007c-.039-.382-.305-.739-.087-1.119.028-.048-.043-.1-.073-.048a.758.758,0,0,0-.083.611,1.807,1.807,0,0,1,.011,1.256c-.028.064.073.1.1.033A1.389,1.389,0,0,0,73.6,2132.007Z" transform="translate(-58.852 -2094.123)" fill="#9a9a9a"/>
        <path id="Trazado_8668" data-name="Trazado 8668" d="M74.391,2131.177a.767.767,0,0,0-.371.421c-.107.306.032.737-.295.933-.06.036-.011.135.052.1a.62.62,0,0,0,.286-.467c.06-.355.025-.684.382-.883C74.508,2131.244,74.457,2131.142,74.391,2131.177Z" transform="translate(-58.567 -2093.851)" fill="#9a9a9a"/>
        <path id="Trazado_8669" data-name="Trazado 8669" d="M75.617,2131.749c-.424-.129-.719.381-.8.741a5.13,5.13,0,0,1-.188,1.043,1.668,1.668,0,0,1-.884.742c-.048.023-.02.108.032.09a1.692,1.692,0,0,0,1.007-.813,3.528,3.528,0,0,0,.21-.776,2.348,2.348,0,0,1,.108-.416c.126-.294.289-.353.527-.494A.065.065,0,0,0,75.617,2131.749Z" transform="translate(-58.552 -2093.418)" fill="#9a9a9a"/>
        <path id="Trazado_8670" data-name="Trazado 8670" d="M76.156,2135.041a2.2,2.2,0,0,1-.5-.842,2.767,2.767,0,0,1,.133-1.012,1.251,1.251,0,0,0-.119-.986c-.032-.048-.108,0-.094.052a7.55,7.55,0,0,1-.055,1.744,1.755,1.755,0,0,0,.565,1.108C76.132,2135.149,76.192,2135.089,76.156,2135.041Z" transform="translate(-57.151 -2093.067)" fill="#9a9a9a"/>
        <path id="Trazado_8671" data-name="Trazado 8671" d="M75.833,2132.208a.05.05,0,0,0-.1.023c.083.579-.362,1.018-.646,1.456a1.874,1.874,0,0,0-.3.95.044.044,0,0,0,.087,0,2.581,2.581,0,0,1,.732-1.421A1.132,1.132,0,0,0,75.833,2132.208Z" transform="translate(-57.719 -2093.076)" fill="#9a9a9a"/>
        <path id="Trazado_8672" data-name="Trazado 8672" d="M76.017,2131.734a1.474,1.474,0,0,0-.746.46c-.291.335-.368.824-.78,1.043-.442.234-.785-.018-1.217-.071a.562.562,0,0,0-.6.25c-.027.044.036.1.073.062.332-.391.79-.034,1.177.012a1.068,1.068,0,0,0,.726-.177,1.461,1.461,0,0,0,.465-.6,1.786,1.786,0,0,1,.929-.893C76.1,2131.8,76.066,2131.722,76.017,2131.734Z" transform="translate(-59.363 -2093.414)" fill="#9a9a9a"/>
        <path id="Trazado_8673" data-name="Trazado 8673" d="M77.666,2134.614a1.907,1.907,0,0,1-.613-.89c-.076-.245-.083-.5-.137-.75a1.818,1.818,0,0,0-.623-1.014c-.048-.043-.119.042-.071.087a1.864,1.864,0,0,1,.526.833c.076.267.073.549.155.813a2.126,2.126,0,0,0,.7,1.021C77.661,2134.763,77.723,2134.662,77.666,2134.614Z" transform="translate(-56.62 -2093.247)" fill="#9a9a9a"/>
        <path id="Trazado_8674" data-name="Trazado 8674" d="M77.852,2133.193a1.518,1.518,0,0,0-.389-.395c-.281-.188-.662-.248-.781-.623-.021-.064-.13-.068-.124.01.021.348.263.5.554.63a1.367,1.367,0,0,1,.916,1.395.046.046,0,0,0,.092,0A1.48,1.48,0,0,0,77.852,2133.193Z" transform="translate(-56.348 -2093.109)" fill="#9a9a9a"/>
        <path id="Trazado_8675" data-name="Trazado 8675" d="M76.438,2134.3a1.7,1.7,0,0,1-.234-1.2,1.11,1.11,0,0,0-.117-.749.055.055,0,0,0-.1.051c.194.387.016.769.041,1.172a1.668,1.668,0,0,0,.313.778C76.38,2134.411,76.476,2134.362,76.438,2134.3Z" transform="translate(-56.794 -2092.956)" fill="#9a9a9a"/>
        <path id="Trazado_8676" data-name="Trazado 8676" d="M76.858,2132.914c-.007-.048-.087-.041-.083.007a3.7,3.7,0,0,1-.345,1.393,1.8,1.8,0,0,0,.032,1.044c.02.061.114.041.1-.023a1.957,1.957,0,0,1,.158-1.43A1.791,1.791,0,0,0,76.858,2132.914Z" transform="translate(-56.495 -2092.523)" fill="#9a9a9a"/>
        <path id="Trazado_8677" data-name="Trazado 8677" d="M76.494,2133.676c-.018-.042-.092-.016-.076.031.147.438.737.641.741,1.135,0,.068.1.073.1.005C77.258,2134.307,76.674,2134.127,76.494,2133.676Z" transform="translate(-56.457 -2091.923)" fill="#9a9a9a"/>
        <path id="Trazado_8678" data-name="Trazado 8678" d="M75.735,2132.749c-.24.235-.6.274-.858.5a1.494,1.494,0,0,0-.469.771.05.05,0,0,0,.094.032,1.618,1.618,0,0,1,.618-.847,3.268,3.268,0,0,0,.67-.393C75.826,2132.774,75.773,2132.712,75.735,2132.749Z" transform="translate(-58.016 -2092.635)" fill="#9a9a9a"/>
        <path id="Trazado_8679" data-name="Trazado 8679" d="M74.7,2133.216c-.02-.373-.334-.705-.24-1.08a.041.041,0,0,0-.078-.027.807.807,0,0,0,.062.577,1.325,1.325,0,0,1-.044,1.234.05.05,0,0,0,.083.055A1.179,1.179,0,0,0,74.7,2133.216Z" transform="translate(-58.057 -2093.145)" fill="#9a9a9a"/>
        <path id="Trazado_8680" data-name="Trazado 8680" d="M74.859,2131.9c-.384.428-1.289.218-1.451.9a.045.045,0,0,0,.085.028c.273-.613,1.058-.371,1.43-.868C74.951,2131.918,74.893,2131.867,74.859,2131.9Z" transform="translate(-58.793 -2093.292)" fill="#9a9a9a"/>
      </g>
      <g id="Grupo_2587" data-name="Grupo 2587" transform="translate(247.956 61.853)">
        <path id="Trazado_8681" data-name="Trazado 8681" d="M170.067,2140.935a2.83,2.83,0,0,1,.053-.97c.192-.744.808-1.1,1.25-1.7a5.819,5.819,0,0,0,.757-1.591c.1-.295.281-.575.4-.867a.118.118,0,0,1,.078.107,4.849,4.849,0,0,1-.442,2.726,14.215,14.215,0,0,1-.858,1.172,4.118,4.118,0,0,0-.707,1.7c-.023.126-.233.087-.218-.038a4.173,4.173,0,0,1,.24-1l-.2.341A.293.293,0,0,1,170.067,2140.935Z" transform="translate(-167.145 -2122.431)" fill="#b5d61d"/>
        <path id="Trazado_8682" data-name="Trazado 8682" d="M170.416,2130.878a60.709,60.709,0,0,1,.4,7.769.123.123,0,0,0,.24.035,10.346,10.346,0,0,0-.286-7.33c-.037-.169-.076-.336-.117-.5C170.622,2130.722,170.4,2130.74,170.416,2130.878Z" transform="translate(-166.861 -2126.348)" fill="#94c024"/>
        <path id="Trazado_8683" data-name="Trazado 8683" d="M168.6,2149.562c.357-.6,1-.98,1.4-1.564a7.237,7.237,0,0,0,.9-2.11c.474-1.7.778-3.47,1.108-5.207q.972-5.113,1.744-10.257c.032-.638.06-1.277.089-1.915a.2.2,0,0,1,.229-.191c.053-.07.186-.05.174.055l-.007.05a.2.2,0,0,1,.023.1c-.146,3.614-.268,7.225-.773,10.813-.151,1.081-.341,2.154-.563,3.222-.035.253-.071.508-.108.761a21.043,21.043,0,0,0-.488,4.218,14.173,14.173,0,0,0,.332,1.611,1.837,1.837,0,0,1-.014,1.478,2.119,2.119,0,0,1-2.5,1.005.205.205,0,0,1-.114-.066,3.806,3.806,0,0,1-.469-.082.222.222,0,0,1-.156-.137A1.2,1.2,0,0,1,168.6,2149.562Z" transform="translate(-168.414 -2128.277)" fill="#80af1b"/>
        <path id="Trazado_8684" data-name="Trazado 8684" d="M170.112,2134.886c.043.478.083.959.117,1.442a.253.253,0,0,0,0,.052l.007.055a15.231,15.231,0,0,1-.439,5.553.143.143,0,0,0,.272.086,16.937,16.937,0,0,0,.826-3.014.154.154,0,0,0,.021-.078l0-.074a7.406,7.406,0,0,0-.755-4.883c-.082-.143-.337-.062-.281.1Q170.009,2134.505,170.112,2134.886Z" transform="translate(-167.345 -2123.874)" fill="#80af1b"/>
      </g>
    </g>
    <path id="Trazado_8685" data-name="Trazado 8685" d="M356.7,2199.66c-6.159-17.172-15.858-22.4-25.084-33.414-11.267-13.453-18.868-23.234-15.941-40.537,4.779-28.276,6.827-98.794-68.03-89.576-26.83,3.3-48.034,23.864-63.457,44.387-13.126,17.466-36.735,19.005-55.738,23.076-23.347,5-47.132,12.56-68.735,23.631-44.489,22.8-57.777,55.584-55.964,97.526.549,12.672,2.343,32.632,23.747,55.987,28.892,31.524,70.875,35.746,121.406,21.268,11.565-3.312,22.5-8.51,33.877-12.423a159.783,159.783,0,0,1,36.561-7.939c29.022-2.806,59.105,2.268,86.946-6.4a91.742,91.742,0,0,0,38.887-24.118C358.473,2237.2,363.2,2217.786,356.7,2199.66Z" transform="translate(0 5.557)" fill="#69cfc5" opacity="0.21"/>
    <path id="Trazado_8686" data-name="Trazado 8686" d="M33,2221.723s-7.4-39.127,32.3-70.3c0,0,117.778-66.317,216.037,5.305,0,0,38.648,19.015,38.506,52.614Z" transform="translate(22.394 73.966)" fill="#dc9c57"/>
    <g id="Grupo_2589" data-name="Grupo 2589" transform="translate(54.718 2283.128)">
      <path id="Trazado_8687" data-name="Trazado 8687" d="M32.379,2182.228l5.525,41.056s149.294,22.037,279.479-2l2.515-49.565Z" transform="translate(-32.379 -2171.717)" fill="#83492a"/>
      <path id="Trazado_8688" data-name="Trazado 8688" d="M46.857,2177.225l-7.374.266c3.778,11.258,7.363,22.576,10.846,33.925C48.9,2200.043,47.884,2188.634,46.857,2177.225Z" transform="translate(-26.866 -2167.443)" fill="#683920"/>
      <path id="Trazado_8689" data-name="Trazado 8689" d="M82.5,2206.494q-3.655-15.017-7.148-30.073l-22.532.831c1.1,14.1,1.7,28.242,2.749,42.353.1,1.323.215,2.639.321,3.955,9.008.874,19.564,1.787,31.331,2.6C85.6,2219.6,84.095,2213.007,82.5,2206.494Z" transform="translate(-16.516 -2168.067)" fill="#683920"/>
      <path id="Trazado_8690" data-name="Trazado 8690" d="M103.908,2175.37l-22.01.8c2.888,17.387,5.449,34.824,8.024,52.257,4.238.209,8.587.381,13.013.542C102.954,2211.116,103.924,2193.228,103.908,2175.37Z" transform="translate(6.048 -2168.882)" fill="#683920"/>
      <path id="Trazado_8691" data-name="Trazado 8691" d="M138.684,2174.088l-20.151.739q-.056,8.855-.1,17.7c-.082,12.711-.583,25.427-1.094,38.138,8.642-.034,17.481-.178,26.45-.453C142.108,2211.5,140.194,2192.795,138.684,2174.088Z" transform="translate(33.547 -2169.877)" fill="#683920"/>
      <path id="Trazado_8692" data-name="Trazado 8692" d="M148.743,2173.827l-11.407.416c1.527,18.7,3.445,37.408,5.12,56.12.393-.009.8-.023,1.19-.039C144.433,2211.439,146.9,2192.646,148.743,2173.827Z" transform="translate(49.068 -2170.08)" fill="#683920"/>
      <path id="Trazado_8693" data-name="Trazado 8693" d="M161.67,2203.765c-2.176-8.8-4.714-17.53-6.781-26.358q.5,7.484.964,14.959c.687,10.963,1.5,21.886,2.605,32.812,2.506-.2,5.015-.428,7.528-.66C164.641,2217.586,163.364,2210.625,161.67,2203.765Z" transform="translate(62.689 -2167.302)" fill="#683920"/>
      <path id="Trazado_8694" data-name="Trazado 8694" d="M170.529,2226.734q7.814-.911,15.622-2c-1.6-17.448-3.188-34.9-4.49-52.367l-11.674.43Q170.245,2199.755,170.529,2226.734Z" transform="translate(74.405 -2171.216)" fill="#683920"/>
    </g>
    <path id="Trazado_8695" data-name="Trazado 8695" d="M45.264,2170.6c-8.091,1.934-7.964-3.625-9.42-6.884a5.786,5.786,0,0,0-.714-1.2,24.138,24.138,0,0,1,1.4,5.71c.123.74.245,1.552.382,2.383,1.606,2.462,4.848,2.046,4.848,2.046,8.939.726,24.875-10.264,24.875-10.264S53.354,2168.668,45.264,2170.6Z" transform="translate(24.474 104.173)" fill="#fffefa"/>
    <path id="Trazado_8696" data-name="Trazado 8696" d="M32.133,2184.336s42.013-65.552,153.216-61.572c0,0,38.392,2.174,68.1,16.3,0,0,14.487,6.158-10.145,2.894s-70.264-8.328-49.263,1.813,40.614,28.769,5.431,23.542c-73.164-10.864-92.464-2.873-82.584,6.52,7.253,6.884-8.207,17.325-18.1,14.854-7.243-1.81-6.278-14.13-26.922-5.438-14.787,6.226-25.237,17.748-29.586,9.782S40.825,2180.719,32.133,2184.336Z" transform="translate(22.148 73.288)" fill="#ffe38b"/>
    <path id="Trazado_8697" data-name="Trazado 8697" d="M214.917,2143.182c-13.041-6.278-45.642-8.573-27.771,5.914s3.87,24.386-15.212,19.559-70.026-11.831-56.015-2.173,17.142,14.247,4.824,14.973-1.444,7.245,6.525,3.859,12.071-11.589,29.217-5.792,18.11,13.036,26.8,8.929,10.146-7.24,17.872-3.138,4.586-8.689,16.179-5.31,16.416,7.971,19.314-.243,17.142,7.729,18.84,2.906S241.98,2156.212,214.917,2143.182Z" transform="translate(85.3 85.472)" fill="#f9ca67" opacity="0.7" style="mix-blend-mode: multiply;isolation: isolate"/>
    <g id="Grupo_2590" data-name="Grupo 2590" transform="translate(74.455 2247.86)" opacity="0.7" style="mix-blend-mode: multiply;isolation: isolate">
      <path id="Trazado_8698" data-name="Trazado 8698" d="M48.111,2156.432c-1.162,1.7-2.92,2.522-3.934,1.834s-.89-2.63.27-4.333,2.925-2.522,3.934-1.826S49.271,2154.731,48.111,2156.432Z" transform="translate(-43.492 -2151.859)" fill="#dc9c57"/>
      <path id="Trazado_8699" data-name="Trazado 8699" d="M51.812,2155.484c-.822,1.215-2.085,1.8-2.811,1.309s-.641-1.879.194-3.1,2.09-1.8,2.815-1.311S52.645,2154.264,51.812,2155.484Z" transform="translate(-39.601 -2151.588)" fill="#dc9c57"/>
    </g>
    <g id="Grupo_2591" data-name="Grupo 2591" transform="translate(157.049 2207.625)" opacity="0.7" style="mix-blend-mode: multiply;isolation: isolate">
      <path id="Trazado_8700" data-name="Trazado 8700" d="M92.92,2132.1c-.73,1.078-1.849,1.595-2.486,1.162s-.567-1.662.171-2.74,1.842-1.594,2.485-1.158S93.653,2131.021,92.92,2132.1Z" transform="translate(-89.998 -2129.204)" fill="#dc9c57"/>
      <path id="Trazado_8701" data-name="Trazado 8701" d="M95.252,2131.5c-.515.765-1.312,1.138-1.772.824s-.4-1.187.119-1.959,1.325-1.144,1.785-.828S95.782,2130.728,95.252,2131.5Z" transform="translate(-87.537 -2129.032)" fill="#dc9c57"/>
    </g>
    <g id="Grupo_2592" data-name="Grupo 2592" transform="translate(252.167 2224.444)" opacity="0.7" style="mix-blend-mode: multiply;isolation: isolate">
      <path id="Trazado_8702" data-name="Trazado 8702" d="M146.475,2141.563c-.73,1.076-1.849,1.593-2.485,1.158s-.563-1.664.167-2.739,1.847-1.592,2.488-1.153S147.208,2140.488,146.475,2141.563Z" transform="translate(-143.555 -2138.674)" fill="#dc9c57"/>
      <path id="Trazado_8703" data-name="Trazado 8703" d="M148.814,2140.963c-.52.769-1.314,1.144-1.778.826s-.4-1.19.119-1.953,1.325-1.146,1.781-.828S149.341,2140.191,148.814,2140.963Z" transform="translate(-141.096 -2138.504)" fill="#dc9c57"/>
    </g>
    <g id="Grupo_2593" data-name="Grupo 2593" transform="translate(267.307 2263.134)" opacity="0.7" style="mix-blend-mode: multiply;isolation: isolate">
      <path id="Trazado_8704" data-name="Trazado 8704" d="M155,2163.35c-.73,1.071-1.849,1.6-2.486,1.162s-.556-1.667.174-2.739,1.84-1.6,2.481-1.16S155.733,2162.272,155,2163.35Z" transform="translate(-152.08 -2160.459)" fill="#dc9c57"/>
      <path id="Trazado_8705" data-name="Trazado 8705" d="M157.336,2162.75c-.515.767-1.316,1.141-1.772.828s-.407-1.19.114-1.955,1.325-1.146,1.785-.833S157.869,2161.979,157.336,2162.75Z" transform="translate(-149.62 -2160.288)" fill="#dc9c57"/>
    </g>
    <g id="Grupo_2594" data-name="Grupo 2594" transform="translate(160.614 2244.823)">
      <path id="Trazado_8706" data-name="Trazado 8706" d="M96.5,2152.569s-.121-2.781-2.527-1.693c-2.422,1.087-2.179,8.693,2.893,9.3s9.3-8.091,3.5-6.64C100.361,2153.531,100.361,2150.15,96.5,2152.569Z" transform="translate(-91.636 -2149.78)" fill="#f9ca67" opacity="0.7" style="mix-blend-mode: multiply;isolation: isolate"/>
      <path id="Trazado_8707" data-name="Trazado 8707" d="M96.022,2152.087s-.117-2.772-2.536-1.685-2.167,8.69,2.9,9.3,9.3-8.09,3.5-6.638C99.889,2153.058,99.889,2149.677,96.022,2152.087Z" transform="translate(-92.005 -2150.149)" fill="#b588a5"/>
      <path id="Trazado_8708" data-name="Trazado 8708" d="M98.809,2153.058s0-3.382-3.866-.972c0,0-.087-1.95-1.547-1.936a2.682,2.682,0,0,1,1.057,1.963,18.418,18.418,0,0,1-.925,6.981,4.581,4.581,0,0,0,1.78.6C100.377,2160.3,104.6,2151.606,98.809,2153.058Zm-1.323,1.9c-.353,1.524-1.279,3.366-2.589,2.636-.7-.386-.606-1.778-.5-2.412a5.326,5.326,0,0,1,1.607-2.957c.97-.651,1.49.465,1.611,1.264A4.355,4.355,0,0,1,97.486,2154.958Zm1.385.51a.371.371,0,0,1-.368-.365,1.4,1.4,0,0,1,.726-1.339.362.362,0,0,1,.535.34.4.4,0,0,1,.131.281A.969.969,0,0,1,98.871,2155.468Z" transform="translate(-90.926 -2150.148)" fill="#b588a5" style="mix-blend-mode: multiply;isolation: isolate"/>
    </g>
    <g id="Grupo_2595" data-name="Grupo 2595" transform="translate(200.302 2262.927)">
      <path id="Trazado_8709" data-name="Trazado 8709" d="M117.312,2161.917s0-1.087-1.693-.6-.719,7,3.264,6.878,4.218-5.429,3.136-5.79a1.82,1.82,0,0,0-1.812.361S120.091,2159.024,117.312,2161.917Z" transform="translate(-113.983 -2159.973)" fill="#f9ca67" opacity="0.7" style="mix-blend-mode: multiply;isolation: isolate"/>
      <path id="Trazado_8710" data-name="Trazado 8710" d="M116.839,2161.443s0-1.087-1.694-.6-.719,7,3.264,6.882,4.22-5.435,3.138-5.8a1.838,1.838,0,0,0-1.817.362S119.611,2158.546,116.839,2161.443Z" transform="translate(-114.352 -2160.343)" fill="#b588a5"/>
      <path id="Trazado_8711" data-name="Trazado 8711" d="M121.49,2161.924a1.838,1.838,0,0,0-1.817.362s-.119-3.74-2.891-.844c0,0,0-1.087-1.694-.6a1.088,1.088,0,0,0-.662.827,1.553,1.553,0,0,1,2.023.322,3.792,3.792,0,0,1,.44.63,1.392,1.392,0,0,1,.884-1.133c1.186-.384,1.327,1.749,1.316,2.426s-.078,3.26-1.4,2.634a1.015,1.015,0,0,1-.417-.428,1.853,1.853,0,0,1-.444.725.809.809,0,0,1-.545.213,3.22,3.22,0,0,0,2.074.666C122.332,2167.6,122.572,2162.286,121.49,2161.924Zm-.863,3.307c-.178.281-.591.648-.943.446a.769.769,0,0,1-.268-.781,4.287,4.287,0,0,1,.817-2.277.345.345,0,0,1,.575.108c.009.012.025.016.046.027C121.593,2163.281,121,2164.633,120.627,2165.231Z" transform="translate(-114.295 -2160.343)" fill="#b588a5" style="mix-blend-mode: multiply;isolation: isolate"/>
    </g>
    <g id="Grupo_2597" data-name="Grupo 2597" transform="translate(280.439 2028.147)">
      <g id="Grupo_2596" data-name="Grupo 2596">
        <path id="Trazado_8712" data-name="Trazado 8712" d="M179.059,2049.775s-3.378-3.846.263-9.7c2.172-3.492,5.751-7.6,2.9-11.927,4.554,4.136,4.518,7.7,2.4,12.9-1.755,4.309,2.687,8.4,2.687,8.4Z" transform="translate(-145.383 -2028.147)" fill="#ffde08"/>
        <path id="Trazado_8713" data-name="Trazado 8713" d="M177.7,2051.618s-4.85-1.646-4.621-8.537c.131-4.108,1.181-9.454-3.451-11.779,6.01,1.305,7.763,4.406,8.534,9.969.63,4.607,6.527,5.93,6.527,5.93Z" transform="translate(-151.593 -2025.698)" fill="#ffde08"/>
        <path id="Trazado_8714" data-name="Trazado 8714" d="M179.188,2053.209s-5.03,1-8.276-5.083c-1.936-3.625-3.7-8.779-8.875-8.477,5.859-1.877,8.928-.066,12.372,4.369,2.852,3.671,8.622,1.87,8.622,1.87Z" transform="translate(-157.485 -2019.792)" fill="#ffde08"/>
        <path id="Trazado_8715" data-name="Trazado 8715" d="M181.1,2055.467s-3.849,3.379-9.7-.266c-3.493-2.168-7.6-5.749-11.928-2.9,4.136-4.553,7.7-4.519,12.9-2.4,4.309,1.755,8.4-2.689,8.4-2.689Z" transform="translate(-159.474 -2013.355)" fill="#ffde08"/>
        <path id="Trazado_8716" data-name="Trazado 8716" d="M182.946,2059.174s-1.648,4.849-8.543,4.621c-4.1-.133-9.448-1.179-11.773,3.453,1.3-6.01,4.4-7.765,9.965-8.532,4.611-.635,5.932-6.531,5.932-6.531Z" transform="translate(-157.025 -2009.493)" fill="#ffde08"/>
        <path id="Trazado_8717" data-name="Trazado 8717" d="M184.537,2060.282s1,5.022-5.09,8.271c-3.619,1.934-8.77,3.7-8.472,8.876-1.875-5.854-.062-8.928,4.367-12.37,3.675-2.856,1.874-8.621,1.874-8.621Z" transform="translate(-151.118 -2006.193)" fill="#ffde08"/>
        <path id="Trazado_8718" data-name="Trazado 8718" d="M186.8,2058.642s3.378,3.849-.265,9.7c-2.17,3.491-5.751,7.6-2.9,11.926-4.552-4.133-4.518-7.7-2.4-12.9,1.753-4.309-2.691-8.4-2.691-8.4Z" transform="translate(-144.683 -2004.483)" fill="#ffde08"/>
        <path id="Trazado_8719" data-name="Trazado 8719" d="M190.5,2056.228s4.85,1.643,4.623,8.537c-.133,4.106-1.181,9.454,3.449,11.779-6.006-1.3-7.768-4.411-8.534-9.97-.632-4.607-6.529-5.93-6.529-5.93Z" transform="translate(-140.821 -2006.356)" fill="#ffde08"/>
        <path id="Trazado_8720" data-name="Trazado 8720" d="M191.609,2052.032s5.024-1,8.274,5.085c1.936,3.623,3.7,8.776,8.875,8.475-5.854,1.878-8.926.066-12.373-4.369-2.85-3.671-8.621-1.87-8.621-1.87Z" transform="translate(-137.521 -2009.66)" fill="#ffde08"/>
        <path id="Trazado_8721" data-name="Trazado 8721" d="M189.969,2047.73s3.849-3.376,9.706.267c3.492,2.167,7.594,5.749,11.922,2.9-4.129,4.552-7.7,4.52-12.9,2.4-4.309-1.753-8.4,2.69-8.4,2.69Z" transform="translate(-135.81 -2014.056)" fill="#ffde08"/>
        <path id="Trazado_8722" data-name="Trazado 8722" d="M187.554,2046.376s1.648-4.852,8.541-4.626c4.108.137,9.45,1.185,11.773-3.446-1.3,6.007-4.4,7.761-9.969,8.528-4.609.636-5.927,6.529-5.927,6.529Z" transform="translate(-137.684 -2020.265)" fill="#ffde08"/>
        <path id="Trazado_8723" data-name="Trazado 8723" d="M183.36,2047.854s-1-5.021,5.083-8.272c3.623-1.936,8.773-3.7,8.473-8.871,1.875,5.85.064,8.926-4.367,12.372-3.675,2.854-1.872,8.617-1.872,8.617Z" transform="translate(-140.986 -2026.157)" fill="#ffde08"/>
      </g>
      <path id="Trazado_8724" data-name="Trazado 8724" d="M206.81,2056.824a18.1,18.1,0,1,0-17.518,18.658A18.1,18.1,0,0,0,206.81,2056.824Z" transform="translate(-150.825 -2019.498)" fill="#fcc030"/>
    </g>
  </g>
</svg>
