<svg xmlns="http://www.w3.org/2000/svg" width="376" height="322.215" viewBox="0 0 376 322.215">
  <g id="Grupo_2580" data-name="Grupo 2580" transform="translate(-3.592 -1803.392)">
    <g id="Grupo_2557" data-name="Grupo 2557" transform="translate(291.995 1980.327)">
      <path id="Trazado_8387" data-name="Trazado 8387" d="M165.632,1911.779a.263.263,0,0,0,.178.328.115.115,0,0,0,.124.156,22.071,22.071,0,0,0,3.05-.7,18.976,18.976,0,0,1,3.146-1.133,3.631,3.631,0,0,1,3.5,1.167,12,12,0,0,0,2.624,2,.185.185,0,0,0,.283-.14,5.712,5.712,0,0,0-.919-4.481,1.277,1.277,0,0,0-.906-.411,2.546,2.546,0,0,1-1.283-.688,4.093,4.093,0,0,0-2.219-.921A6.959,6.959,0,0,0,165.632,1911.779Z" transform="translate(-150.093 -1889.67)" fill="#6a9d13"/>
      <path id="Trazado_8388" data-name="Trazado 8388" d="M157.708,1912.316a17.067,17.067,0,0,1,6.149-1.69,8.922,8.922,0,0,0,2.786-.639c.82-.356,1.876-.9,2.737-.516a1.412,1.412,0,0,1,.461.482c.122.207.5.18.5-.1a3.893,3.893,0,0,0-1.985-3.35,4.326,4.326,0,0,0-4.076.127c-.846.39-1.729.48-2.594.788a5.658,5.658,0,0,0-1.707.989,10.946,10.946,0,0,0-2.564,3.579C157.314,1912.173,157.487,1912.427,157.708,1912.316Z" transform="translate(-157.307 -1890.427)" fill="#789714"/>
      <path id="Trazado_8389" data-name="Trazado 8389" d="M157.671,1907.059a9,9,0,0,1,3.361-1.553,7.9,7.9,0,0,1,1.926.1c.336.026.673-.022,1.009.008a3.979,3.979,0,0,1,1.139.334,9.518,9.518,0,0,1,3.748,2.4,9.041,9.041,0,0,1,2.148,3.418.263.263,0,0,0,.242.2.082.082,0,0,0,.1-.011.23.23,0,0,0,.169-.223c.006-.143.009-.287.015-.431a7.158,7.158,0,0,0-.274-4.99,2.794,2.794,0,0,0-1.583-1.427,4.374,4.374,0,0,1-1.508-.589c-.428-.325-.833-.67-1.287-.957a5.579,5.579,0,0,0-5.156-.687c-1.9.765-3.168,2.482-4.337,4.08C157.253,1906.9,157.478,1907.186,157.671,1907.059Z" transform="translate(-157.343 -1893.714)" fill="#6a9d13"/>
      <path id="Trazado_8390" data-name="Trazado 8390" d="M157.356,1901.209c-.081.445.251.7.647.779a14.408,14.408,0,0,0,2.56.039c.882,0,1.769-.013,2.649.038a8.374,8.374,0,0,1,4.871,2.026,9.686,9.686,0,0,1,2.879,3.575c.51,1.169.544,2.6,1.623,3.435.176.137.383-.03.411-.21a31.2,31.2,0,0,0,.334-3.845,9.838,9.838,0,0,0,.066-2.885,6.31,6.31,0,0,0-2.138-4,11.2,11.2,0,0,0-8.959-2.305,6.567,6.567,0,0,0-3.787,1.928C158.145,1900.151,157.453,1900.68,157.356,1901.209Z" transform="translate(-157.343 -1897.718)" fill="#80af1b"/>
      <path id="Trazado_8391" data-name="Trazado 8391" d="M166.509,1908a.252.252,0,0,0,.426.2,2.456,2.456,0,0,0,1.06-.761,18.471,18.471,0,0,0,1.486-1.626c.5-.606.912-1.26,1.381-1.885a4.257,4.257,0,0,1,1.93-1.424,7.974,7.974,0,0,1,4.371-.7c1.583.244,3.164.512,4.748.767a.229.229,0,0,0,.2-.364,10.915,10.915,0,0,0-4.453-3.759,3.647,3.647,0,0,0-2.352-.161,10.312,10.312,0,0,1-1.544.55c-.475.068-.959,0-1.435.062C168.227,1899.405,166.7,1904.535,166.509,1908Z" transform="translate(-149.316 -1897.326)" fill="#a5c82b"/>
      <path id="Trazado_8392" data-name="Trazado 8392" d="M166.456,1909.679c-.047.15-.088.3-.124.458-.053.233.227.5.431.285a14.1,14.1,0,0,1,3.044-2.632c1.24-.7,2.5-.6,3.853-.831.688-.114,1.345-.368,2.031-.486a6.171,6.171,0,0,1,2.27.15,4.321,4.321,0,0,1,2.273,1,7.516,7.516,0,0,1,1.266,1.741c.1.167.4.19.448-.03a7.53,7.53,0,0,0-1.441-5.457,5.6,5.6,0,0,0-5.093-2.238,8.879,8.879,0,0,0-5.5,2.4,19.866,19.866,0,0,0-3.495,5.531A.091.091,0,0,0,166.456,1909.679Z" transform="translate(-149.476 -1894.301)" fill="#80af1b"/>
      <path id="Trazado_8393" data-name="Trazado 8393" d="M168.269,1905.357a15.977,15.977,0,0,1,3.179-4.288,6.283,6.283,0,0,1,4.376-1.866,9.889,9.889,0,0,1,5.851,1.289c.107.069-.013.227-.12.157a7.4,7.4,0,0,0-3.558-1.06,12.36,12.36,0,0,0-3.159.1c-2.195.422-3.857,2.315-5.068,4.076-2.7,3.926-3.53,8.79-4.352,13.387-.032.177-.306.15-.28-.032C165.727,1913.087,166.355,1909.016,168.269,1905.357Z" transform="translate(-150.518 -1896.426)" fill="#80af1b"/>
      <path id="Trazado_8394" data-name="Trazado 8394" d="M165.8,1912.824a27.375,27.375,0,0,1,1.217-2.911,15.247,15.247,0,0,1,3.044-4.273,8.757,8.757,0,0,1,8.524-2.493,6.187,6.187,0,0,1,3.793,3.048c.06.116-.116.2-.182.09a6.475,6.475,0,0,0-4.757-3.018,8.093,8.093,0,0,0-5.558,1.441,12.9,12.9,0,0,0-3.975,4.476,23.881,23.881,0,0,0-1.521,3.328c-.2.527-.381,1.06-.559,1.594a8.278,8.278,0,0,1-.591,1.625.155.155,0,0,1-.281-.094A11.077,11.077,0,0,1,165.8,1912.824Z" transform="translate(-150.682 -1893.238)" fill="#719716"/>
      <path id="Trazado_8395" data-name="Trazado 8395" d="M170.108,1908.459a7.71,7.71,0,0,1,4.909-.626,5.36,5.36,0,0,1,2.4,1.142,4.458,4.458,0,0,1,1.182,2.27c.032.124-.156.159-.191.041a4.158,4.158,0,0,0-1.546-2.326,5.456,5.456,0,0,0-2.467-.84,7.784,7.784,0,0,0-4.6.994,9.093,9.093,0,0,0-3.523,3.718,16.525,16.525,0,0,0-1.512,5.279.166.166,0,0,1-.332-.017C164.443,1914.285,166.582,1910.112,170.108,1908.459Z" transform="translate(-151.135 -1889.001)" fill="#7ba819"/>
      <path id="Trazado_8396" data-name="Trazado 8396" d="M158.384,1909.889a13.451,13.451,0,0,1,4.579-2.527,6.185,6.185,0,0,1,4.945-.15,4.96,4.96,0,0,1,2.332,3.731,14.038,14.038,0,0,1,.034,5.509c-.051.231-.426.156-.405-.077a20.3,20.3,0,0,0,.015-4.958c-.242-1.574-.818-3.26-2.4-3.93-1.562-.659-3.268-.2-4.787.341a12.517,12.517,0,0,0-4.175,2.213C158.419,1910.129,158.288,1909.979,158.384,1909.889Z" transform="translate(-156.461 -1889.804)" fill="#72870f"/>
      <path id="Trazado_8397" data-name="Trazado 8397" d="M158.455,1904.4a7.284,7.284,0,0,1,5.6-1.217,8.408,8.408,0,0,1,4.772,3.808,11.482,11.482,0,0,1,1.913,5.974,25.266,25.266,0,0,1-.67,7.113.228.228,0,0,1-.443-.084,56.617,56.617,0,0,0,.638-6.393,10.812,10.812,0,0,0-1.426-5.785,8.694,8.694,0,0,0-4.479-4.14c-2.03-.705-4-.039-5.817.9C158.428,1904.634,158.346,1904.461,158.455,1904.4Z" transform="translate(-156.414 -1893.086)" fill="#82aa17"/>
      <path id="Trazado_8398" data-name="Trazado 8398" d="M158.941,1899.511a8.068,8.068,0,0,1,5.158-.3,12.692,12.692,0,0,1,2.866.831,6.938,6.938,0,0,1,2.174,1.758c2.651,3.074,2.926,7.409,2.433,11.262-.336,2.628-.906,5.222-1.292,7.842-.047.317-.538.308-.506-.021.4-4.07,1.7-8.017,1.5-12.147a11.864,11.864,0,0,0-1.512-5.361,8.481,8.481,0,0,0-1.788-2.187,6.62,6.62,0,0,0-2.709-1.311c-2.018-.551-4.219-1.007-6.233-.193C158.915,1899.732,158.825,1899.565,158.941,1899.511Z" transform="translate(-155.991 -1896.652)" fill="#719716"/>
      <path id="Trazado_8399" data-name="Trazado 8399" d="M165.126,1912.931a42.036,42.036,0,0,0-.336,4.457c-.283,2.542-1.343,5.066-.561,7.623a.328.328,0,0,0,.627.035,58.61,58.61,0,0,0,1.925-9.561,38.838,38.838,0,0,1,.521-5.1,30.152,30.152,0,0,0,.9-5.644A38.313,38.313,0,0,0,165.126,1912.931Z" transform="translate(-151.56 -1891.571)" fill="#98c40e"/>
      <path id="Trazado_8400" data-name="Trazado 8400" d="M162.872,1912.507c-.341,1.619.308,2.452.242,3.108-.017.174.2-.257.223-.426a3.342,3.342,0,0,1,.413-1.737c.131-.277.977-1.748,1.653-.87a1.874,1.874,0,0,1,.173.944,12.309,12.309,0,0,1-.373,2.7c-.2,1.229-.4,2.458-.61,3.684a4.591,4.591,0,0,1-.617,2.238,6.713,6.713,0,0,0-.874.927c-1.57,2.634,2.478,6.539,5.1,5.306a2.051,2.051,0,0,0,.653-3.192c-.568-.816-1.486-1.356-1.773-2.356a7.66,7.66,0,0,1-.154-2.5c.169-3.035,1.551-6.97-.3-9.75-.657-.987-2.279-1.6-2.984-.383A6.224,6.224,0,0,0,162.872,1912.507Z" transform="translate(-152.608 -1887.381)" fill="#80af1b"/>
      <path id="Trazado_8401" data-name="Trazado 8401" d="M164.3,1917.44a.982.982,0,0,0-1.052.437c-.214.33-.248.662-.6.91a2.233,2.233,0,0,1-1.118.315c-.075.008-.069.126.006.118a2.181,2.181,0,0,0,1.3-.42,2.084,2.084,0,0,0,.4-.591,1.278,1.278,0,0,1,1.056-.664A.054.054,0,0,0,164.3,1917.44Z" transform="translate(-153.719 -1880.47)" fill="#9a9a9a"/>
      <path id="Trazado_8402" data-name="Trazado 8402" d="M165.906,1919.234c-.011-.062-.1-.039-.1.021.008.458.606.574.591,1.043,0,.067.09.067.107.009C166.632,1919.849,165.976,1919.634,165.906,1919.234Z" transform="translate(-149.934 -1878.906)" fill="#9a9a9a"/>
      <path id="Trazado_8403" data-name="Trazado 8403" d="M162.729,1918.793c.026-.4-.186-.824.111-1.178.038-.047-.026-.109-.068-.064a.793.793,0,0,0-.2.621,1.922,1.922,0,0,1-.216,1.308c-.041.062.058.115.1.054A1.47,1.47,0,0,0,162.729,1918.793Z" transform="translate(-152.957 -1880.362)" fill="#9a9a9a"/>
      <path id="Trazado_8404" data-name="Trazado 8404" d="M163.659,1918a.8.8,0,0,0-.461.371c-.167.3-.1.773-.475.917-.071.026-.038.139.034.113a.66.66,0,0,0,.383-.435c.126-.357.15-.705.555-.848C163.768,1918.093,163.733,1917.977,163.659,1918Z" transform="translate(-152.666 -1879.957)" fill="#9a9a9a"/>
      <path id="Trazado_8405" data-name="Trazado 8405" d="M164.936,1918.7c-.418-.21-.816.266-.97.626a5.433,5.433,0,0,1-.385,1.052,1.76,1.76,0,0,1-1.054.611c-.053.017-.039.109.019.1a1.79,1.79,0,0,0,1.195-.664,3.8,3.8,0,0,0,.356-.771,2.415,2.415,0,0,1,.189-.413,1.006,1.006,0,0,1,.638-.418A.069.069,0,0,0,164.936,1918.7Z" transform="translate(-152.832 -1879.386)" fill="#9a9a9a"/>
      <path id="Trazado_8406" data-name="Trazado 8406" d="M164.745,1922.319a2.342,2.342,0,0,1-.366-.968,2.892,2.892,0,0,1,.323-1.03,1.331,1.331,0,0,0,.053-1.047c-.024-.054-.114-.021-.109.037.066.655-.294,1.172-.37,1.806a1.847,1.847,0,0,0,.386,1.255A.049.049,0,0,0,164.745,1922.319Z" transform="translate(-151.279 -1878.863)" fill="#9a9a9a"/>
      <path id="Trazado_8407" data-name="Trazado 8407" d="M165.011,1919.245a.053.053,0,1,0-.105.007c-.017.617-.561.992-.936,1.4a1.99,1.99,0,0,0-.48.936.045.045,0,1,0,.088.021,2.746,2.746,0,0,1,1.017-1.347A1.194,1.194,0,0,0,165.011,1919.245Z" transform="translate(-151.961 -1878.908)" fill="#9a9a9a"/>
      <path id="Trazado_8408" data-name="Trazado 8408" d="M165.339,1918.632a1.548,1.548,0,0,0-.861.345c-.364.295-.529.79-1,.944-.5.163-.812-.161-1.253-.293a.592.592,0,0,0-.664.152c-.037.041.017.116.062.079.418-.347.829.105,1.223.225a1.136,1.136,0,0,0,.79-.054,1.527,1.527,0,0,0,.591-.54,1.9,1.9,0,0,1,1.129-.762C165.408,1918.717,165.393,1918.627,165.339,1918.632Z" transform="translate(-153.66 -1879.402)" fill="#9a9a9a"/>
      <path id="Trazado_8409" data-name="Trazado 8409" d="M166.2,1922.156a2.013,2.013,0,0,1-.476-1.035c-.036-.268,0-.535-.008-.8a1.927,1.927,0,0,0-.465-1.17c-.043-.053-.131.024-.092.079a1.95,1.95,0,0,1,.4.962c.03.291-.024.583.013.872a2.245,2.245,0,0,0,.546,1.189C166.173,1922.31,166.253,1922.216,166.2,1922.156Z" transform="translate(-150.505 -1878.966)" fill="#9a9a9a"/>
      <path id="Trazado_8410" data-name="Trazado 8410" d="M166.637,1920.7a1.62,1.62,0,0,0-.334-.48c-.259-.248-.645-.377-.7-.79-.009-.069-.122-.094-.131-.011-.039.366.184.57.463.756a1.443,1.443,0,0,1,.7,1.617.048.048,0,0,0,.094.021A1.561,1.561,0,0,0,166.637,1920.7Z" transform="translate(-150.23 -1878.759)" fill="#9a9a9a"/>
      <path id="Trazado_8411" data-name="Trazado 8411" d="M165.077,1921.59a1.81,1.81,0,0,1-.028-1.291,1.177,1.177,0,0,0,.013-.8.058.058,0,0,0-.111.038c.131.437-.122.8-.169,1.227a1.749,1.749,0,0,0,.186.865C165,1921.7,165.106,1921.661,165.077,1921.59Z" transform="translate(-150.833 -1878.676)" fill="#9a9a9a"/>
      <path id="Trazado_8412" data-name="Trazado 8412" d="M165.834,1920.155a.044.044,0,0,0-.086-.006,3.912,3.912,0,0,1-.61,1.386,1.941,1.941,0,0,0-.156,1.094c.009.066.113.062.105-.007a2.074,2.074,0,0,1,.42-1.459A1.87,1.87,0,0,0,165.834,1920.155Z" transform="translate(-150.67 -1878.103)" fill="#9a9a9a"/>
      <path id="Trazado_8413" data-name="Trazado 8413" d="M165.157,1920.876a.044.044,0,0,0-.086.017c.075.484.651.8.566,1.315a.054.054,0,0,0,.105.022C165.837,1921.668,165.262,1921.377,165.157,1920.876Z" transform="translate(-150.576 -1877.462)" fill="#9a9a9a"/>
      <path id="Trazado_8414" data-name="Trazado 8414" d="M164.741,1919.733c-.291.2-.677.176-.983.366a1.572,1.572,0,0,0-.626.717.053.053,0,0,0,.092.051,1.711,1.711,0,0,1,.8-.769,3.418,3.418,0,0,0,.765-.289C164.831,1919.776,164.788,1919.7,164.741,1919.733Z" transform="translate(-152.278 -1878.445)" fill="#9a9a9a"/>
      <path id="Trazado_8415" data-name="Trazado 8415" d="M163.606,1920.177c.047-.39-.221-.793-.054-1.167.024-.051-.051-.092-.077-.041a.859.859,0,0,0-.039.612,1.4,1.4,0,0,1-.268,1.277.053.053,0,0,0,.077.073A1.271,1.271,0,0,0,163.606,1920.177Z" transform="translate(-152.254 -1879.127)" fill="#9a9a9a"/>
      <path id="Trazado_8416" data-name="Trazado 8416" d="M164,1918.74c-.476.377-1.382,0-1.673.67a.048.048,0,0,0,.084.045c.394-.587,1.169-.2,1.643-.645C164.09,1918.774,164.038,1918.708,164,1918.74Z" transform="translate(-152.984 -1879.314)" fill="#9a9a9a"/>
    </g>
    <g id="Grupo_2558" data-name="Grupo 2558" transform="translate(250.854 1964.372)">
      <path id="Trazado_8417" data-name="Trazado 8417" d="M143.7,1903.274a.263.263,0,0,0,.18.326.115.115,0,0,0,.124.158,22.422,22.422,0,0,0,3.05-.7,18.915,18.915,0,0,1,3.146-1.133,3.628,3.628,0,0,1,3.5,1.167,11.943,11.943,0,0,0,2.622,2,.184.184,0,0,0,.283-.141,5.7,5.7,0,0,0-.917-4.481,1.268,1.268,0,0,0-.906-.411,2.552,2.552,0,0,1-1.285-.688,4.093,4.093,0,0,0-2.219-.921A6.962,6.962,0,0,0,143.7,1903.274Z" transform="translate(-128.159 -1881.164)" fill="#6a9d13"/>
      <path id="Trazado_8418" data-name="Trazado 8418" d="M135.776,1903.811a17.068,17.068,0,0,1,6.147-1.69,8.933,8.933,0,0,0,2.787-.64c.82-.356,1.876-.9,2.735-.516a1.418,1.418,0,0,1,.463.482c.122.207.5.18.5-.1a3.886,3.886,0,0,0-1.985-3.35,4.326,4.326,0,0,0-4.076.128c-.844.39-1.728.48-2.594.788a5.643,5.643,0,0,0-1.705.989,10.917,10.917,0,0,0-2.564,3.579A.232.232,0,0,0,135.776,1903.811Z" transform="translate(-135.373 -1881.921)" fill="#789714"/>
      <path id="Trazado_8419" data-name="Trazado 8419" d="M135.738,1898.554A9.032,9.032,0,0,1,139.1,1897a7.822,7.822,0,0,1,1.928.1c.336.026.673-.022,1.007.008a3.99,3.99,0,0,1,1.14.334,9.5,9.5,0,0,1,3.746,2.4,9.01,9.01,0,0,1,2.15,3.418.263.263,0,0,0,.242.2.085.085,0,0,0,.1-.011.23.23,0,0,0,.167-.223c.008-.143.011-.287.015-.431a7.153,7.153,0,0,0-.272-4.991,2.8,2.8,0,0,0-1.585-1.426,4.409,4.409,0,0,1-1.508-.589c-.428-.326-.831-.67-1.287-.957a5.569,5.569,0,0,0-5.155-.687c-1.9.766-3.168,2.48-4.339,4.08C135.32,1898.4,135.545,1898.682,135.738,1898.554Z" transform="translate(-135.41 -1885.208)" fill="#6a9d13"/>
      <path id="Trazado_8420" data-name="Trazado 8420" d="M135.424,1892.7c-.083.445.249.7.647.777a14.245,14.245,0,0,0,2.56.041c.882,0,1.767-.013,2.649.038a8.379,8.379,0,0,1,4.871,2.026,9.7,9.7,0,0,1,2.877,3.575c.512,1.167.544,2.6,1.624,3.435.176.137.383-.03.409-.21a31.236,31.236,0,0,0,.336-3.845,9.906,9.906,0,0,0,.066-2.885,6.318,6.318,0,0,0-2.138-4,11.211,11.211,0,0,0-8.959-2.307,6.594,6.594,0,0,0-3.789,1.93C136.214,1891.647,135.521,1892.175,135.424,1892.7Z" transform="translate(-135.409 -1889.212)" fill="#80af1b"/>
      <path id="Trazado_8421" data-name="Trazado 8421" d="M144.577,1899.5a.252.252,0,0,0,.426.2,2.457,2.457,0,0,0,1.06-.762,19.036,19.036,0,0,0,1.486-1.626c.493-.606.912-1.26,1.381-1.885a4.253,4.253,0,0,1,1.93-1.424,7.968,7.968,0,0,1,4.369-.7c1.585.244,3.166.512,4.748.767a.229.229,0,0,0,.2-.365,10.9,10.9,0,0,0-4.453-3.757,3.64,3.64,0,0,0-2.35-.161,10.231,10.231,0,0,1-1.546.549c-.473.068-.958,0-1.433.062C146.3,1890.9,144.767,1896.03,144.577,1899.5Z" transform="translate(-127.382 -1888.82)" fill="#a5c82b"/>
      <path id="Trazado_8422" data-name="Trazado 8422" d="M144.524,1901.174c-.047.15-.09.3-.124.458-.054.231.227.5.43.285a14.214,14.214,0,0,1,3.046-2.634c1.238-.7,2.5-.6,3.853-.829.688-.115,1.345-.368,2.031-.486a6.179,6.179,0,0,1,2.27.15,4.308,4.308,0,0,1,2.272,1,7.475,7.475,0,0,1,1.268,1.74c.1.167.4.19.446-.032a7.525,7.525,0,0,0-1.439-5.455,5.6,5.6,0,0,0-5.093-2.238,8.868,8.868,0,0,0-5.5,2.4,19.919,19.919,0,0,0-3.5,5.531A.093.093,0,0,0,144.524,1901.174Z" transform="translate(-127.543 -1885.795)" fill="#80af1b"/>
      <path id="Trazado_8423" data-name="Trazado 8423" d="M146.337,1896.852a15.9,15.9,0,0,1,3.179-4.288,6.283,6.283,0,0,1,4.376-1.866,9.9,9.9,0,0,1,5.851,1.287c.105.071-.013.229-.12.159a7.383,7.383,0,0,0-3.558-1.062,12.466,12.466,0,0,0-3.159.1c-2.195.422-3.858,2.315-5.068,4.076-2.7,3.926-3.53,8.79-4.352,13.385-.032.178-.308.152-.281-.03C143.8,1904.582,144.424,1900.509,146.337,1896.852Z" transform="translate(-128.585 -1887.92)" fill="#80af1b"/>
      <path id="Trazado_8424" data-name="Trazado 8424" d="M143.861,1904.319a28.167,28.167,0,0,1,1.217-2.911,15.285,15.285,0,0,1,3.046-4.273,8.757,8.757,0,0,1,8.524-2.493,6.189,6.189,0,0,1,3.793,3.048c.06.116-.116.2-.182.09a6.479,6.479,0,0,0-4.757-3.018,8.093,8.093,0,0,0-5.558,1.441,12.919,12.919,0,0,0-3.977,4.476,23.544,23.544,0,0,0-1.519,3.328c-.2.527-.383,1.06-.561,1.594a8.2,8.2,0,0,1-.589,1.624.155.155,0,0,1-.281-.094A11.076,11.076,0,0,1,143.861,1904.319Z" transform="translate(-128.748 -1884.732)" fill="#719716"/>
      <path id="Trazado_8425" data-name="Trazado 8425" d="M148.174,1899.954a7.713,7.713,0,0,1,4.911-.627,5.355,5.355,0,0,1,2.4,1.142,4.434,4.434,0,0,1,1.18,2.27c.034.124-.154.159-.191.041a4.149,4.149,0,0,0-1.546-2.328,5.432,5.432,0,0,0-2.465-.838,7.79,7.79,0,0,0-4.6.994,9.085,9.085,0,0,0-3.521,3.718,16.474,16.474,0,0,0-1.512,5.278.166.166,0,0,1-.332-.017C142.511,1905.78,144.65,1901.607,148.174,1899.954Z" transform="translate(-129.201 -1880.495)" fill="#7ba819"/>
      <path id="Trazado_8426" data-name="Trazado 8426" d="M136.451,1901.384a13.431,13.431,0,0,1,4.581-2.527,6.193,6.193,0,0,1,4.945-.152,4.968,4.968,0,0,1,2.332,3.733,14.109,14.109,0,0,1,.034,5.509c-.051.231-.426.154-.405-.077a20.3,20.3,0,0,0,.013-4.958c-.242-1.574-.816-3.26-2.4-3.93-1.563-.658-3.268-.2-4.787.341a12.553,12.553,0,0,0-4.177,2.212C136.486,1901.624,136.355,1901.472,136.451,1901.384Z" transform="translate(-134.528 -1881.298)" fill="#72870f"/>
      <path id="Trazado_8427" data-name="Trazado 8427" d="M136.523,1895.891a7.275,7.275,0,0,1,5.6-1.219,8.424,8.424,0,0,1,4.772,3.81,11.481,11.481,0,0,1,1.911,5.974,25.127,25.127,0,0,1-.67,7.113.227.227,0,0,1-.441-.084,57.49,57.49,0,0,0,.638-6.395,10.837,10.837,0,0,0-1.426-5.785,8.694,8.694,0,0,0-4.481-4.138c-2.028-.705-4-.039-5.817.9C136.5,1896.129,136.414,1895.957,136.523,1895.891Z" transform="translate(-134.48 -1884.581)" fill="#82aa17"/>
      <path id="Trazado_8428" data-name="Trazado 8428" d="M137.008,1891.006a8.087,8.087,0,0,1,5.16-.3,12.829,12.829,0,0,1,2.866.833,6.905,6.905,0,0,1,2.172,1.758c2.652,3.074,2.928,7.409,2.435,11.262-.336,2.628-.906,5.222-1.294,7.843-.047.315-.538.308-.5-.021.4-4.07,1.7-8.017,1.495-12.147a11.861,11.861,0,0,0-1.51-5.361,8.492,8.492,0,0,0-1.79-2.189,6.6,6.6,0,0,0-2.707-1.309c-2.02-.551-4.221-1.007-6.233-.193C136.983,1891.227,136.893,1891.06,137.008,1891.006Z" transform="translate(-134.057 -1888.146)" fill="#719716"/>
      <path id="Trazado_8429" data-name="Trazado 8429" d="M143.192,1904.426a41.536,41.536,0,0,0-.334,4.457c-.283,2.542-1.343,5.067-.563,7.623a.328.328,0,0,0,.627.035,58.409,58.409,0,0,0,1.926-9.561,38.8,38.8,0,0,1,.52-5.1,30.171,30.171,0,0,0,.906-5.644A38.259,38.259,0,0,0,143.192,1904.426Z" transform="translate(-129.627 -1883.065)" fill="#98c40e"/>
      <path id="Trazado_8430" data-name="Trazado 8430" d="M140.941,1904c-.343,1.62.308,2.453.242,3.11-.017.173.2-.257.223-.426a3.341,3.341,0,0,1,.413-1.737c.129-.278.977-1.748,1.653-.871a1.87,1.87,0,0,1,.173.942,12.425,12.425,0,0,1-.373,2.7c-.2,1.229-.4,2.457-.61,3.684a4.621,4.621,0,0,1-.617,2.236,6.853,6.853,0,0,0-.876.928c-1.57,2.634,2.48,6.539,5.1,5.3a2.051,2.051,0,0,0,.653-3.193c-.57-.814-1.487-1.354-1.774-2.354a7.718,7.718,0,0,1-.152-2.5c.169-3.035,1.551-6.97-.3-9.75-.657-.987-2.281-1.6-2.986-.383A6.256,6.256,0,0,0,140.941,1904Z" transform="translate(-130.675 -1878.875)" fill="#80af1b"/>
      <path id="Trazado_8431" data-name="Trazado 8431" d="M142.37,1908.936a.98.98,0,0,0-1.052.437c-.216.33-.25.662-.6.908a2.226,2.226,0,0,1-1.118.317c-.075.006-.069.126,0,.118a2.188,2.188,0,0,0,1.3-.42,2.129,2.129,0,0,0,.4-.591,1.281,1.281,0,0,1,1.056-.666A.053.053,0,0,0,142.37,1908.936Z" transform="translate(-131.785 -1871.964)" fill="#9a9a9a"/>
      <path id="Trazado_8432" data-name="Trazado 8432" d="M143.972,1910.729c-.009-.062-.1-.04-.1.019.008.459.606.576.589,1.045,0,.067.09.067.107.01C144.7,1911.345,144.042,1911.129,143.972,1910.729Z" transform="translate(-128 -1870.401)" fill="#9a9a9a"/>
      <path id="Trazado_8433" data-name="Trazado 8433" d="M140.8,1910.288c.028-.4-.184-.823.111-1.18a.045.045,0,1,0-.066-.062.8.8,0,0,0-.2.621,1.91,1.91,0,0,1-.214,1.307c-.041.062.056.112.1.052A1.473,1.473,0,0,0,140.8,1910.288Z" transform="translate(-131.023 -1871.856)" fill="#9a9a9a"/>
      <path id="Trazado_8434" data-name="Trazado 8434" d="M141.726,1909.5a.814.814,0,0,0-.461.371c-.167.3-.1.773-.475.917-.069.026-.036.139.036.113a.652.652,0,0,0,.381-.435c.128-.356.15-.705.557-.848A.062.062,0,0,0,141.726,1909.5Z" transform="translate(-130.732 -1871.45)" fill="#9a9a9a"/>
      <path id="Trazado_8435" data-name="Trazado 8435" d="M143,1910.2c-.416-.21-.816.266-.968.626a5.435,5.435,0,0,1-.385,1.052,1.764,1.764,0,0,1-1.054.611c-.053.017-.039.109.017.1a1.786,1.786,0,0,0,1.195-.664,3.748,3.748,0,0,0,.358-.771,2.4,2.4,0,0,1,.189-.413,1.007,1.007,0,0,1,.636-.418A.069.069,0,0,0,143,1910.2Z" transform="translate(-130.898 -1870.88)" fill="#9a9a9a"/>
      <path id="Trazado_8436" data-name="Trazado 8436" d="M142.812,1913.814a2.339,2.339,0,0,1-.364-.968,2.891,2.891,0,0,1,.321-1.03,1.324,1.324,0,0,0,.054-1.047c-.026-.054-.114-.021-.109.038.066.655-.294,1.172-.37,1.8a1.84,1.84,0,0,0,.386,1.257C142.767,1913.921,142.84,1913.871,142.812,1913.814Z" transform="translate(-129.346 -1870.357)" fill="#9a9a9a"/>
      <path id="Trazado_8437" data-name="Trazado 8437" d="M143.079,1910.74a.053.053,0,0,0-.105.006c-.019.619-.561.994-.936,1.4a1.974,1.974,0,0,0-.48.936.045.045,0,1,0,.088.021,2.723,2.723,0,0,1,1.017-1.347A1.2,1.2,0,0,0,143.079,1910.74Z" transform="translate(-130.028 -1870.402)" fill="#9a9a9a"/>
      <path id="Trazado_8438" data-name="Trazado 8438" d="M143.405,1910.127a1.551,1.551,0,0,0-.861.344c-.362.3-.529.792-1,.945-.5.163-.812-.161-1.253-.293a.6.6,0,0,0-.666.152c-.036.041.017.116.064.077.416-.347.829.107,1.223.227a1.137,1.137,0,0,0,.79-.055,1.551,1.551,0,0,0,.591-.54,1.892,1.892,0,0,1,1.127-.762A.049.049,0,0,0,143.405,1910.127Z" transform="translate(-131.727 -1870.896)" fill="#9a9a9a"/>
      <path id="Trazado_8439" data-name="Trazado 8439" d="M144.271,1913.651a2.015,2.015,0,0,1-.478-1.035c-.034-.268.006-.536-.006-.8a1.938,1.938,0,0,0-.465-1.169c-.043-.052-.133.024-.092.079a1.948,1.948,0,0,1,.4.962c.032.291-.023.582.013.872a2.245,2.245,0,0,0,.546,1.189C144.239,1913.8,144.322,1913.711,144.271,1913.651Z" transform="translate(-128.571 -1870.46)" fill="#9a9a9a"/>
      <path id="Trazado_8440" data-name="Trazado 8440" d="M144.7,1912.194a1.557,1.557,0,0,0-.334-.48c-.257-.248-.643-.379-.7-.79-.009-.071-.124-.094-.131-.011-.039.366.182.571.463.756a1.449,1.449,0,0,1,.7,1.617.048.048,0,0,0,.094.021A1.561,1.561,0,0,0,144.7,1912.194Z" transform="translate(-128.296 -1870.254)" fill="#9a9a9a"/>
      <path id="Trazado_8441" data-name="Trazado 8441" d="M143.145,1913.085a1.79,1.79,0,0,1-.028-1.291,1.188,1.188,0,0,0,.013-.8.058.058,0,0,0-.111.038c.131.437-.122.8-.169,1.227a1.771,1.771,0,0,0,.184.865C143.063,1913.192,143.174,1913.157,143.145,1913.085Z" transform="translate(-128.899 -1870.17)" fill="#9a9a9a"/>
      <path id="Trazado_8442" data-name="Trazado 8442" d="M143.9,1911.65c0-.049-.083-.058-.086-.005a3.914,3.914,0,0,1-.61,1.386,1.9,1.9,0,0,0-.156,1.092c.009.067.113.064.105-.006a2.072,2.072,0,0,1,.42-1.459A1.87,1.87,0,0,0,143.9,1911.65Z" transform="translate(-128.737 -1869.597)" fill="#9a9a9a"/>
      <path id="Trazado_8443" data-name="Trazado 8443" d="M143.223,1912.371c-.009-.049-.092-.034-.084.017.075.484.651.8.566,1.315-.013.069.092.092.1.022C143.905,1913.162,143.328,1912.872,143.223,1912.371Z" transform="translate(-128.642 -1868.956)" fill="#9a9a9a"/>
      <path id="Trazado_8444" data-name="Trazado 8444" d="M142.807,1911.228c-.289.2-.675.176-.983.366a1.572,1.572,0,0,0-.625.717.052.052,0,0,0,.092.051,1.7,1.7,0,0,1,.8-.769,3.591,3.591,0,0,0,.765-.289C142.9,1911.269,142.854,1911.2,142.807,1911.228Z" transform="translate(-130.344 -1869.938)" fill="#9a9a9a"/>
      <path id="Trazado_8445" data-name="Trazado 8445" d="M141.674,1911.672c.047-.39-.221-.794-.054-1.167.022-.052-.051-.092-.077-.041a.859.859,0,0,0-.039.612,1.4,1.4,0,0,1-.268,1.277.053.053,0,0,0,.077.072A1.262,1.262,0,0,0,141.674,1911.672Z" transform="translate(-130.32 -1870.621)" fill="#9a9a9a"/>
      <path id="Trazado_8446" data-name="Trazado 8446" d="M142.065,1910.235c-.476.377-1.381-.006-1.671.67a.047.047,0,0,0,.083.045c.4-.587,1.171-.2,1.645-.646C142.159,1910.269,142.106,1910.2,142.065,1910.235Z" transform="translate(-131.05 -1870.808)" fill="#9a9a9a"/>
    </g>
    <g id="Grupo_2559" data-name="Grupo 2559" transform="translate(35.916 1991.902)">
      <path id="Trazado_8447" data-name="Trazado 8447" d="M31.493,1919.68a.262.262,0,0,0,.261.264.117.117,0,0,0,.163.118,22.746,22.746,0,0,0,2.744-1.5,18.93,18.93,0,0,1,2.718-1.947,3.622,3.622,0,0,1,3.68.171,12.065,12.065,0,0,0,3.071,1.208.183.183,0,0,0,.233-.212,5.7,5.7,0,0,0-2.1-4.061,1.278,1.278,0,0,0-.985-.15,2.528,2.528,0,0,1-1.422-.313,4.093,4.093,0,0,0-2.386-.28A6.959,6.959,0,0,0,31.493,1919.68Z" transform="translate(-11.481 -1895.984)" fill="#6a9d13"/>
      <path id="Trazado_8448" data-name="Trazado 8448" d="M23.873,1922.616a17.091,17.091,0,0,1,5.457-3.3,8.972,8.972,0,0,0,2.506-1.375c.69-.567,1.561-1.373,2.491-1.242a1.437,1.437,0,0,1,.576.337c.174.165.535.038.452-.234a3.89,3.89,0,0,0-2.821-2.682,4.326,4.326,0,0,0-3.888,1.232c-.707.606-1.533.932-2.281,1.465a5.633,5.633,0,0,0-1.373,1.416,10.906,10.906,0,0,0-1.491,4.142A.231.231,0,0,0,23.873,1922.616Z" transform="translate(-18.486 -1895.011)" fill="#789714"/>
      <path id="Trazado_8449" data-name="Trazado 8449" d="M22.6,1917.22a8.977,8.977,0,0,1,2.81-2.41,7.889,7.889,0,0,1,1.881-.428c.33-.067.643-.2.974-.268a4.008,4.008,0,0,1,1.187.011,9.532,9.532,0,0,1,4.26,1.292,9.034,9.034,0,0,1,3,2.7.268.268,0,0,0,.287.122.085.085,0,0,0,.09-.037.232.232,0,0,0,.1-.261c-.032-.14-.069-.28-.1-.42a7.154,7.154,0,0,0-1.623-4.727,2.792,2.792,0,0,0-1.911-.94,4.419,4.419,0,0,1-1.613-.157c-.5-.2-.981-.417-1.5-.57a5.575,5.575,0,0,0-5.147.745c-1.621,1.253-2.373,3.249-3.061,5.108C22.15,1917.184,22.444,1917.394,22.6,1917.22Z" transform="translate(-19.607 -1897.814)" fill="#6a9d13"/>
      <path id="Trazado_8450" data-name="Trazado 8450" d="M20.828,1911.882c.041.45.431.6.835.572a14.159,14.159,0,0,0,2.474-.66c.85-.234,1.7-.493,2.559-.685a8.385,8.385,0,0,1,5.239.623,9.69,9.69,0,0,1,3.742,2.656c.81.985,1.232,2.356,2.5,2.862.206.084.36-.133.338-.313a31.466,31.466,0,0,0-.726-3.793,9.858,9.858,0,0,0-.722-2.793,6.325,6.325,0,0,0-3.148-3.264,11.209,11.209,0,0,0-9.248.221,6.578,6.578,0,0,0-3.119,2.889C21.3,1910.65,20.777,1911.348,20.828,1911.882Z" transform="translate(-20.824 -1901.873)" fill="#80af1b"/>
      <path id="Trazado_8451" data-name="Trazado 8451" d="M30.86,1916.131a.251.251,0,0,0,.463.077,2.44,2.44,0,0,0,.812-1.021,18.388,18.388,0,0,0,.987-1.969c.311-.717.535-1.461.814-2.189a4.251,4.251,0,0,1,1.471-1.9,7.96,7.96,0,0,1,4.014-1.859c1.591-.2,3.185-.371,4.778-.555a.23.23,0,0,0,.1-.407,10.9,10.9,0,0,0-5.308-2.4,3.653,3.653,0,0,0-2.307.484,10.367,10.367,0,0,1-1.336.951c-.437.193-.921.265-1.364.45C30.17,1907.391,30.1,1912.745,30.86,1916.131Z" transform="translate(-12.369 -1903.889)" fill="#a5c82b"/>
      <path id="Trazado_8452" data-name="Trazado 8452" d="M31.285,1917.794c0,.156,0,.313,0,.473.013.239.355.417.493.157A14.225,14.225,0,0,1,34,1915.061c1-1.007,2.243-1.26,3.481-1.848.63-.3,1.193-.72,1.821-1.02a6.2,6.2,0,0,1,2.225-.475,4.333,4.333,0,0,1,2.459.342,7.646,7.646,0,0,1,1.694,1.33c.135.135.431.075.42-.152a7.522,7.522,0,0,0-2.872-4.856,5.6,5.6,0,0,0-5.509-.765,8.881,8.881,0,0,0-4.637,3.8,19.917,19.917,0,0,0-1.857,6.274A.094.094,0,0,0,31.285,1917.794Z" transform="translate(-11.719 -1900.967)" fill="#80af1b"/>
      <path id="Trazado_8453" data-name="Trazado 8453" d="M30.924,1913.482a15.981,15.981,0,0,1,1.891-4.992,6.285,6.285,0,0,1,3.7-2.988,9.894,9.894,0,0,1,5.98-.353c.122.037.049.221-.071.184a7.4,7.4,0,0,0-3.714-.051,12.418,12.418,0,0,0-3.011.958c-2,1-3.082,3.279-3.767,5.3-1.527,4.511-1,9.418-.542,14.065.017.18-.253.229-.278.049C30.585,1921.613,30.08,1917.524,30.924,1913.482Z" transform="translate(-12.373 -1903.071)" fill="#80af1b"/>
      <path id="Trazado_8454" data-name="Trazado 8454" d="M30.972,1921.262a27.451,27.451,0,0,1,.379-3.133,15.306,15.306,0,0,1,1.765-4.941,8.759,8.759,0,0,1,7.522-4.721,6.18,6.18,0,0,1,4.479,1.9c.09.1-.056.227-.15.137a6.475,6.475,0,0,0-5.4-1.609,8.1,8.1,0,0,0-4.956,2.9,12.916,12.916,0,0,0-2.607,5.389,23.827,23.827,0,0,0-.555,3.616c-.047.563-.079,1.124-.105,1.686a8.384,8.384,0,0,1-.124,1.724.156.156,0,0,1-.3-.013A11.08,11.08,0,0,1,30.972,1921.262Z" transform="translate(-12.057 -1899.879)" fill="#719716"/>
      <path id="Trazado_8455" data-name="Trazado 8455" d="M34.382,1915.573a7.73,7.73,0,0,1,4.554-1.941,5.365,5.365,0,0,1,2.62.447,4.452,4.452,0,0,1,1.756,1.863c.064.109-.107.2-.173.09a4.172,4.172,0,0,0-2.122-1.818,5.451,5.451,0,0,0-2.6-.135,7.787,7.787,0,0,0-4.153,2.209,9.1,9.1,0,0,0-2.377,4.536,16.507,16.507,0,0,0-.017,5.492.166.166,0,0,1-.323.073C30.519,1922.722,31.44,1918.124,34.382,1915.573Z" transform="translate(-11.788 -1895.365)" fill="#7ba819"/>
      <path id="Trazado_8456" data-name="Trazado 8456" d="M24.221,1919.91a13.411,13.411,0,0,1,3.72-3.68,6.186,6.186,0,0,1,4.716-1.491,4.97,4.97,0,0,1,3.26,2.954,14.075,14.075,0,0,1,1.533,5.293c.015.234-.368.264-.411.036a20.306,20.306,0,0,0-1.337-4.774c-.66-1.45-1.673-2.915-3.38-3.127-1.683-.208-3.2.7-4.513,1.632a12.5,12.5,0,0,0-3.416,3.266A.1.1,0,0,1,24.221,1919.91Z" transform="translate(-17.863 -1894.453)" fill="#72870f"/>
      <path id="Trazado_8457" data-name="Trazado 8457" d="M23.014,1914.2a7.281,7.281,0,0,1,5.057-2.7,8.422,8.422,0,0,1,5.629,2.363,11.478,11.478,0,0,1,3.466,5.228,25.152,25.152,0,0,1,1.294,7.027.228.228,0,0,1-.448.04,57.328,57.328,0,0,0-1.127-6.325,10.829,10.829,0,0,0-2.949-5.179,8.7,8.7,0,0,0-5.438-2.763c-2.142-.124-3.857,1.052-5.35,2.454C23.054,1914.438,22.928,1914.293,23.014,1914.2Z" transform="translate(-18.931 -1897.221)" fill="#82aa17"/>
      <path id="Trazado_8458" data-name="Trazado 8458" d="M22.256,1909.3a8.084,8.084,0,0,1,4.883-1.694,12.814,12.814,0,0,1,2.984.019,6.926,6.926,0,0,1,2.57,1.1c3.39,2.236,4.834,6.331,5.41,10.174.392,2.619.55,5.271.891,7.9.041.317-.433.443-.491.118-.724-4.025-.546-8.177-1.87-12.095a11.842,11.842,0,0,0-2.913-4.746,8.466,8.466,0,0,0-2.317-1.619,6.6,6.6,0,0,0-2.962-.523c-2.093.019-4.335.18-6.051,1.512C22.291,1909.52,22.16,1909.385,22.256,1909.3Z" transform="translate(-19.6 -1900.7)" fill="#719716"/>
      <path id="Trazado_8459" data-name="Trazado 8459" d="M30.388,1920.5a41.792,41.792,0,0,0,.891,4.378c.42,2.525.088,5.243,1.536,7.49.161.251.61.212.613-.137a58.62,58.62,0,0,0-.752-9.724,39.139,39.139,0,0,1-.889-5.048,30.1,30.1,0,0,0-.666-5.678A38.288,38.288,0,0,0,30.388,1920.5Z" transform="translate(-12.478 -1896.985)" fill="#98c40e"/>
      <path id="Trazado_8460" data-name="Trazado 8460" d="M29.25,1920.45c.111,1.651.962,2.275,1.079,2.924.032.173.122-.3.1-.469a3.33,3.33,0,0,1-.077-1.784c.051-.3.465-1.949,1.354-1.289a1.9,1.9,0,0,1,.422.861,12.318,12.318,0,0,1,.375,2.7c.141,1.238.283,2.474.418,3.71a4.632,4.632,0,0,1,.015,2.32,6.737,6.737,0,0,0-.589,1.131c-.793,2.962,4.166,5.616,6.353,3.716a2.05,2.05,0,0,0-.242-3.249c-.769-.63-1.8-.9-2.348-1.784a7.669,7.669,0,0,1-.827-2.365c-.664-2.966-.405-7.128-2.943-9.3-.9-.771-2.63-.923-2.977.446A6.229,6.229,0,0,0,29.25,1920.45Z" transform="translate(-13.49 -1892.415)" fill="#80af1b"/>
      <path id="Trazado_8461" data-name="Trazado 8461" d="M32.158,1924.863a.978.978,0,0,0-.893.707c-.118.377-.06.705-.326,1.037a2.232,2.232,0,0,1-.99.608c-.069.028-.034.141.038.115a2.193,2.193,0,0,0,1.135-.76,2.111,2.111,0,0,0,.221-.677,1.283,1.283,0,0,1,.835-.927A.054.054,0,0,0,32.158,1924.863Z" transform="translate(-12.866 -1885.52)" fill="#9a9a9a"/>
      <path id="Trazado_8462" data-name="Trazado 8462" d="M34.4,1925.815c-.026-.056-.109-.009-.092.047.131.439.739.388.852.844.017.064.105.039.105-.021C35.271,1926.211,34.58,1926.181,34.4,1925.815Z" transform="translate(-9.014 -1884.708)" fill="#9a9a9a"/>
      <path id="Trazado_8463" data-name="Trazado 8463" d="M31.08,1926.305c-.083-.394-.4-.741-.214-1.163a.047.047,0,0,0-.083-.043.794.794,0,0,0-.019.651,1.908,1.908,0,0,1,.148,1.317c-.023.071.086.094.111.024A1.491,1.491,0,0,0,31.08,1926.305Z" transform="translate(-12.171 -1885.336)" fill="#9a9a9a"/>
      <path id="Trazado_8464" data-name="Trazado 8464" d="M31.743,1925.36a.815.815,0,0,0-.343.482c-.079.336.116.771-.206,1.013-.06.045,0,.145.064.1a.653.653,0,0,0,.249-.523c.024-.379-.049-.72.3-.968A.062.062,0,0,0,31.743,1925.36Z" transform="translate(-11.764 -1885.094)" fill="#9a9a9a"/>
      <path id="Trazado_8465" data-name="Trazado 8465" d="M33.028,1925.849c-.46-.088-.713.478-.762.867a5.4,5.4,0,0,1-.083,1.116,1.771,1.771,0,0,1-.848.878c-.045.03-.008.115.043.09a1.789,1.789,0,0,0,.97-.964,3.838,3.838,0,0,0,.135-.838,2.607,2.607,0,0,1,.068-.45c.1-.321.264-.4.5-.574A.071.071,0,0,0,33.028,1925.849Z" transform="translate(-11.635 -1884.664)" fill="#9a9a9a"/>
      <path id="Trazado_8466" data-name="Trazado 8466" d="M33.957,1929.149a2.351,2.351,0,0,1-.613-.831,2.9,2.9,0,0,1,.028-1.078,1.33,1.33,0,0,0-.233-1.022c-.039-.045-.116.011-.1.064a8.04,8.04,0,0,1,.137,1.84,1.839,1.839,0,0,0,.713,1.1A.049.049,0,0,0,33.957,1929.149Z" transform="translate(-10.126 -1884.349)" fill="#9a9a9a"/>
      <path id="Trazado_8467" data-name="Trazado 8467" d="M33.25,1926.249a.053.053,0,0,0-.1.035c.152.6-.268,1.109-.52,1.6a1.976,1.976,0,0,0-.206,1.032.045.045,0,1,0,.09-.006,2.735,2.735,0,0,1,.612-1.572A1.194,1.194,0,0,0,33.25,1926.249Z" transform="translate(-10.668 -1884.338)" fill="#9a9a9a"/>
      <path id="Trazado_8468" data-name="Trazado 8468" d="M33.553,1925.864a1.562,1.562,0,0,0-.735.566c-.268.385-.294.9-.7,1.182-.439.294-.825.065-1.285.06a.593.593,0,0,0-.6.326c-.023.051.049.107.083.058.308-.448.827-.124,1.238-.116a1.13,1.13,0,0,0,.745-.266,1.535,1.535,0,0,0,.422-.681,1.9,1.9,0,0,1,.878-1.039A.05.05,0,0,0,33.553,1925.864Z" transform="translate(-12.591 -1884.645)" fill="#9a9a9a"/>
      <path id="Trazado_8469" data-name="Trazado 8469" d="M35.486,1928.546a2.019,2.019,0,0,1-.741-.867c-.107-.248-.143-.516-.225-.771a1.921,1.921,0,0,0-.767-1c-.056-.039-.12.058-.066.1a1.962,1.962,0,0,1,.645.818c.109.27.135.567.249.836a2.253,2.253,0,0,0,.85.994C35.5,1928.7,35.551,1928.591,35.486,1928.546Z" transform="translate(-9.578 -1884.611)" fill="#9a9a9a"/>
      <path id="Trazado_8470" data-name="Trazado 8470" d="M35.506,1927.025a1.612,1.612,0,0,0-.452-.37c-.317-.169-.724-.189-.891-.57-.028-.064-.143-.056-.129.026.062.362.332.5.653.6a1.443,1.443,0,0,1,1.116,1.364.049.049,0,0,0,.1-.005A1.56,1.56,0,0,0,35.506,1927.025Z" transform="translate(-9.257 -1884.487)" fill="#9a9a9a"/>
      <path id="Trazado_8471" data-name="Trazado 8471" d="M34.172,1928.33a1.818,1.818,0,0,1-.379-1.234,1.178,1.178,0,0,0-.2-.775.058.058,0,0,0-.1.066c.246.386.1.807.171,1.227a1.751,1.751,0,0,0,.415.782C34.123,1928.454,34.219,1928.39,34.172,1928.33Z" transform="translate(-9.738 -1884.264)" fill="#9a9a9a"/>
      <path id="Trazado_8472" data-name="Trazado 8472" d="M34.346,1926.819c-.013-.049-.1-.034-.086.017a3.91,3.91,0,0,1-.208,1.5,1.92,1.92,0,0,0,.148,1.094c.026.062.124.03.1-.036a2.058,2.058,0,0,1,.007-1.517A1.88,1.88,0,0,0,34.346,1926.819Z" transform="translate(-9.262 -1883.833)" fill="#9a9a9a"/>
      <path id="Trazado_8473" data-name="Trazado 8473" d="M34.132,1927.6c-.023-.045-.1-.008-.077.04.2.444.844.593.9,1.11.009.069.114.064.107-.006C35,1928.173,34.37,1928.05,34.132,1927.6Z" transform="translate(-9.24 -1883.143)" fill="#9a9a9a"/>
      <path id="Trazado_8474" data-name="Trazado 8474" d="M33.285,1926.813c-.225.272-.6.353-.846.619a1.566,1.566,0,0,0-.407.859.052.052,0,1,0,.1.022,1.718,1.718,0,0,1,.557-.957,3.426,3.426,0,0,0,.658-.486C33.385,1926.828,33.321,1926.768,33.285,1926.813Z" transform="translate(-11.009 -1883.825)" fill="#9a9a9a"/>
      <path id="Trazado_8475" data-name="Trazado 8475" d="M32.315,1927.385c-.062-.388-.43-.7-.37-1.107.008-.056-.075-.075-.086-.019a.859.859,0,0,0,.129.6,1.4,1.4,0,0,1,.088,1.3.053.053,0,0,0,.094.049A1.251,1.251,0,0,0,32.315,1927.385Z" transform="translate(-11.172 -1884.326)" fill="#9a9a9a"/>
      <path id="Trazado_8476" data-name="Trazado 8476" d="M32.352,1926.068c-.355.493-1.33.371-1.426,1.1a.047.047,0,0,0,.092.021c.219-.673,1.073-.508,1.407-1.071C32.451,1926.075,32.382,1926.026,32.352,1926.068Z" transform="translate(-11.978 -1884.479)" fill="#9a9a9a"/>
    </g>
    <g id="Grupo_2560" data-name="Grupo 2560" transform="translate(70.65 1975.347)">
      <path id="Trazado_8477" data-name="Trazado 8477" d="M50.01,1910.854a.262.262,0,0,0,.261.265.116.116,0,0,0,.163.118,22.408,22.408,0,0,0,2.744-1.5,18.948,18.948,0,0,1,2.718-1.947,3.63,3.63,0,0,1,3.682.171,12.03,12.03,0,0,0,3.069,1.21.185.185,0,0,0,.233-.214,5.7,5.7,0,0,0-2.1-4.061,1.266,1.266,0,0,0-.985-.148,2.559,2.559,0,0,1-1.422-.313,4.084,4.084,0,0,0-2.386-.281A6.959,6.959,0,0,0,50.01,1910.854Z" transform="translate(-29.998 -1887.159)" fill="#6a9d13"/>
      <path id="Trazado_8478" data-name="Trazado 8478" d="M42.39,1913.792a17.052,17.052,0,0,1,5.457-3.3,8.863,8.863,0,0,0,2.506-1.375c.692-.566,1.561-1.373,2.491-1.24a1.4,1.4,0,0,1,.576.338c.174.163.535.036.452-.236a3.89,3.89,0,0,0-2.821-2.682,4.331,4.331,0,0,0-3.888,1.232c-.707.606-1.531.934-2.281,1.465a5.7,5.7,0,0,0-1.373,1.416,10.907,10.907,0,0,0-1.491,4.142A.232.232,0,0,0,42.39,1913.792Z" transform="translate(-37.003 -1886.186)" fill="#789714"/>
      <path id="Trazado_8479" data-name="Trazado 8479" d="M41.113,1908.393a9.019,9.019,0,0,1,2.81-2.41,7.91,7.91,0,0,1,1.881-.428c.332-.067.643-.2.974-.266a3.991,3.991,0,0,1,1.187.009,9.529,9.529,0,0,1,4.26,1.292,9.02,9.02,0,0,1,3,2.7.265.265,0,0,0,.287.122.084.084,0,0,0,.09-.038.23.23,0,0,0,.1-.261c-.032-.139-.069-.279-.1-.418a7.162,7.162,0,0,0-1.623-4.729,2.792,2.792,0,0,0-1.911-.94,4.377,4.377,0,0,1-1.613-.157c-.5-.2-.981-.416-1.5-.57a5.576,5.576,0,0,0-5.147.745c-1.621,1.253-2.373,3.251-3.061,5.108C40.669,1908.358,40.961,1908.568,41.113,1908.393Z" transform="translate(-38.123 -1888.989)" fill="#6a9d13"/>
      <path id="Trazado_8480" data-name="Trazado 8480" d="M39.345,1903.056c.041.45.431.606.835.572a14.349,14.349,0,0,0,2.474-.658c.85-.236,1.7-.5,2.559-.685a8.359,8.359,0,0,1,5.239.623,9.673,9.673,0,0,1,3.742,2.654c.81.985,1.232,2.356,2.5,2.864.206.083.36-.135.338-.315a31.37,31.37,0,0,0-.726-3.791,9.874,9.874,0,0,0-.722-2.795,6.317,6.317,0,0,0-3.148-3.264,11.207,11.207,0,0,0-9.248.221,6.577,6.577,0,0,0-3.119,2.888C39.815,1901.824,39.294,1902.522,39.345,1903.056Z" transform="translate(-39.341 -1893.047)" fill="#80af1b"/>
      <path id="Trazado_8481" data-name="Trazado 8481" d="M49.377,1907.3a.251.251,0,0,0,.463.077,2.441,2.441,0,0,0,.812-1.02,18.55,18.55,0,0,0,.987-1.968c.311-.718.535-1.463.816-2.191a4.251,4.251,0,0,1,1.469-1.9,7.954,7.954,0,0,1,4.014-1.859c1.591-.2,3.185-.371,4.778-.555a.23.23,0,0,0,.1-.407,10.908,10.908,0,0,0-5.308-2.4,3.649,3.649,0,0,0-2.305.486,10.618,10.618,0,0,1-1.337.949c-.437.193-.921.264-1.364.45C48.687,1898.565,48.616,1903.919,49.377,1907.3Z" transform="translate(-30.886 -1895.063)" fill="#a5c82b"/>
      <path id="Trazado_8482" data-name="Trazado 8482" d="M49.8,1908.968c0,.156,0,.313,0,.473.013.238.355.416.493.159a14.187,14.187,0,0,1,2.213-3.363c1-1.009,2.243-1.262,3.481-1.848.63-.3,1.193-.722,1.821-1.022a6.2,6.2,0,0,1,2.225-.475,4.333,4.333,0,0,1,2.459.342,7.548,7.548,0,0,1,1.694,1.332c.135.133.431.073.422-.152a7.538,7.538,0,0,0-2.874-4.858,5.6,5.6,0,0,0-5.509-.765,8.874,8.874,0,0,0-4.637,3.8,19.892,19.892,0,0,0-1.857,6.273A.094.094,0,0,0,49.8,1908.968Z" transform="translate(-30.236 -1892.142)" fill="#80af1b"/>
      <path id="Trazado_8483" data-name="Trazado 8483" d="M49.441,1904.657a15.988,15.988,0,0,1,1.891-4.993,6.291,6.291,0,0,1,3.7-2.988,9.9,9.9,0,0,1,5.98-.353c.122.04.049.221-.071.184a7.415,7.415,0,0,0-3.714-.051,12.408,12.408,0,0,0-3.011.959c-2,1.005-3.082,3.279-3.767,5.3-1.527,4.511-1,9.418-.542,14.066.019.178-.253.227-.278.047C49.1,1912.787,48.6,1908.7,49.441,1904.657Z" transform="translate(-30.89 -1894.245)" fill="#80af1b"/>
      <path id="Trazado_8484" data-name="Trazado 8484" d="M49.489,1912.435a27.452,27.452,0,0,1,.379-3.133,15.306,15.306,0,0,1,1.765-4.941,8.754,8.754,0,0,1,7.522-4.719,6.173,6.173,0,0,1,4.479,1.9c.09.1-.056.227-.15.137a6.474,6.474,0,0,0-5.4-1.608,8.084,8.084,0,0,0-4.956,2.9,12.922,12.922,0,0,0-2.605,5.389,23.594,23.594,0,0,0-.557,3.619c-.047.561-.079,1.122-.105,1.684a8.384,8.384,0,0,1-.124,1.724.155.155,0,0,1-.3-.013A11.081,11.081,0,0,1,49.489,1912.435Z" transform="translate(-30.574 -1891.054)" fill="#719716"/>
      <path id="Trazado_8485" data-name="Trazado 8485" d="M52.9,1906.747a7.7,7.7,0,0,1,4.553-1.94,5.363,5.363,0,0,1,2.62.444,4.452,4.452,0,0,1,1.756,1.863c.064.111-.107.2-.173.092a4.147,4.147,0,0,0-2.122-1.818,5.454,5.454,0,0,0-2.6-.137,7.8,7.8,0,0,0-4.153,2.21A9.1,9.1,0,0,0,50.4,1912a16.507,16.507,0,0,0-.017,5.492.166.166,0,0,1-.323.073C49.036,1913.9,49.957,1909.3,52.9,1906.747Z" transform="translate(-30.305 -1886.539)" fill="#7ba819"/>
      <path id="Trazado_8486" data-name="Trazado 8486" d="M42.738,1911.084a13.383,13.383,0,0,1,3.72-3.678,6.181,6.181,0,0,1,4.716-1.493,4.966,4.966,0,0,1,3.26,2.954,14.074,14.074,0,0,1,1.533,5.294c.015.236-.368.264-.411.035a20.3,20.3,0,0,0-1.337-4.774c-.66-1.45-1.673-2.915-3.38-3.127-1.683-.208-3.2.7-4.513,1.632a12.5,12.5,0,0,0-3.416,3.266A.1.1,0,0,1,42.738,1911.084Z" transform="translate(-36.38 -1885.628)" fill="#72870f"/>
      <path id="Trazado_8487" data-name="Trazado 8487" d="M41.531,1905.375a7.28,7.28,0,0,1,5.057-2.7,8.422,8.422,0,0,1,5.631,2.365,11.5,11.5,0,0,1,3.466,5.226,25.217,25.217,0,0,1,1.292,7.027.228.228,0,0,1-.448.039,57.4,57.4,0,0,0-1.127-6.325,10.822,10.822,0,0,0-2.949-5.177,8.683,8.683,0,0,0-5.438-2.763c-2.142-.126-3.857,1.051-5.35,2.452C41.571,1905.611,41.445,1905.467,41.531,1905.375Z" transform="translate(-37.448 -1888.396)" fill="#82aa17"/>
      <path id="Trazado_8488" data-name="Trazado 8488" d="M40.773,1900.477a8.084,8.084,0,0,1,4.883-1.694,12.7,12.7,0,0,1,2.984.021,6.883,6.883,0,0,1,2.57,1.1c3.39,2.236,4.836,6.333,5.41,10.174.392,2.62.55,5.271.891,7.9.041.317-.433.442-.491.116-.724-4.025-.546-8.176-1.868-12.095a11.863,11.863,0,0,0-2.915-4.746,8.462,8.462,0,0,0-2.317-1.619,6.592,6.592,0,0,0-2.962-.523c-2.093.019-4.335.18-6.051,1.512C40.808,1900.694,40.677,1900.559,40.773,1900.477Z" transform="translate(-38.117 -1891.875)" fill="#719716"/>
      <path id="Trazado_8489" data-name="Trazado 8489" d="M48.9,1911.67a41.853,41.853,0,0,0,.891,4.38c.42,2.523.088,5.241,1.536,7.488.161.251.61.212.613-.137a58.6,58.6,0,0,0-.752-9.722,38.824,38.824,0,0,1-.887-5.05,30.258,30.258,0,0,0-.668-5.676A38.271,38.271,0,0,0,48.9,1911.67Z" transform="translate(-30.995 -1888.159)" fill="#98c40e"/>
      <path id="Trazado_8490" data-name="Trazado 8490" d="M47.767,1911.623c.111,1.653.962,2.275,1.079,2.926.032.171.122-.3.1-.471a3.351,3.351,0,0,1-.077-1.784c.051-.3.465-1.949,1.354-1.289a1.888,1.888,0,0,1,.422.861,12.32,12.32,0,0,1,.375,2.7c.141,1.236.283,2.472.418,3.71a4.582,4.582,0,0,1,.015,2.318,6.96,6.96,0,0,0-.589,1.131c-.793,2.962,4.166,5.616,6.353,3.716a2.05,2.05,0,0,0-.242-3.249c-.769-.63-1.8-.9-2.348-1.784a7.716,7.716,0,0,1-.827-2.365c-.664-2.964-.405-7.128-2.943-9.3-.9-.769-2.63-.921-2.975.447A6.187,6.187,0,0,0,47.767,1911.623Z" transform="translate(-32.007 -1883.59)" fill="#80af1b"/>
      <path id="Trazado_8491" data-name="Trazado 8491" d="M50.675,1916.038a.977.977,0,0,0-.893.705c-.118.377-.06.705-.326,1.037a2.233,2.233,0,0,1-.99.61c-.069.026-.032.139.038.113a2.193,2.193,0,0,0,1.135-.76,2.114,2.114,0,0,0,.221-.677,1.283,1.283,0,0,1,.835-.927A.052.052,0,0,0,50.675,1916.038Z" transform="translate(-31.383 -1876.694)" fill="#9a9a9a"/>
      <path id="Trazado_8492" data-name="Trazado 8492" d="M52.923,1916.989c-.028-.056-.111-.009-.094.047.131.439.739.388.852.844.017.066.105.04.105-.021C53.788,1917.385,53.1,1917.355,52.923,1916.989Z" transform="translate(-27.531 -1875.883)" fill="#9a9a9a"/>
      <path id="Trazado_8493" data-name="Trazado 8493" d="M49.6,1917.481c-.083-.4-.4-.743-.214-1.165.024-.055-.054-.1-.081-.043a.788.788,0,0,0-.021.651,1.919,1.919,0,0,1,.15,1.317c-.023.071.086.094.109.024A1.485,1.485,0,0,0,49.6,1917.481Z" transform="translate(-30.688 -1876.51)" fill="#9a9a9a"/>
      <path id="Trazado_8494" data-name="Trazado 8494" d="M50.262,1916.535a.793.793,0,0,0-.343.482c-.081.334.114.769-.208,1.011-.06.045,0,.144.064.1a.65.65,0,0,0,.249-.523c.024-.377-.049-.72.3-.968C50.391,1916.594,50.326,1916.49,50.262,1916.535Z" transform="translate(-30.281 -1876.268)" fill="#9a9a9a"/>
      <path id="Trazado_8495" data-name="Trazado 8495" d="M51.547,1917.023c-.46-.088-.715.478-.763.866a5.29,5.29,0,0,1-.083,1.118,1.759,1.759,0,0,1-.848.876c-.045.03-.007.115.045.09a1.792,1.792,0,0,0,.968-.964,3.833,3.833,0,0,0,.135-.839,2.563,2.563,0,0,1,.068-.448c.1-.323.264-.4.5-.576A.071.071,0,0,0,51.547,1917.023Z" transform="translate(-30.152 -1875.839)" fill="#9a9a9a"/>
      <path id="Trazado_8496" data-name="Trazado 8496" d="M52.474,1920.323a2.353,2.353,0,0,1-.613-.831,2.9,2.9,0,0,1,.028-1.079,1.328,1.328,0,0,0-.233-1.022c-.039-.045-.116.011-.1.065a8.02,8.02,0,0,1,.137,1.838,1.848,1.848,0,0,0,.713,1.1A.049.049,0,0,0,52.474,1920.323Z" transform="translate(-28.643 -1875.524)" fill="#9a9a9a"/>
      <path id="Trazado_8497" data-name="Trazado 8497" d="M51.767,1917.424a.053.053,0,0,0-.1.034c.152.6-.268,1.108-.52,1.6a1.976,1.976,0,0,0-.206,1.032.045.045,0,1,0,.09,0,2.741,2.741,0,0,1,.612-1.574A1.185,1.185,0,0,0,51.767,1917.424Z" transform="translate(-29.185 -1875.511)" fill="#9a9a9a"/>
      <path id="Trazado_8498" data-name="Trazado 8498" d="M52.07,1917.04a1.55,1.55,0,0,0-.735.565c-.268.385-.295.906-.7,1.182-.439.295-.825.066-1.285.06a.593.593,0,0,0-.6.327c-.023.051.049.109.083.058.308-.447.827-.124,1.24-.116a1.13,1.13,0,0,0,.743-.266,1.523,1.523,0,0,0,.422-.681,1.9,1.9,0,0,1,.878-1.039A.049.049,0,0,0,52.07,1917.04Z" transform="translate(-31.108 -1875.82)" fill="#9a9a9a"/>
      <path id="Trazado_8499" data-name="Trazado 8499" d="M54,1919.721a2.035,2.035,0,0,1-.741-.868c-.107-.248-.143-.516-.225-.771a1.922,1.922,0,0,0-.767-1c-.056-.037-.12.058-.066.1a1.945,1.945,0,0,1,.645.816c.109.272.135.566.249.837a2.252,2.252,0,0,0,.85.994C54.016,1919.877,54.068,1919.765,54,1919.721Z" transform="translate(-28.095 -1875.785)" fill="#9a9a9a"/>
      <path id="Trazado_8500" data-name="Trazado 8500" d="M54.022,1918.2a1.6,1.6,0,0,0-.452-.371c-.317-.167-.724-.187-.891-.57-.028-.064-.143-.056-.128.026.06.362.33.5.651.6a1.447,1.447,0,0,1,1.118,1.364.048.048,0,0,0,.1-.006A1.556,1.556,0,0,0,54.022,1918.2Z" transform="translate(-27.773 -1875.662)" fill="#9a9a9a"/>
      <path id="Trazado_8501" data-name="Trazado 8501" d="M52.691,1919.5a1.8,1.8,0,0,1-.379-1.234,1.183,1.183,0,0,0-.206-.775.058.058,0,0,0-.1.066c.246.386.1.807.171,1.227a1.737,1.737,0,0,0,.415.782C52.64,1919.628,52.736,1919.566,52.691,1919.5Z" transform="translate(-28.255 -1875.439)" fill="#9a9a9a"/>
      <path id="Trazado_8502" data-name="Trazado 8502" d="M52.863,1917.993c-.011-.049-.1-.034-.084.017a3.91,3.91,0,0,1-.21,1.5,1.92,1.92,0,0,0,.148,1.094c.026.062.126.03.1-.034a2.064,2.064,0,0,1,.008-1.52A1.88,1.88,0,0,0,52.863,1917.993Z" transform="translate(-27.779 -1875.008)" fill="#9a9a9a"/>
      <path id="Trazado_8503" data-name="Trazado 8503" d="M52.65,1918.771c-.024-.045-.1-.007-.079.039.2.445.844.593.9,1.111a.053.053,0,1,0,.105-.006C53.521,1919.347,52.887,1919.224,52.65,1918.771Z" transform="translate(-27.757 -1874.318)" fill="#9a9a9a"/>
      <path id="Trazado_8504" data-name="Trazado 8504" d="M51.8,1917.987c-.225.272-.6.353-.846.619a1.571,1.571,0,0,0-.407.859.052.052,0,1,0,.1.024,1.71,1.71,0,0,1,.557-.957,3.447,3.447,0,0,0,.658-.486C51.9,1918,51.838,1917.943,51.8,1917.987Z" transform="translate(-29.526 -1875)" fill="#9a9a9a"/>
      <path id="Trazado_8505" data-name="Trazado 8505" d="M50.832,1918.559c-.062-.388-.43-.7-.37-1.106.007-.056-.075-.075-.086-.019a.859.859,0,0,0,.129.6,1.4,1.4,0,0,1,.09,1.3.052.052,0,1,0,.092.049A1.241,1.241,0,0,0,50.832,1918.559Z" transform="translate(-29.688 -1875.501)" fill="#9a9a9a"/>
      <path id="Trazado_8506" data-name="Trazado 8506" d="M50.869,1917.241c-.355.493-1.33.373-1.426,1.1a.047.047,0,0,0,.092.021c.219-.673,1.073-.507,1.407-1.069C50.968,1917.249,50.9,1917.2,50.869,1917.241Z" transform="translate(-30.495 -1875.654)" fill="#9a9a9a"/>
    </g>
    <path id="Trazado_8507" data-name="Trazado 8507" d="M376.538,1976.977c-6.505-18.137-16.749-23.657-26.494-35.291-11.9-14.209-19.928-24.537-16.837-42.813,5.048-29.866,7.211-104.346-71.852-94.611-28.337,3.489-50.732,25.207-67.022,46.883-13.864,18.444-38.8,20.071-58.869,24.372-24.659,5.282-49.779,13.263-72.6,24.957C15.88,1924.56,1.846,1959.181,3.761,2003.482c.58,13.382,2.474,34.464,25.081,59.132,30.515,33.293,74.857,37.752,128.226,22.462,12.215-3.5,23.762-8.991,35.78-13.123a168.887,168.887,0,0,1,38.615-8.385c30.652-2.963,62.426,2.4,91.831-6.754a96.9,96.9,0,0,0,41.072-25.473C378.41,2016.631,383.406,1996.121,376.538,1976.977Z" transform="translate(0 0)" fill="#69cfc5" opacity="0.21"/>
    <g id="Grupo_2565" data-name="Grupo 2565" transform="translate(282.007 1823.625)">
      <g id="Grupo_2564" data-name="Grupo 2564" transform="translate(0 5.505)">
        <g id="Grupo_2561" data-name="Grupo 2561" transform="translate(1.979 9.252)">
          <path id="Trazado_8508" data-name="Trazado 8508" d="M176.685,1853.931c13.718-.651,12.594-17.72,5.187-24.95-6.522-6.363-17.662-9.334-28.593-.221,25.565-14.972,35.722,16.079,26.45,19.264-8.726,3-11.69-7.051-5.762-11.635-.249.073-.484.157-.722.238C164.491,1842.947,169.506,1854.273,176.685,1853.931Z" transform="translate(-152.893 -1821.203)" fill="#a2d9f3"/>
          <path id="Trazado_8509" data-name="Trazado 8509" d="M189.953,1836.173c-4.8-13.024-24.036-20.806-36.88-6.348.131-.079.257-.148.386-.223,10.93-9.113,22.07-6.141,28.593.221,7.407,7.229,8.531,24.3-5.187,24.95-7.179.342-12.194-10.985-3.44-17.3-12.084,4.095-11.356,15.438-3.078,19.9C185.344,1865.443,194.892,1849.574,189.953,1836.173Z" transform="translate(-153.073 -1822.045)" fill="#a2d9f3"/>
        </g>
        <g id="Grupo_2562" data-name="Grupo 2562" transform="translate(41.987 20.557)">
          <path id="Trazado_8510" data-name="Trazado 8510" d="M194.161,1850.819c-10.448-4.387-16.88-16.558-19.114-21.453-.223-.427-.445-.857-.645-1.294,7.389,30.6,43.43,40.494,47.215,14.311C215.785,1853,205.474,1855.567,194.161,1850.819Z" transform="translate(-174.402 -1828.072)" fill="#a2d9f3"/>
          <path id="Trazado_8511" data-name="Trazado 8511" d="M193.86,1850.215c11.313,4.748,21.624,2.184,27.456-8.437.011-.072.03-.133.039-.2-10.287,12.736-37.5,4.637-46.609-12.812C176.98,1833.658,183.412,1845.828,193.86,1850.215Z" transform="translate(-174.101 -1827.468)" fill="#a2d9f3"/>
        </g>
        <g id="Grupo_2563" data-name="Grupo 2563">
          <path id="Trazado_8512" data-name="Trazado 8512" d="M172.849,1820.517c15.188.264,26.846,13.873,40.5,22.085,14.076,8.462,26.794.983,27.66-8.509.844-9.236-8.188-16.075-16.332-16.522-.053.017-.107.032-.158.049,12.806,3.134,9.8,16.7,4.222,20.352-16.1,10.536-52.029-47.255-76.727-3.525.326-.4.653-.775.975-1.155C155.711,1829.083,162.6,1820.341,172.849,1820.517Z" transform="translate(-152.018 -1816.711)" fill="#a2d9f3"/>
          <path id="Trazado_8513" data-name="Trazado 8513" d="M224.225,1817.974c8.145.447,17.177,7.286,16.332,16.522-.867,9.491-13.584,16.97-27.66,8.509-13.658-8.212-25.316-21.821-40.5-22.085-10.249-.176-17.137,8.567-19.855,12.776,8.5-9.958,16.162-12.534,25.042-9.424,17.124,6,29.707,29.465,49.637,27.876C257.019,1849.769,246.852,1810.89,224.225,1817.974Z" transform="translate(-151.563 -1817.113)" fill="#a2d9f3"/>
        </g>
      </g>
      <path id="Trazado_8514" data-name="Trazado 8514" d="M159.3,1819.83c23.916-14.609,45.285,26.315,62.011,16.756,6.016-3.437,3.009-14.894-7.876-10.741,6.016,0,5.672,4.862,2.005,6.3C207.417,1835.3,181.066,1801.068,159.3,1819.83Z" transform="translate(-145.642 -1814.178)" fill="#a2d9f3"/>
    </g>
    <g id="Grupo_2570" data-name="Grupo 2570" transform="translate(27.777 1845.313)">
      <g id="Grupo_2569" data-name="Grupo 2569" transform="translate(0 7.789)">
        <g id="Grupo_2566" data-name="Grupo 2566" transform="translate(2.801 13.09)">
          <path id="Trazado_8515" data-name="Trazado 8515" d="M51.387,1881.991c19.412-.923,17.822-25.075,7.34-35.3-9.229-9-24.991-13.207-40.457-.315,36.173-21.183,50.547,22.753,37.427,27.26-12.348,4.241-16.543-9.977-8.156-16.465-.353.1-.685.225-1.02.339C34.133,1866.449,41.231,1882.473,51.387,1881.991Z" transform="translate(-17.722 -1835.679)" fill="#a2d9f3"/>
          <path id="Trazado_8516" data-name="Trazado 8516" d="M70.162,1856.865c-6.79-18.43-34.012-29.442-52.184-8.983.186-.113.364-.208.548-.317,15.466-12.892,31.228-8.689,40.457.315,10.482,10.229,12.073,34.381-7.34,35.3-10.155.482-17.253-15.543-4.866-24.485-17.1,5.792-16.07,21.842-4.356,28.152C63.64,1898.28,77.151,1875.827,70.162,1856.865Z" transform="translate(-17.978 -1836.871)" fill="#a2d9f3"/>
        </g>
        <g id="Grupo_2567" data-name="Grupo 2567" transform="translate(59.413 29.088)">
          <path id="Trazado_8517" data-name="Trazado 8517" d="M76.116,1877.586c-14.783-6.207-23.884-23.427-27.043-30.356-.317-.606-.632-1.212-.914-1.831,10.454,43.3,61.452,57.3,66.808,20.247C106.715,1880.678,92.124,1884.3,76.116,1877.586Z" transform="translate(-48.159 -1845.4)" fill="#a2d9f3"/>
          <path id="Trazado_8518" data-name="Trazado 8518" d="M75.689,1876.732c16.008,6.717,30.6,3.092,38.851-11.939.017-.1.041-.186.054-.287-14.554,18.021-53.068,6.559-65.949-18.13C51.8,1853.305,60.906,1870.525,75.689,1876.732Z" transform="translate(-47.732 -1844.545)" fill="#a2d9f3"/>
        </g>
        <g id="Grupo_2568" data-name="Grupo 2568">
          <path id="Trazado_8519" data-name="Trazado 8519" d="M45.961,1834.709c21.491.375,37.986,19.632,57.311,31.25,19.919,11.973,37.911,1.39,39.14-12.039,1.193-13.071-11.585-22.748-23.111-23.378-.075.025-.15.045-.221.069,18.12,4.433,13.868,23.633,5.974,28.8-22.778,14.909-73.619-66.864-108.568-4.988.463-.57.925-1.1,1.382-1.634C21.713,1846.833,31.457,1834.46,45.961,1834.709Z" transform="translate(-16.485 -1829.324)" fill="#a2d9f3"/>
          <path id="Trazado_8520" data-name="Trazado 8520" d="M118.655,1831.112c11.527.63,24.3,10.307,23.111,23.378-1.229,13.429-19.221,24.012-39.14,12.039-19.324-11.618-35.82-30.875-57.311-31.25-14.5-.25-24.248,12.123-28.094,18.079,12.026-14.093,22.866-17.737,35.432-13.335,24.229,8.482,42.034,41.691,70.237,39.444C165.06,1876.1,150.672,1821.086,118.655,1831.112Z" transform="translate(-15.84 -1829.893)" fill="#a2d9f3"/>
        </g>
      </g>
      <path id="Trazado_8521" data-name="Trazado 8521" d="M26.786,1833.738c33.843-20.671,64.079,37.234,87.747,23.71,8.51-4.864,4.256-21.074-11.146-15.2,8.512,0,8.026,6.877,2.838,8.916C94.875,1855.622,57.59,1807.19,26.786,1833.738Z" transform="translate(-7.464 -1825.741)" fill="#a2d9f3"/>
    </g>
    <g id="Grupo_2571" data-name="Grupo 2571" transform="translate(20.936 2056.052)">
      <path id="Trazado_8522" data-name="Trazado 8522" d="M12.838,1950.114l6.32,46.973s170.81,25.212,319.759-2.292l2.874-56.707Z" transform="translate(-12.838 -1938.088)" fill="#83492a"/>
      <path id="Trazado_8523" data-name="Trazado 8523" d="M28.97,1944.055l-8.437.3c4.322,12.881,8.426,25.83,12.41,38.816C31.309,1970.16,30.144,1957.109,28.97,1944.055Z" transform="translate(-6.099 -1932.862)" fill="#683920"/>
      <path id="Trazado_8524" data-name="Trazado 8524" d="M68.94,1977.589q-4.184-17.177-8.178-34.406l-25.781.949c1.261,16.134,1.951,32.314,3.148,48.457.116,1.514.244,3.02.368,4.527,10.306,1,22.384,2.043,35.846,2.975C72.482,1992.579,70.763,1985.04,68.94,1977.589Z" transform="translate(6.554 -1933.625)" fill="#683920"/>
      <path id="Trazado_8525" data-name="Trazado 8525" d="M91.66,1942.045l-25.18.921c3.3,19.893,6.233,39.843,9.18,59.789,4.847.238,9.823.437,14.888.619C90.571,1982.943,91.679,1962.478,91.66,1942.045Z" transform="translate(34.141 -1934.622)" fill="#683920"/>
      <path id="Trazado_8526" data-name="Trazado 8526" d="M129.293,1940.656l-23.055.846q-.065,10.132-.12,20.249c-.094,14.543-.666,29.092-1.251,43.634,9.887-.039,20-.2,30.262-.52C133.21,1983.458,131.021,1962.061,129.293,1940.656Z" transform="translate(67.759 -1935.839)" fill="#683920"/>
      <path id="Trazado_8527" data-name="Trazado 8527" d="M139.585,1940.374l-13.052.474c1.748,21.4,3.943,42.8,5.858,64.21.45-.011.915-.028,1.362-.045C134.651,1983.406,137.478,1961.9,139.585,1940.374Z" transform="translate(86.734 -1936.086)" fill="#683920"/>
      <path id="Trazado_8528" data-name="Trazado 8528" d="M153.305,1974.407c-2.487-10.06-5.393-20.054-7.758-30.155q.568,8.559,1.1,17.115c.784,12.545,1.711,25.04,2.979,37.54q4.3-.349,8.615-.756C156.706,1990.22,155.243,1982.257,153.305,1974.407Z" transform="translate(103.386 -1932.69)" fill="#683920"/>
      <path id="Trazado_8529" data-name="Trazado 8529" d="M162.523,2000.995q8.939-1.044,17.872-2.292c-1.833-19.962-3.647-39.924-5.136-59.914l-13.357.491Q162.2,1970.125,162.523,2000.995Z" transform="translate(117.709 -1937.475)" fill="#683920"/>
    </g>
    <g id="Grupo_2579" data-name="Grupo 2579" transform="translate(13.819 1992.054)">
      <path id="Trazado_8530" data-name="Trazado 8530" d="M315.873,1994.478c10.017-1.412,19.857.145,29.712,1.591a54.446,54.446,0,0,0-6.886-5.346c-.743-.465,15.1,2.17,22.515,3.035a88.672,88.672,0,0,0-3.964-8.863c-24.175-47.045-92.063-80.925-172.022-80.925S37.391,1937.85,13.2,1984.9a87.628,87.628,0,0,0-4.159,9.4c6.008-2.4,19.589-4.166,19.174-3.7-1.913,2.183-3.808,4.372-5.657,6.593,5.2-1.551,16.852-4.1,16.139-3.6a50.941,50.941,0,0,0-6.406,5.166c6.494-1.673,20.566-3.618,20.208-3.148-.917,1.2-1.851,2.377-2.782,3.551,8.482-3.384,27.658-4.249,27.578-3.727a25.388,25.388,0,0,1-2.452,7.4c3.917-1.919,13.1-4.905,12.725-4.339a57.351,57.351,0,0,1-4.1,5.34c5.562-1.335,17.323-3.967,16.925-3.462-.76.964-1.551,1.906-2.339,2.847,6.044-2.062,19.08-6.349,18.932-5.771-.692,2.564-1.306,5.173-1.789,7.811,3.043-2.4,6.406-4.41,9.559-6.676.715-.51-.765,4.943-1.758,6.837,2.5-1.8,4.958-3.669,7.513-5.4.379-.25,3.89,4.976,5.47,7.212.48-2.065,2.538-6.963,2.947-6.514,2.161,2.371,4.4,4.665,6.672,6.942-.045-1.458.84-5.385,1.377-4.926a78,78,0,0,0,6.856,5.158c1.688-2.254,6.43-6.8,6.575-6.256a23.2,23.2,0,0,1,.619,5.768c1.322-2.15,3.067-4.592,5.248-4.328,3.63.45,6.057,3.562,9.341,4.883.062-1.662-.017-3.3-.062-4.969-.011-.583,6.1,2.3,8.726,3.494-.358-1.176-.685-2.36-.927-3.573-.126-.587,7.875,3.307,11.42,5.173q-.045-2.116-.234-4.232c-.045-.493,5.982,1.092,8.554,1.8a9.6,9.6,0,0,0-2.007-3.258c-.409-.465,13.26.583,19.3,2.14a57.555,57.555,0,0,1,5.933,1.932,31.417,31.417,0,0,0-3.089-4.361c-.409-.452,10.473,2.213,15.659,2.418-.85-1.48-3.707-5.391-2.825-5.149a259.735,259.735,0,0,0,32.046,6.55,22.818,22.818,0,0,0-3.752-3.819c-.572-.525,12.2,2.756,17.565,1.6-1.343-1.367-4.975-4.472-4.166-4.333,5.4.93,10.925.822,16.321,1.752q7.9,1.354,15.813,2.626c-1.818-2.116-7.231-6.349-6.462-6.428,6.678-.608,13.132,1.5,19.758,1.718C321.38,1997.09,315.113,1994.589,315.873,1994.478Z" transform="translate(-9.044 -1903.97)" fill="#9bb21f"/>
      <g id="Grupo_2572" data-name="Grupo 2572" transform="translate(1.377 80.925)">
        <path id="Trazado_8531" data-name="Trazado 8531" d="M195.835,1949.533q.428.957.833,1.928Q196.263,1950.49,195.835,1949.533Z" transform="translate(153.167 -1944.992)" fill="#e7a068"/>
        <path id="Trazado_8532" data-name="Trazado 8532" d="M9.778,1951.624c.411-.958.837-1.917,1.276-2.864C10.609,1949.707,10.189,1950.666,9.778,1951.624Z" transform="translate(-9.778 -1945.669)" fill="#e7a068"/>
        <path id="Trazado_8533" data-name="Trazado 8533" d="M10.5,1950.025q.681-1.472,1.431-2.913C11.428,1948.074,10.959,1949.044,10.5,1950.025Z" transform="translate(-9.147 -1947.112)" fill="#e7a068"/>
        <path id="Trazado_8534" data-name="Trazado 8534" d="M195.29,1948.343c.233.477.445.958.657,1.44C195.735,1949.3,195.523,1948.82,195.29,1948.343Z" transform="translate(152.69 -1946.034)" fill="#e7a068"/>
        <path id="Trazado_8535" data-name="Trazado 8535" d="M10.458,1948.843c.026-.062.049-.118.075-.178C10.507,1948.725,10.484,1948.781,10.458,1948.843Z" transform="translate(-9.182 -1945.752)" fill="#e7a068"/>
        <path id="Trazado_8536" data-name="Trazado 8536" d="M195.64,1949.111c.126.261.255.527.366.792C195.9,1949.638,195.766,1949.372,195.64,1949.111Z" transform="translate(152.996 -1945.361)" fill="#e7a068"/>
        <path id="Trazado_8537" data-name="Trazado 8537" d="M194.677,1947.112c.4.763.777,1.538,1.15,2.309C195.454,1948.65,195.073,1947.875,194.677,1947.112Z" transform="translate(152.153 -1947.112)" fill="#e7a068"/>
        <path id="Trazado_8538" data-name="Trazado 8538" d="M196.279,1950.561c.028.079.064.156.1.238C196.343,1950.717,196.307,1950.64,196.279,1950.561Z" transform="translate(153.556 -1944.091)" fill="#e7a068"/>
        <path id="Trazado_8539" data-name="Trazado 8539" d="M9.778,1950.287Z" transform="translate(-9.778 -1944.332)" fill="#e7a068"/>
      </g>
      <path id="Trazado_8540" data-name="Trazado 8540" d="M15.594,1975.909s48.558-75.776,177.083-71.177c0,0,44.385,2.514,78.71,18.846,0,0,16.741,7.109-11.718,3.343s-81.219-9.625-56.941,2.1,46.94,33.25,6.278,27.21c-84.566-12.561-106.869-3.318-95.443,7.529,8.362,7.961-9.5,20.03-20.937,17.171-8.373-2.1-7.256-16.329-31.121-6.278-17.088,7.192-29.168,20.512-34.194,11.3S25.637,1971.72,15.594,1975.909Z" transform="translate(-3.308 -1903.479)" fill="#dadb2f"/>
      <g id="Grupo_2573" data-name="Grupo 2573" transform="translate(35.601 61.133)" opacity="0.7" style="mix-blend-mode: multiply;isolation: isolate">
        <path id="Trazado_8541" data-name="Trazado 8541" d="M33.363,1941.853c-1.334,1.966-3.38,2.913-4.549,2.116s-1.03-3.035.31-5,3.38-2.92,4.554-2.123S34.706,1939.885,33.363,1941.853Z" transform="translate(-28.023 -1936.561)" fill="#dc9c57"/>
        <path id="Trazado_8542" data-name="Trazado 8542" d="M37.334,1940.734c-.957,1.4-2.412,2.078-3.256,1.512-.829-.568-.732-2.178.229-3.583s2.412-2.09,3.245-1.514S38.289,1939.322,37.334,1940.734Z" transform="translate(-23.214 -1936.224)" fill="#dc9c57"/>
      </g>
      <g id="Grupo_2574" data-name="Grupo 2574" transform="translate(131.069 14.633)" opacity="0.7" style="mix-blend-mode: multiply;isolation: isolate">
        <path id="Trazado_8543" data-name="Trazado 8543" d="M82.29,1915.11c-.846,1.247-2.127,1.846-2.874,1.341s-.643-1.917.2-3.163,2.135-1.846,2.87-1.335S83.144,1913.87,82.29,1915.11Z" transform="translate(-78.919 -1911.771)" fill="#dc9c57"/>
        <path id="Trazado_8544" data-name="Trazado 8544" d="M84.8,1914.406c-.6.885-1.525,1.317-2.05.953s-.467-1.369.133-2.262,1.527-1.317,2.065-.957S85.41,1913.514,84.8,1914.406Z" transform="translate(-75.88 -1911.559)" fill="#dc9c57"/>
      </g>
      <g id="Grupo_2575" data-name="Grupo 2575" transform="translate(241.008 34.067)" opacity="0.7" style="mix-blend-mode: multiply;isolation: isolate">
        <path id="Trazado_8545" data-name="Trazado 8545" d="M140.9,1925.473c-.848,1.248-2.133,1.846-2.87,1.341s-.653-1.923.191-3.164,2.142-1.844,2.872-1.339S141.745,1924.231,140.9,1925.473Z" transform="translate(-137.528 -1922.132)" fill="#dc9c57"/>
        <path id="Trazado_8546" data-name="Trazado 8546" d="M143.417,1924.765c-.61.891-1.536,1.317-2.061.957s-.467-1.367.139-2.26,1.533-1.319,2.06-.964S144.019,1923.878,143.417,1924.765Z" transform="translate(-134.491 -1921.92)" fill="#dc9c57"/>
      </g>
      <g id="Grupo_2576" data-name="Grupo 2576" transform="translate(258.506 78.79)" opacity="0.7" style="mix-blend-mode: multiply;isolation: isolate">
        <path id="Trazado_8547" data-name="Trazado 8547" d="M150.236,1949.321c-.85,1.236-2.138,1.834-2.876,1.335s-.655-1.923.191-3.162,2.146-1.846,2.883-1.341S151.081,1948.069,150.236,1949.321Z" transform="translate(-146.857 -1945.974)" fill="#dc9c57"/>
        <path id="Trazado_8548" data-name="Trazado 8548" d="M152.741,1948.609c-.6.893-1.523,1.321-2.056.953s-.465-1.373.15-2.258c.6-.893,1.517-1.319,2.045-.96S153.353,1947.718,152.741,1948.609Z" transform="translate(-143.818 -1945.761)" fill="#dc9c57"/>
      </g>
      <g id="Grupo_2577" data-name="Grupo 2577" transform="translate(135.191 57.626)">
        <path id="Trazado_8549" data-name="Trazado 8549" d="M86.285,1937.452s-.144-3.2-2.937-1.951-2.5,10.043,3.35,10.748c5.869.692,10.746-9.358,4.052-7.679C90.749,1938.569,90.749,1934.664,86.285,1937.452Z" transform="translate(-80.661 -1934.236)" fill="#f9ca67" opacity="0.7" style="mix-blend-mode: multiply;isolation: isolate"/>
        <path id="Trazado_8550" data-name="Trazado 8550" d="M85.758,1936.931s-.135-3.21-2.932-1.945-2.5,10.045,3.358,10.741,10.739-9.351,4.033-7.678C90.217,1938.049,90.217,1934.144,85.758,1936.931Z" transform="translate(-81.116 -1934.691)" fill="#b588a5"/>
        <path id="Trazado_8551" data-name="Trazado 8551" d="M88.885,1938.045s0-3.905-4.459-1.118c0,0-.111-2.251-1.789-2.232a3.056,3.056,0,0,1,1.217,2.259c.355,2.637-.362,5.414-1.073,8.073a5.182,5.182,0,0,0,2.071.7C90.7,1946.417,95.591,1936.372,88.885,1938.045Zm-1.529,2.206c-.409,1.75-1.469,3.883-2.986,3.041-.8-.443-.7-2.054-.57-2.787a6.116,6.116,0,0,1,1.857-3.412c1.118-.749,1.722.531,1.866,1.452A5.059,5.059,0,0,1,87.356,1940.251Zm1.6.587a.436.436,0,0,1-.416-.422,1.631,1.631,0,0,1,.838-1.549.418.418,0,0,1,.613.4.511.511,0,0,1,.156.321A1.128,1.128,0,0,1,88.958,1940.838Z" transform="translate(-79.784 -1934.687)" fill="#b588a5" style="mix-blend-mode: multiply;isolation: isolate"/>
      </g>
      <g id="Grupo_2578" data-name="Grupo 2578" transform="translate(181.055 78.552)">
        <path id="Trazado_8552" data-name="Trazado 8552" d="M108.958,1947.641s0-1.259-1.945-.7c-1.962.551-.837,8.094,3.761,7.955s4.888-6.282,3.628-6.7a2.114,2.114,0,0,0-2.092.422S112.166,1944.29,108.958,1947.641Z" transform="translate(-105.109 -1945.39)" fill="#f9ca67" opacity="0.7" style="mix-blend-mode: multiply;isolation: isolate"/>
        <path id="Trazado_8553" data-name="Trazado 8553" d="M108.443,1947.115s0-1.249-1.958-.7-.837,8.1,3.774,7.955,4.875-6.276,3.622-6.7a2.092,2.092,0,0,0-2.088.422S111.656,1943.771,108.443,1947.115Z" transform="translate(-105.567 -1945.847)" fill="#b588a5"/>
        <path id="Trazado_8554" data-name="Trazado 8554" d="M113.812,1947.676a2.092,2.092,0,0,0-2.088.422s-.137-4.327-3.35-.983c0,0,0-1.249-1.958-.7a1.271,1.271,0,0,0-.771.953,1.819,1.819,0,0,1,2.347.37,3.848,3.848,0,0,1,.508.731,1.6,1.6,0,0,1,1.02-1.305c1.373-.445,1.54,2.02,1.523,2.808s-.088,3.763-1.619,3.043a1.153,1.153,0,0,1-.486-.5,1.861,1.861,0,0,1-.516.831.889.889,0,0,1-.632.25,3.684,3.684,0,0,0,2.4.776C114.791,1954.23,115.065,1948.1,113.812,1947.676Zm-1,3.823c-.21.321-.681.749-1.086.516a.891.891,0,0,1-.311-.9,4.949,4.949,0,0,1,.947-2.632.391.391,0,0,1,.66.122c.017.017.039.017.062.028C113.942,1949.242,113.248,1950.8,112.816,1951.5Z" transform="translate(-105.498 -1945.847)" fill="#b588a5" style="mix-blend-mode: multiply;isolation: isolate"/>
      </g>
    </g>
  </g>
</svg>
