<svg xmlns="http://www.w3.org/2000/svg" width="376.074" height="317.501" viewBox="0 0 376.074 317.501">
  <g id="Grupo_2684" data-name="Grupo 2684" transform="translate(-236.442 -1567.234)">
    <path id="Trazado_9643" data-name="Trazado 9643" d="M609.462,1740.854c-6.507-18.141-16.753-23.661-26.5-35.3-11.9-14.211-19.932-24.542-16.842-42.821,5.051-29.871,7.213-104.366-71.864-94.629-28.344,3.49-50.742,25.21-67.035,46.892-13.865,18.448-38.805,20.075-58.881,24.376-24.664,5.285-49.79,13.268-72.61,24.964-47,24.089-61.036,58.717-59.12,103.025.579,13.385,2.474,34.47,25.087,59.144,30.52,33.3,74.87,37.76,128.25,22.467,12.219-3.5,23.768-8.991,35.787-13.125a168.855,168.855,0,0,1,38.623-8.387c30.659-2.964,62.438,2.4,91.848-6.757a96.915,96.915,0,0,0,41.08-25.476C611.333,1780.516,616.33,1760,609.462,1740.854Z" transform="translate(0 0)" fill="#69cfc5" opacity="0.21"/>
    <g id="Grupo_2681" data-name="Grupo 2681" transform="translate(312.542 1702.914)">
      <g id="Grupo_2679" data-name="Grupo 2679" transform="translate(109.607 48.616)">
        <path id="Trazado_9644" data-name="Trazado 9644" d="M377.1,1833.858c.464-.122.93-.258,1.395-.388a1.707,1.707,0,0,1,.853-.236,109.869,109.869,0,0,0,11.334-3.974c2.391-6.509,6.3-12.029,11.987-15.579,8.98-5.6,16.639-11.106,22.383-19.848,7.226-11,22.62-45.894,24.85-50.089,3.474-6.536,15.086-21.489,16.526-23.616,1.873-2.765,2.2-6.287,2.85-9.629q.442-1.74.934-3.469a15.906,15.906,0,0,1,4.714-.99c.472-.019,1.1-.025,1.775.011a5.125,5.125,0,0,1,2.437,3.5,3.479,3.479,0,0,0,.186.808,58.3,58.3,0,0,1-.19,8.738c8.24,23.572-1.566,42.94-3.373,46.754-6.207,13.1-15.28,26.154-24.237,37.479-7.9,9.987-17.383,19.086-28.772,24.942-13.159,6.766-28.57,7.777-42.873,10.509a1.661,1.661,0,0,1-1.786-1.492l-.1-.814c-.1.009-.19.028-.286.036C376.222,1836.656,375.569,1834.263,377.1,1833.858Z" transform="translate(-376.225 -1705.932)" fill="#c4ca00"/>
        <path id="Trazado_9645" data-name="Trazado 9645" d="M377.1,1827.881c.464-.122.93-.258,1.395-.388a1.707,1.707,0,0,1,.853-.236,109.869,109.869,0,0,0,11.334-3.974c2.391-6.509,6.3-12.029,11.987-15.58,8.98-5.6,16.639-11.105,22.383-19.847,7.226-11,22.618-45.894,24.849-50.09A142.344,142.344,0,0,1,459,1724.218c4.007,32.217-11.091,63.545-33.342,87.9-4.193,4.589-9.781,9.482-14.85,14.792-10.065,2.876-20.77,3.959-30.922,5.9a1.661,1.661,0,0,1-1.786-1.492l-.1-.814c-.1.009-.19.028-.286.036C376.222,1830.679,375.569,1828.286,377.1,1827.881Z" transform="translate(-376.225 -1699.955)" fill="#a8b900"/>
        <path id="Trazado_9646" data-name="Trazado 9646" d="M402.9,1831.516c13.4-7.821,24.546-20.57,32.815-33.534,8.141-12.766,15.006-26.844,18.37-41.689,3.744-16.523,8.742-33.2,11.586-49.883a13.6,13.6,0,0,1,2.576-.369c.472-.019,1.1-.025,1.775.011a5.125,5.125,0,0,1,2.437,3.5,3.479,3.479,0,0,0,.186.808,58.3,58.3,0,0,1-.19,8.738c8.24,23.572-1.566,42.94-3.373,46.754-6.207,13.1-15.28,26.154-24.237,37.479-7.9,9.987-17.383,19.086-28.772,24.942a76.242,76.242,0,0,1-19.492,6.453A69.1,69.1,0,0,0,402.9,1831.516Z" transform="translate(-369.539 -1705.932)" fill="#f3fa00"/>
        <path id="Trazado_9647" data-name="Trazado 9647" d="M464.155,1719.1a58.3,58.3,0,0,0,.19-8.738,3.4,3.4,0,0,1-.186-.808,5.125,5.125,0,0,0-2.437-3.5c-.486-.025-.923-.025-1.319-.019-1.04,10.549-.563,21.323-1.707,31.856-.5,25.99-17.4,53.156-36.874,73.186a157.22,157.22,0,0,0,28.626-26.995,157.832,157.832,0,0,0,10.333-18.226C462.589,1762.039,472.395,1742.672,464.155,1719.1Z" transform="translate(-361.245 -1705.931)" fill="#ffea00"/>
        <path id="Trazado_9648" data-name="Trazado 9648" d="M446.643,1709.546a3.852,3.852,0,0,1,.373-1.779,1.412,1.412,0,0,1,.3-.628c.013-.02.016-.04.029-.06.036-.054.1-.052.142-.086a1.26,1.26,0,0,1,.283-.242,8.266,8.266,0,0,1,2.143-.457,16.087,16.087,0,0,1,2.945-.337,2.511,2.511,0,0,1,2.382,1.925.9.9,0,0,1-.381.836,10.524,10.524,0,0,1-4.087,1.4c-1.038.23-2.479.776-3.418.023A.65.65,0,0,1,446.643,1709.546Z" transform="translate(-353.092 -1705.955)" fill="#8c8700"/>
      </g>
      <g id="Grupo_2680" data-name="Grupo 2680" transform="translate(0 24.6)">
        <path id="Trazado_9649" data-name="Trazado 9649" d="M404.6,1839.7c-.513-.174-1.027-.364-1.54-.547a1.919,1.919,0,0,0-.939-.332,123.461,123.461,0,0,1-12.436-5.369c-2.159-7.517-6.1-14.04-12.22-18.488-9.652-7.016-17.825-13.817-23.576-24.114-7.234-12.949-21.7-53.46-23.87-58.36-3.376-7.632-15.224-25.385-16.672-27.894-1.881-3.26-1.962-7.252-2.418-11.067q-.357-1.993-.768-3.979a17.815,17.815,0,0,0-5.225-1.487c-.53-.059-1.237-.116-2-.128-1.455.927-2.734,2.029-3.032,3.75a3.905,3.905,0,0,1-.275.9,65.659,65.659,0,0,0-.5,9.855c-11.213,25.893-1.762,48.474-.04,52.912,5.915,15.244,15.06,30.653,24.215,44.113,8.074,11.868,18.008,22.861,30.353,30.354,14.261,8.657,31.531,11.008,47.413,15.213a1.884,1.884,0,0,0,2.134-1.539l.178-.91c.108.017.213.045.319.064C405.358,1842.924,406.291,1840.281,404.6,1839.7Z" transform="translate(-293.723 -1687.858)" fill="#f3fa00"/>
        <path id="Trazado_9650" data-name="Trazado 9650" d="M398.334,1832.636c-.513-.174-1.027-.364-1.54-.547a1.919,1.919,0,0,0-.939-.332,123.461,123.461,0,0,1-12.436-5.369c-2.159-7.517-6.1-14.04-12.22-18.488-9.652-7.015-17.825-13.817-23.576-24.114-7.234-12.949-21.7-53.46-23.87-58.36-1.7-3.839-5.54-10.239-9.124-15.971-7.156,35.961,7.274,72.426,30.33,101.6,4.344,5.5,10.235,11.447,15.508,17.826,11.1,4.033,23.063,6.1,34.335,9.079a1.884,1.884,0,0,0,2.134-1.539l.178-.91c.108.017.213.045.319.064C399.1,1835.856,400.028,1833.212,398.334,1832.636Z" transform="translate(-287.46 -1680.79)" fill="#a8b900"/>
        <path id="Trazado_9651" data-name="Trazado 9651" d="M368.218,1834.507c-14.445-9.863-25.952-25.1-34.2-40.347-8.12-15.015-14.694-31.409-17.264-48.392-2.859-18.9-7.12-38.069-8.953-57.082a15.382,15.382,0,0,0-2.87-.618c-.53-.059-1.237-.116-2-.128-1.455.927-2.734,2.029-3.032,3.75a3.905,3.905,0,0,1-.275.9,65.659,65.659,0,0,0-.5,9.855c-11.213,25.893-1.762,48.474-.04,52.912,5.915,15.244,15.06,30.653,24.215,44.113,8.074,11.868,18.008,22.861,30.353,30.354a85.833,85.833,0,0,0,21.419,8.8A77.316,77.316,0,0,1,368.218,1834.507Z" transform="translate(-293.723 -1687.858)" fill="#ffec00"/>
        <path id="Trazado_9652" data-name="Trazado 9652" d="M404.6,1839.7c-.513-.174-1.027-.364-1.54-.547a1.919,1.919,0,0,0-.939-.332c-3.529-1.29-7.051-2.824-10.543-4.489-27.355-3.82-49.095-24.618-64.223-47.389-9.31-14.013-17.4-29.956-21.472-46.35-4.281-17.231-1.012-35.048-1.46-52.574-.445-.039-.938-.073-1.487-.083-1.455.927-2.734,2.029-3.032,3.75a3.905,3.905,0,0,1-.275.9,65.659,65.659,0,0,0-.5,9.855c-11.213,25.893-1.762,48.474-.04,52.912,5.915,15.244,15.06,30.653,24.215,44.113,8.074,11.868,18.008,22.861,30.353,30.354,14.261,8.657,31.531,11.008,47.413,15.213a1.884,1.884,0,0,0,2.134-1.539l.178-.91c.108.017.213.045.319.064C405.358,1842.924,406.291,1840.281,404.6,1839.7Z" transform="translate(-293.723 -1687.858)" fill="#c4ca00"/>
        <path id="Trazado_9653" data-name="Trazado 9653" d="M308.68,1692.415a4.325,4.325,0,0,0-.275-2.033,1.586,1.586,0,0,0-.288-.732c-.013-.023-.015-.045-.029-.07-.036-.064-.1-.065-.151-.108a1.529,1.529,0,0,0-.3-.295,9.376,9.376,0,0,0-2.377-.683,18.245,18.245,0,0,0-3.288-.613,2.845,2.845,0,0,0-2.84,1.979,1.014,1.014,0,0,0,.361.971,11.853,11.853,0,0,0,4.485,1.9c1.151.34,2.727,1.069,3.849.295A.736.736,0,0,0,308.68,1692.415Z" transform="translate(-291.955 -1687.878)" fill="#8c8700"/>
      </g>
      <path id="Trazado_9654" data-name="Trazado 9654" d="M417.661,1695.166a1.414,1.414,0,0,1,.682,2.742A1.414,1.414,0,0,1,417.661,1695.166Z" transform="translate(-253.343 -1660.9)" fill="#f3fa00"/>
      <path id="Trazado_9655" data-name="Trazado 9655" d="M371.054,1844.311c25.525-21.747,39.674-47.914,41.32-81.811,1.237-25.508-1.626-50.9,12.67-72.832a148.757,148.757,0,0,0-2.317-17.97,1.5,1.5,0,0,1,.11-.934,4.856,4.856,0,0,0,2,.165c-.448.053.865.322,1.055.365a9.42,9.42,0,0,0,2.349.306,10.825,10.825,0,0,0,3.858-.881,10.606,10.606,0,0,1,2.777,4.773,65.371,65.371,0,0,1,2.348,14.95c.025.027.057.036.082.065,39.321,47.11,9.453,163.9-63.156,157.608a2.5,2.5,0,0,1-1.1-.388C371.185,1848.048,369.252,1845.844,371.054,1844.311Z" transform="translate(-268.553 -1668.915)" fill="#f3fa00"/>
      <path id="Trazado_9656" data-name="Trazado 9656" d="M426.794,1788.667c-15.667,16.449-33.527,22.825-53.507,25.985-.745.659-1.468,1.329-2.233,1.981-1.8,1.535.132,3.739,2,3.418a2.517,2.517,0,0,0,1.1.388c38.64,3.349,65.175-28.161,75.62-65.478A133.531,133.531,0,0,1,426.794,1788.667Z" transform="translate(-268.553 -1641.239)" fill="#c4ca00"/>
      <path id="Trazado_9657" data-name="Trazado 9657" d="M413.293,1731.722c-1.338,13.529-2.511,27.029-6,40.219a93.611,93.611,0,0,1-14.311,30.546c7.072-13.6,11.122-28.73,11.954-45.848,1.149-23.688-1.209-47.273,9.895-68.081C416.321,1703,414.72,1717.29,413.293,1731.722Z" transform="translate(-261.114 -1663.055)" fill="#c4ca00"/>
      <path id="Trazado_9658" data-name="Trazado 9658" d="M415.994,1810.995c-1.015,2.3-2.13,4.513-3.323,6.644,13.726-14.938,22.292-34.178,27.313-54.385,3.45-27.265-1.487-54.967-16.326-72.747-.025-.029-.057-.039-.082-.065a65.358,65.358,0,0,0-2.348-14.95,10.606,10.606,0,0,0-2.777-4.773,10.856,10.856,0,0,1-3.858.881,9.42,9.42,0,0,1-2.349-.306c-.052-.012-.191-.041-.353-.078,2.308,10.894,4.37,21.785,5.815,32.686C425.954,1738.874,430.683,1777.6,415.994,1810.995Z" transform="translate(-254.901 -1668.915)" fill="#ffea00"/>
      <path id="Trazado_9659" data-name="Trazado 9659" d="M371.3,1841.093c9.848-15.515,2.7-24.06,4.354-34.772,1.154-7.466,1.564-60.311.311-79.348-.557-8.465-.158-16.6,2.569-23.91a27.076,27.076,0,0,1,3.365-6.259c1.515-2.041,3.8-3.522,4.688-6,.937-2.6.068-5.666-.348-8.268-.3-1.876-.529-3.756-.792-5.628a3.414,3.414,0,0,1,1.918-1.9,18.086,18.086,0,0,1,6.382,1.718,12.164,12.164,0,0,1,2.437,3.438c.644,3.612,1.108,7.188,3.522,10.514,1.287,1.772,8.651,11.331,11.293,22.237,3.414,14.1,2.237,67.559-4.036,84.84-4.8,20.914-16,31.867-30.5,47.471a2.458,2.458,0,0,1-2.98.353l-1.318-1.021A2.591,2.591,0,0,1,371.3,1841.093Z" transform="translate(-268.356 -1667.503)" fill="#ecde00"/>
      <path id="Trazado_9660" data-name="Trazado 9660" d="M371.3,1841.093c9.848-15.515,2.7-24.06,4.354-34.772,1.154-7.466,1.564-60.311.311-79.348-.557-8.465-.158-16.6,2.569-23.91a27.076,27.076,0,0,1,3.365-6.259c1.515-2.041,3.8-3.522,4.688-6,.937-2.6.068-5.666-.348-8.268-.3-1.876-.529-3.756-.792-5.628a3.414,3.414,0,0,1,1.918-1.9,18.086,18.086,0,0,1,6.382,1.718,12.164,12.164,0,0,1,2.437,3.438c.644,3.612,1.108,7.188,3.522,10.514,1.287,1.772,8.651,11.331,11.293,22.237,3.414,14.1,2.237,67.559-4.036,84.84-4.8,20.914-16,31.867-30.5,47.471a2.458,2.458,0,0,1-2.98.353l-1.318-1.021A2.591,2.591,0,0,1,371.3,1841.093Z" transform="translate(-268.356 -1667.503)" fill="#a8b900"/>
      <path id="Trazado_9661" data-name="Trazado 9661" d="M386.646,1769.393c-2.192-18.982-5.211-37.492-.8-56.417,3.327-14.278,4.645-24.523,2.127-37.882a19.9,19.9,0,0,1,2.921.575,18.876,18.876,0,0,1,2.713,1.042,12.12,12.12,0,0,1,2.437,3.437c.644,3.612,1.108,7.188,3.522,10.514,1.287,1.772,8.651,11.331,11.293,22.237,3.414,14.1,2.237,67.559-4.036,84.84-4.8,20.912-16,31.866-30.5,47.47a2.455,2.455,0,0,1-2.98.355l-1.318-1.021a3.581,3.581,0,0,1-.638-.654C385.276,1820.563,389.859,1797.2,386.646,1769.393Z" transform="translate(-268.209 -1667.478)" fill="#f3fa00"/>
      <path id="Trazado_9662" data-name="Trazado 9662" d="M403.591,1758.874c1.042-22.085-3.858-41.44-6.706-62.99-.618-4.675-.373-11.325-1.313-17.3.077.144.174.272.246.418.644,3.612,1.108,7.188,3.522,10.514,1.287,1.772,8.584,11.348,11.293,22.237,7.415,29.822,2.237,67.559-4.036,84.84-4.8,20.912-16,31.866-30.5,47.47a2.455,2.455,0,0,1-2.98.355l-1.052-.816C390.474,1818.709,402.031,1791.972,403.591,1758.874Z" transform="translate(-267.986 -1666.332)" fill="#ffec00"/>
      <path id="Trazado_9663" data-name="Trazado 9663" d="M387.483,1700.594c3.08,19.882,7.148,38.027,6.174,58.379a135.926,135.926,0,0,1-11.314,48.774,122.63,122.63,0,0,0,1.286-39.238c-2.192-18.982-5.211-37.492-.8-56.417,3.021-12.968,4.352-22.634,2.69-34.3C387.576,1684.716,386.63,1695.095,387.483,1700.594Z" transform="translate(-265.192 -1666.593)" fill="#c4ca00"/>
      <path id="Trazado_9664" data-name="Trazado 9664" d="M382.358,1675.137a1.1,1.1,0,0,1,1.265-.369,2.8,2.8,0,0,1,1.747.17,17.287,17.287,0,0,0,3.693,1c.979.207,2.035.469,2.308,1.607.368,1.537-1.014,4.21-2.616,4.552-1.77.377-4.174-1.2-5.5-2.233C381.671,1678.641,381.018,1676.806,382.358,1675.137Z" transform="translate(-264.841 -1667.607)" fill="#948f00"/>
      <path id="Trazado_9665" data-name="Trazado 9665" d="M410.4,1669.854a1.1,1.1,0,0,1,1.254-.407,2.8,2.8,0,0,1,1.751.12,17.272,17.272,0,0,0,3.721.894c.984.179,2.049.411,2.354,1.54.412,1.525-.891,4.238-2.483,4.627-1.759.427-4.208-1.082-5.565-2.071C409.815,1673.377,409.109,1671.561,410.4,1669.854Z" transform="translate(-255.61 -1669.361)" fill="#948f00"/>
      <path id="Trazado_9666" data-name="Trazado 9666" d="M340.126,1695.267a1.415,1.415,0,0,0-.771,2.721A1.415,1.415,0,0,0,340.126,1695.267Z" transform="translate(-279.055 -1660.87)" fill="#f3fa00"/>
      <path id="Trazado_9667" data-name="Trazado 9667" d="M402.643,1846.153c-24.8-22.488-38.089-49.06-38.627-82.99-.4-25.532,3.288-50.831-10.284-73.17a148.875,148.875,0,0,1,2.9-17.893,1.482,1.482,0,0,0-.08-.935,4.867,4.867,0,0,1-2.009.1c.445.068-.874.3-1.067.336a9.529,9.529,0,0,1-2.357.235,10.787,10.787,0,0,1-3.828-1,10.646,10.646,0,0,0-2.932,4.69,65.447,65.447,0,0,0-2.834,14.873c-.027.027-.058.035-.085.064-40.841,45.927-14.8,163.545,57.977,159.394a2.519,2.519,0,0,0,1.115-.355C402.39,1849.886,404.394,1847.74,402.643,1846.153Z" transform="translate(-284.393 -1668.874)" fill="#ffec00"/>
      <path id="Trazado_9668" data-name="Trazado 9668" d="M348.278,1732.083c.894,13.562,1.626,27.089,4.684,40.375a93.274,93.274,0,0,0,13.307,30.954c-6.624-13.8-10.178-29.044-10.45-46.178-.375-23.71,2.751-47.215-7.666-68.34C346.189,1703.281,347.323,1717.615,348.278,1732.083Z" transform="translate(-276.196 -1662.944)" fill="#a8b900"/>
      <path id="Trazado_9669" data-name="Trazado 9669" d="M368.479,1823.156c-10.092-13.885-16.76-31.234-20.716-47.863-8.358-35.116-2.371-69.456,6.071-103.757-.163.032-.3.057-.356.069a9.529,9.529,0,0,1-2.357.235,10.787,10.787,0,0,1-3.828-1,10.646,10.646,0,0,0-2.932,4.69,65.447,65.447,0,0,0-2.834,14.873c-.027.027-.058.035-.085.064-40.841,45.927-14.8,163.545,57.977,159.394a2.519,2.519,0,0,0,1.115-.355,2.354,2.354,0,0,0,1.422-.179C389.565,1842.377,377.61,1835.72,368.479,1823.156Z" transform="translate(-284.393 -1668.874)" fill="#c4ca00"/>
      <path id="Trazado_9670" data-name="Trazado 9670" d="M391.951,1842.6c-9.337-15.8-1.91-24.127-3.216-34.883-.91-7.5.408-60.329,2.281-79.319.833-8.446.7-16.591-1.787-23.975a27.038,27.038,0,0,0-3.159-6.356c-1.447-2.084-3.68-3.631-4.489-6.131-.852-2.629.117-5.665.616-8.251.361-1.867.652-3.739.977-5.6a3.4,3.4,0,0,0-1.856-1.953,18.164,18.164,0,0,0-6.435,1.529,12.216,12.216,0,0,0-2.548,3.365c-.761,3.592-1.342,7.152-3.863,10.405-1.344,1.732-9.017,11.071-12.013,21.893-3.874,13.995-4.444,67.46,1.262,84.917,4.116,21.045,14.949,32.325,28.937,48.348a2.456,2.456,0,0,0,2.967.442l1.351-.983A2.6,2.6,0,0,0,391.951,1842.6Z" transform="translate(-274.087 -1667.138)" fill="#ecde00"/>
      <path id="Trazado_9671" data-name="Trazado 9671" d="M391.951,1842.6c-9.337-15.8-1.91-24.127-3.216-34.883-.91-7.5.408-60.329,2.281-79.319.833-8.446.7-16.591-1.787-23.975a27.038,27.038,0,0,0-3.159-6.356c-1.447-2.084-3.68-3.631-4.489-6.131-.852-2.629.117-5.665.616-8.251.361-1.867.652-3.739.977-5.6a3.4,3.4,0,0,0-1.856-1.953,18.164,18.164,0,0,0-6.435,1.529,12.216,12.216,0,0,0-2.548,3.365c-.761,3.592-1.342,7.152-3.863,10.405-1.344,1.732-9.017,11.071-12.013,21.893-3.874,13.995-4.444,67.46,1.262,84.917,4.116,21.045,14.949,32.325,28.937,48.348a2.456,2.456,0,0,0,2.967.442l1.351-.983A2.6,2.6,0,0,0,391.951,1842.6Z" transform="translate(-274.087 -1667.138)" fill="#f3fa00"/>
      <path id="Trazado_9672" data-name="Trazado 9672" d="M378.809,1770.484c2.813-18.909,6.434-37.321,2.645-56.367-2.858-14.369-3.841-24.65-.887-37.926a20.016,20.016,0,0,0-2.94.488,18.939,18.939,0,0,0-2.745.961,12.216,12.216,0,0,0-2.548,3.365c-.761,3.591-1.342,7.153-3.863,10.4-1.344,1.734-9.017,11.072-12.013,21.894-3.874,13.995-4.444,67.46,1.262,84.917,4.116,21.045,14.949,32.325,28.937,48.348a2.454,2.454,0,0,0,2.967.441l1.351-.982a3.58,3.58,0,0,0,.658-.634C378.507,1821.668,374.689,1798.185,378.809,1770.484Z" transform="translate(-274.087 -1667.118)" fill="#ecde00"/>
      <path id="Trazado_9673" data-name="Trazado 9673" d="M362.415,1759.521c-.319-22.107,5.211-41.307,8.762-62.763.771-4.654.743-11.308,1.876-17.253-.08.142-.182.267-.259.412-.761,3.591-1.342,7.153-3.863,10.4-1.344,1.734-8.95,11.091-12.013,21.894-8.386,29.589-4.444,67.46,1.262,84.917,4.116,21.045,14.949,32.325,28.937,48.348a2.454,2.454,0,0,0,2.967.441q.54-.391,1.079-.784C373.571,1819.712,362.893,1792.649,362.415,1759.521Z" transform="translate(-274.547 -1666.029)" fill="#c4ca00"/>
      <path id="Trazado_9674" data-name="Trazado 9674" d="M373.32,1701.608c-3.728,19.781-8.387,37.8-8.077,58.167a135.681,135.681,0,0,0,9.714,49.085,122.652,122.652,0,0,1,0-39.257c2.813-18.909,6.434-37.321,2.645-56.367-2.6-13.052-3.61-22.751-1.568-34.365C373.747,1685.734,374.351,1696.137,373.32,1701.608Z" transform="translate(-270.231 -1666.237)" fill="#ffec00"/>
      <path id="Trazado_9675" data-name="Trazado 9675" d="M377.828,1676.3a1.1,1.1,0,0,0-1.253-.406,2.8,2.8,0,0,0-1.751.12,17.329,17.329,0,0,1-3.724.894c-.986.178-2.05.409-2.359,1.539-.417,1.525.875,4.238,2.467,4.627,1.756.429,4.21-1.08,5.572-2.07C378.4,1679.821,379.112,1678.005,377.828,1676.3Z" transform="translate(-269.103 -1667.245)" fill="#948f00"/>
      <path id="Trazado_9676" data-name="Trazado 9676" d="M349.979,1670.189a1.1,1.1,0,0,0-1.241-.442,2.8,2.8,0,0,0-1.754.066,17.312,17.312,0,0,1-3.748.787c-.991.149-2.062.349-2.4,1.468-.462,1.513.752,4.262,2.33,4.7,1.743.481,4.239-.957,5.629-1.905C350.448,1673.729,351.212,1671.935,349.979,1670.189Z" transform="translate(-278.278 -1669.271)" fill="#948f00"/>
    </g>
    <g id="Grupo_2682" data-name="Grupo 2682" transform="translate(453.124 1644.678)">
      <path id="Trazado_9677" data-name="Trazado 9677" d="M399.54,1680.473c8.754-37.327,69.136-18.816,75.9-44.288,2.432-9.16-11.614-17.239-18.027-2.649,5.779-5.858,10.183-.854,8.063,4.1C460.835,1648.473,402.185,1641.246,399.54,1680.473Z" transform="translate(-399.54 -1625.527)" fill="#959b91"/>
    </g>
    <g id="Grupo_2683" data-name="Grupo 2683" transform="translate(493.34 1652.338)">
      <path id="Trazado_9678" data-name="Trazado 9678" d="M429.811,1686.239c8.754-37.327,69.136-18.816,75.9-44.288,2.433-9.16-11.614-17.239-18.027-2.65,5.779-5.857,10.183-.853,8.063,4.1C491.106,1654.24,432.456,1647.012,429.811,1686.239Z" transform="translate(-429.811 -1631.292)" fill="#959b91"/>
    </g>
  </g>
</svg>
