<svg xmlns="http://www.w3.org/2000/svg" width="150.842" height="150.842" viewBox="0 0 150.842 150.842">
  <g id="Grupo_2724" data-name="Grupo 2724" transform="translate(-748.2 -1156.758)">
    <circle id="Elipse_781" data-name="Elipse 781" cx="75.421" cy="75.421" r="75.421" transform="translate(748.2 1156.758)" fill="#01888b"/>
    <g id="Grupo_2723" data-name="Grupo 2723">
      <g id="Grupo_2722" data-name="Grupo 2722">
        <g id="Grupo_2692" data-name="Grupo 2692">
          <g id="Grupo_2687" data-name="Grupo 2687">
            <path id="Trazado_9709" data-name="Trazado 9709" d="M824.269,1286.912c.225-.06.452-.125.678-.188a.816.816,0,0,1,.414-.115,53.52,53.52,0,0,0,5.509-1.932,14.574,14.574,0,0,1,5.826-7.572c4.365-2.723,8.088-5.4,10.88-9.647,3.511-5.344,10.993-22.306,12.077-24.345,1.689-3.177,7.333-10.444,8.033-11.478.91-1.344,1.07-3.056,1.385-4.68q.216-.846.454-1.686a7.692,7.692,0,0,1,2.291-.481c.229-.009.534-.012.862.005a2.489,2.489,0,0,1,1.185,1.7,1.665,1.665,0,0,0,.09.393,28.216,28.216,0,0,1-.092,4.247,29.492,29.492,0,0,1-1.639,22.725,98.923,98.923,0,0,1-11.78,18.216,43.938,43.938,0,0,1-13.985,12.123c-6.4,3.289-13.886,3.779-20.838,5.107a.807.807,0,0,1-.868-.725l-.048-.4c-.047,0-.093.014-.139.018C823.841,1288.272,823.523,1287.109,824.269,1286.912Z" fill="#01888b"/>
            <path id="Trazado_9710" data-name="Trazado 9710" d="M825.507,1289.817a1.171,1.171,0,0,1-.694-.234,1.4,1.4,0,0,1-.553-.905,1.208,1.208,0,0,1-.9-.986,1.062,1.062,0,0,1,.779-1.263l.615-.171a1.327,1.327,0,0,1,.524-.146,52.89,52.89,0,0,0,5.2-1.815,14.869,14.869,0,0,1,5.953-7.616c4.693-2.928,8.125-5.538,10.726-9.5,2.55-3.88,7.206-13.929,9.989-19.933,1.026-2.214,1.768-3.814,2.065-4.373a109.162,109.162,0,0,1,6.805-9.819c.625-.837,1.086-1.455,1.255-1.7a9.186,9.186,0,0,0,1.151-3.631c.051-.289.1-.578.158-.864.15-.595.3-1.162.463-1.727l.07-.247.243-.087a8.158,8.158,0,0,1,2.44-.51c.243-.009.562-.013.907.005l.151.008.121.091a2.986,2.986,0,0,1,1.384,2.054,1.247,1.247,0,0,0,.064.275l.028.133a28.951,28.951,0,0,1-.083,4.219,29.505,29.505,0,0,1-1.615,22.832l-.081.169a98.473,98.473,0,0,1-11.839,18.312,44.394,44.394,0,0,1-14.149,12.258c-4.95,2.545-10.555,3.44-15.976,4.3-1.65.263-3.356.535-5,.849A1.188,1.188,0,0,1,825.507,1289.817Zm-.506-2.158.2.466.048.4a.412.412,0,0,0,.156.255.163.163,0,0,0,.123.039c1.654-.316,3.368-.589,5.026-.854,5.343-.852,10.867-1.734,15.676-4.207a43.388,43.388,0,0,0,13.822-11.988,97.559,97.559,0,0,0,11.72-18.12l.082-.172a28.513,28.513,0,0,0,1.537-22.174l-.036-.1.01-.109a28.343,28.343,0,0,0,.1-4.1,2.117,2.117,0,0,1-.094-.439,1.842,1.842,0,0,0-.864-1.26c-.254-.009-.485-.006-.666,0a6.9,6.9,0,0,0-1.9.37q-.2.708-.379,1.421c-.048.252-.1.535-.148.818a10.06,10.06,0,0,1-1.308,4.019c-.173.255-.643.887-1.281,1.741a109.119,109.119,0,0,0-6.724,9.692c-.284.534-1.059,2.207-2.041,4.324-2.794,6.029-7.47,16.119-10.06,20.061-2.7,4.112-6.225,6.8-11.033,9.8a13.988,13.988,0,0,0-5.622,7.321l-.075.206-.2.084a54.053,54.053,0,0,1-5.561,1.949l-.133.02a.317.317,0,0,0-.165.045l-.12.051-.684.19c-.036.01-.069.019-.051.122.012.065.069.184.17.189Z" fill="#fff"/>
          </g>
          <g id="Grupo_2688" data-name="Grupo 2688">
            <path id="Trazado_9711" data-name="Trazado 9711" d="M824.269,1286.912c.225-.06.452-.125.678-.188a.816.816,0,0,1,.414-.115,53.52,53.52,0,0,0,5.509-1.932,14.574,14.574,0,0,1,5.826-7.572c4.365-2.723,8.088-5.4,10.88-9.647,3.511-5.344,10.993-22.306,12.077-24.345a69.2,69.2,0,0,1,4.419-6.586c1.947,15.659-5.391,30.886-16.206,42.723-2.038,2.231-4.753,4.609-7.218,7.19-4.892,1.4-10.1,1.924-15.029,2.866a.807.807,0,0,1-.868-.725l-.048-.4c-.047,0-.093.014-.139.018C823.841,1288.272,823.523,1287.109,824.269,1286.912Z" fill="#01888b"/>
            <path id="Trazado_9712" data-name="Trazado 9712" d="M825.506,1289.817a1.171,1.171,0,0,1-.693-.234,1.4,1.4,0,0,1-.553-.905,1.208,1.208,0,0,1-.9-.986,1.062,1.062,0,0,1,.779-1.263l.615-.171a1.327,1.327,0,0,1,.524-.146,52.89,52.89,0,0,0,5.2-1.815,14.869,14.869,0,0,1,5.953-7.616c4.693-2.928,8.125-5.538,10.726-9.5,2.55-3.88,7.206-13.929,9.989-19.933,1.026-2.214,1.768-3.814,2.065-4.373a65.75,65.75,0,0,1,4.456-6.646l.744-1.019.156,1.253c1.782,14.329-4.018,29.643-16.333,43.122-1.093,1.2-2.362,2.417-3.7,3.71-1.166,1.123-2.372,2.285-3.52,3.487l-.093.1-.131.038a86.92,86.92,0,0,1-10.1,2.03c-1.643.263-3.342.535-4.976.847A1.1,1.1,0,0,1,825.506,1289.817Zm-.505-2.158.2.466.048.4a.412.412,0,0,0,.156.255.163.163,0,0,0,.123.039c1.648-.315,3.354-.588,5.005-.852a86.986,86.986,0,0,0,9.85-1.967c1.134-1.182,2.314-2.318,3.456-3.418,1.331-1.282,2.588-2.492,3.66-3.665,11.746-12.856,17.471-27.377,16.217-41.04a55.479,55.479,0,0,0-3.619,5.475c-.284.534-1.059,2.207-2.041,4.324-2.794,6.029-7.47,16.119-10.06,20.061-2.7,4.112-6.225,6.8-11.033,9.8a13.988,13.988,0,0,0-5.622,7.321l-.075.206-.2.084a54.053,54.053,0,0,1-5.561,1.949l-.133.02a.317.317,0,0,0-.165.045l-.12.051-.684.19c-.036.01-.069.019-.051.122.012.065.069.184.17.189Z" fill="#fff"/>
          </g>
          <g id="Grupo_2689" data-name="Grupo 2689">
            <path id="Trazado_9713" data-name="Trazado 9713" d="M840.055,1285.774c6.512-3.8,11.93-10,15.949-16.3a65.019,65.019,0,0,0,8.928-20.263c1.82-8.031,4.25-16.135,5.632-24.245a6.567,6.567,0,0,1,1.252-.179c.229-.009.534-.012.862.005a2.489,2.489,0,0,1,1.185,1.7,1.665,1.665,0,0,0,.09.393,28.216,28.216,0,0,1-.092,4.247,29.492,29.492,0,0,1-1.639,22.725,98.923,98.923,0,0,1-11.78,18.216,43.938,43.938,0,0,1-13.985,12.123,37.078,37.078,0,0,1-9.474,3.136A33.808,33.808,0,0,0,840.055,1285.774Z" fill="#01888b"/>
            <path id="Trazado_9714" data-name="Trazado 9714" d="M832.662,1288.746l4.114-1.867a32.755,32.755,0,0,0,3.027-1.537h0c7.226-4.218,12.57-11.1,15.78-16.136a64.5,64.5,0,0,0,8.862-20.1c.657-2.9,1.407-5.861,2.131-8.724,1.285-5.077,2.614-10.328,3.495-15.495l.056-.328.324-.076a7.133,7.133,0,0,1,1.346-.191c.243-.009.562-.013.907.005l.151.008.121.091a2.986,2.986,0,0,1,1.384,2.054,1.247,1.247,0,0,0,.064.275l.028.133a28.951,28.951,0,0,1-.083,4.219,29.505,29.505,0,0,1-1.615,22.832l-.081.169a98.473,98.473,0,0,1-11.839,18.312,44.394,44.394,0,0,1-14.149,12.258,37.253,37.253,0,0,1-9.6,3.18ZM871,1225.386c-.887,5.1-2.191,10.251-3.454,15.238-.723,2.856-1.47,5.81-2.125,8.7a65.474,65.474,0,0,1-8.995,20.422c-3.179,4.985-8.421,11.758-15.512,16.1a30.469,30.469,0,0,0,5.315-2.09,43.388,43.388,0,0,0,13.822-11.988,97.559,97.559,0,0,0,11.72-18.12l.082-.172a28.513,28.513,0,0,0,1.537-22.174l-.036-.1.01-.109a28.343,28.343,0,0,0,.1-4.1,2.117,2.117,0,0,1-.094-.439,1.842,1.842,0,0,0-.864-1.26c-.254-.009-.485-.006-.666,0A5.727,5.727,0,0,0,871,1225.386Z" fill="#fff"/>
          </g>
          <g id="Grupo_2690" data-name="Grupo 2690">
            <path id="Trazado_9715" data-name="Trazado 9715" d="M873.861,1231.135a28.216,28.216,0,0,0,.092-4.247,1.665,1.665,0,0,1-.09-.393,2.489,2.489,0,0,0-1.185-1.7c-.235-.013-.448-.012-.641-.009-.505,5.127-.273,10.363-.83,15.483-.243,12.632-8.456,25.836-17.922,35.572a49.258,49.258,0,0,0,18.937-21.98A29.488,29.488,0,0,0,873.861,1231.135Z" fill="#01888b"/>
            <path id="Trazado_9716" data-name="Trazado 9716" d="M853.582,1276.242l-.655-.752c11.087-11.4,17.568-24.244,17.781-35.233.288-2.669.366-5.38.441-8,.071-2.47.144-5.025.391-7.52l.044-.445.445-.006c.206,0,.428,0,.676.009l.151.009.12.09a2.986,2.986,0,0,1,1.384,2.054,1.247,1.247,0,0,0,.064.275l.028.133a28.949,28.949,0,0,1-.083,4.218,29.5,29.5,0,0,1-1.616,22.833l-.08.168a49.737,49.737,0,0,1-19.091,22.169Zm18.91-50.956c-.209,2.318-.277,4.694-.344,7-.075,2.641-.154,5.372-.443,8.037-.187,9.749-5.2,20.935-13.935,31.311a74.516,74.516,0,0,0,9.043-9.231,76.743,76.743,0,0,0,4.957-8.756l.082-.171a28.513,28.513,0,0,0,1.537-22.174l-.035-.1.009-.108a28.358,28.358,0,0,0,.1-4.1,2.112,2.112,0,0,1-.094-.44,1.844,1.844,0,0,0-.864-1.259Z" fill="#fff"/>
          </g>
          <g id="Grupo_2691" data-name="Grupo 2691">
            <path id="Trazado_9717" data-name="Trazado 9717" d="M869.312,1226.48a1.877,1.877,0,0,1,.181-.864.678.678,0,0,1,.148-.306c.006-.01.007-.019.014-.029.017-.027.046-.025.069-.042a.618.618,0,0,1,.137-.118,4.076,4.076,0,0,1,1.042-.222,7.758,7.758,0,0,1,1.431-.163,1.221,1.221,0,0,1,1.159.935.441.441,0,0,1-.186.406,5.119,5.119,0,0,1-1.986.682c-.505.112-1.2.377-1.662.011A.315.315,0,0,1,869.312,1226.48Z" fill="#01888b"/>
            <path id="Trazado_9718" data-name="Trazado 9718" d="M870.255,1227.457a1.444,1.444,0,0,1-.774-.2.8.8,0,0,1-.669-.756h0a2.351,2.351,0,0,1,.2-1.039,1.174,1.174,0,0,1,.187-.4l.042-.066.088-.125.107-.048a.651.651,0,0,1,.206-.151,3.009,3.009,0,0,1,.921-.227l.355-.054a7.383,7.383,0,0,1,1.422-.153,1.724,1.724,0,0,1,1.636,1.324.929.929,0,0,1-.384.925,4.765,4.765,0,0,1-1.9.7l-.5.115A3.878,3.878,0,0,1,870.255,1227.457Zm-.444-1v0h0Zm.02-.192.141.113c.194.155.63.043.979-.046l.542-.123a4.037,4.037,0,0,0,1.487-.515.73.73,0,0,0-.655-.46,6.022,6.022,0,0,0-1.232.138l-.106.018c-.091.016-.189.029-.288.043a2.261,2.261,0,0,0-.621.137l-.018.042-.11.2a1.519,1.519,0,0,0-.132.448Zm.174-.631-.13.084A.442.442,0,0,0,870.005,1225.636Zm-.488-.85-.027.012Z" fill="#fff"/>
          </g>
        </g>
        <g id="Grupo_2698" data-name="Grupo 2698">
          <g id="Grupo_2693" data-name="Grupo 2693">
            <path id="Trazado_9719" data-name="Trazado 9719" d="M824.458,1286.865c-.249-.084-.5-.176-.748-.265a.937.937,0,0,0-.457-.162,60.089,60.089,0,0,1-6.045-2.609,16.379,16.379,0,0,0-5.939-8.986c-4.691-3.41-8.664-6.716-11.459-11.72-3.516-6.3-10.548-25.985-11.6-28.366-1.641-3.71-7.4-12.338-8.1-13.557-.914-1.585-.954-3.526-1.175-5.38q-.174-.967-.373-1.933a8.64,8.64,0,0,0-2.54-.723c-.258-.028-.6-.056-.972-.062a2.825,2.825,0,0,0-1.474,1.823,1.906,1.906,0,0,1-.133.435,32.009,32.009,0,0,0-.245,4.79c-5.45,12.585-.856,23.56-.019,25.717a111.257,111.257,0,0,0,11.77,21.441c3.923,5.768,8.752,11.111,14.752,14.753,6.932,4.208,15.326,5.351,23.045,7.394a.915.915,0,0,0,1.037-.747l.087-.442c.052.008.1.022.155.03C824.828,1288.431,825.281,1287.146,824.458,1286.865Z" fill="#01888b"/>
            <path id="Trazado_9720" data-name="Trazado 9720" d="M822.914,1289.978a1.176,1.176,0,0,1-.3-.039c-1.822-.483-3.721-.923-5.558-1.35-6.028-1.4-12.262-2.848-17.619-6.1-5.393-3.273-10.408-8.286-14.907-14.9a110.65,110.65,0,0,1-11.822-21.541l-.077-.2c-4.337-11.07-2.375-20.125.06-25.8a32.653,32.653,0,0,1,.252-4.761l.036-.128a1.406,1.406,0,0,0,.1-.322,3.331,3.331,0,0,1,1.7-2.16l.127-.08.15,0c.388.006.748.035,1.017.064a9.1,9.1,0,0,1,2.688.763l.236.1.052.253q.2.97.376,1.946c.043.353.076.681.11,1.008a10.4,10.4,0,0,0,1.007,4.21c.17.3.641,1.031,1.279,2.027a122.9,122.9,0,0,1,6.848,11.578c.288.651.992,2.512,1.966,5.087,2.64,6.981,7.06,18.664,9.615,23.237,2.61,4.673,6.265,7.888,11.316,11.56a16.674,16.674,0,0,1,6.064,9.039,59.585,59.585,0,0,0,5.741,2.47,1.433,1.433,0,0,1,.565.2l.686.243a1.135,1.135,0,0,1,.734,1.405,1.3,1.3,0,0,1-1.082,1l0,.007a1.519,1.519,0,0,1-.678.973A1.27,1.27,0,0,1,822.914,1289.978Zm-48.99-74.485a32.132,32.132,0,0,0-.231,4.648l0,.108-.043.1c-2.38,5.5-4.328,14.32-.089,25.138l.078.2a109.659,109.659,0,0,0,11.716,21.34c4.418,6.494,9.33,11.408,14.6,14.607,5.221,3.169,11.375,4.6,17.326,5.981,1.845.428,3.751.871,5.587,1.357a.252.252,0,0,0,.192-.042.537.537,0,0,0,.227-.318l.179-.917.584.1a.3.3,0,0,0,.332-.24c.043-.17-.038-.2-.087-.215l-.871-.327a.44.44,0,0,0-.213-.075l-.13-.028a60.923,60.923,0,0,1-6.1-2.631l-.2-.1-.06-.212a15.79,15.79,0,0,0-5.753-8.719c-5.161-3.752-8.9-7.048-11.6-11.882-2.591-4.638-7.027-16.364-9.677-23.37-.932-2.464-1.669-4.41-1.945-5.037a122.844,122.844,0,0,0-6.776-11.442c-.65-1.016-1.13-1.766-1.3-2.067a11.294,11.294,0,0,1-1.135-4.609c-.033-.322-.066-.643-.1-.961-.1-.531-.2-1.083-.313-1.636a7.808,7.808,0,0,0-2.157-.583c-.21-.023-.48-.046-.775-.056a2.165,2.165,0,0,0-1.124,1.406A2.383,2.383,0,0,1,773.924,1215.493Z" fill="#fff"/>
          </g>
          <g id="Grupo_2694" data-name="Grupo 2694">
            <path id="Trazado_9721" data-name="Trazado 9721" d="M824.458,1286.865c-.249-.084-.5-.176-.748-.265a.937.937,0,0,0-.457-.162,60.089,60.089,0,0,1-6.045-2.609,16.379,16.379,0,0,0-5.939-8.986c-4.691-3.41-8.664-6.716-11.459-11.72-3.516-6.3-10.548-25.985-11.6-28.366a77.6,77.6,0,0,0-4.435-7.763c-3.478,17.478,3.536,35.2,14.743,49.384,2.111,2.672,4.974,5.564,7.537,8.665,5.394,1.96,11.21,2.962,16.688,4.412a.915.915,0,0,0,1.037-.747l.087-.442c.052.008.1.022.155.03C824.828,1288.431,825.281,1287.146,824.458,1286.865Z" fill="#01888b"/>
            <path id="Trazado_9722" data-name="Trazado 9722" d="M822.914,1289.978a1.176,1.176,0,0,1-.3-.039c-1.816-.481-3.707-.92-5.536-1.346a97.467,97.467,0,0,1-11.2-3.081l-.128-.046-.086-.1c-1.194-1.444-2.456-2.845-3.676-4.2-1.407-1.563-2.736-3.039-3.868-4.473-12.749-16.133-18.02-33.816-14.841-49.792l.246-1.237.668,1.069a73.879,73.879,0,0,1,4.469,7.827c.288.651.992,2.512,1.966,5.087,2.64,6.981,7.06,18.664,9.615,23.237,2.611,4.675,6.266,7.889,11.316,11.559a16.68,16.68,0,0,1,6.064,9.04,59.585,59.585,0,0,0,5.741,2.47,1.433,1.433,0,0,1,.565.2l.686.243a1.135,1.135,0,0,1,.734,1.405,1.3,1.3,0,0,1-1.082,1l0,.007a1.519,1.519,0,0,1-.678.973A1.27,1.27,0,0,1,822.914,1289.978Zm-16.563-5.359a98.291,98.291,0,0,0,10.954,3c1.836.427,3.735.869,5.564,1.353a.252.252,0,0,0,.192-.042.537.537,0,0,0,.227-.318l.179-.917.584.1a.3.3,0,0,0,.332-.24c.043-.169-.037-.2-.086-.214h0l-.871-.327a.44.44,0,0,0-.213-.075l-.13-.028a60.923,60.923,0,0,1-6.1-2.631l-.2-.1-.061-.212a15.788,15.788,0,0,0-5.753-8.72c-5.16-3.75-8.9-7.046-11.6-11.881-2.591-4.638-7.027-16.364-9.677-23.37-.932-2.464-1.669-4.41-1.945-5.037a64.024,64.024,0,0,0-3.721-6.6c-2.6,15.35,2.649,32.239,14.877,47.712,1.113,1.409,2.431,2.873,3.827,4.423C803.933,1281.822,805.17,1283.2,806.351,1284.619Z" fill="#fff"/>
          </g>
          <g id="Grupo_2695" data-name="Grupo 2695">
            <path id="Trazado_9723" data-name="Trazado 9723" d="M806.776,1284.34c-7.021-4.794-12.613-12.2-16.622-19.611a73.21,73.21,0,0,1-8.391-23.521c-1.39-9.185-3.46-18.5-4.351-27.744a7.467,7.467,0,0,0-1.395-.3c-.258-.028-.6-.056-.972-.062a2.825,2.825,0,0,0-1.474,1.823,1.906,1.906,0,0,1-.133.435,32.009,32.009,0,0,0-.245,4.79c-5.45,12.585-.856,23.56-.019,25.717a111.257,111.257,0,0,0,11.77,21.441c3.923,5.768,8.752,11.111,14.752,14.753a41.746,41.746,0,0,0,10.411,4.279A38.12,38.12,0,0,1,806.776,1284.34Z" fill="#01888b"/>
            <path id="Trazado_9724" data-name="Trazado 9724" d="M814.315,1288.049l-4.345-1.229a41.869,41.869,0,0,1-10.533-4.331c-5.393-3.273-10.408-8.286-14.907-14.9a110.65,110.65,0,0,1-11.822-21.541l-.077-.2c-4.337-11.07-2.375-20.125.06-25.8a32.653,32.653,0,0,1,.252-4.761l.036-.128a1.406,1.406,0,0,0,.1-.322,3.326,3.326,0,0,1,1.7-2.159l.127-.081.15,0c.388.006.748.035,1.017.064a8.05,8.05,0,0,1,1.489.32l.319.1.032.332c.568,5.89,1.633,11.908,2.664,17.728.581,3.28,1.181,6.672,1.683,9.99a72.666,72.666,0,0,0,8.337,23.357c3.205,5.926,8.662,14.109,16.464,19.436a36.828,36.828,0,0,0,3.286,1.972Zm-40.391-72.556a32.132,32.132,0,0,0-.231,4.648l0,.108-.043.1c-2.38,5.5-4.328,14.32-.089,25.138l.078.2a109.659,109.659,0,0,0,11.716,21.34c4.418,6.494,9.33,11.408,14.6,14.607a34.849,34.849,0,0,0,6.292,2.948c-7.836-5.441-13.31-13.654-16.534-19.615a73.645,73.645,0,0,1-8.445-23.684c-.5-3.306-1.1-6.691-1.68-9.965-1.014-5.728-2.063-11.648-2.641-17.467a6.4,6.4,0,0,0-.985-.19c-.21-.023-.48-.046-.775-.056a2.165,2.165,0,0,0-1.124,1.406A2.383,2.383,0,0,1,773.924,1215.493Z" fill="#fff"/>
          </g>
          <g id="Grupo_2696" data-name="Grupo 2696">
            <path id="Trazado_9725" data-name="Trazado 9725" d="M824.458,1286.865c-.249-.084-.5-.176-.748-.265a.937.937,0,0,0-.457-.162c-1.715-.627-3.427-1.373-5.125-2.182-13.295-1.856-23.862-11.965-31.214-23.033a74.015,74.015,0,0,1-10.437-22.528c-2.08-8.375-.492-17.035-.709-25.553-.217-.019-.456-.036-.723-.04a2.825,2.825,0,0,0-1.474,1.823,1.906,1.906,0,0,1-.133.435,32.009,32.009,0,0,0-.245,4.79c-5.45,12.585-.856,23.56-.019,25.717a111.257,111.257,0,0,0,11.77,21.441c3.923,5.768,8.752,11.111,14.752,14.753,6.932,4.208,15.326,5.351,23.045,7.394a.915.915,0,0,0,1.037-.747l.087-.442c.052.008.1.022.155.03C824.828,1288.431,825.281,1287.146,824.458,1286.865Z" fill="#01888b"/>
            <path id="Trazado_9726" data-name="Trazado 9726" d="M822.914,1289.978a1.176,1.176,0,0,1-.3-.039c-1.822-.483-3.721-.923-5.558-1.35-6.028-1.4-12.262-2.848-17.619-6.1-5.393-3.273-10.408-8.286-14.907-14.9a110.65,110.65,0,0,1-11.822-21.541l-.077-.2c-4.337-11.07-2.375-20.125.06-25.8a32.653,32.653,0,0,1,.252-4.761l.036-.128a1.406,1.406,0,0,0,.1-.322,3.331,3.331,0,0,1,1.7-2.16l.127-.08.15,0c.28.005.532.022.759.042l.444.039.012.446c.072,2.827-.055,5.708-.178,8.494-.248,5.609-.5,11.409.873,16.952a72.722,72.722,0,0,0,10.367,22.371c6.182,9.3,16.555,20.817,30.868,22.815l.146.044c1.835.875,3.48,1.576,5.024,2.143a1.433,1.433,0,0,1,.565.2l.686.243a1.135,1.135,0,0,1,.734,1.405,1.3,1.3,0,0,1-1.082,1l0,.007a1.519,1.519,0,0,1-.678.973A1.27,1.27,0,0,1,822.914,1289.978Zm-48.99-74.485a32.132,32.132,0,0,0-.231,4.648l0,.108-.043.1c-2.38,5.5-4.328,14.32-.089,25.138l.078.2a109.659,109.659,0,0,0,11.716,21.34c4.418,6.494,9.33,11.408,14.6,14.607,5.221,3.169,11.375,4.6,17.326,5.981,1.845.428,3.751.871,5.587,1.357a.252.252,0,0,0,.192-.042.537.537,0,0,0,.227-.318l.179-.917.584.1a.3.3,0,0,0,.332-.24c.043-.17-.038-.2-.087-.215l-.871-.327a.44.44,0,0,0-.213-.075l-.13-.028c-1.572-.575-3.24-1.284-5.1-2.167-14.642-2.08-25.2-13.782-31.486-23.241a73.722,73.722,0,0,1-10.505-22.684c-1.411-5.683-1.152-11.557-.9-17.237.116-2.619.235-5.322.187-7.97l-.09,0a2.162,2.162,0,0,0-1.124,1.405A2.383,2.383,0,0,1,773.924,1215.493Z" fill="#fff"/>
          </g>
          <g id="Grupo_2697" data-name="Grupo 2697">
            <path id="Trazado_9727" data-name="Trazado 9727" d="M778.7,1215.267a2.111,2.111,0,0,0-.134-.988.771.771,0,0,0-.14-.356.353.353,0,0,1-.014-.034c-.018-.031-.051-.032-.074-.052a.735.735,0,0,0-.146-.144,4.551,4.551,0,0,0-1.154-.331,8.815,8.815,0,0,0-1.6-.3,1.384,1.384,0,0,0-1.381.962.5.5,0,0,0,.176.472,5.761,5.761,0,0,0,2.18.925c.559.165,1.326.52,1.871.143A.358.358,0,0,0,778.7,1215.267Z" fill="#01888b"/>
            <path id="Trazado_9728" data-name="Trazado 9728" d="M777.7,1216.233a3.814,3.814,0,0,1-1.176-.249l-.561-.169a5.337,5.337,0,0,1-2.052-.93.993.993,0,0,1-.337-1,1.916,1.916,0,0,1,1.884-1.318,8.523,8.523,0,0,1,1.577.284l.116.028c.089.022.183.041.28.061a3.369,3.369,0,0,1,1,.322.821.821,0,0,1,.218.185.564.564,0,0,1,.189.2l.029.054a1.254,1.254,0,0,1,.177.46,2.573,2.573,0,0,1,.144,1.164.838.838,0,0,1-.769.741A1.511,1.511,0,0,1,777.7,1216.233Zm-2.334-2.671a.891.891,0,0,0-.836.61,5.864,5.864,0,0,0,1.708.681l.6.182c.423.14.9.3,1.158.12l.148-.1.063.006a1.689,1.689,0,0,0-.116-.608l-.027-.112a.259.259,0,0,0-.039-.107l-.018-.015-.1-.1a2.659,2.659,0,0,0-.678-.195c-.108-.022-.215-.044-.316-.068l-.118-.029a7.774,7.774,0,0,0-1.388-.256Z" fill="#fff"/>
          </g>
        </g>
        <g id="Grupo_2699" data-name="Grupo 2699">
          <path id="Trazado_9729" data-name="Trazado 9729" d="M850.434,1217.76a.687.687,0,0,1,.331,1.333A.687.687,0,0,1,850.434,1217.76Z" fill="#01888b"/>
          <path id="Trazado_9730" data-name="Trazado 9730" d="M850.583,1219.617a1.1,1.1,0,0,1-.8-.338,1.271,1.271,0,0,1-.3-1.214,1.119,1.119,0,0,1,.831-.79h0a1.187,1.187,0,0,1,.576,2.3A1.245,1.245,0,0,1,850.583,1219.617Zm-.027-1.372c-.087.022-.1.06-.114.093a.276.276,0,0,0,.061.244c.023.024.057.048.14.026.04-.009.159-.04.113-.223s-.159-.151-.2-.14Z" fill="#fff"/>
        </g>
        <g id="Grupo_2700" data-name="Grupo 2700">
          <path id="Trazado_9731" data-name="Trazado 9731" d="M820.388,1286.354c12.407-10.569,19.283-23.287,20.083-39.763.6-12.4-.79-24.741,6.158-35.4a72.25,72.25,0,0,0-1.125-8.734.719.719,0,0,1,.053-.454,2.361,2.361,0,0,0,.974.08c-.217.026.42.156.513.178a4.588,4.588,0,0,0,1.141.148,5.269,5.269,0,0,0,1.876-.428,5.163,5.163,0,0,1,1.35,2.32,31.764,31.764,0,0,1,1.14,7.266c.013.013.028.018.04.032,19.112,22.9,4.595,79.664-30.7,76.6a1.223,1.223,0,0,1-.536-.189C820.452,1288.171,819.513,1287.1,820.388,1286.354Z" fill="#01888b"/>
          <path id="Trazado_9732" data-name="Trazado 9732" d="M824.533,1288.819q-1.331,0-2.681-.117a1.635,1.635,0,0,1-.6-.173,1.7,1.7,0,0,1-1.587-.942,1.323,1.323,0,0,1,.4-1.613h0c12.631-10.761,19.143-23.651,19.907-39.407.115-2.376.158-4.786.2-7.117.179-10.129.348-19.7,5.949-28.39a72.058,72.058,0,0,0-1.107-8.508,1.215,1.215,0,0,1,.092-.76l.185-.4.417.129a1.877,1.877,0,0,0,.765.061h0l.054.441.192-.362a3.524,3.524,0,0,0,.387.1,4.164,4.164,0,0,0,1.069.147,4.731,4.731,0,0,0,1.7-.39l.3-.124.235.221a5.614,5.614,0,0,1,1.488,2.542,31.787,31.787,0,0,1,1.153,7.219c10.723,13.016,11.388,37.855,1.544,56.723C847.652,1281.392,836.807,1288.819,824.533,1288.819Zm-3.073-1.328.16.1a.728.728,0,0,0,.318.117c12.935,1.119,24.523-6.192,31.762-20.068,9.7-18.585,9.055-43.019-1.451-55.668l-.188-.2-.009-.182a30.936,30.936,0,0,0-1.12-7.146,4.862,4.862,0,0,0-1-1.879,5.521,5.521,0,0,1-1.737.343,5.3,5.3,0,0,1-1.267-.162,3.86,3.86,0,0,1-.563-.149,3.239,3.239,0,0,1-.329,0,73.3,73.3,0,0,1,1.089,8.562l.012.167-.092.14c-5.534,8.489-5.7,17.967-5.878,28-.041,2.338-.084,4.757-.2,7.148-.779,16.046-7.4,29.17-20.258,40.119-.216.184-.188.325-.14.429a.7.7,0,0,0,.7.359Z" fill="#fff"/>
        </g>
        <g id="Grupo_2701" data-name="Grupo 2701">
          <path id="Trazado_9733" data-name="Trazado 9733" d="M847.48,1272.761c-7.615,8-16.3,11.095-26.007,12.63-.362.321-.713.646-1.085.963-.875.746.064,1.817.971,1.661a1.223,1.223,0,0,0,.536.189c18.781,1.628,31.678-13.687,36.755-31.825A64.883,64.883,0,0,1,847.48,1272.761Z" fill="#01888b"/>
          <path id="Trazado_9734" data-name="Trazado 9734" d="M824.7,1288.827q-1.4,0-2.85-.125a1.635,1.635,0,0,1-.6-.173,1.7,1.7,0,0,1-1.587-.942,1.324,1.324,0,0,1,.4-1.613c.24-.2.472-.414.7-.622l.484-.432.144-.023c11.418-1.8,19.11-5.538,25.723-12.48a64.547,64.547,0,0,0,11.082-16.258l.931.355C854.674,1272.435,843.35,1288.827,824.7,1288.827Zm-3.242-1.336.16.1a.728.728,0,0,0,.318.117c17.534,1.511,28.913-11.616,34.433-26.024a62.325,62.325,0,0,1-8.529,11.424h0c-6.748,7.085-14.572,10.9-26.145,12.756l-.261.234c-.238.214-.476.428-.723.639-.216.184-.189.325-.141.429a.7.7,0,0,0,.7.359Z" fill="#fff"/>
        </g>
        <g id="Grupo_2702" data-name="Grupo 2702">
          <path id="Trazado_9735" data-name="Trazado 9735" d="M844.534,1234.48c-.65,6.576-1.22,13.138-2.917,19.548a45.5,45.5,0,0,1-6.956,14.847,53.1,53.1,0,0,0,5.81-22.284c.559-11.513-.587-22.977,4.809-33.09C846.005,1220.518,845.228,1227.466,844.534,1234.48Z" fill="#01888b"/>
          <path id="Trazado_9736" data-name="Trazado 9736" d="M835.07,1269.163l-.852-.519a52.322,52.322,0,0,0,5.753-22.077c.115-2.365.158-4.764.2-7.084.168-9.3.327-18.082,4.668-26.217l.77-1.444.169,1.628c.689,6.668.02,13.386-.628,19.883l-.242,2.454a115.691,115.691,0,0,1-2.808,18.369A46.038,46.038,0,0,1,835.07,1269.163Zm9.864-53.843c-3.461,7.49-3.608,15.614-3.763,24.181-.042,2.328-.086,4.735-.2,7.115a55.741,55.741,0,0,1-2.838,15.417,44.9,44.9,0,0,0,3-8.133,115.075,115.075,0,0,0,2.78-18.211l.242-2.455A107.53,107.53,0,0,0,844.934,1215.32Z" fill="#fff"/>
        </g>
        <g id="Grupo_2703" data-name="Grupo 2703">
          <path id="Trazado_9737" data-name="Trazado 9737" d="M848.866,1270.162c-.493,1.12-1.035,2.193-1.614,3.23,6.671-7.261,10.834-16.613,13.275-26.434,1.676-13.253-.723-26.716-7.936-35.358-.012-.014-.027-.019-.04-.032a31.764,31.764,0,0,0-1.14-7.266,5.163,5.163,0,0,0-1.35-2.32,5.264,5.264,0,0,1-1.876.428,4.64,4.64,0,0,1-1.141-.148l-.172-.039c1.122,5.295,2.124,10.589,2.827,15.887C853.707,1235.108,856.006,1253.928,848.866,1270.162Z" fill="#01888b"/>
          <path id="Trazado_9738" data-name="Trazado 9738" d="M844.731,1276.874l2.084-3.727c.593-1.06,1.129-2.132,1.594-3.186h0c7.5-17.06,4.37-36.61.8-51.736-.625-4.688-1.521-9.724-2.829-15.9l-.162-.765.889.2a4.229,4.229,0,0,0,1.063.146,4.731,4.731,0,0,0,1.7-.39l.3-.124.235.221a5.616,5.616,0,0,1,1.488,2.541,31.816,31.816,0,0,1,1.153,7.22c6.8,8.252,9.765,21.537,7.98,35.643-2.742,11.043-7.248,20.01-13.4,26.709Zm2.787-74.011c1.229,5.864,2.082,10.7,2.676,15.181,3.562,15.094,6.7,34.641-.671,51.86,4.706-6.15,8.237-13.888,10.519-23.066,1.747-13.835-1.163-26.885-7.793-34.868l-.188-.2-.009-.182a30.956,30.956,0,0,0-1.12-7.147,4.865,4.865,0,0,0-1-1.878,5.521,5.521,0,0,1-1.737.343A4.133,4.133,0,0,1,847.518,1202.863Z" fill="#fff"/>
        </g>
        <g id="Grupo_2704" data-name="Grupo 2704">
          <path id="Trazado_9739" data-name="Trazado 9739" d="M820.6,1285.477c4.787-7.54,1.311-11.694,2.116-16.9.561-3.629.76-29.314.151-38.567a27.925,27.925,0,0,1,1.249-11.621,13.1,13.1,0,0,1,1.636-3.042c.735-.992,1.845-1.711,2.278-2.914.455-1.265.033-2.754-.169-4.018-.146-.912-.257-1.826-.385-2.736a1.661,1.661,0,0,1,.933-.922,8.828,8.828,0,0,1,3.1.835,5.9,5.9,0,0,1,1.184,1.672,11.423,11.423,0,0,0,1.712,5.11c.626.861,4.205,5.507,5.488,10.808,1.66,6.854,1.088,32.836-1.961,41.236-2.334,10.164-7.776,15.489-14.826,23.072a1.193,1.193,0,0,1-1.448.172l-.64-.5A1.26,1.26,0,0,1,820.6,1285.477Z" fill="#01888b"/>
          <path id="Trazado_9740" data-name="Trazado 9740" d="M822.234,1288.338a1.415,1.415,0,0,1-.875-.28l-.641-.5a1.749,1.749,0,0,1-.536-2.352h0c3.079-4.849,2.635-8.229,2.207-11.5a17.777,17.777,0,0,1-.162-5.21c.561-3.628.759-29.136.146-38.458-.32-4.874.087-8.633,1.28-11.829a13.606,13.606,0,0,1,1.7-3.165,10.413,10.413,0,0,1,.929-1.046,5.107,5.107,0,0,0,1.28-1.739,6.131,6.131,0,0,0-.068-3.074c-.044-.237-.087-.47-.123-.7-.1-.617-.182-1.234-.265-1.85l-.142-1.039.059-.131a2.154,2.154,0,0,1,1.21-1.184l.106-.04.112.009a9.322,9.322,0,0,1,3.274.88l.134.091a6.387,6.387,0,0,1,1.288,1.813l.043.133.075.425a10.019,10.019,0,0,0,1.55,4.479l.129.176a31.015,31.015,0,0,1,5.44,10.808c1.645,6.793,1.122,32.987-1.977,41.524-2.2,9.61-7.252,15.018-13.644,21.864l-1.285,1.379A1.756,1.756,0,0,1,822.234,1288.338Zm-1.207-2.592c-.326.514.239.974.3,1.025l.641.5a.715.715,0,0,0,.775-.118l1.287-1.381c6.29-6.736,11.258-12.057,13.418-21.463,3.072-8.474,3.585-34.306,1.962-41.006a30.027,30.027,0,0,0-5.272-10.45l-.135-.183a10.954,10.954,0,0,1-1.725-4.894l-.062-.352a5.421,5.421,0,0,0-.991-1.411,8.5,8.5,0,0,0-1.171-.443,8.8,8.8,0,0,0-1.562-.3,1.118,1.118,0,0,0-.5.5l.1.748c.082.608.164,1.216.261,1.825.035.218.077.443.119.673a6.935,6.935,0,0,1,.027,3.593,5.954,5.954,0,0,1-1.505,2.1,9.437,9.437,0,0,0-.843.944,12.648,12.648,0,0,0-1.572,2.928c-1.139,3.05-1.526,6.676-1.215,11.4.615,9.361.41,35.016-.156,38.676a17.038,17.038,0,0,0,.165,4.928c.431,3.286.919,7.009-2.354,12.165Z" fill="#fff"/>
        </g>
        <g id="Grupo_2705" data-name="Grupo 2705">
          <path id="Trazado_9741" data-name="Trazado 9741" d="M820.6,1285.477c4.787-7.54,1.311-11.694,2.116-16.9.561-3.629.76-29.314.151-38.567a27.925,27.925,0,0,1,1.249-11.621,13.1,13.1,0,0,1,1.636-3.042c.735-.992,1.845-1.711,2.278-2.914.455-1.265.033-2.754-.169-4.018-.146-.912-.257-1.826-.385-2.736a1.661,1.661,0,0,1,.933-.922,8.828,8.828,0,0,1,3.1.835,5.9,5.9,0,0,1,1.184,1.672,11.423,11.423,0,0,0,1.712,5.11c.626.861,4.205,5.507,5.488,10.808,1.66,6.854,1.088,32.836-1.961,41.236-2.334,10.164-7.776,15.489-14.826,23.072a1.193,1.193,0,0,1-1.448.172l-.64-.5A1.26,1.26,0,0,1,820.6,1285.477Z" fill="#01888b"/>
          <path id="Trazado_9742" data-name="Trazado 9742" d="M822.234,1288.338a1.415,1.415,0,0,1-.875-.28l-.641-.5a1.749,1.749,0,0,1-.536-2.352h0c3.079-4.849,2.635-8.229,2.207-11.5a17.777,17.777,0,0,1-.162-5.21c.561-3.628.759-29.136.146-38.458-.32-4.874.087-8.633,1.28-11.829a13.606,13.606,0,0,1,1.7-3.165,10.413,10.413,0,0,1,.929-1.046,5.107,5.107,0,0,0,1.28-1.739,6.131,6.131,0,0,0-.068-3.074c-.044-.237-.087-.47-.123-.7-.1-.617-.182-1.234-.265-1.85l-.142-1.039.059-.131a2.154,2.154,0,0,1,1.21-1.184l.106-.04.112.009a9.322,9.322,0,0,1,3.274.88l.134.091a6.387,6.387,0,0,1,1.288,1.813l.043.133.075.425a10.019,10.019,0,0,0,1.55,4.479l.129.176a31.015,31.015,0,0,1,5.44,10.808c1.645,6.793,1.122,32.987-1.977,41.524-2.2,9.61-7.252,15.018-13.644,21.864l-1.285,1.379A1.756,1.756,0,0,1,822.234,1288.338Zm-1.207-2.592c-.326.514.239.974.3,1.025l.641.5a.715.715,0,0,0,.775-.118l1.287-1.381c6.29-6.736,11.258-12.057,13.418-21.463,3.072-8.474,3.585-34.306,1.962-41.006a30.027,30.027,0,0,0-5.272-10.45l-.135-.183a10.954,10.954,0,0,1-1.725-4.894l-.062-.352a5.421,5.421,0,0,0-.991-1.411,8.5,8.5,0,0,0-1.171-.443,8.8,8.8,0,0,0-1.562-.3,1.118,1.118,0,0,0-.5.5l.1.748c.082.608.164,1.216.261,1.825.035.218.077.443.119.673a6.935,6.935,0,0,1,.027,3.593,5.954,5.954,0,0,1-1.505,2.1,9.437,9.437,0,0,0-.843.944,12.648,12.648,0,0,0-1.572,2.928c-1.139,3.05-1.526,6.676-1.215,11.4.615,9.361.41,35.016-.156,38.676a17.038,17.038,0,0,0,.165,4.928c.431,3.286.919,7.009-2.354,12.165Z" fill="#fff"/>
        </g>
        <g id="Grupo_2706" data-name="Grupo 2706">
          <path id="Trazado_9743" data-name="Trazado 9743" d="M828.134,1250.641c-1.066-9.227-2.533-18.224-.39-27.422,1.616-6.94,2.257-11.92,1.033-18.412a9.621,9.621,0,0,1,1.42.28,9.113,9.113,0,0,1,1.319.506,5.892,5.892,0,0,1,1.184,1.67,11.423,11.423,0,0,0,1.712,5.111c.626.861,4.205,5.507,5.488,10.808,1.66,6.854,1.088,32.836-1.961,41.235-2.334,10.165-7.776,15.489-14.826,23.073a1.193,1.193,0,0,1-1.448.172l-.64-.5a1.7,1.7,0,0,1-.31-.318C827.468,1275.511,829.7,1264.158,828.134,1250.641Z" fill="#01888b"/>
          <path id="Trazado_9744" data-name="Trazado 9744" d="M822.234,1288.338a1.413,1.413,0,0,1-.876-.281l-.64-.5a2.214,2.214,0,0,1-.4-.408l-.206-.269.173-.291c6.661-11.184,8.928-22.255,7.352-35.9h0q-.17-1.46-.346-2.913c-1.014-8.416-1.971-16.367-.034-24.679,1.6-6.865,2.237-11.8,1.029-18.206l-.127-.675.681.086a10.021,10.021,0,0,1,1.5.3,9.6,9.6,0,0,1,1.39.533l.134.091a6.388,6.388,0,0,1,1.288,1.811l.043.133.075.426a10.019,10.019,0,0,0,1.55,4.479l.129.176a31.015,31.015,0,0,1,5.44,10.808c1.645,6.793,1.122,32.987-1.977,41.524-2.2,9.611-7.253,15.018-13.645,21.865l-1.284,1.378A1.752,1.752,0,0,1,822.234,1288.338Zm-.9-1.561.633.49a.713.713,0,0,0,.776-.117l1.286-1.38c6.29-6.736,11.258-12.057,13.419-21.464,3.072-8.474,3.585-34.306,1.962-41.006a30.013,30.013,0,0,0-5.273-10.45l-.134-.183a10.953,10.953,0,0,1-1.725-4.9l-.062-.351a5.382,5.382,0,0,0-.991-1.41,8.414,8.414,0,0,0-1.171-.444c-.2-.057-.421-.11-.664-.156,1.068,6.245.409,11.172-1.163,17.921-1.9,8.142-.95,16.007.053,24.333q.176,1.456.346,2.918h0C830.2,1264.136,827.879,1275.647,821.338,1286.777Z" fill="#fff"/>
        </g>
        <g id="Grupo_2707" data-name="Grupo 2707">
          <path id="Trazado_9745" data-name="Trazado 9745" d="M836.478,1246.085c.506-10.735-1.875-20.142-3.26-30.616-.3-2.272-.181-5.505-.637-8.409.037.07.084.132.119.2a11.423,11.423,0,0,0,1.712,5.111,33.05,33.05,0,0,1,5.488,10.808c3.6,14.495,1.088,32.836-1.961,41.235-2.334,10.165-7.776,15.489-14.826,23.073a1.193,1.193,0,0,1-1.448.172l-.511-.4C830.1,1275.167,835.72,1262.172,836.478,1246.085Z" fill="#01888b"/>
          <path id="Trazado_9746" data-name="Trazado 9746" d="M822.234,1288.338a1.413,1.413,0,0,1-.876-.281l-.9-.7.29-.392c9.69-13.1,14.529-26.1,15.227-40.907.365-7.742-.77-14.715-1.972-22.1-.444-2.73-.9-5.552-1.284-8.428-.135-1.019-.187-2.215-.242-3.481a44.179,44.179,0,0,0-.4-4.916l-.461-2.942,1.4,2.629c.069.112.1.162.126.216l.044.134.075.426a10.019,10.019,0,0,0,1.55,4.479l.109.149a31.683,31.683,0,0,1,5.459,10.832c3.673,14.772,1.055,33.176-1.976,41.527-2.2,9.611-7.253,15.018-13.645,21.865l-1.284,1.378A1.752,1.752,0,0,1,822.234,1288.338Zm-.388-1.169.125.1a.713.713,0,0,0,.776-.117l1.286-1.38c6.29-6.736,11.258-12.057,13.419-21.464,3.006-8.291,5.585-26.436,1.963-41a30.521,30.521,0,0,0-5.295-10.482l-.113-.154a7.7,7.7,0,0,1-.535-.851l.009.195c.053,1.243.1,2.417.233,3.393.378,2.861.837,5.676,1.28,8.4,1.211,7.435,2.354,14.458,1.984,22.305C836.277,1260.974,831.466,1274.034,821.846,1287.169Z" fill="#fff"/>
        </g>
        <g id="Grupo_2708" data-name="Grupo 2708">
          <path id="Trazado_9747" data-name="Trazado 9747" d="M830.006,1217.631c1.5,9.663,3.475,18.483,3,28.374a66.073,66.073,0,0,1-5.5,23.707,59.621,59.621,0,0,0,.626-19.071c-1.066-9.227-2.533-18.224-.39-27.422,1.468-6.3,2.115-11,1.307-16.672C830.052,1209.914,829.592,1214.959,830.006,1217.631Z" fill="#01888b"/>
          <path id="Trazado_9748" data-name="Trazado 9748" d="M826.059,1274.27l.96-4.659a59.061,59.061,0,0,0,.618-18.913q-.17-1.46-.346-2.913c-1.014-8.416-1.971-16.367-.034-24.679,1.433-6.155,2.106-10.826,1.3-16.489l.975-.213a29.857,29.857,0,0,1,.753,7.338,32.608,32.608,0,0,0,.217,3.813h0c.285,1.845.589,3.659.889,5.456,1.287,7.7,2.5,14.964,2.117,23.018a66.443,66.443,0,0,1-5.541,23.884Zm3.387-57.071c-.289,1.934-.7,3.942-1.215,6.133-1.9,8.142-.95,16.007.053,24.333q.176,1.456.346,2.918a63.182,63.182,0,0,1,.094,14.727,65.772,65.772,0,0,0,3.784-19.329c.381-7.947-.826-15.165-2.1-22.806-.3-1.8-.6-3.618-.892-5.467C829.487,1217.546,829.465,1217.376,829.446,1217.2Z" fill="#fff"/>
        </g>
        <g id="Grupo_2709" data-name="Grupo 2709">
          <path id="Trazado_9749" data-name="Trazado 9749" d="M827.687,1204.765a.533.533,0,0,1,.614-.18,1.37,1.37,0,0,1,.849.083,8.428,8.428,0,0,0,1.795.488c.476.1.99.229,1.122.782a2.148,2.148,0,0,1-1.272,2.212c-.859.183-2.028-.585-2.674-1.085A1.542,1.542,0,0,1,827.687,1204.765Z" fill="#01888b"/>
          <path id="Trazado_9750" data-name="Trazado 9750" d="M830.523,1208.678a4.99,4.99,0,0,1-2.708-1.219,2.37,2.37,0,0,1-.967-1.558,1.928,1.928,0,0,1,.448-1.449h0a1.026,1.026,0,0,1,1.026-.377,1.809,1.809,0,0,1,1.036.139,6.544,6.544,0,0,0,1.4.394l.287.059a1.686,1.686,0,0,1,1.5,1.154,2.592,2.592,0,0,1-.417,1.839,2.052,2.052,0,0,1-1.236.979A1.821,1.821,0,0,1,830.523,1208.678Zm-2.836-3.913.39.313a.936.936,0,0,0-.236.7,1.392,1.392,0,0,0,.587.886,3.442,3.442,0,0,0,2.263.992,1.15,1.15,0,0,0,.6-.535,1.638,1.638,0,0,0,.291-1.072c-.05-.208-.209-.3-.74-.409l-.278-.057a7.252,7.252,0,0,1-1.622-.466.858.858,0,0,0-.542-.046l-.129.026-.126-.042Z" fill="#fff"/>
        </g>
        <g id="Grupo_2710" data-name="Grupo 2710">
          <path id="Trazado_9751" data-name="Trazado 9751" d="M845.8,1201.345a.535.535,0,0,1,.61-.2,1.361,1.361,0,0,1,.851.058,8.421,8.421,0,0,0,1.808.435c.479.087,1,.2,1.145.748a2.151,2.151,0,0,1-1.207,2.249c-.855.208-2.045-.525-2.7-1.007A1.54,1.54,0,0,1,845.8,1201.345Z" fill="#01888b"/>
          <path id="Trazado_9752" data-name="Trazado 9752" d="M848.691,1205.173a5.1,5.1,0,0,1-2.681-1.139A2.37,2.37,0,0,1,845,1202.5a1.926,1.926,0,0,1,.406-1.461h0a1.014,1.014,0,0,1,1.015-.407,1.82,1.82,0,0,1,1.041.109,6.475,6.475,0,0,0,1.417.353l.284.05a1.685,1.685,0,0,1,1.538,1.11,2.587,2.587,0,0,1-.364,1.85,2.049,2.049,0,0,1-1.207,1.015A1.86,1.86,0,0,1,848.691,1205.173Zm-2.422-3.547-.068.02a.937.937,0,0,0-.215.712,1.4,1.4,0,0,0,.613.869,3.465,3.465,0,0,0,2.291.924,1.151,1.151,0,0,0,.583-.552,1.628,1.628,0,0,0,.26-1.08c-.056-.207-.217-.29-.751-.387l-.277-.049a7.2,7.2,0,0,1-1.639-.418.852.852,0,0,0-.543-.031l-.127.03Z" fill="#fff"/>
        </g>
        <g id="Grupo_2711" data-name="Grupo 2711">
          <path id="Trazado_9753" data-name="Trazado 9753" d="M800.252,1217.824a.688.688,0,0,0-.375,1.322A.688.688,0,0,0,800.252,1217.824Z" fill="#01888b"/>
          <path id="Trazado_9754" data-name="Trazado 9754" d="M800.079,1219.675a1.244,1.244,0,0,1-.338-.048,1.117,1.117,0,0,1-.806-.813,1.271,1.271,0,0,1,.342-1.2,1.119,1.119,0,0,1,1.111-.267h0a1.114,1.114,0,0,1,.806.812,1.269,1.269,0,0,1-.342,1.2A1.1,1.1,0,0,1,800.079,1219.675Zm-.027-1.381a.1.1,0,0,0-.079.034.275.275,0,0,0-.069.242c.009.033.025.071.11.1s.116,0,.142-.023a.283.283,0,0,0,.069-.243c-.009-.033-.025-.07-.109-.094h0A.207.207,0,0,0,800.052,1218.294Z" fill="#fff"/>
        </g>
        <g id="Grupo_2712" data-name="Grupo 2712">
          <path id="Trazado_9755" data-name="Trazado 9755" d="M828.043,1287.271c-12.055-10.93-18.513-23.846-18.774-40.337-.2-12.41,1.6-24.706-5-35.564a72.38,72.38,0,0,1,1.41-8.7.718.718,0,0,0-.039-.454,2.362,2.362,0,0,1-.976.05c.217.033-.425.144-.518.163a4.564,4.564,0,0,1-1.146.115,5.263,5.263,0,0,1-1.86-.483,5.172,5.172,0,0,0-1.425,2.279,31.833,31.833,0,0,0-1.378,7.229c-.013.013-.028.016-.041.031-19.85,22.322-7.2,79.489,28.18,77.472a1.224,1.224,0,0,0,.541-.173C827.92,1289.085,828.894,1288.042,828.043,1287.271Z" fill="#01888b"/>
          <path id="Trazado_9756" data-name="Trazado 9756" d="M824.726,1289.625c-12.625,0-23.571-7.76-30.231-21.531-9.285-19.2-7.8-44.1,3.361-56.746a31.753,31.753,0,0,1,1.386-7.164,5.631,5.631,0,0,1,1.569-2.5l.242-.212.294.133a4.692,4.692,0,0,0,1.681.44,4.307,4.307,0,0,0,1.02-.106,4.156,4.156,0,0,0,.444-.095l.157.446h.013l.078-.517h0a1.891,1.891,0,0,0,.768-.038l.421-.116.171.4a1.229,1.229,0,0,1,.067.761,72.249,72.249,0,0,0-1.384,8.471c5.315,8.854,5.171,18.423,5.018,28.551-.035,2.332-.071,4.743-.033,7.121.249,15.771,6.337,28.846,18.61,39.974a1.325,1.325,0,0,1,.346,1.623,1.7,1.7,0,0,1-1.618.9,1.637,1.637,0,0,1-.6.156Q825.611,1289.625,824.726,1289.625Zm-26.094-77.647c-10.942,12.358-12.367,36.8-3.237,55.681,3.988,8.246,13.315,21.932,31.053,20.917a.748.748,0,0,0,.323-.108l.163-.093.183.037a.694.694,0,0,0,.716-.34c.051-.1.083-.242-.126-.431h0c-12.489-11.324-18.684-24.637-18.938-40.7-.038-2.394,0-4.813.033-7.152.152-10.035.294-19.513-4.959-28.16l-.087-.143.016-.167a73.433,73.433,0,0,1,1.368-8.524,3.182,3.182,0,0,1-.323-.007,3.733,3.733,0,0,1-.524.125,5.445,5.445,0,0,1-1.319.133,5.535,5.535,0,0,1-1.725-.4,4.883,4.883,0,0,0-1.059,1.85,30.965,30.965,0,0,0-1.353,7.11l-.015.189Z" fill="#fff"/>
        </g>
        <g id="Grupo_2713" data-name="Grupo 2713">
          <path id="Trazado_9757" data-name="Trazado 9757" d="M805.6,1234.71c.435,6.591.791,13.166,2.278,19.624a45.317,45.317,0,0,0,6.467,15.045,52.979,52.979,0,0,1-5.079-22.445c-.183-11.524,1.337-22.949-3.726-33.216C804.588,1220.711,805.139,1227.678,805.6,1234.71Z" fill="#01888b"/>
          <path id="Trazado_9758" data-name="Trazado 9758" d="M813.93,1269.654a45.89,45.89,0,0,1-6.537-15.208,115.494,115.494,0,0,1-2.205-18.429l-.164-2.477c-.434-6.512-.883-13.246.023-19.89l.221-1.619.723,1.466c4.074,8.26,3.945,17.045,3.809,26.346-.034,2.319-.069,4.717-.031,7.083a52.212,52.212,0,0,0,5.029,22.237Zm-7.828-34.977.084,1.275a114.706,114.706,0,0,0,2.182,18.27,44.866,44.866,0,0,0,2.737,8.223,55.649,55.649,0,0,1-2.336-15.5c-.038-2.381,0-4.787.031-7.114.126-8.569.244-16.694-2.97-24.283a107.463,107.463,0,0,0,.192,17.929Z" fill="#fff"/>
        </g>
        <g id="Grupo_2714" data-name="Grupo 2714">
          <path id="Trazado_9759" data-name="Trazado 9759" d="M811.437,1276.093c-4.905-6.749-8.145-15.181-10.068-23.263-4.062-17.068-1.153-33.759,2.951-50.431l-.173.033a4.564,4.564,0,0,1-1.146.115,5.263,5.263,0,0,1-1.86-.483,5.172,5.172,0,0,0-1.425,2.279,31.833,31.833,0,0,0-1.378,7.229c-.013.013-.028.016-.041.031-19.85,22.322-7.2,79.489,28.18,77.472a1.224,1.224,0,0,0,.541-.173,1.142,1.142,0,0,0,.691-.087C821.686,1285.435,815.876,1282.2,811.437,1276.093Z" fill="#01888b"/>
          <path id="Trazado_9760" data-name="Trazado 9760" d="M824.726,1289.625c-12.625,0-23.571-7.76-30.231-21.531-9.285-19.2-7.8-44.1,3.361-56.746a31.753,31.753,0,0,1,1.386-7.164,5.631,5.631,0,0,1,1.569-2.5l.242-.212.294.133a4.7,4.7,0,0,0,1.681.44,4.307,4.307,0,0,0,1.02-.106l.945-.185-.188.762c-4.546,18.467-6.787,34.071-2.95,50.195,1.508,6.338,4.465,15.489,9.986,23.085h0c4.345,5.976,10,9.15,15.988,12.51l.994.558-.91.405a1.668,1.668,0,0,1-.806.146,1.637,1.637,0,0,1-.6.156Q825.611,1289.625,824.726,1289.625Zm-26.094-77.647c-10.942,12.358-12.367,36.8-3.237,55.681,3.975,8.22,13.267,21.839,30.884,20.926-5.692-3.206-11.034-6.4-15.246-12.2-5.619-7.73-8.621-17.014-10.151-23.442-3.832-16.1-1.687-31.638,2.771-49.925a4.159,4.159,0,0,1-.679.027,5.535,5.535,0,0,1-1.725-.4,4.883,4.883,0,0,0-1.059,1.85,30.965,30.965,0,0,0-1.353,7.11l-.015.189Z" fill="#fff"/>
        </g>
        <g id="Grupo_2715" data-name="Grupo 2715">
          <path id="Trazado_9761" data-name="Trazado 9761" d="M827.855,1286.387c-4.538-7.677-.928-11.726-1.563-16.954-.442-3.644.2-29.322,1.109-38.553a27.924,27.924,0,0,0-.869-11.652,13.114,13.114,0,0,0-1.535-3.089c-.7-1.013-1.789-1.765-2.183-2.98-.413-1.278.057-2.754.3-4.011.176-.907.317-1.817.475-2.723a1.656,1.656,0,0,0-.9-.949,8.843,8.843,0,0,0-3.128.743,5.916,5.916,0,0,0-1.238,1.636,11.451,11.451,0,0,1-1.879,5.057c-.653.842-4.382,5.381-5.838,10.641-1.883,6.8-2.16,32.789.613,41.274,2,10.228,7.266,15.71,14.065,23.5a1.193,1.193,0,0,0,1.442.214l.656-.477A1.263,1.263,0,0,0,827.855,1286.387Z" fill="#01888b"/>
          <path id="Trazado_9762" data-name="Trazado 9762" d="M826.185,1289.2a1.755,1.755,0,0,1-1.28-.545l-1.24-1.417c-6.165-7.032-11.036-12.585-12.939-22.315-2.8-8.566-2.47-34.762-.6-41.5a31.136,31.136,0,0,1,5.79-10.642l.135-.173a10.05,10.05,0,0,0,1.7-4.432l.136-.553a6.406,6.406,0,0,1,1.346-1.773l.136-.087a9.543,9.543,0,0,1,1.407-.491,9.68,9.68,0,0,1,1.894-.292l.113-.006.1.044a2.141,2.141,0,0,1,1.172,1.22l.055.134-.174,1.019c-.1.618-.207,1.237-.327,1.855-.043.225-.094.457-.145.693a6.123,6.123,0,0,0-.17,3.069,5.087,5.087,0,0,0,1.224,1.777,10.319,10.319,0,0,1,.893,1.072,13.524,13.524,0,0,1,1.6,3.206c1.092,3.239,1.376,7.008.9,11.869-.917,9.3-1.552,34.8-1.109,38.444a17.819,17.819,0,0,1-.333,5.2c-.535,3.255-1.089,6.62,1.83,11.557h0a1.751,1.751,0,0,1-.612,2.334l-.655.477A1.405,1.405,0,0,1,826.185,1289.2Zm-7.39-81.172-.073.349a10.97,10.97,0,0,1-1.885,4.841l-.139.178a30.172,30.172,0,0,0-5.612,10.29c-1.841,6.65-2.172,32.484.606,40.985,1.867,9.525,6.659,14.99,12.725,21.908l1.241,1.418a.717.717,0,0,0,.772.139l.655-.477c.068-.05.649-.494.339-1.017-3.1-5.25-2.493-8.957-1.955-12.228a16.955,16.955,0,0,0,.326-4.921c-.445-3.675.187-29.324,1.108-38.662.465-4.716.2-8.352-.845-11.443a12.605,12.605,0,0,0-1.472-2.964,9.561,9.561,0,0,0-.811-.968,5.918,5.918,0,0,1-1.436-2.143,6.931,6.931,0,0,1,.143-3.59c.05-.228.1-.453.142-.67.118-.61.22-1.221.322-1.83l.124-.731a1.115,1.115,0,0,0-.481-.51,8.82,8.82,0,0,0-1.571.255,8.412,8.412,0,0,0-1.185.409A5.428,5.428,0,0,0,818.795,1208.028Z" fill="#fff"/>
        </g>
        <g id="Grupo_2716" data-name="Grupo 2716">
          <path id="Trazado_9763" data-name="Trazado 9763" d="M827.855,1286.387c-4.538-7.677-.928-11.726-1.563-16.954-.442-3.644.2-29.322,1.109-38.553a27.924,27.924,0,0,0-.869-11.652,13.114,13.114,0,0,0-1.535-3.089c-.7-1.013-1.789-1.765-2.183-2.98-.413-1.278.057-2.754.3-4.011.176-.907.317-1.817.475-2.723a1.656,1.656,0,0,0-.9-.949,8.843,8.843,0,0,0-3.128.743,5.916,5.916,0,0,0-1.238,1.636,11.451,11.451,0,0,1-1.879,5.057c-.653.842-4.382,5.381-5.838,10.641-1.883,6.8-2.16,32.789.613,41.274,2,10.228,7.266,15.71,14.065,23.5a1.193,1.193,0,0,0,1.442.214l.656-.477A1.263,1.263,0,0,0,827.855,1286.387Z" fill="#01888b"/>
          <path id="Trazado_9764" data-name="Trazado 9764" d="M826.185,1289.2a1.755,1.755,0,0,1-1.28-.545l-1.24-1.417c-6.165-7.032-11.036-12.585-12.939-22.315-2.8-8.566-2.47-34.762-.6-41.5a31.136,31.136,0,0,1,5.79-10.642l.135-.173a10.05,10.05,0,0,0,1.7-4.432l.136-.553a6.406,6.406,0,0,1,1.346-1.773l.136-.087a9.543,9.543,0,0,1,1.407-.491,9.68,9.68,0,0,1,1.894-.292l.113-.006.1.044a2.141,2.141,0,0,1,1.172,1.22l.055.134-.174,1.019c-.1.618-.207,1.237-.327,1.855-.043.225-.094.457-.145.693a6.123,6.123,0,0,0-.17,3.069,5.087,5.087,0,0,0,1.224,1.777,10.319,10.319,0,0,1,.893,1.072,13.524,13.524,0,0,1,1.6,3.206c1.092,3.239,1.376,7.008.9,11.869-.917,9.3-1.552,34.8-1.109,38.444a17.819,17.819,0,0,1-.333,5.2c-.535,3.255-1.089,6.62,1.83,11.557h0a1.751,1.751,0,0,1-.612,2.334l-.655.477A1.405,1.405,0,0,1,826.185,1289.2Zm-7.39-81.172-.073.349a10.97,10.97,0,0,1-1.885,4.841l-.139.178a30.172,30.172,0,0,0-5.612,10.29c-1.841,6.65-2.172,32.484.606,40.985,1.867,9.525,6.659,14.99,12.725,21.908l1.241,1.418a.717.717,0,0,0,.772.139l.655-.477c.068-.05.649-.494.339-1.017-3.1-5.25-2.493-8.957-1.955-12.228a16.955,16.955,0,0,0,.326-4.921c-.445-3.675.187-29.324,1.108-38.662.465-4.716.2-8.352-.845-11.443a12.605,12.605,0,0,0-1.472-2.964,9.561,9.561,0,0,0-.811-.968,5.918,5.918,0,0,1-1.436-2.143,6.931,6.931,0,0,1,.143-3.59c.05-.228.1-.453.142-.67.118-.61.22-1.221.322-1.83l.124-.731a1.115,1.115,0,0,0-.481-.51,8.82,8.82,0,0,0-1.571.255,8.412,8.412,0,0,0-1.185.409A5.428,5.428,0,0,0,818.795,1208.028Z" fill="#fff"/>
        </g>
        <g id="Grupo_2717" data-name="Grupo 2717">
          <path id="Trazado_9765" data-name="Trazado 9765" d="M821.468,1251.346c1.367-9.191,3.127-18.14,1.285-27.4-1.389-6.984-1.866-11.981-.431-18.434a9.627,9.627,0,0,0-1.429.238,9.2,9.2,0,0,0-1.334.466,5.9,5.9,0,0,0-1.238,1.636,11.465,11.465,0,0,1-1.878,5.057c-.654.842-4.383,5.381-5.839,10.641-1.883,6.8-2.16,32.788.613,41.274,2,10.228,7.266,15.71,14.065,23.5a1.192,1.192,0,0,0,1.442.215l.656-.477a1.732,1.732,0,0,0,.32-.308C821.321,1276.224,819.465,1264.81,821.468,1251.346Z" fill="#01888b"/>
          <path id="Trazado_9766" data-name="Trazado 9766" d="M826.185,1289.2a1.752,1.752,0,0,1-1.28-.546l-1.239-1.415c-6.166-7.032-11.036-12.586-12.94-22.316-2.8-8.566-2.47-34.762-.6-41.5a31.145,31.145,0,0,1,5.789-10.641l.136-.174a10.051,10.051,0,0,0,1.7-4.431l.136-.554a6.4,6.4,0,0,1,1.346-1.773l.136-.087a9.5,9.5,0,0,1,1.407-.491,10.021,10.021,0,0,1,1.506-.251l.686-.066-.15.671c-1.416,6.369-.94,11.32.434,18.229,1.664,8.367.447,16.287-.842,24.671q-.222,1.445-.44,2.9c-2.021,13.588-.116,24.72,6.176,36.094l.164.3-.215.262a2.278,2.278,0,0,1-.412.4l-.657.477A1.4,1.4,0,0,1,826.185,1289.2Zm-7.39-81.172-.073.349a11,11,0,0,1-1.885,4.841l-.14.179a30.165,30.165,0,0,0-5.611,10.289c-1.84,6.65-2.172,32.484.606,40.985,1.868,9.525,6.66,14.99,12.726,21.909l1.24,1.417a.711.711,0,0,0,.771.139l.651-.472c-6.175-11.317-8.115-22.892-6.107-36.392l.495.074-.495-.074c.144-.969.293-1.936.441-2.9,1.275-8.295,2.479-16.131.849-24.325-1.351-6.792-1.848-11.737-.577-17.947-.244.04-.47.085-.668.137a8.37,8.37,0,0,0-1.185.409A5.444,5.444,0,0,0,818.795,1208.028Z" fill="#fff"/>
        </g>
        <g id="Grupo_2718" data-name="Grupo 2718">
          <path id="Trazado_9767" data-name="Trazado 9767" d="M813.276,1246.546c-.155-10.745,2.532-20.077,4.259-30.505.374-2.263.361-5.5.911-8.386-.039.069-.088.13-.125.2a11.465,11.465,0,0,1-1.878,5.057,33.178,33.178,0,0,0-5.839,10.641c-4.076,14.381-2.16,32.788.613,41.274,2,10.228,7.266,15.71,14.065,23.5a1.192,1.192,0,0,0,1.442.215l.524-.381C818.7,1275.8,813.508,1262.648,813.276,1246.546Z" fill="#01888b"/>
          <path id="Trazado_9768" data-name="Trazado 9768" d="M826.185,1289.2a1.752,1.752,0,0,1-1.28-.546l-1.239-1.415c-6.166-7.032-11.036-12.586-12.94-22.316-2.742-8.379-4.756-26.852-.6-41.506a31.81,31.81,0,0,1,5.809-10.664l.115-.148a10.051,10.051,0,0,0,1.7-4.431l.136-.554a1.468,1.468,0,0,1,.094-.152l1.492-2.63-.527,2.91a44.285,44.285,0,0,0-.556,4.9c-.1,1.263-.186,2.456-.354,3.471-.474,2.862-1.026,5.669-1.559,8.384-1.443,7.344-2.8,14.281-2.693,22.032h0c.214,14.82,4.625,27.955,13.883,41.335l.278.4-.919.669A1.408,1.408,0,0,1,826.185,1289.2Zm-8.786-76.816a7.433,7.433,0,0,1-.562.834l-.118.152a30.647,30.647,0,0,0-5.634,10.319c-4.1,14.452-2.111,32.665.607,40.982,1.868,9.525,6.66,14.99,12.726,21.909l1.24,1.417a.711.711,0,0,0,.771.139l.131-.095c-9.187-13.413-13.569-26.609-13.784-41.488h0c-.113-7.855,1.259-14.842,2.712-22.239.532-2.707,1.082-5.507,1.554-8.355.16-.97.249-2.142.343-3.382C817.39,1212.513,817.4,1212.449,817.4,1212.384Z" fill="#fff"/>
        </g>
        <g id="Grupo_2719" data-name="Grupo 2719">
          <path id="Trazado_9769" data-name="Trazado 9769" d="M820.674,1218.3c-1.812,9.614-4.076,18.371-3.926,28.271a65.932,65.932,0,0,0,4.722,23.858,59.582,59.582,0,0,1,0-19.08c1.367-9.191,3.127-18.14,1.285-27.4-1.261-6.344-1.754-11.058-.762-16.7C820.881,1210.582,821.175,1215.638,820.674,1218.3Z" fill="#01888b"/>
          <path id="Trazado_9770" data-name="Trazado 9770" d="M822.768,1275.02l-1.763-4.408a66.318,66.318,0,0,1-4.757-24.036c-.122-8.064,1.331-15.3,2.869-22.951.358-1.785.72-3.587,1.066-5.421a33.007,33.007,0,0,0,.341-3.8,29.9,29.9,0,0,1,.993-7.312l.967.244c-.991,5.637-.472,10.325.76,16.52,1.664,8.367.447,16.287-.842,24.671q-.222,1.445-.44,2.9a59.036,59.036,0,0,0,0,18.922Zm-1.519-57.138c-.025.177-.053.346-.083.508h0c-.347,1.837-.709,3.643-1.069,5.432-1.527,7.6-2.97,14.782-2.849,22.738a65.658,65.658,0,0,0,3.151,19.434,63.258,63.258,0,0,1,.574-14.722c.144-.969.293-1.936.441-2.9,1.275-8.295,2.479-16.131.849-24.325C821.824,1221.842,821.475,1219.822,821.249,1217.882Z" fill="#fff"/>
        </g>
        <g id="Grupo_2720" data-name="Grupo 2720">
          <path id="Trazado_9771" data-name="Trazado 9771" d="M823.413,1205.505a.533.533,0,0,0-.609-.2,1.361,1.361,0,0,0-.851.057,8.367,8.367,0,0,1-1.81.435c-.479.087-1,.2-1.147.748a2.143,2.143,0,0,0,1.2,2.249c.854.209,2.047-.525,2.708-1.006A1.544,1.544,0,0,0,823.413,1205.505Z" fill="#01888b"/>
          <path id="Trazado_9772" data-name="Trazado 9772" d="M820.512,1209.333a1.86,1.86,0,0,1-.436-.05,2.044,2.044,0,0,1-1.2-1.014,2.588,2.588,0,0,1-.359-1.853,1.69,1.69,0,0,1,1.54-1.108l.284-.05a6.514,6.514,0,0,0,1.419-.353,1.821,1.821,0,0,1,1.041-.109,1.021,1.021,0,0,1,1.015.409,1.92,1.92,0,0,1,.4,1.458,2.377,2.377,0,0,1-1.016,1.532A5.134,5.134,0,0,1,820.512,1209.333Zm1.941-3.567a.768.768,0,0,0-.3.06,7.27,7.27,0,0,1-1.64.418l-.276.048c-.534.1-.7.18-.753.388a1.631,1.631,0,0,0,.256,1.082,1.138,1.138,0,0,0,.579.549,3.482,3.482,0,0,0,2.295-.924,1.406,1.406,0,0,0,.617-.871.941.941,0,0,0-.212-.71h0a.1.1,0,0,0-.024-.025l-.126.037-.171-.023A1.073,1.073,0,0,0,822.453,1205.766Z" fill="#fff"/>
        </g>
        <g id="Grupo_2721" data-name="Grupo 2721">
          <path id="Trazado_9773" data-name="Trazado 9773" d="M805.418,1201.552a.532.532,0,0,0-.6-.215,1.363,1.363,0,0,0-.852.032,8.458,8.458,0,0,1-1.822.382c-.482.073-1,.17-1.168.714a2.141,2.141,0,0,0,1.133,2.283c.847.234,2.06-.464,2.736-.926A1.544,1.544,0,0,0,805.418,1201.552Z" fill="#01888b"/>
          <path id="Trazado_9774" data-name="Trazado 9774" d="M802.469,1205.294a1.856,1.856,0,0,1-.5-.064,2.038,2.038,0,0,1-1.173-1.048,2.588,2.588,0,0,1-.306-1.863,1.693,1.693,0,0,1,1.572-1.063l.283-.041a6.581,6.581,0,0,0,1.432-.311,1.812,1.812,0,0,1,1.043-.079,1.022,1.022,0,0,1,1,.439,1.925,1.925,0,0,1,.359,1.471,2.376,2.376,0,0,1-1.061,1.5A5.246,5.246,0,0,1,802.469,1205.294Zm1.955-3.51a.768.768,0,0,0-.279.051,7.33,7.33,0,0,1-1.655.371l-.275.04c-.537.081-.7.159-.764.365a1.632,1.632,0,0,0,.225,1.089,1.141,1.141,0,0,0,.563.567,3.493,3.493,0,0,0,2.321-.857,1.408,1.408,0,0,0,.641-.852.94.94,0,0,0-.191-.717h0a.093.093,0,0,0-.024-.026l-.126.034-.171-.029A1.063,1.063,0,0,0,804.424,1201.784Z" fill="#fff"/>
        </g>
      </g>
    </g>
  </g>
</svg>
