<svg xmlns="http://www.w3.org/2000/svg" width="177.285" height="177.284" viewBox="0 0 177.285 177.284">
  <g id="Grupo_3182" data-name="Grupo 3182" transform="translate(-265.989 -0.516)">
    <g id="Grupo_3144" data-name="Grupo 3144">
      <circle id="Elipse_937" data-name="Elipse 937" cx="85.642" cy="85.642" r="85.642" transform="translate(268.989 3.516)" fill="#fff"/>
      <path id="Trazado_10892" data-name="Trazado 10892" d="M354.632,177.8a88.642,88.642,0,1,1,88.642-88.642A88.742,88.742,0,0,1,354.632,177.8Zm0-171.284a82.642,82.642,0,1,0,82.642,82.642A82.736,82.736,0,0,0,354.632,6.516Z" fill="#01888b"/>
    </g>
    <g id="Grupo_3181" data-name="Grupo 3181">
      <g id="Grupo_3162" data-name="Grupo 3162">
        <g id="Grupo_3145" data-name="Grupo 3145">
          <path id="Trazado_10893" data-name="Trazado 10893" d="M434.5,96.514a1.163,1.163,0,0,1,.135,1.244c-.427.861-1.235,2.6-2.287,5.379-1.389,3.659-3.96,10.7-10.965,14.446-4.439,2.377-11.958,7.188-18.464,9.189-16.1,4.955-43.373,2.864-63.617-9.03-15.693-9.219-28.972-26.971-33.761-41.23a28.666,28.666,0,0,1,2.776-24.1l0-.007c.765-1.3,1.409-2.2,1.69-2.637a23.772,23.772,0,0,0,1.433-2.8,66.724,66.724,0,0,0,3.97-11.75c1.379-6.107.247-13.472.247-13.472s1.446-.411,2.9-.731a7.442,7.442,0,0,1,2.872-.306c.394.191,1.262.739,2.084,1.284.839.556,1.631,1.1,1.841,1.26.411.313-1.352,25.21-1.352,25.21a20.739,20.739,0,0,0,6.073,7.428c2.37,1.8,3.659,6.525,7.616,13.012a70.181,70.181,0,0,0,16.527,18.32c19.122,15.377,43.062,9.26,49.872,8.572A173.822,173.822,0,0,0,421.764,92.5s3.464-1.707,4.708-1.631c.323.019.705.039,1.108.071.387.027.793.063,1.187.12a5.209,5.209,0,0,1,1.673.462,1.5,1.5,0,0,1,.208.129l.8,1.011.519.653,2.529,3.191,0,0Z" fill="#ffe203"/>
        </g>
        <g id="Grupo_3146" data-name="Grupo 3146">
          <path id="Trazado_10894" data-name="Trazado 10894" d="M432.487,93.977c-.888.792-4.773,6.314-5.876,7.244-6.6,5.549-19.474,9.247-26.252,10.109-17.937,2.283-40.642-3.093-44.6-5.055-6.841-3.387-24.727-14.9-30.492-21.605C323.03,82.063,312.878,64.914,314.1,54.5c.234-2,3.016-6.848,3.016-6.848l4.315-26.95c.839.556,3.679,1.922,3.925,2.544.191.48-1.352,25.21-1.352,25.21a33.459,33.459,0,0,1,6.4,6.778c3.442,4.8,4.7,16.6,23.815,31.982s43.062,9.26,49.872,8.572A173.822,173.822,0,0,0,421.764,92.5s3.464-1.707,4.708-1.631a14.523,14.523,0,0,1,3.623.5,2.392,2.392,0,0,1,.345.157c.027.014.054.029.078.044.046.027.09.056.13.085l.159.2Z" fill="#feec4a"/>
        </g>
        <g id="Grupo_3147" data-name="Grupo 3147">
          <path id="Trazado_10895" data-name="Trazado 10895" d="M308.084,23.152s0,0,0,.01S308.074,23.166,308.084,23.152Z" fill="#fff"/>
        </g>
        <g id="Grupo_3148" data-name="Grupo 3148">
          <path id="Trazado_10896" data-name="Trazado 10896" d="M421.381,117.584c-4.44,2.376-11.959,7.187-18.465,9.189-16.1,4.954-43.372,2.864-63.618-9.03-15.692-9.22-28.97-26.971-33.76-41.231s3.249-24.855,4.469-26.748a59.021,59.021,0,0,0,5.4-14.548c1.382-6.107.249-13.472.249-13.472s1.445-.412,2.9-.733l.153,4.136s-1.843,14.43-1.919,15.673-1.652,5.034-4.239,10.444-.535,21.277,3.9,32.011,22.858,26.453,39.684,32.283,39.009,4.883,52.054,1.122,20.269-10.422,22.328-14.279c1.333-2.493,2.8-3.977,3.982-5.887l.151.191a.785.785,0,0,1,.086.845,58.576,58.576,0,0,0-2.392,5.586C430.955,106.8,428.385,113.84,421.381,117.584Z" fill="#f1d730"/>
        </g>
        <g id="Grupo_3149" data-name="Grupo 3149">
          <path id="Trazado_10897" data-name="Trazado 10897" d="M431.966,93.32c-3.211,5.992-10.38,10.578-18.237,13.689-16.125,6.386-52.09,2.212-67.261-9.221-14.594-11-23.481-24.858-24.622-28.853s-3.261-10.28,1.712-12.392c2.493-1.059,7.308,9.811,10.313,15.674,1.754,3.421,8.439,10.7,14.553,15.11,19.935,14.378,33.631,14.331,52.342,13.873,12.851-.313,19.651-3.928,21.279-5.075,2.962-2.081,4.894-5.224,8.395-4.6.027.014.054.029.078.044.046.027.09.056.13.085l.159.2.64.81Z" fill="#fef177"/>
        </g>
        <g id="Grupo_3150" data-name="Grupo 3150">
          <path id="Trazado_10898" data-name="Trazado 10898" d="M430.807,91.857a19.2,19.2,0,0,1-2.353,3.429l0,0a36.44,36.44,0,0,1-14.956,10.666c-13.066,4.936-43.608,1.3-53.819-5.183-9.747-6.186-13.682-10.375-15.442-12.59a.523.523,0,0,1,.738-.732l.2.156a93.206,93.206,0,0,0,15.088,9.987c11.342,5.838,28.333,7.6,43.39,6.885a38.567,38.567,0,0,0,17.334-5.55c3.608-2.539,7.345-6.445,9.116-7.558a2.392,2.392,0,0,1,.345.157c.027.014.054.029.078.044.046.027.09.056.13.085Z" fill="#fef59d"/>
        </g>
        <g id="Grupo_3151" data-name="Grupo 3151">
          <path id="Trazado_10899" data-name="Trazado 10899" d="M434.495,96.511a11.338,11.338,0,0,1-2.529-1.323c-.6-.572-2.908-1.55-3.072-2.066s-.734-1.686-.734-1.686l.607-.371a5.209,5.209,0,0,1,1.673.462,1.5,1.5,0,0,1,.208.129l.8,1.011.519.653Z" fill="#8f7f1c"/>
        </g>
        <g id="Grupo_3152" data-name="Grupo 3152">
          <path id="Trazado_10900" data-name="Trazado 10900" d="M430.945,97.557a25.99,25.99,0,0,1-4.925,8.142c-4.836,5.857-14,8.685-13.892,9.03.123.385,7.11-1,14.56-8.047,1.178-1.114,5.193-5.9,6.136-9.3C433.092,96.419,431.827,95.268,430.945,97.557Z" fill="#feec4a"/>
        </g>
        <g id="Grupo_3154" data-name="Grupo 3154" opacity="0.31">
          <g id="Grupo_3153" data-name="Grupo 3153">
            <path id="Trazado_10901" data-name="Trazado 10901" d="M433.543,95.632a2.349,2.349,0,0,1,.425,2.562c-.429.959-.98,2.268-1.623,3.965-1.389,3.659-3.96,10.7-10.965,14.445-4.439,2.378-11.958,7.189-18.464,9.19-16.1,4.955-43.373,2.864-63.617-9.031-15.693-9.218-28.972-26.97-33.761-41.23a25.191,25.191,0,0,1-.876-13.447c.437-2.228,2.112-3.466,1.693-.081-.484,3.919-.276,13.8,7.583,26.66,12.29,20.115,32.865,28.661,41.58,31.8,25.706,9.247,54.836,5.336,67.261-6.36,2.886-2.717,9.087-8.829,9.187-15.009.062-3.814-4.224-2.977-4.1-7.981.007-.267,2.835-.047,3.576,1.555A11.971,11.971,0,0,0,433.543,95.632Z" fill="#7cb342"/>
          </g>
        </g>
        <g id="Grupo_3155" data-name="Grupo 3155">
          <path id="Trazado_10902" data-name="Trazado 10902" d="M425.053,94.735a31.248,31.248,0,0,1-9.226,6.471c-8.119,4.123-19.879,3.3-19.9,3.705-.028.453,8.6,1.881,20.24-2.4,1.84-.677,8.549-4.021,11.121-7.179C428.016,94.431,427.069,92.708,425.053,94.735Z" fill="#fff"/>
        </g>
        <g id="Grupo_3156" data-name="Grupo 3156">
          <path id="Trazado_10903" data-name="Trazado 10903" d="M371.959,101.87c-3.691-.262-6.361-1.161-10.989-3.057a38.878,38.878,0,0,1-11.261-7.8.329.329,0,0,0-.467.464A44.792,44.792,0,0,0,360.2,99.917c1.715.95,8.63,3.843,12.7,3.727C374.064,103.611,374.811,102.072,371.959,101.87Z" fill="#fff"/>
        </g>
        <g id="Grupo_3158" data-name="Grupo 3158" opacity="0.31">
          <g id="Grupo_3157" data-name="Grupo 3157">
            <path id="Trazado_10904" data-name="Trazado 10904" d="M325.357,23.25s-.66,5.242-.66,6.2-.563,5.627-.563,6.977-.394,7.2-.337,7.709v.016a1.044,1.044,0,0,1-1.782.83,9.2,9.2,0,0,0-3.219-2.127,6.433,6.433,0,0,0-.7-.222,4.141,4.141,0,0,1-2.935-5.018c.235-.93.431-1.773.5-2.234.205-1.43.936-8.351.936-9.307s-.451-4-.451-4Z" fill="#7cb342"/>
          </g>
        </g>
        <g id="Grupo_3159" data-name="Grupo 3159">
          <path id="Trazado_10905" data-name="Trazado 10905" d="M316.473,22.305a.434.434,0,0,1,.166-.778,18.11,18.11,0,0,1,3.839-.516,33,33,0,0,0,3.3,1.606c.742.269,1.834.41,1.386.608s-.847,2.154-1.992,1.952a28.845,28.845,0,0,1-5.727-2.09A6.741,6.741,0,0,0,316.473,22.305Z" fill="#fef177"/>
        </g>
        <g id="Grupo_3160" data-name="Grupo 3160">
          <path id="Trazado_10906" data-name="Trazado 10906" d="M321.231,47.67a3.072,3.072,0,0,1-1.851-3.385c.475-2.579,1.367-6.158,1.543-7.8.091-.853.354-2.514.646-4.26a.718.718,0,0,1,1.426.081c.052,1,.287,2.166.252,2.485-.208,1.863-.408,4.1-.816,6.545-.415,2.495.286,6.378.123,6.686C322.487,48.148,321.9,47.95,321.231,47.67Z" fill="#feec4a"/>
        </g>
        <g id="Grupo_3161" data-name="Grupo 3161">
          <path id="Trazado_10907" data-name="Trazado 10907" d="M329.772,63.551c-.4.064-.895,4.235,1.375,7.39,1.3,1.809,3.247,2.914,3.5,2.662s-1.335-1.756-2.882-4.851C330.164,65.542,330.053,63.505,329.772,63.551Z" fill="#fff"/>
        </g>
      </g>
      <g id="Grupo_3180" data-name="Grupo 3180">
        <g id="Grupo_3163" data-name="Grupo 3163">
          <path id="Trazado_10908" data-name="Trazado 10908" d="M400.594,133.339a1.166,1.166,0,0,1-.308,1.213c-.7.658-2.064,2.007-4.018,4.244-2.578,2.946-7.443,8.652-15.313,9.718-4.989.681-13.713,2.57-20.509,2.177-16.818-.967-41.651-12.433-56.48-30.637-11.5-14.111-17.754-35.378-17.273-50.412a28.664,28.664,0,0,1,11-21.625l.005-.006c1.171-.953,2.088-1.572,2.5-1.882a23.933,23.933,0,0,0,2.319-2.123,66.927,66.927,0,0,0,7.816-9.63c3.422-5.244,4.927-12.541,4.927-12.541s1.5.119,2.976.326a7.417,7.417,0,0,1,2.8.715c.3.316.926,1.132,1.506,1.93s1.145,1.6,1.287,1.822c.276.437-10.055,23.158-10.055,23.158a20.747,20.747,0,0,0,3.1,9.079c1.6,2.511,1.156,7.391,2.6,14.851a70.195,70.195,0,0,0,9.105,22.931c12.563,21.078,37.134,23.689,43.756,25.418a173.917,173.917,0,0,0,17.709,3.078s3.841-.393,4.982.112c.3.131.646.282,1.014.453.352.16.72.336,1.07.525a5.28,5.28,0,0,1,1.407,1.017,1.437,1.437,0,0,1,.149.194l.4,1.225.258.793,1.258,3.873,0,0Z" fill="#ffe203"/>
        </g>
        <g id="Grupo_3164" data-name="Grupo 3164">
          <path id="Trazado_10909" data-name="Trazado 10909" d="M399.593,130.26c-1.108.433-6.674,4.255-8.032,4.741-8.117,2.9-21.476,1.88-28.13.326-17.607-4.112-37.014-17.065-40.038-20.282-5.231-5.56-17.984-22.581-21.049-30.879-1.191-3.224-4.729-22.836.045-32.167.917-1.792,5.215-5.368,5.215-5.368l13.437-23.755c.593.813,2.778,3.083,2.793,3.752.011.517-10.055,23.158-10.055,23.158a33.451,33.451,0,0,1,3.638,8.584c1.553,5.7-1.387,17.2,11.174,38.277s37.134,23.689,43.756,25.418a173.917,173.917,0,0,0,17.709,3.078s3.841-.393,4.982.112a14.541,14.541,0,0,1,3.222,1.728,2.343,2.343,0,0,1,.269.267l.058.068a1.366,1.366,0,0,1,.091.126l.079.243Z" fill="#feec4a"/>
        </g>
        <g id="Grupo_3165" data-name="Grupo 3165">
          <path id="Trazado_10910" data-name="Trazado 10910" d="M307.678,20.516s0,0,0,.01S307.663,20.525,307.678,20.516Z" fill="#fff"/>
        </g>
        <g id="Grupo_3166" data-name="Grupo 3166">
          <path id="Trazado_10911" data-name="Trazado 10911" d="M380.956,148.515c-4.991.68-13.715,2.569-20.51,2.177-16.819-.969-41.65-12.432-56.481-30.638-11.495-14.111-17.752-35.377-17.272-50.412S298.4,47.478,300.2,46.129a59.073,59.073,0,0,0,10.134-11.753c3.423-5.242,4.928-12.54,4.928-12.54s1.5.117,2.976.324l-1.3,3.93s-6.757,12.883-7.262,14.021-3.3,4.143-7.613,8.312-7.917,19.756-7.506,31.362,12.205,32.761,25.943,44.09,34.861,18.174,48.4,19.2,22.63-2.7,25.9-5.6c2.118-1.872,4.011-2.751,5.784-4.13l.075.232a.783.783,0,0,1-.214.821,58.654,58.654,0,0,0-4.189,4.4C393.689,141.741,388.825,147.448,380.956,148.515Z" fill="#f1d730"/>
        </g>
        <g id="Grupo_3167" data-name="Grupo 3167">
          <path id="Trazado_10912" data-name="Trazado 10912" d="M399.334,129.462c-5.1,4.5-13.416,6.3-21.864,6.475-17.341.365-49.594-16.083-59.83-32.087C307.8,88.455,304.3,72.367,304.619,68.224s.527-10.772,5.924-11.018c2.706-.124,3.43,11.743,4.2,18.286.451,3.818,4.179,12.97,8.373,19.235,13.674,20.425,26.527,25.154,44.224,31.247,12.154,4.186,19.787,3.167,21.714,2.66,3.5-.919,6.407-3.191,9.471-1.384l.058.068a1.366,1.366,0,0,1,.091.126l.079.243.319.982Z" fill="#fef177"/>
        </g>
        <g id="Grupo_3168" data-name="Grupo 3168">
          <path id="Trazado_10913" data-name="Trazado 10913" d="M398.757,127.687a19.061,19.061,0,0,1-3.4,2.394l0,0a36.451,36.451,0,0,1-17.737,4.784c-13.967.072-41.325-13.982-48.637-23.616-6.98-9.2-9.208-14.494-10.085-17.183a.523.523,0,0,1,.947-.429l.127.214a93.2,93.2,0,0,0,10.662,14.619c8.6,9.426,23.908,17,38.269,21.577a38.556,38.556,0,0,0,18.181.84c4.267-1.122,9.131-3.48,11.179-3.906a2.343,2.343,0,0,1,.269.267l.058.068a1.366,1.366,0,0,1,.091.126Z" fill="#fef59d"/>
        </g>
        <g id="Grupo_3169" data-name="Grupo 3169">
          <path id="Trazado_10914" data-name="Trazado 10914" d="M400.592,133.335a11.363,11.363,0,0,1-1.909-2.121c-.36-.745-2.185-2.467-2.159-3.008s-.1-1.835-.1-1.835l.7-.138a5.28,5.28,0,0,1,1.407,1.017,1.437,1.437,0,0,1,.149.194l.4,1.225.258.793Z" fill="#8f7f1c"/>
        </g>
        <g id="Grupo_3170" data-name="Grupo 3170">
          <path id="Trazado_10915" data-name="Trazado 10915" d="M396.9,133.078a25.984,25.984,0,0,1-7.455,5.915c-6.574,3.8-16.151,3.26-16.168,3.621-.019.4,7.014,1.538,16.452-2.467,1.492-.633,6.924-3.721,8.992-6.576C399.31,132.759,398.525,131.24,396.9,133.078Z" fill="#feec4a"/>
        </g>
        <g id="Grupo_3172" data-name="Grupo 3172" opacity="0.31">
          <g id="Grupo_3171" data-name="Grupo 3171">
            <path id="Trazado_10916" data-name="Trazado 10916" d="M400.006,132.18a2.348,2.348,0,0,1-.494,2.549c-.737.749-1.71,1.784-2.9,3.151-2.578,2.945-7.443,8.651-15.313,9.717-4.989.681-13.713,2.57-20.509,2.177-16.818-.967-41.651-12.433-56.48-30.637-11.5-14.111-17.754-35.378-17.273-50.412A25.189,25.189,0,0,1,290.9,55.816c1.186-1.936,3.188-2.513,1.615.514-1.82,3.5-5.069,12.84-2.185,27.631,4.508,23.137,20.814,38.318,27.89,44.295,20.87,17.628,49.537,24.116,65.26,17.484,3.652-1.541,11.594-5.109,13.842-10.867,1.387-3.553-2.921-4.261-1.056-8.908.1-.247,2.673.944,2.81,2.7A11.969,11.969,0,0,0,400.006,132.18Z" fill="#7cb342"/>
          </g>
        </g>
        <g id="Grupo_3173" data-name="Grupo 3173">
          <path id="Trazado_10917" data-name="Trazado 10917" d="M392.361,128.379a31.24,31.24,0,0,1-10.9,2.85c-9.048,1.035-19.783-3.836-19.947-3.465-.184.415,7.4,4.76,19.807,4.8,1.961.007,9.415-.789,12.927-2.852C395.245,129.127,394.958,127.182,392.361,128.379Z" fill="#fff"/>
        </g>
        <g id="Grupo_3174" data-name="Grupo 3174">
          <path id="Trazado_10918" data-name="Trazado 10918" d="M340.111,116.561c-3.37-1.532-5.558-3.305-9.236-6.7a38.884,38.884,0,0,1-7.835-11.237.329.329,0,0,0-.6.272,44.777,44.777,0,0,0,7.332,11.733c1.276,1.489,6.749,6.611,10.606,7.921C341.476,118.926,342.713,117.745,340.111,116.561Z" fill="#fff"/>
        </g>
        <g id="Grupo_3176" data-name="Grupo 3176" opacity="0.31">
          <g id="Grupo_3175" data-name="Grupo 3175">
            <path id="Trazado_10919" data-name="Trazado 10919" d="M323.834,26.628s-2.446,4.683-2.78,5.58-2.488,5.078-2.959,6.344-2.88,6.613-3,7.107l0,.016a1.045,1.045,0,0,1-1.961.157,9.18,9.18,0,0,0-2.275-3.116,6.743,6.743,0,0,0-.58-.453,4.143,4.143,0,0,1-1-5.726c.545-.79,1.022-1.511,1.244-1.92.691-1.269,3.789-7.5,4.122-8.4s.971-3.905.971-3.905Z" fill="#7cb342"/>
          </g>
        </g>
        <g id="Grupo_3177" data-name="Grupo 3177">
          <path id="Trazado_10920" data-name="Trazado 10920" d="M315.836,22.646a.433.433,0,0,1,.427-.671,18.107,18.107,0,0,1,3.778.854,32.651,32.651,0,0,0,2.535,2.655c.6.511,1.576,1.024,1.086,1.054s-1.544,1.723-2.547,1.135a28.832,28.832,0,0,1-4.639-3.955A6.9,6.9,0,0,0,315.836,22.646Z" fill="#fef177"/>
        </g>
        <g id="Grupo_3178" data-name="Grupo 3178">
          <path id="Trazado_10921" data-name="Trazado 10921" d="M311.455,48.079a3.072,3.072,0,0,1-.555-3.819c1.344-2.251,3.427-5.295,4.164-6.771.383-.768,1.208-2.233,2.091-3.768a.718.718,0,0,1,1.307.573c-.3.958-.485,2.13-.63,2.417-.843,1.674-1.81,3.7-3.045,5.85-1.259,2.193-1.955,6.077-2.216,6.309C312.466,48.964,311.987,48.575,311.455,48.079Z" fill="#feec4a"/>
        </g>
        <g id="Grupo_3179" data-name="Grupo 3179">
          <path id="Trazado_10922" data-name="Trazado 10922" d="M313.925,65.941c-.394-.078-2.315,3.657-1.287,7.4.589,2.149,2.028,3.863,2.356,3.717s-.639-2.112-1.011-5.552C313.6,67.943,314.2,66,313.925,65.941Z" fill="#fff"/>
        </g>
      </g>
    </g>
  </g>
</svg>
