<svg xmlns="http://www.w3.org/2000/svg" width="377.074" height="322.036" viewBox="0 0 377.074 322.036">
  <g id="Grupo_3141" data-name="Grupo 3141" transform="translate(-88.926 -1415)">
    <path id="Trazado_9209" data-name="Trazado 9209" d="M610.453,969.4c-6.525-18.189-16.8-23.725-26.569-35.393C571.949,919.758,563.9,909.4,567,891.072c5.065-29.95,7.232-104.643-72.056-94.879-28.42,3.5-50.877,25.277-67.214,47.015-13.9,18.5-38.908,20.129-59.037,24.442-24.73,5.3-49.922,13.3-72.8,25.03-47.123,24.153-61.2,58.875-59.277,103.3.581,13.422,2.48,34.563,25.153,59.3,30.6,33.39,75.069,37.86,128.591,22.527,12.251-3.51,23.831-9.016,35.882-13.159a169.38,169.38,0,0,1,38.726-8.409c30.74-2.972,62.6,2.4,92.093-6.774a97.174,97.174,0,0,0,41.189-25.545C612.33,1009.166,617.34,988.6,610.453,969.4Z" transform="translate(-147.516 621.31)" fill="#69cfc5" opacity="0.21"/>
    <g id="Grupo_2655" data-name="Grupo 2655" transform="translate(202.051 1415)">
      <g id="Grupo_2643" data-name="Grupo 2643" transform="translate(24.57)">
        <path id="Trazado_9210" data-name="Trazado 9210" d="M377.828,881.342c.26-.091.52-.189.778-.284a.969.969,0,0,1,.476-.173,62.94,62.94,0,0,0,6.289-2.776,17.154,17.154,0,0,1,6.142-9.422c4.873-3.6,9-7.081,11.882-12.324,3.631-6.6,10.855-27.187,11.941-29.68,1.69-3.883,7.647-12.93,8.373-14.209.944-1.661.975-3.683,1.2-5.619q.176-1.011.378-2.019a9.022,9.022,0,0,1,2.644-.777c.268-.032.626-.064,1.012-.073a2.925,2.925,0,0,1,1.547,1.888,2.016,2.016,0,0,0,.141.452,33.149,33.149,0,0,1,.282,4.991c5.751,13.072,1.022,24.557.161,26.813a116.557,116.557,0,0,1-12.154,22.461c-4.059,6.049-9.063,11.665-15.3,15.516-7.2,4.45-15.949,5.719-23.987,7.919a.951.951,0,0,1-1.086-.77l-.092-.461c-.055.009-.108.024-.161.033C377.451,882.976,376.971,881.642,377.828,881.342Z" transform="translate(-327.337 -790.812)" fill="#c4ca00"/>
        <path id="Trazado_9211" data-name="Trazado 9211" d="M377.828,877.712c.26-.091.52-.189.778-.284a.969.969,0,0,1,.476-.173,62.94,62.94,0,0,0,6.289-2.776,17.154,17.154,0,0,1,6.142-9.422c4.873-3.6,9-7.081,11.882-12.324,3.631-6.6,10.855-27.187,11.941-29.68a81.328,81.328,0,0,1,4.581-8.135c3.722,18.192-3.493,36.734-15.1,51.623-2.186,2.8-5.155,5.846-7.81,9.1-5.613,2.093-11.672,3.19-17.375,4.753a.951.951,0,0,1-1.086-.77l-.092-.461c-.055.009-.108.024-.161.033C377.451,879.346,376.971,878.011,377.828,877.712Z" transform="translate(-327.337 -787.182)" fill="#a8b900"/>
        <path id="Trazado_9212" data-name="Trazado 9212" d="M392.407,878.547c7.293-5.062,13.084-12.833,17.221-20.6,4.075-7.645,7.362-15.982,8.62-24.6,1.4-9.59,3.506-19.322,4.384-28.964a7.833,7.833,0,0,1,1.453-.326c.268-.032.626-.064,1.012-.073a2.925,2.925,0,0,1,1.547,1.888,2.016,2.016,0,0,0,.141.452,33.149,33.149,0,0,1,.282,4.991c5.751,13.072,1.022,24.557.161,26.813a116.557,116.557,0,0,1-12.154,22.461c-4.059,6.049-9.063,11.665-15.3,15.516a43.666,43.666,0,0,1-10.831,4.556A39.686,39.686,0,0,0,392.407,878.547Z" transform="translate(-323.495 -790.812)" fill="#f3fa00"/>
        <path id="Trazado_9213" data-name="Trazado 9213" d="M400.416,809.686a.717.717,0,0,1,.24,1.412A.717.717,0,0,1,400.416,809.686Z" transform="translate(-319.876 -788.923)" fill="#f3fa00"/>
        <path id="Trazado_9214" data-name="Trazado 9214" d="M372.9,882.818c13.723-10.012,21.866-22.694,23.985-39.762,1.6-12.844,1.114-25.789,9.17-36.323a75.321,75.321,0,0,0-.486-9.17.754.754,0,0,1,.091-.468,2.476,2.476,0,0,0,1.006.16c-.228.009.425.2.519.225a4.757,4.757,0,0,0,1.175.244,5.49,5.49,0,0,0,1.983-.3,5.373,5.373,0,0,1,1.221,2.519,33.187,33.187,0,0,1,.618,7.645c.012.015.027.021.039.037,18.076,25.315-1.453,83.2-37.9,77.232a1.274,1.274,0,0,1-.542-.238C372.828,884.712,371.936,883.524,372.9,882.818Z" transform="translate(-328.961 -793.1)" fill="#f3fa00"/>
        <path id="Trazado_9215" data-name="Trazado 9215" d="M402.128,856.468c-8.54,7.713-17.806,10.25-28.021,11.083-.4.3-.791.615-1.2.915-.968.706-.076,1.894.879,1.8a1.274,1.274,0,0,0,.542.238c19.4,3.173,34-11.735,40.7-30.194A67.583,67.583,0,0,1,402.128,856.468Z" transform="translate(-328.961 -778.749)" fill="#c4ca00"/>
        <path id="Trazado_9216" data-name="Trazado 9216" d="M397.917,827.808c-1.19,6.786-2.3,13.563-4.561,20.1a47.426,47.426,0,0,1-8.392,14.89,55.323,55.323,0,0,0,7.782-22.713c1.481-11.927,1.187-23.937,7.587-34.028C400.539,813.406,399.186,820.57,397.917,827.808Z" transform="translate(-324.817 -790.126)" fill="#c4ca00"/>
        <path id="Trazado_9217" data-name="Trazado 9217" d="M396.456,868.142c-.6,1.127-1.248,2.2-1.932,3.232,7.5-7.024,12.561-16.419,15.868-26.439,2.779-13.647,1.339-27.836-5.484-37.39-.012-.016-.027-.023-.039-.037a33.181,33.181,0,0,0-.618-7.645,5.373,5.373,0,0,0-1.221-2.519,5.49,5.49,0,0,1-1.983.3,4.832,4.832,0,0,1-1.175-.244l-.176-.053c.753,5.595,1.38,11.177,1.7,16.741C404.229,832.075,405.147,851.826,396.456,868.142Z" transform="translate(-321.643 -793.018)" fill="#ffea00"/>
        <path id="Trazado_9218" data-name="Trazado 9218" d="M422.561,811.316a33.149,33.149,0,0,0-.282-4.991,2.016,2.016,0,0,1-.141-.452,2.925,2.925,0,0,0-1.547-1.888c-.277.007-.527.027-.753.048-.122,6.061.629,12.184.446,18.243.872,14.843-7.553,31.093-17.768,43.391a90.065,90.065,0,0,0,15.124-16.68,90.465,90.465,0,0,0,5.082-10.858C423.583,835.873,428.312,824.388,422.561,811.316Z" transform="translate(-318.989 -790.812)" fill="#ffea00"/>
        <path id="Trazado_9219" data-name="Trazado 9219" d="M373.079,881.546c5.567-7.462,2.278-12.055,3.522-17.406.867-3.728,3.082-30.42,3.173-40.089a29.115,29.115,0,0,1,2.207-11.985,13.694,13.694,0,0,1,1.938-3.034c.842-.974,2.053-1.635,2.6-2.851.573-1.28.249-2.861.139-4.192-.08-.959-.125-1.918-.186-2.875a1.728,1.728,0,0,1,1.042-.884,9.206,9.206,0,0,1,3.16,1.112,6.158,6.158,0,0,1,1.1,1.832,11.9,11.9,0,0,0,1.38,5.448c.582.944,3.94,6.058,4.859,11.67,1.19,7.258-1.436,34.229-5.263,42.722-3.221,10.385-9.294,15.492-17.216,22.822a1.245,1.245,0,0,1-1.519.065l-.627-.567A1.315,1.315,0,0,1,373.079,881.546Z" transform="translate(-328.842 -792.724)" fill="#ecde00"/>
        <path id="Trazado_9220" data-name="Trazado 9220" d="M373.079,881.546c5.567-7.462,2.278-12.055,3.522-17.406.867-3.728,3.082-30.42,3.173-40.089a29.115,29.115,0,0,1,2.207-11.985,13.694,13.694,0,0,1,1.938-3.034c.842-.974,2.053-1.635,2.6-2.851.573-1.28.249-2.861.139-4.192-.08-.959-.125-1.918-.186-2.875a1.728,1.728,0,0,1,1.042-.884,9.206,9.206,0,0,1,3.16,1.112,6.158,6.158,0,0,1,1.1,1.832,11.9,11.9,0,0,0,1.38,5.448c.582.944,3.94,6.058,4.859,11.67,1.19,7.258-1.436,34.229-5.263,42.722-3.221,10.385-9.294,15.492-17.216,22.822a1.245,1.245,0,0,1-1.519.065l-.627-.567A1.315,1.315,0,0,1,373.079,881.546Z" transform="translate(-328.842 -792.724)" fill="#a8b900"/>
        <path id="Trazado_9221" data-name="Trazado 9221" d="M383.569,845.9c-.386-9.677-1.208-19.148,1.738-28.543,2.223-7.088,3.28-12.216,2.515-19.063a10.062,10.062,0,0,1,1.455.4,9.759,9.759,0,0,1,1.331.63,6.139,6.139,0,0,1,1.1,1.832,11.9,11.9,0,0,0,1.38,5.448c.582.944,3.94,6.058,4.859,11.67,1.19,7.258-1.437,34.229-5.263,42.722-3.221,10.385-9.294,15.492-17.216,22.822a1.243,1.243,0,0,1-1.519.065l-.627-.567a1.753,1.753,0,0,1-.3-.354C380.932,871.7,384.135,860.074,383.569,845.9Z" transform="translate(-328.781 -792.704)" fill="#f3fa00"/>
        <path id="Trazado_9222" data-name="Trazado 9222" d="M392.494,841.158c1.365-11.121-.374-21.091-.994-32.091-.135-2.386.241-5.737-.005-8.793.033.076.077.144.108.221a11.9,11.9,0,0,0,1.38,5.448c.582.944,3.906,6.063,4.859,11.67,2.614,15.356-1.437,34.229-5.263,42.722-3.221,10.385-9.294,15.492-17.216,22.822a1.243,1.243,0,0,1-1.519.065l-.5-.453C383.593,870.895,390.448,857.826,392.494,841.158Z" transform="translate(-328.676 -792.045)" fill="#ffec00"/>
        <path id="Trazado_9223" data-name="Trazado 9223" d="M386,811.265c.8,10.165,2.166,19.492.9,29.74a68.878,68.878,0,0,1-7.57,24.217,62.176,62.176,0,0,0,2.142-19.781c-.386-9.677-1.208-19.148,1.738-28.543,2.019-6.438,3.06-11.272,2.663-17.233C386.653,803.245,385.782,808.454,386,811.265Z" transform="translate(-326.687 -792.247)" fill="#c4ca00"/>
        <path id="Trazado_9224" data-name="Trazado 9224" d="M383.395,798.24a.557.557,0,0,1,.654-.139,1.42,1.42,0,0,1,.875.153,8.816,8.816,0,0,0,1.828.649c.488.143,1.011.316,1.106.9a2.241,2.241,0,0,1-1.495,2.2c-.909.123-2.063-.767-2.695-1.339A1.608,1.608,0,0,1,383.395,798.24Z" transform="translate(-325.485 -792.783)" fill="#948f00"/>
        <path id="Trazado_9225" data-name="Trazado 9225" d="M397.725,796.645a.557.557,0,0,1,.649-.158,1.423,1.423,0,0,1,.88.128,8.758,8.758,0,0,0,1.846.6c.49.128,1.019.285,1.131.867a2.241,2.241,0,0,1-1.431,2.243c-.9.149-2.085-.707-2.733-1.259A1.608,1.608,0,0,1,397.725,796.645Z" transform="translate(-320.716 -793.317)" fill="#948f00"/>
        <path id="Trazado_9226" data-name="Trazado 9226" d="M413.238,806.285a2.2,2.2,0,0,1,.135-1.03.8.8,0,0,1,.144-.373c.007-.012.008-.024.015-.036.019-.032.052-.033.077-.055a.743.743,0,0,1,.151-.152,4.758,4.758,0,0,1,1.2-.356,9.153,9.153,0,0,1,1.665-.325,1.436,1.436,0,0,1,1.445.99.517.517,0,0,1-.181.494,6.035,6.035,0,0,1-2.267.984c-.582.177-1.38.554-1.95.165A.372.372,0,0,1,413.238,806.285Z" transform="translate(-315.433 -790.822)" fill="#8c8700"/>
        <path id="Trazado_9227" data-name="Trazado 9227" d="M385.052,883.59c-.237-.136-.476-.28-.714-.42a.975.975,0,0,0-.436-.256,62.8,62.8,0,0,1-5.68-3.86,17.1,17.1,0,0,0-4.328-10.371c-4.137-4.416-7.56-8.583-9.446-14.259-2.372-7.139-5.733-28.691-6.349-31.337-.956-4.123-5.17-14.093-5.652-15.481-.627-1.8-.289-3.8-.155-5.741q.012-1.027-.005-2.054a9.008,9.008,0,0,0-2.459-1.24c-.258-.079-.6-.175-.983-.255a2.94,2.94,0,0,0-1.864,1.578,1.98,1.98,0,0,1-.221.42,33.353,33.353,0,0,0-1.186,4.858c-8.032,11.822-5.468,23.968-5.033,26.342a116.189,116.189,0,0,0,7.87,24.277c2.892,6.679,6.794,13.1,12.227,18.012,6.275,5.672,14.646,8.492,22.15,12.1a.953.953,0,0,0,1.208-.562c.057-.145.116-.29.174-.436.052.019.1.043.153.061C385.127,885.265,385.841,884.039,385.052,883.59Z" transform="translate(-339.811 -792.695)" fill="#f3fa00"/>
        <path id="Trazado_9228" data-name="Trazado 9228" d="M382.153,879.614c-.237-.136-.476-.28-.714-.42a.975.975,0,0,0-.436-.256,62.8,62.8,0,0,1-5.68-3.86A17.1,17.1,0,0,0,371,864.707c-4.137-4.416-7.56-8.583-9.446-14.259-2.372-7.139-5.733-28.691-6.349-31.337a81.035,81.035,0,0,0-3.026-8.825c-6.968,17.222-3.244,36.757,5.465,53.487,1.641,3.152,4.008,6.678,6.026,10.357,5.14,3.069,10.9,5.238,16.225,7.8a.953.953,0,0,0,1.208-.562c.057-.145.116-.29.174-.436.052.019.1.043.153.061C382.228,881.29,382.942,880.063,382.153,879.614Z" transform="translate(-336.912 -788.72)" fill="#a8b900"/>
        <path id="Trazado_9229" data-name="Trazado 9229" d="M367.443,877.527c-6.253-6.29-10.535-14.974-13.193-23.355-2.618-8.252-4.336-17.042-4.006-25.744.368-9.683.064-19.635.954-29.276a7.866,7.866,0,0,0-1.369-.582c-.258-.079-.6-.175-.983-.255a2.94,2.94,0,0,0-1.864,1.578,1.98,1.98,0,0,1-.221.42,33.353,33.353,0,0,0-1.186,4.858c-8.032,11.822-5.468,23.968-5.033,26.342a116.189,116.189,0,0,0,7.87,24.277c2.892,6.679,6.794,13.1,12.227,18.012a43.494,43.494,0,0,0,9.823,6.427A39.311,39.311,0,0,1,367.443,877.527Z" transform="translate(-339.811 -792.695)" fill="#ffec00"/>
        <path id="Trazado_9230" data-name="Trazado 9230" d="M361.344,806.775a.717.717,0,0,0-.493,1.345A.717.717,0,0,0,361.344,806.775Z" transform="translate(-332.974 -789.902)" fill="#f3fa00"/>
        <path id="Trazado_9231" data-name="Trazado 9231" d="M388,885.231c-11.678-12.315-17.381-26.252-16.362-43.42.766-12.92,3.593-25.564-2.416-37.374a75.342,75.342,0,0,1,2.147-8.932.748.748,0,0,0-.005-.475,2.465,2.465,0,0,1-1.019-.024c.222.051-.453.116-.551.128a4.768,4.768,0,0,1-1.2.029,5.474,5.474,0,0,1-1.9-.65,5.407,5.407,0,0,0-1.66,2.258,33.171,33.171,0,0,0-2,7.409c-.015.012-.031.015-.045.028-22.38,21.646-13.695,82.086,23.234,82.776a1.275,1.275,0,0,0,.577-.137C387.731,887.108,388.825,886.1,388,885.231Z" transform="translate(-336.172 -793.958)" fill="#ffec00"/>
        <path id="Trazado_9232" data-name="Trazado 9232" d="M364.305,825.7c-.064,6.888-.208,13.754.833,20.586a47.341,47.341,0,0,0,5.545,16.153A55.286,55.286,0,0,1,367.16,838.7c.711-12,3.184-23.757-1.276-34.832C364.345,811.067,364.373,818.355,364.305,825.7Z" transform="translate(-331.692 -790.85)" fill="#a8b900"/>
        <path id="Trazado_9233" data-name="Trazado 9233" d="M371.613,872.3c-4.57-7.4-7.28-16.426-8.648-24.982-2.887-18.067,1.443-35.192,7.012-52.2l-.182.021a4.768,4.768,0,0,1-1.2.029,5.474,5.474,0,0,1-1.9-.65,5.407,5.407,0,0,0-1.66,2.258,33.171,33.171,0,0,0-2,7.409c-.015.012-.031.015-.045.028-22.38,21.646-13.695,82.086,23.234,82.776a1.275,1.275,0,0,0,.577-.137,1.194,1.194,0,0,0,.726-.036C381.537,882.821,375.749,879,371.613,872.3Z" transform="translate(-336.172 -793.958)" fill="#c4ca00"/>
        <path id="Trazado_9234" data-name="Trazado 9234" d="M385.052,883.59c-.237-.136-.476-.28-.714-.42a.975.975,0,0,0-.436-.256c-1.633-.979-3.24-2.079-4.821-3.242-13.249-4.513-22.1-16.945-27.466-29.728-3.3-7.866-5.82-16.576-6.293-25.128-.5-8.989,2.817-17.547,4.256-26.316-.218-.063-.46-.126-.733-.184a2.94,2.94,0,0,0-1.864,1.578,1.98,1.98,0,0,1-.221.42,33.353,33.353,0,0,0-1.186,4.858c-8.032,11.822-5.468,23.968-5.033,26.342a116.189,116.189,0,0,0,7.87,24.277c2.892,6.679,6.794,13.1,12.227,18.012,6.275,5.672,14.646,8.492,22.15,12.1a.953.953,0,0,0,1.208-.562c.057-.145.116-.29.174-.436.052.019.1.043.153.061C385.127,885.265,385.841,884.039,385.052,883.59Z" transform="translate(-339.811 -792.695)" fill="#c4ca00"/>
        <path id="Trazado_9235" data-name="Trazado 9235" d="M382.739,882.991c-4.117-8.341-.048-12.267-.3-17.753-.174-3.824,2.5-30.474,4.168-40a29.107,29.107,0,0,0,.008-12.184,13.654,13.654,0,0,0-1.355-3.333c-.651-1.108-1.721-1.977-2.035-3.27-.33-1.361.274-2.859.626-4.147.253-.93.472-1.865.706-2.795a1.726,1.726,0,0,0-.863-1.057,9.207,9.207,0,0,0-3.31.526,6.157,6.157,0,0,0-1.415,1.6,11.935,11.935,0,0,1-2.348,5.111c-.745.824-4.977,5.25-6.9,10.6-2.488,6.924-4.81,33.922-2.59,42.963,1.28,10.794,6.325,16.909,12.783,25.542a1.243,1.243,0,0,0,1.483.337l.719-.445A1.316,1.316,0,0,0,382.739,882.991Z" transform="translate(-331.036 -792.651)" fill="#ecde00"/>
        <path id="Trazado_9236" data-name="Trazado 9236" d="M382.739,882.991c-4.117-8.341-.048-12.267-.3-17.753-.174-3.824,2.5-30.474,4.168-40a29.107,29.107,0,0,0,.008-12.184,13.654,13.654,0,0,0-1.355-3.333c-.651-1.108-1.721-1.977-2.035-3.27-.33-1.361.274-2.859.626-4.147.253-.93.472-1.865.706-2.795a1.726,1.726,0,0,0-.863-1.057,9.207,9.207,0,0,0-3.31.526,6.157,6.157,0,0,0-1.415,1.6,11.935,11.935,0,0,1-2.348,5.111c-.745.824-4.977,5.25-6.9,10.6-2.488,6.924-4.81,33.922-2.59,42.963,1.28,10.794,6.325,16.909,12.783,25.542a1.243,1.243,0,0,0,1.483.337l.719-.445A1.316,1.316,0,0,0,382.739,882.991Z" transform="translate(-331.036 -792.651)" fill="#f3fa00"/>
        <path id="Trazado_9237" data-name="Trazado 9237" d="M378.84,846.048c2.139-9.448,4.668-18.616,3.478-28.386-.9-7.37-1-12.6.992-19.2a10.043,10.043,0,0,0-1.5.135,9.583,9.583,0,0,0-1.424.38,6.157,6.157,0,0,0-1.415,1.6,11.928,11.928,0,0,1-2.348,5.111c-.745.824-4.977,5.25-6.9,10.6-2.488,6.924-4.809,33.922-2.59,42.963,1.28,10.794,6.325,16.909,12.782,25.542a1.243,1.243,0,0,0,1.483.337l.719-.444a1.905,1.905,0,0,0,.357-.3C376.742,871.9,375.7,859.889,378.84,846.048Z" transform="translate(-331.036 -792.647)" fill="#ecde00"/>
        <path id="Trazado_9238" data-name="Trazado 9238" d="M370.876,839.932c.678-11.184,4.2-20.675,6.812-31.382.566-2.323.8-5.687,1.6-8.648-.047.068-.1.128-.147.2a11.927,11.927,0,0,1-2.348,5.111c-.745.824-4.943,5.262-6.9,10.6-5.362,14.631-4.809,33.922-2.59,42.963,1.28,10.794,6.325,16.909,12.783,25.542a1.243,1.243,0,0,0,1.483.337l.574-.354C374.225,870.78,369.857,856.693,370.876,839.932Z" transform="translate(-331.212 -792.168)" fill="#c4ca00"/>
        <path id="Trazado_9239" data-name="Trazado 9239" d="M378.62,811.179c-2.635,9.854-5.673,18.782-6.291,29.088a68.789,68.789,0,0,0,3.042,25.179,62.144,62.144,0,0,1,1.491-19.84c2.139-9.448,4.668-18.616,3.478-28.386-.815-6.695-.959-11.635.514-17.427C379.439,803.174,379.35,808.454,378.62,811.179Z" transform="translate(-329.058 -792.205)" fill="#ffec00"/>
        <path id="Trazado_9240" data-name="Trazado 9240" d="M381.089,798.6a.557.557,0,0,0-.618-.254,1.414,1.414,0,0,0-.888-.007,8.743,8.743,0,0,1-1.915.309c-.5.053-1.052.129-1.251.689a2.234,2.234,0,0,0,1.07,2.432c.871.284,2.169-.385,2.895-.833A1.61,1.61,0,0,0,381.089,798.6Z" transform="translate(-327.678 -792.71)" fill="#948f00"/>
        <path id="Trazado_9241" data-name="Trazado 9241" d="M367.286,794.457a.559.559,0,0,0-.61-.272,1.42,1.42,0,0,0-.888-.032,8.866,8.866,0,0,1-1.924.253c-.506.037-1.055.1-1.271.65a2.235,2.235,0,0,0,1,2.463c.863.31,2.179-.321,2.917-.747A1.609,1.609,0,0,0,367.286,794.457Z" transform="translate(-332.273 -794.096)" fill="#948f00"/>
        <path id="Trazado_9242" data-name="Trazado 9242" d="M350.219,801.252a2.195,2.195,0,0,0,.055-1.038.8.8,0,0,0-.075-.393c0-.012,0-.024-.007-.037-.012-.036-.045-.043-.067-.068a.722.722,0,0,0-.12-.176,4.738,4.738,0,0,0-1.118-.566,9.053,9.053,0,0,0-1.578-.62,1.439,1.439,0,0,0-1.6.714.517.517,0,0,0,.088.518,6.037,6.037,0,0,0,2.051,1.376c.541.278,1.256.793,1.888.514A.373.373,0,0,0,350.219,801.252Z" transform="translate(-337.865 -792.695)" fill="#8c8700"/>
      </g>
      <g id="Grupo_2647" data-name="Grupo 2647" transform="translate(8.382 66.403)">
        <g id="Grupo_2645" data-name="Grupo 2645" transform="translate(58.888 3.127)">
          <g id="Grupo_2644" data-name="Grupo 2644" transform="translate(1.63 21.197)">
            <path id="Trazado_9243" data-name="Trazado 9243" d="M373.406,926.308c.835.452,2.6,2.214,3.016,2.423,9.592,4.851,23.162,4.108,32.714-.522a78.572,78.572,0,0,0,28.036-21.939c7.127-8.865,14.522-23.315,10.517-35.032-.049-.666-.1-1.332-.124-2a.668.668,0,0,0,.049-.184c.081-1.677,1.746-6.979-1.89-6.511a.939.939,0,0,0-1.468.594c-.5,2.628-.509,2.384-.94,5.026a13.453,13.453,0,0,1-1.809,2.528c-8.417,3.791-10.364,11.015-14.645,19.122-12.551,23.769-29.331,26.659-35.369,29.568-9.286,4.474-8.036,6.172-16.57,4.1C373.841,923.215,372.459,925.8,373.406,926.308Z" transform="translate(-373.09 -862.149)" fill="#c4ca00"/>
            <path id="Trazado_9244" data-name="Trazado 9244" d="M422.72,903.215c-.762.819-1.553,1.628-2.424,2.406a88.345,88.345,0,0,1-17.613,12.366c-6.185,3.252-13.614,6.25-20.656,6.631-3.331.181-6.016-1.273-8.842-2.265.29-.838,1.051-1.726,1.708-1.567,8.533,2.075,7.284.378,16.57-4.1,6.038-2.909,22.818-5.8,35.369-29.568,3.477-6.584,5.415-12.587,10.529-16.64a28.919,28.919,0,0,1-.417,7.033,43.279,43.279,0,0,1-6.807,15.709C427.833,896.615,425.352,899.979,422.72,903.215Z" transform="translate(-373.059 -859.458)" fill="#a8b900"/>
            <path id="Trazado_9245" data-name="Trazado 9245" d="M391.172,930.375a50.368,50.368,0,0,0,22.18-13.093,118.055,118.055,0,0,0,17.673-22.275,42.011,42.011,0,0,0,4.981-12,52.2,52.2,0,0,0,1.316-7.065,25.757,25.757,0,0,0-.22-5.065c.129-.061.246-.129.38-.189a13.453,13.453,0,0,0,1.809-2.528c.432-2.641.437-2.4.94-5.027a.939.939,0,0,1,1.468-.593c3.636-.468,1.971,4.834,1.89,6.511a.668.668,0,0,1-.049.184c.028.667.075,1.333.124,2,4.005,11.717-3.39,26.167-10.517,35.032a78.572,78.572,0,0,1-28.036,21.939,41.317,41.317,0,0,1-19.9,3.75C387.221,931.516,389.21,930.956,391.172,930.375Z" transform="translate(-369.065 -862.149)" fill="#ffea00"/>
            <path id="Trazado_9246" data-name="Trazado 9246" d="M426.571,863.106a.636.636,0,0,1,.089-.225c.5-.773,1.427-.73,2.243-.6a1.391,1.391,0,0,1,1.316,1.191.383.383,0,0,1-.6.352c-.4-.261-1.32.013-1.754.081-.334.051-.758.2-1.078.017A.566.566,0,0,1,426.571,863.106Z" transform="translate(-355.36 -862.206)" fill="#8c8700"/>
          </g>
          <path id="Trazado_9247" data-name="Trazado 9247" d="M377.207,931.19c.26-.091.52-.188.779-.284a.978.978,0,0,1,.474-.173,62.616,62.616,0,0,0,6.289-2.775,17.158,17.158,0,0,1,6.142-9.423c4.873-3.6,9-7.08,11.883-12.324,3.63-6.594,10.855-27.186,11.939-29.678,1.69-3.883,7.647-12.932,8.375-14.209.944-1.661.974-3.685,1.195-5.619q.176-1.011.378-2.021a9.1,9.1,0,0,1,2.644-.777c.269-.031.626-.063,1.014-.072a2.922,2.922,0,0,1,1.545,1.886,1.958,1.958,0,0,0,.143.453,33.314,33.314,0,0,1,.281,4.991c5.75,13.072,1.022,24.557.161,26.813A116.555,116.555,0,0,1,418.3,910.441c-4.06,6.049-9.065,11.664-15.3,15.516-7.2,4.449-15.949,5.717-23.985,7.918a.95.95,0,0,1-1.086-.77c-.032-.153-.063-.306-.093-.459-.055.009-.107.024-.161.033C376.831,932.826,376.351,931.492,377.207,931.19Z" transform="translate(-370.243 -843.789)" fill="#c4ca00"/>
          <path id="Trazado_9248" data-name="Trazado 9248" d="M377.207,927.56c.26-.091.52-.188.779-.284a.978.978,0,0,1,.474-.173,62.616,62.616,0,0,0,6.289-2.775,17.158,17.158,0,0,1,6.142-9.423c4.873-3.6,9-7.08,11.883-12.324,3.63-6.594,10.854-27.186,11.939-29.678a81.705,81.705,0,0,1,4.581-8.135c3.723,18.191-3.493,36.734-15.1,51.622-2.186,2.805-5.155,5.846-7.81,9.1-5.613,2.093-11.672,3.19-17.374,4.752a.95.95,0,0,1-1.086-.77c-.032-.153-.063-.306-.093-.459-.055.009-.107.024-.161.033C376.831,929.2,376.351,927.861,377.207,927.56Z" transform="translate(-370.243 -840.159)" fill="#a8b900"/>
          <path id="Trazado_9249" data-name="Trazado 9249" d="M391.787,928.4c7.293-5.062,13.084-12.832,17.222-20.6,4.075-7.645,7.362-15.982,8.618-24.6,1.4-9.589,3.507-19.323,4.384-28.966a7.843,7.843,0,0,1,1.453-.326c.269-.031.626-.063,1.014-.072a2.922,2.922,0,0,1,1.545,1.886,1.958,1.958,0,0,0,.143.453,33.314,33.314,0,0,1,.281,4.991c5.75,13.072,1.022,24.557.161,26.813a116.555,116.555,0,0,1-12.153,22.461c-4.06,6.049-9.065,11.664-15.3,15.516a43.674,43.674,0,0,1-10.83,4.554A39.329,39.329,0,0,0,391.787,928.4Z" transform="translate(-366.401 -843.789)" fill="#f3fa00"/>
          <path id="Trazado_9250" data-name="Trazado 9250" d="M399.8,859.535a.717.717,0,0,1,.241,1.412A.717.717,0,0,1,399.8,859.535Z" transform="translate(-362.781 -841.9)" fill="#f3fa00"/>
          <path id="Trazado_9251" data-name="Trazado 9251" d="M372.284,932.668c13.723-10.012,21.866-22.694,23.987-39.762,1.594-12.845,1.112-25.789,9.17-36.323a75.6,75.6,0,0,0-.488-9.171.748.748,0,0,1,.091-.466,2.456,2.456,0,0,0,1.007.158c-.228.011.424.2.52.226a4.806,4.806,0,0,0,1.175.244,5.487,5.487,0,0,0,1.982-.3,5.367,5.367,0,0,1,1.221,2.519,33.031,33.031,0,0,1,.618,7.645c.012.015.028.02.039.036,18.076,25.315-1.453,83.2-37.9,77.232a1.258,1.258,0,0,1-.542-.237C372.208,934.562,371.316,933.374,372.284,932.668Z" transform="translate(-371.866 -846.077)" fill="#f3fa00"/>
          <path id="Trazado_9252" data-name="Trazado 9252" d="M401.51,906.317c-8.541,7.713-17.807,10.252-28.023,11.083-.4.305-.791.615-1.2.917-.968.706-.076,1.894.879,1.8a1.274,1.274,0,0,0,.542.238c19.4,3.173,34-11.735,40.7-30.2A67.552,67.552,0,0,1,401.51,906.317Z" transform="translate(-371.866 -831.726)" fill="#c4ca00"/>
          <path id="Trazado_9253" data-name="Trazado 9253" d="M397.3,877.659c-1.19,6.786-2.3,13.563-4.561,20.1a47.4,47.4,0,0,1-8.391,14.889,55.362,55.362,0,0,0,7.782-22.712c1.481-11.929,1.186-23.939,7.586-34.029C399.918,863.256,398.566,870.419,397.3,877.659Z" transform="translate(-367.723 -843.103)" fill="#c4ca00"/>
          <path id="Trazado_9254" data-name="Trazado 9254" d="M395.835,917.992c-.6,1.127-1.247,2.2-1.93,3.232,7.5-7.024,12.561-16.42,15.866-26.439,2.78-13.648,1.339-27.838-5.484-37.391-.011-.016-.027-.021-.039-.036a33.031,33.031,0,0,0-.618-7.645,5.374,5.374,0,0,0-1.221-2.519,5.487,5.487,0,0,1-1.982.3,4.806,4.806,0,0,1-1.175-.244c-.027-.009-.1-.029-.176-.053.753,5.594,1.379,11.177,1.7,16.742C403.609,881.925,404.527,901.676,395.835,917.992Z" transform="translate(-364.548 -845.994)" fill="#ffea00"/>
          <path id="Trazado_9255" data-name="Trazado 9255" d="M421.941,861.167a33.314,33.314,0,0,0-.281-4.991,1.958,1.958,0,0,1-.143-.453,2.927,2.927,0,0,0-1.545-1.887c-.278.007-.529.028-.754.049-.122,6.061.63,12.183.446,18.241.874,14.845-7.553,31.094-17.768,43.392a90.037,90.037,0,0,0,15.126-16.682A90.758,90.758,0,0,0,422.1,887.98C422.963,885.723,427.691,874.238,421.941,861.167Z" transform="translate(-361.894 -843.789)" fill="#ffec00"/>
          <path id="Trazado_9256" data-name="Trazado 9256" d="M372.46,931.4c5.565-7.464,2.276-12.055,3.521-17.406.867-3.73,3.082-30.421,3.173-40.089a29.147,29.147,0,0,1,2.207-11.986,13.727,13.727,0,0,1,1.938-3.034c.843-.972,2.053-1.633,2.6-2.851.573-1.279.25-2.86.139-4.191-.08-.959-.124-1.918-.185-2.875a1.727,1.727,0,0,1,1.04-.886,9.168,9.168,0,0,1,3.16,1.114,6.153,6.153,0,0,1,1.1,1.83,11.9,11.9,0,0,0,1.38,5.448c.583.946,3.94,6.058,4.859,11.672,1.19,7.257-1.436,34.229-5.263,42.722-3.221,10.385-9.294,15.492-17.216,22.822a1.245,1.245,0,0,1-1.519.064l-.627-.566A1.314,1.314,0,0,1,372.46,931.4Z" transform="translate(-371.748 -845.701)" fill="#ecde00"/>
          <path id="Trazado_9257" data-name="Trazado 9257" d="M372.46,931.4c5.565-7.464,2.276-12.055,3.521-17.406.867-3.73,3.082-30.421,3.173-40.089a29.147,29.147,0,0,1,2.207-11.986,13.727,13.727,0,0,1,1.938-3.034c.843-.972,2.053-1.633,2.6-2.851.573-1.279.25-2.86.139-4.191-.08-.959-.124-1.918-.185-2.875a1.727,1.727,0,0,1,1.04-.886,9.168,9.168,0,0,1,3.16,1.114,6.153,6.153,0,0,1,1.1,1.83,11.9,11.9,0,0,0,1.38,5.448c.583.946,3.94,6.058,4.859,11.672,1.19,7.257-1.436,34.229-5.263,42.722-3.221,10.385-9.294,15.492-17.216,22.822a1.245,1.245,0,0,1-1.519.064l-.627-.566A1.314,1.314,0,0,1,372.46,931.4Z" transform="translate(-371.748 -845.701)" fill="#a8b900"/>
          <path id="Trazado_9258" data-name="Trazado 9258" d="M382.949,895.747c-.386-9.679-1.208-19.149,1.74-28.544,2.223-7.089,3.278-12.216,2.514-19.063a10.029,10.029,0,0,1,1.455.4,9.545,9.545,0,0,1,1.331.63,6.136,6.136,0,0,1,1.1,1.83,11.9,11.9,0,0,0,1.38,5.448c.583.946,3.94,6.058,4.859,11.672,1.19,7.257-1.436,34.229-5.263,42.722-3.221,10.385-9.294,15.492-17.216,22.822a1.243,1.243,0,0,1-1.519.064l-.627-.566a1.83,1.83,0,0,1-.3-.354C380.312,921.553,383.517,909.924,382.949,895.747Z" transform="translate(-371.687 -845.68)" fill="#f3fa00"/>
          <path id="Trazado_9259" data-name="Trazado 9259" d="M391.875,891.008c1.365-11.121-.374-21.091-1-32.091-.135-2.387.242-5.737-.005-8.794.033.076.077.145.108.221a11.9,11.9,0,0,0,1.38,5.448c.583.946,3.906,6.065,4.859,11.672,2.614,15.355-1.436,34.229-5.263,42.722-3.221,10.385-9.294,15.492-17.216,22.822a1.243,1.243,0,0,1-1.519.064l-.5-.452C382.973,920.745,389.829,907.675,391.875,891.008Z" transform="translate(-371.582 -845.022)" fill="#ffec00"/>
          <path id="Trazado_9260" data-name="Trazado 9260" d="M385.383,861.115c.8,10.165,2.167,19.491.9,29.738a68.879,68.879,0,0,1-7.57,24.217,62.13,62.13,0,0,0,2.142-19.78c-.386-9.679-1.208-19.149,1.74-28.544,2.019-6.438,3.058-11.272,2.663-17.233C386.034,853.093,385.161,858.3,385.383,861.115Z" transform="translate(-369.593 -845.224)" fill="#c4ca00"/>
          <path id="Trazado_9261" data-name="Trazado 9261" d="M382.775,848.089a.556.556,0,0,1,.654-.137,1.416,1.416,0,0,1,.875.152,8.755,8.755,0,0,0,1.829.65c.486.142,1.01.314,1.1.9a2.24,2.24,0,0,1-1.495,2.2c-.908.122-2.063-.769-2.695-1.34A1.608,1.608,0,0,1,382.775,848.089Z" transform="translate(-368.39 -845.76)" fill="#948f00"/>
          <path id="Trazado_9262" data-name="Trazado 9262" d="M397.105,846.494a.56.56,0,0,1,.65-.157,1.41,1.41,0,0,1,.879.128,8.754,8.754,0,0,0,1.846.594c.492.128,1.019.286,1.131.869a2.239,2.239,0,0,1-1.431,2.243c-.9.149-2.085-.707-2.732-1.26A1.607,1.607,0,0,1,397.105,846.494Z" transform="translate(-363.622 -846.293)" fill="#948f00"/>
          <path id="Trazado_9263" data-name="Trazado 9263" d="M412.62,856.135a2.184,2.184,0,0,1,.133-1.031.8.8,0,0,1,.145-.373c.007-.011.007-.023.013-.035.019-.033.053-.035.077-.056a.733.733,0,0,1,.151-.151,4.766,4.766,0,0,1,1.2-.357,9.105,9.105,0,0,1,1.664-.324,1.435,1.435,0,0,1,1.445.99.517.517,0,0,1-.18.494,6.047,6.047,0,0,1-2.268.983c-.582.178-1.379.554-1.95.167A.37.37,0,0,1,412.62,856.135Z" transform="translate(-358.338 -843.798)" fill="#8c8700"/>
        </g>
        <g id="Grupo_2646" data-name="Grupo 2646" transform="translate(0 13.583)">
          <path id="Trazado_9264" data-name="Trazado 9264" d="M392.593,927.2c-8.769.506-7.232-.938-15.552-7.008-5.409-3.947-21.386-9.808-29.409-35.442-2.737-8.744-3.338-16.2-10.927-21.441a13.4,13.4,0,0,1-1.32-2.811c.055-2.676.005-2.438-.012-5.112a.938.938,0,0,0-1.335-.849c-3.493-1.114-2.819,4.4-3.044,6.065a.679.679,0,0,0,.016.189c-.149.651-.317,1.3-.485,1.945-6.07,10.8-1.424,26.344,3.974,36.345A78.353,78.353,0,0,0,358.085,925.7c8.553,6.273,21.763,9.444,32.08,6.4.446-.132,2.5-1.547,3.406-1.841C394.6,929.928,393.706,927.14,392.593,927.2Z" transform="translate(-327.659 -854.059)" fill="#f3fa00"/>
          <path id="Trazado_9265" data-name="Trazado 9265" d="M345.816,898.3c.6.942,1.231,1.878,1.946,2.8a88.129,88.129,0,0,0,15.074,15.329c5.492,4.309,12.254,8.6,19.111,10.237,3.244.777,6.149-.172,9.107-.638-.133-.875-.719-1.886-1.395-1.848-8.769.506-7.232-.938-15.552-7.008-5.409-3.947-21.386-9.808-29.409-35.442-2.223-7.1-3.037-13.351-7.33-18.259a28.873,28.873,0,0,0-.869,6.992,43.182,43.182,0,0,0,3.839,16.675C341.986,890.893,343.814,894.648,345.816,898.3Z" transform="translate(-324.725 -851.042)" fill="#a8b900"/>
          <path id="Trazado_9266" data-name="Trazado 9266" d="M371.4,930.342a50.245,50.245,0,0,1-19.435-16.867,117.766,117.766,0,0,1-13.331-25.086,41.936,41.936,0,0,1-2.717-12.7,52.155,52.155,0,0,1-.009-7.185,25.854,25.854,0,0,1,1.136-4.942c-.116-.083-.218-.171-.338-.255a13.4,13.4,0,0,1-1.32-2.811c.055-2.676.005-2.438-.012-5.112a.937.937,0,0,0-1.335-.849c-3.493-1.114-2.819,4.4-3.044,6.065a.679.679,0,0,0,.016.189c-.149.651-.317,1.3-.485,1.945-6.07,10.8-1.424,26.344,3.974,36.345a78.368,78.368,0,0,0,23.586,26.62,41.227,41.227,0,0,0,18.89,7.265C375.078,932.175,373.224,931.265,371.4,930.342Z" transform="translate(-327.659 -854.059)" fill="#c4ca00"/>
          <path id="Trazado_9267" data-name="Trazado 9267" d="M332.064,874.01c-.469,7.486,2.316,14.83,5.845,21.346a60.32,60.32,0,0,0,13.406,16.527c-15.207-22.579-17.326-33.094-16.21-49.321C333.911,866.088,332.306,870.164,332.064,874.01Z" transform="translate(-326.213 -851.346)" fill="#ffec00"/>
          <path id="Trazado_9268" data-name="Trazado 9268" d="M334.345,855.378a.651.651,0,0,0-.047-.237c-.354-.851-1.271-.975-2.1-1a1.4,1.4,0,0,0-1.511.935.382.382,0,0,0,.53.454c.438-.185,1.3.25,1.712.4.32.111.709.332,1.056.211A.566.566,0,0,0,334.345,855.378Z" transform="translate(-326.659 -854.142)" fill="#8c8700"/>
        </g>
        <path id="Trazado_9269" data-name="Trazado 9269" d="M384.433,933.438c-.238-.136-.477-.278-.714-.418a.974.974,0,0,0-.437-.256,63.053,63.053,0,0,1-5.679-3.86,17.121,17.121,0,0,0-4.329-10.373c-4.137-4.414-7.56-8.581-9.446-14.257-2.372-7.14-5.733-28.691-6.347-31.338-.958-4.123-5.171-14.093-5.653-15.48-.627-1.8-.289-3.8-.154-5.743q.012-1.025-.005-2.054a9.043,9.043,0,0,0-2.459-1.239c-.258-.08-.6-.175-.983-.254a2.932,2.932,0,0,0-1.864,1.578,2.014,2.014,0,0,1-.221.42,33.131,33.131,0,0,0-1.184,4.858c-8.032,11.822-5.469,23.968-5.034,26.342a116.218,116.218,0,0,0,7.87,24.277c2.892,6.679,6.795,13.1,12.227,18.011,6.275,5.672,14.646,8.493,22.15,12.1a.953.953,0,0,0,1.208-.562c.059-.145.116-.29.174-.437.052.02.1.044.153.063C384.506,935.114,385.222,933.889,384.433,933.438Z" transform="translate(-323.829 -842.544)" fill="#f3fa00"/>
        <path id="Trazado_9270" data-name="Trazado 9270" d="M381.534,929.464c-.238-.136-.477-.278-.714-.418a.974.974,0,0,0-.437-.256,63.058,63.058,0,0,1-5.679-3.86,17.121,17.121,0,0,0-4.329-10.373c-4.137-4.414-7.56-8.581-9.446-14.257-2.372-7.14-5.733-28.691-6.347-31.338a81.464,81.464,0,0,0-3.028-8.825c-6.967,17.222-3.242,36.758,5.466,53.488,1.641,3.152,4.008,6.676,6.028,10.357,5.139,3.068,10.9,5.238,16.223,7.8a.953.953,0,0,0,1.208-.562c.059-.145.116-.29.174-.437.052.02.1.044.153.063C381.608,931.139,382.323,929.914,381.534,929.464Z" transform="translate(-320.93 -838.569)" fill="#a8b900"/>
        <path id="Trazado_9271" data-name="Trazado 9271" d="M366.823,927.377c-6.253-6.29-10.534-14.975-13.193-23.355-2.617-8.252-4.336-17.042-4-25.744.368-9.683.064-19.635.952-29.276a7.73,7.73,0,0,0-1.369-.582c-.258-.08-.6-.175-.983-.254a2.932,2.932,0,0,0-1.864,1.578,2.014,2.014,0,0,1-.221.42,33.131,33.131,0,0,0-1.184,4.858c-8.032,11.821-5.469,23.968-5.034,26.342a116.218,116.218,0,0,0,7.87,24.277c2.892,6.679,6.795,13.1,12.227,18.011a43.56,43.56,0,0,0,9.823,6.428A39.533,39.533,0,0,1,366.823,927.377Z" transform="translate(-323.829 -842.544)" fill="#ffec00"/>
        <path id="Trazado_9272" data-name="Trazado 9272" d="M360.724,856.624a.717.717,0,0,0-.493,1.345A.717.717,0,0,0,360.724,856.624Z" transform="translate(-316.992 -839.751)" fill="#f3fa00"/>
        <path id="Trazado_9273" data-name="Trazado 9273" d="M387.381,935.081C375.7,922.766,370,908.827,371.02,891.659c.766-12.918,3.593-25.564-2.415-37.372a75.336,75.336,0,0,1,2.146-8.932.752.752,0,0,0-.005-.477,2.457,2.457,0,0,1-1.018-.024c.223.052-.454.117-.553.129a4.88,4.88,0,0,1-1.2.029,5.5,5.5,0,0,1-1.9-.65,5.39,5.39,0,0,0-1.66,2.258,33.136,33.136,0,0,0-2,7.408c-.015.013-.031.015-.045.029-22.38,21.646-13.7,82.085,23.235,82.775a1.271,1.271,0,0,0,.575-.136C387.111,936.958,388.206,935.949,387.381,935.081Z" transform="translate(-320.19 -843.807)" fill="#ffec00"/>
        <path id="Trazado_9274" data-name="Trazado 9274" d="M363.685,875.552c-.064,6.888-.208,13.754.833,20.584a47.3,47.3,0,0,0,5.547,16.153,55.267,55.267,0,0,1-3.525-23.738c.711-12,3.185-23.756-1.276-34.831C363.725,860.917,363.753,868.2,363.685,875.552Z" transform="translate(-315.71 -840.699)" fill="#a8b900"/>
        <path id="Trazado_9275" data-name="Trazado 9275" d="M370.994,922.149c-4.572-7.4-7.281-16.426-8.648-24.982-2.888-18.068,1.441-35.193,7.011-52.205l-.182.021a4.88,4.88,0,0,1-1.2.029,5.5,5.5,0,0,1-1.9-.65,5.39,5.39,0,0,0-1.66,2.258,33.136,33.136,0,0,0-2,7.408c-.015.013-.031.015-.045.029-22.38,21.646-13.7,82.085,23.235,82.775a1.271,1.271,0,0,0,.575-.136,1.2,1.2,0,0,0,.726-.036C380.917,932.671,375.13,928.849,370.994,922.149Z" transform="translate(-320.19 -843.807)" fill="#c4ca00"/>
        <path id="Trazado_9276" data-name="Trazado 9276" d="M384.433,933.438c-.238-.136-.477-.278-.714-.418a.974.974,0,0,0-.437-.256c-1.633-.979-3.24-2.079-4.819-3.242-13.25-4.515-22.1-16.945-27.467-29.728-3.3-7.867-5.818-16.576-6.291-25.13-.5-8.987,2.817-17.547,4.255-26.316-.217-.061-.46-.125-.733-.182a2.932,2.932,0,0,0-1.864,1.578,2.014,2.014,0,0,1-.221.42,33.131,33.131,0,0,0-1.184,4.858c-8.032,11.821-5.469,23.968-5.034,26.342a116.218,116.218,0,0,0,7.87,24.277c2.892,6.679,6.795,13.1,12.227,18.011,6.275,5.672,14.646,8.493,22.15,12.1a.953.953,0,0,0,1.208-.562c.059-.145.116-.29.174-.437.052.02.1.044.153.063C384.506,935.114,385.222,933.889,384.433,933.438Z" transform="translate(-323.829 -842.544)" fill="#c4ca00"/>
        <path id="Trazado_9277" data-name="Trazado 9277" d="M382.119,932.84c-4.117-8.34-.048-12.266-.3-17.752-.176-3.823,2.5-30.472,4.167-40a29.107,29.107,0,0,0,.008-12.184,13.7,13.7,0,0,0-1.353-3.333c-.653-1.11-1.722-1.977-2.037-3.272-.33-1.361.274-2.859.626-4.147.253-.93.472-1.865.706-2.793a1.719,1.719,0,0,0-.863-1.058,9.578,9.578,0,0,0-1.886.146,9.423,9.423,0,0,0-1.424.38,6.182,6.182,0,0,0-1.415,1.6,11.921,11.921,0,0,1-2.348,5.11c-.745.825-4.977,5.25-6.9,10.6-2.488,6.925-4.809,33.924-2.59,42.964,1.28,10.794,6.325,16.908,12.783,25.542a1.245,1.245,0,0,0,1.483.337l.719-.445A1.316,1.316,0,0,0,382.119,932.84Z" transform="translate(-315.054 -842.5)" fill="#ecde00"/>
        <path id="Trazado_9278" data-name="Trazado 9278" d="M382.119,932.84c-4.117-8.34-.048-12.266-.3-17.752-.176-3.823,2.5-30.472,4.167-40a29.107,29.107,0,0,0,.008-12.184,13.7,13.7,0,0,0-1.353-3.333c-.653-1.11-1.722-1.977-2.037-3.272-.33-1.361.274-2.859.626-4.147.253-.93.472-1.865.706-2.793a1.719,1.719,0,0,0-.863-1.058,9.578,9.578,0,0,0-1.886.146,9.423,9.423,0,0,0-1.424.38,6.182,6.182,0,0,0-1.415,1.6,11.921,11.921,0,0,1-2.348,5.11c-.745.825-4.977,5.25-6.9,10.6-2.488,6.925-4.809,33.924-2.59,42.964,1.28,10.794,6.325,16.908,12.783,25.542a1.245,1.245,0,0,0,1.483.337l.719-.445A1.316,1.316,0,0,0,382.119,932.84Z" transform="translate(-315.054 -842.5)" fill="#f3fa00"/>
        <path id="Trazado_9279" data-name="Trazado 9279" d="M378.22,895.9c2.139-9.448,4.669-18.614,3.478-28.385-.9-7.372-1-12.6.994-19.2a10.092,10.092,0,0,0-1.5.133,9.586,9.586,0,0,0-1.424.381,6.16,6.16,0,0,0-1.415,1.6,11.921,11.921,0,0,1-2.348,5.11c-.745.825-4.977,5.25-6.9,10.6-2.488,6.925-4.809,33.922-2.59,42.964,1.28,10.794,6.325,16.908,12.783,25.542a1.245,1.245,0,0,0,1.483.337l.719-.445a1.732,1.732,0,0,0,.357-.3C376.122,921.753,375.084,909.739,378.22,895.9Z" transform="translate(-315.054 -842.496)" fill="#ecde00"/>
        <path id="Trazado_9280" data-name="Trazado 9280" d="M370.256,889.782c.679-11.184,4.2-20.675,6.812-31.382.566-2.323.8-5.688,1.6-8.649-.047.069-.1.129-.147.2a11.921,11.921,0,0,1-2.348,5.11c-.745.825-4.943,5.262-6.9,10.6-5.36,14.633-4.809,33.922-2.59,42.964,1.28,10.794,6.325,16.908,12.783,25.542a1.245,1.245,0,0,0,1.483.337l.574-.356C373.6,920.63,369.238,906.542,370.256,889.782Z" transform="translate(-315.23 -842.018)" fill="#c4ca00"/>
        <path id="Trazado_9281" data-name="Trazado 9281" d="M378,861.028c-2.636,9.855-5.675,18.781-6.293,29.087a68.828,68.828,0,0,0,3.042,25.18,62.153,62.153,0,0,1,1.491-19.841c2.139-9.448,4.669-18.614,3.478-28.385-.815-6.695-.959-11.637.514-17.427C378.819,853.023,378.73,858.3,378,861.028Z" transform="translate(-313.076 -842.054)" fill="#ffec00"/>
        <path id="Trazado_9282" data-name="Trazado 9282" d="M380.469,848.449a.556.556,0,0,0-.617-.253,1.419,1.419,0,0,0-.89-.007,8.735,8.735,0,0,1-1.916.309c-.5.053-1.051.129-1.251.687a2.232,2.232,0,0,0,1.071,2.432c.87.285,2.167-.384,2.893-.833A1.609,1.609,0,0,0,380.469,848.449Z" transform="translate(-311.697 -842.559)" fill="#948f00"/>
        <path id="Trazado_9283" data-name="Trazado 9283" d="M366.666,844.307a.557.557,0,0,0-.61-.272,1.419,1.419,0,0,0-.888-.033,8.7,8.7,0,0,1-1.923.253c-.506.039-1.055.1-1.269.651a2.232,2.232,0,0,0,1,2.463c.862.309,2.178-.321,2.916-.747A1.61,1.61,0,0,0,366.666,844.307Z" transform="translate(-316.291 -843.946)" fill="#948f00"/>
        <path id="Trazado_9284" data-name="Trazado 9284" d="M349.6,851.1a2.2,2.2,0,0,0,.056-1.038.808.808,0,0,0-.075-.393c-.005-.013,0-.024-.008-.037-.012-.036-.045-.043-.065-.068a.724.724,0,0,0-.121-.176,4.768,4.768,0,0,0-1.118-.568,9.105,9.105,0,0,0-1.578-.618,1.437,1.437,0,0,0-1.6.714.517.517,0,0,0,.088.518,6.024,6.024,0,0,0,2.053,1.375c.539.28,1.255.794,1.886.514A.372.372,0,0,0,349.6,851.1Z" transform="translate(-321.883 -842.545)" fill="#8c8700"/>
      </g>
      <g id="Grupo_2651" data-name="Grupo 2651" transform="translate(0 132.43)">
        <g id="Grupo_2649" data-name="Grupo 2649" transform="translate(62.034 3.293)">
          <g id="Grupo_2648" data-name="Grupo 2648" transform="translate(1.717 22.329)">
            <path id="Trazado_9285" data-name="Trazado 9285" d="M369.558,980.276c.88.476,2.74,2.331,3.177,2.552,10.105,5.11,24.4,4.328,34.462-.55a82.793,82.793,0,0,0,29.533-23.11c7.509-9.34,15.3-24.562,11.079-36.905-.051-.7-.1-1.4-.131-2.106a.687.687,0,0,0,.052-.193c.087-1.766,1.841-7.353-1.99-6.86a.99.99,0,0,0-1.547.626c-.53,2.768-.535,2.511-.991,5.3a14.247,14.247,0,0,1-1.906,2.663c-8.866,3.993-10.918,11.6-15.427,20.143-13.222,25.039-30.9,28.083-37.258,31.148-9.783,4.713-8.467,6.5-17.455,4.315C370.016,977.016,368.56,979.736,369.558,980.276Z" transform="translate(-369.225 -912.688)" fill="#c4ca00"/>
            <path id="Trazado_9286" data-name="Trazado 9286" d="M421.506,955.949c-.8.863-1.637,1.713-2.554,2.534A93.09,93.09,0,0,1,400.4,971.509c-6.515,3.425-14.342,6.584-21.761,6.985-3.51.19-6.338-1.341-9.314-2.386.305-.882,1.107-1.818,1.8-1.651,8.989,2.186,7.673.4,17.455-4.315,6.359-3.065,24.036-6.109,37.258-31.148,3.662-6.936,5.7-13.258,11.091-17.529a30.415,30.415,0,0,1-.44,7.409,45.544,45.544,0,0,1-7.17,16.548C426.893,949,424.279,952.54,421.506,955.949Z" transform="translate(-369.192 -909.853)" fill="#a8b900"/>
            <path id="Trazado_9287" data-name="Trazado 9287" d="M388.273,984.56a53.077,53.077,0,0,0,23.366-13.792A124.4,124.4,0,0,0,430.255,947.3a44.247,44.247,0,0,0,5.247-12.639,54.775,54.775,0,0,0,1.385-7.442,27.178,27.178,0,0,0-.23-5.336c.136-.064.26-.136.4-.2a14.247,14.247,0,0,0,1.906-2.663c.456-2.784.461-2.527.991-5.3a.99.99,0,0,1,1.547-.626c3.83-.493,2.077,5.094,1.99,6.86a.687.687,0,0,1-.052.193c.029.7.08,1.4.131,2.106,4.22,12.343-3.57,27.565-11.079,36.905a82.776,82.776,0,0,1-29.533,23.11,43.508,43.508,0,0,1-20.963,3.95C384.112,985.762,386.206,985.171,388.273,984.56Z" transform="translate(-364.985 -912.688)" fill="#ffea00"/>
            <path id="Trazado_9288" data-name="Trazado 9288" d="M425.563,913.7a.673.673,0,0,1,.095-.236c.53-.815,1.5-.77,2.363-.637a1.469,1.469,0,0,1,1.387,1.255.4.4,0,0,1-.637.37c-.418-.275-1.392.015-1.849.085-.353.055-.8.209-1.135.019A.6.6,0,0,1,425.563,913.7Z" transform="translate(-350.548 -912.748)" fill="#8c8700"/>
          </g>
          <path id="Trazado_9289" data-name="Trazado 9289" d="M373.564,985.419c.272-.095.546-.2.819-.3a1.024,1.024,0,0,1,.5-.182,66.262,66.262,0,0,0,6.624-2.924,18.068,18.068,0,0,1,6.47-9.925c5.132-3.791,9.476-7.46,12.517-12.984,3.826-6.947,11.436-28.64,12.579-31.265,1.781-4.089,8.055-13.622,8.821-14.967,1-1.75,1.027-3.882,1.26-5.92q.184-1.065.4-2.127a9.513,9.513,0,0,1,2.785-.818c.282-.033.659-.068,1.067-.077a3.084,3.084,0,0,1,1.629,1.987,2,2,0,0,0,.149.477,34.868,34.868,0,0,1,.3,5.258c6.058,13.771,1.076,25.869.17,28.245-3.114,8.166-7.952,16.434-12.8,23.661-4.276,6.373-9.55,12.288-16.117,16.346-7.589,4.688-16.8,6.024-25.268,8.341a1,1,0,0,1-1.143-.811l-.1-.485c-.056.011-.112.025-.169.036C373.165,987.141,372.661,985.735,373.564,985.419Z" transform="translate(-366.225 -893.347)" fill="#c4ca00"/>
          <path id="Trazado_9290" data-name="Trazado 9290" d="M373.564,981.595c.272-.095.546-.2.819-.3a1.024,1.024,0,0,1,.5-.182,66.262,66.262,0,0,0,6.624-2.924,18.076,18.076,0,0,1,6.47-9.927c5.132-3.79,9.476-7.458,12.517-12.982,3.826-6.947,11.436-28.64,12.579-31.265a85.9,85.9,0,0,1,4.826-8.569c3.92,19.163-3.679,38.7-15.906,54.38-2.3,2.954-5.431,6.159-8.228,9.589-5.913,2.2-12.294,3.361-18.3,5.006a1,1,0,0,1-1.143-.811l-.1-.485c-.056.011-.112.025-.169.036C373.165,983.317,372.661,981.91,373.564,981.595Z" transform="translate(-366.225 -889.523)" fill="#a8b900"/>
          <path id="Trazado_9291" data-name="Trazado 9291" d="M388.921,982.475c7.683-5.332,13.783-13.518,18.141-21.7,4.293-8.052,7.757-16.836,9.081-25.913,1.473-10.1,3.694-20.355,4.618-30.512a8.1,8.1,0,0,1,1.531-.344c.282-.033.659-.068,1.067-.077a3.084,3.084,0,0,1,1.629,1.987,2,2,0,0,0,.149.477,34.868,34.868,0,0,1,.3,5.258c6.058,13.771,1.076,25.869.17,28.245-3.114,8.166-7.952,16.434-12.8,23.661-4.276,6.373-9.55,12.288-16.117,16.346a45.987,45.987,0,0,1-11.409,4.8A41.361,41.361,0,0,0,388.921,982.475Z" transform="translate(-362.178 -893.347)" fill="#f3fa00"/>
          <path id="Trazado_9292" data-name="Trazado 9292" d="M397.359,909.935a.755.755,0,0,1,.253,1.487A.755.755,0,0,1,397.359,909.935Z" transform="translate(-358.365 -891.357)" fill="#f3fa00"/>
          <path id="Trazado_9293" data-name="Trazado 9293" d="M368.376,986.974c14.457-10.547,23.035-23.907,25.268-41.887,1.68-13.53,1.174-27.166,9.66-38.262a79.365,79.365,0,0,0-.513-9.661.79.79,0,0,1,.1-.491,2.6,2.6,0,0,0,1.06.168c-.241.011.446.207.547.237a5.05,5.05,0,0,0,1.236.257,5.759,5.759,0,0,0,2.09-.313,5.663,5.663,0,0,1,1.287,2.653,34.95,34.95,0,0,1,.65,8.054c.013.016.029.021.041.039,19.042,26.667-1.531,87.641-39.925,81.359a1.349,1.349,0,0,1-.571-.25C368.3,988.97,367.357,987.719,368.376,986.974Z" transform="translate(-367.936 -895.757)" fill="#f3fa00"/>
          <path id="Trazado_9294" data-name="Trazado 9294" d="M399.162,959.216c-9,8.125-18.758,10.8-29.519,11.676-.422.321-.834.649-1.268.964-1.019.745-.079,2,.927,1.9a1.349,1.349,0,0,0,.571.25c20.433,3.344,35.817-12.363,42.87-31.808A71.184,71.184,0,0,1,399.162,959.216Z" transform="translate(-367.936 -880.639)" fill="#c4ca00"/>
          <path id="Trazado_9295" data-name="Trazado 9295" d="M394.725,929.026c-1.252,7.148-2.418,14.288-4.8,21.169a49.947,49.947,0,0,1-8.84,15.685,58.308,58.308,0,0,0,8.2-23.927c1.561-12.565,1.251-25.216,7.992-35.846C397.488,913.855,396.063,921.4,394.725,929.026Z" transform="translate(-363.571 -892.624)" fill="#c4ca00"/>
          <path id="Trazado_9296" data-name="Trazado 9296" d="M393.186,971.515c-.633,1.187-1.315,2.317-2.034,3.4,7.9-7.4,13.233-17.3,16.715-27.851,2.928-14.377,1.409-29.324-5.777-39.388-.012-.017-.028-.023-.041-.039a34.95,34.95,0,0,0-.65-8.054,5.676,5.676,0,0,0-1.287-2.653,5.759,5.759,0,0,1-2.09.313,5.05,5.05,0,0,1-1.236-.257c-.028-.008-.1-.029-.187-.056.793,5.893,1.453,11.774,1.788,17.635C401.376,933.521,402.341,954.327,393.186,971.515Z" transform="translate(-360.227 -895.67)" fill="#ffea00"/>
          <path id="Trazado_9297" data-name="Trazado 9297" d="M420.686,911.653a34.868,34.868,0,0,0-.3-5.258,2,2,0,0,1-.149-.477,3.084,3.084,0,0,0-1.629-1.987c-.293.007-.557.028-.794.051-.129,6.385.663,12.834.47,19.216.919,15.637-7.956,32.755-18.718,45.71A94.929,94.929,0,0,0,415.5,951.337a95.322,95.322,0,0,0,5.354-11.438C421.762,937.522,426.744,925.424,420.686,911.653Z" transform="translate(-357.431 -893.347)" fill="#ffec00"/>
          <path id="Trazado_9298" data-name="Trazado 9298" d="M368.561,985.634c5.862-7.862,2.4-12.7,3.71-18.336.914-3.928,3.246-32.046,3.342-42.231a30.675,30.675,0,0,1,2.326-12.625,14.434,14.434,0,0,1,2.041-3.2c.887-1.024,2.162-1.721,2.736-3,.6-1.348.262-3.013.145-4.416-.084-1.01-.132-2.021-.2-3.028a1.82,1.82,0,0,1,1.1-.932,9.652,9.652,0,0,1,3.327,1.172,6.509,6.509,0,0,1,1.159,1.929c.2,1.949.3,3.872,1.455,5.74.613.995,4.151,6.382,5.119,12.294,1.252,7.646-1.515,36.058-5.545,45.005-3.393,10.939-9.791,16.319-18.135,24.041a1.313,1.313,0,0,1-1.6.068l-.659-.6A1.385,1.385,0,0,1,368.561,985.634Z" transform="translate(-367.811 -895.36)" fill="#ecde00"/>
          <path id="Trazado_9299" data-name="Trazado 9299" d="M368.561,985.634c5.862-7.862,2.4-12.7,3.71-18.336.914-3.928,3.246-32.046,3.342-42.231a30.675,30.675,0,0,1,2.326-12.625,14.434,14.434,0,0,1,2.041-3.2c.887-1.024,2.162-1.721,2.736-3,.6-1.348.262-3.013.145-4.416-.084-1.01-.132-2.021-.2-3.028a1.82,1.82,0,0,1,1.1-.932,9.652,9.652,0,0,1,3.327,1.172,6.509,6.509,0,0,1,1.159,1.929c.2,1.949.3,3.872,1.455,5.74.613.995,4.151,6.382,5.119,12.294,1.252,7.646-1.515,36.058-5.545,45.005-3.393,10.939-9.791,16.319-18.135,24.041a1.313,1.313,0,0,1-1.6.068l-.659-.6A1.385,1.385,0,0,1,368.561,985.634Z" transform="translate(-367.811 -895.36)" fill="#a8b900"/>
          <path id="Trazado_9300" data-name="Trazado 9300" d="M379.612,948.081c-.408-10.194-1.272-20.172,1.832-30.069,2.342-7.466,3.454-12.869,2.648-20.081a10.492,10.492,0,0,1,1.533.424,10.161,10.161,0,0,1,1.4.663,6.509,6.509,0,0,1,1.159,1.929c.2,1.949.3,3.872,1.453,5.74.614.995,4.152,6.382,5.12,12.294,1.252,7.646-1.515,36.058-5.545,45.005-3.393,10.939-9.791,16.319-18.135,24.041a1.309,1.309,0,0,1-1.6.068c-.221-.2-.441-.4-.661-.6a1.894,1.894,0,0,1-.313-.373C376.833,975.267,380.209,963.016,379.612,948.081Z" transform="translate(-367.747 -895.339)" fill="#f3fa00"/>
          <path id="Trazado_9301" data-name="Trazado 9301" d="M389.014,943.089c1.437-11.717-.4-22.218-1.048-33.805-.141-2.515.254-6.045-.005-9.263.035.079.081.151.113.232.2,1.949.3,3.872,1.453,5.74.614.995,4.115,6.387,5.12,12.294,2.752,16.177-1.515,36.058-5.545,45.005-3.393,10.939-9.791,16.319-18.135,24.041a1.309,1.309,0,0,1-1.6.068l-.527-.477C379.636,974.414,386.858,960.647,389.014,943.089Z" transform="translate(-367.636 -894.645)" fill="#ffec00"/>
          <path id="Trazado_9302" data-name="Trazado 9302" d="M382.176,911.6c.843,10.707,2.282,20.533.948,31.328a72.548,72.548,0,0,1-7.975,25.51,65.478,65.478,0,0,0,2.257-20.838c-.408-10.194-1.272-20.172,1.832-30.069,2.127-6.782,3.222-11.874,2.805-18.153C382.86,903.15,381.941,908.637,382.176,911.6Z" transform="translate(-365.541 -894.859)" fill="#c4ca00"/>
          <path id="Trazado_9303" data-name="Trazado 9303" d="M379.428,897.878a.586.586,0,0,1,.689-.145,1.492,1.492,0,0,1,.922.161,9.277,9.277,0,0,0,1.926.683c.513.151,1.064.332,1.164.95a2.358,2.358,0,0,1-1.576,2.317c-.956.131-2.173-.809-2.837-1.411A1.693,1.693,0,0,1,379.428,897.878Z" transform="translate(-364.274 -895.423)" fill="#948f00"/>
          <path id="Trazado_9304" data-name="Trazado 9304" d="M394.524,896.2a.586.586,0,0,1,.685-.167,1.491,1.491,0,0,1,.926.135,9.212,9.212,0,0,0,1.945.626c.518.136,1.075.3,1.192.915a2.361,2.361,0,0,1-1.508,2.363c-.952.157-2.2-.746-2.879-1.327A1.7,1.7,0,0,1,394.524,896.2Z" transform="translate(-359.251 -895.985)" fill="#948f00"/>
          <path id="Trazado_9305" data-name="Trazado 9305" d="M410.867,906.354a2.324,2.324,0,0,1,.14-1.086.858.858,0,0,1,.153-.393c.007-.012.008-.024.015-.037.02-.035.055-.035.081-.057a.754.754,0,0,1,.159-.16,5.034,5.034,0,0,1,1.267-.376,9.767,9.767,0,0,1,1.753-.342,1.515,1.515,0,0,1,1.523,1.044.544.544,0,0,1-.19.52,6.358,6.358,0,0,1-2.388,1.036c-.614.187-1.453.583-2.054.175A.39.39,0,0,1,410.867,906.354Z" transform="translate(-353.685 -893.357)" fill="#8c8700"/>
        </g>
        <g id="Grupo_2650" data-name="Grupo 2650" transform="translate(0 14.308)">
          <path id="Trazado_9306" data-name="Trazado 9306" d="M389.772,981.218c-9.239.534-7.619-.987-16.383-7.382-5.7-4.157-22.531-10.332-30.981-37.335-2.883-9.21-3.517-17.062-11.51-22.587a14.177,14.177,0,0,1-1.392-2.961c.06-2.82.007-2.568-.011-5.385a.988.988,0,0,0-1.407-.894c-3.679-1.173-2.969,4.636-3.206,6.389a.748.748,0,0,0,.016.2c-.156.685-.333,1.367-.51,2.047-6.4,11.38-1.5,27.752,4.187,38.289a82.557,82.557,0,0,0,24.844,28.041c9.01,6.607,22.928,9.948,33.795,6.739.47-.139,2.636-1.629,3.589-1.939C391.88,984.089,390.942,981.152,389.772,981.218Z" transform="translate(-321.366 -904.166)" fill="#f3fa00"/>
          <path id="Trazado_9307" data-name="Trazado 9307" d="M340.493,950.776c.633.992,1.3,1.979,2.051,2.952a92.82,92.82,0,0,0,15.88,16.147c5.785,4.541,12.909,9.055,20.132,10.784,3.418.818,6.477-.18,9.594-.671-.14-.923-.758-1.988-1.468-1.948-9.239.534-7.619-.987-16.383-7.382-5.7-4.157-22.529-10.332-30.981-37.335-2.342-7.481-3.2-14.065-7.722-19.234a30.363,30.363,0,0,0-.915,7.366,45.5,45.5,0,0,0,4.044,17.565C336.46,942.967,338.386,946.924,340.493,950.776Z" transform="translate(-318.276 -900.988)" fill="#a8b900"/>
          <path id="Trazado_9308" data-name="Trazado 9308" d="M367.445,984.524a52.924,52.924,0,0,1-20.473-17.767,124.045,124.045,0,0,1-14.044-26.426,44.151,44.151,0,0,1-2.863-13.374,54.782,54.782,0,0,1-.009-7.569,27.105,27.105,0,0,1,1.2-5.207c-.123-.088-.232-.18-.357-.268a14.177,14.177,0,0,1-1.392-2.961c.06-2.82.007-2.568-.011-5.385a.988.988,0,0,0-1.407-.894c-3.679-1.173-2.969,4.636-3.206,6.389a.748.748,0,0,0,.016.2c-.156.685-.333,1.367-.51,2.047-6.4,11.38-1.5,27.752,4.187,38.289a82.546,82.546,0,0,0,24.844,28.041,43.431,43.431,0,0,0,19.9,7.654C371.32,986.456,369.367,985.5,367.445,984.524Z" transform="translate(-321.366 -904.166)" fill="#c4ca00"/>
          <path id="Trazado_9309" data-name="Trazado 9309" d="M326.008,925.183c-.5,7.886,2.439,15.621,6.157,22.485a63.609,63.609,0,0,0,14.121,17.411c-16.018-23.784-18.251-34.862-17.074-51.956C327.952,916.838,326.262,921.131,326.008,925.183Z" transform="translate(-319.843 -901.309)" fill="#ffec00"/>
          <path id="Trazado_9310" data-name="Trazado 9310" d="M328.412,905.555a.666.666,0,0,0-.051-.249c-.373-.9-1.339-1.027-2.209-1.051a1.471,1.471,0,0,0-1.592.984.4.4,0,0,0,.559.479c.461-.2,1.365.264,1.8.416.337.117.747.35,1.114.222A.6.6,0,0,0,328.412,905.555Z" transform="translate(-320.313 -904.254)" fill="#8c8700"/>
        </g>
        <path id="Trazado_9311" data-name="Trazado 9311" d="M381.174,987.787c-.25-.144-.5-.294-.751-.442a1.023,1.023,0,0,0-.46-.269,65.868,65.868,0,0,1-5.984-4.067,18.029,18.029,0,0,0-4.56-10.926c-4.359-4.651-7.963-9.041-9.951-15.02-2.5-7.519-6.04-30.223-6.687-33.011-1.007-4.343-5.445-14.846-5.954-16.307-.661-1.9-.3-4-.163-6.049q.012-1.081-.005-2.163a9.518,9.518,0,0,0-2.591-1.307c-.272-.083-.637-.184-1.035-.268a3.094,3.094,0,0,0-1.963,1.662,2.1,2.1,0,0,1-.233.442,35.094,35.094,0,0,0-1.248,5.118c-8.461,12.453-5.761,25.248-5.3,27.75,1.578,8.591,4.834,17.593,8.289,25.573,3.046,7.037,7.157,13.8,12.88,18.974,6.611,5.976,15.429,8.946,23.334,12.749a1,1,0,0,0,1.272-.591c.063-.155.124-.306.185-.46.053.02.107.045.16.065C381.252,989.552,382,988.26,381.174,987.787Z" transform="translate(-317.332 -892.037)" fill="#f3fa00"/>
        <path id="Trazado_9312" data-name="Trazado 9312" d="M378.12,983.6c-.25-.144-.5-.294-.751-.442a1.023,1.023,0,0,0-.46-.269,65.872,65.872,0,0,1-5.984-4.067,18.029,18.029,0,0,0-4.56-10.926c-4.359-4.65-7.963-9.041-9.951-15.02-2.5-7.519-6.04-30.223-6.687-33.011a85.661,85.661,0,0,0-3.188-9.3c-7.341,18.143-3.417,38.722,5.757,56.345,1.728,3.32,4.221,7.033,6.349,10.91,5.415,3.233,11.481,5.517,17.09,8.216a1,1,0,0,0,1.272-.591c.063-.155.124-.306.185-.46.053.02.107.045.16.065C378.2,985.365,378.951,984.073,378.12,983.6Z" transform="translate(-314.278 -887.849)" fill="#a8b900"/>
        <path id="Trazado_9313" data-name="Trazado 9313" d="M362.625,981.4c-6.587-6.626-11.1-15.774-13.9-24.6-2.757-8.692-4.566-17.952-4.219-27.118.388-10.2.068-20.684,1-30.84a8.221,8.221,0,0,0-1.443-.614c-.272-.083-.637-.184-1.035-.268a3.094,3.094,0,0,0-1.963,1.662,2.1,2.1,0,0,1-.233.442,35.094,35.094,0,0,0-1.248,5.118c-8.461,12.453-5.761,25.248-5.3,27.75,1.578,8.591,4.834,17.593,8.289,25.573,3.046,7.037,7.157,13.8,12.88,18.974a45.882,45.882,0,0,0,10.349,6.772A41.374,41.374,0,0,1,362.625,981.4Z" transform="translate(-317.332 -892.037)" fill="#ffec00"/>
        <path id="Trazado_9314" data-name="Trazado 9314" d="M356.2,906.869a.755.755,0,0,0-.518,1.417A.755.755,0,0,0,356.2,906.869Z" transform="translate(-310.129 -889.095)" fill="#f3fa00"/>
        <path id="Trazado_9315" data-name="Trazado 9315" d="M384.28,989.517c-12.3-12.973-18.309-27.656-17.237-45.742.807-13.608,3.786-26.929-2.544-39.369A79.523,79.523,0,0,1,366.761,895a.793.793,0,0,0-.005-.5,2.588,2.588,0,0,1-1.074-.025c.234.055-.477.123-.581.136a5.082,5.082,0,0,1-1.264.031,5.773,5.773,0,0,1-2-.685,5.689,5.689,0,0,0-1.749,2.379,34.953,34.953,0,0,0-2.1,7.8c-.016.013-.033.016-.048.031-23.576,22.8-14.428,86.471,24.477,87.2a1.316,1.316,0,0,0,.606-.144C384,991.494,385.149,990.432,384.28,989.517Z" transform="translate(-313.499 -893.367)" fill="#ffec00"/>
        <path id="Trazado_9316" data-name="Trazado 9316" d="M359.318,926.808c-.067,7.256-.218,14.488.878,21.685a49.839,49.839,0,0,0,5.842,17.016,58.239,58.239,0,0,1-3.714-25.007c.75-12.637,3.355-25.026-1.343-36.692C359.36,911.39,359.39,919.068,359.318,926.808Z" transform="translate(-308.779 -890.094)" fill="#a8b900"/>
        <path id="Trazado_9317" data-name="Trazado 9317" d="M367.017,975.894c-4.815-7.8-7.669-17.3-9.11-26.316-3.041-19.033,1.52-37.073,7.386-54.994l-.192.023a5.082,5.082,0,0,1-1.264.031,5.773,5.773,0,0,1-2-.685,5.689,5.689,0,0,0-1.749,2.379,34.953,34.953,0,0,0-2.1,7.8c-.016.013-.033.016-.048.031-23.576,22.8-14.428,86.471,24.477,87.2a1.316,1.316,0,0,0,.606-.144,1.257,1.257,0,0,0,.765-.037C377.471,986.978,371.374,982.953,367.017,975.894Z" transform="translate(-313.499 -893.367)" fill="#c4ca00"/>
        <path id="Trazado_9318" data-name="Trazado 9318" d="M381.174,987.787c-.25-.144-.5-.294-.751-.442a1.023,1.023,0,0,0-.46-.269c-1.721-1.031-3.414-2.19-5.078-3.415-13.957-4.754-23.278-17.851-28.934-31.316-3.481-8.287-6.13-17.462-6.628-26.471-.524-9.468,2.968-18.485,4.482-27.723-.229-.065-.485-.133-.771-.193a3.094,3.094,0,0,0-1.963,1.662,2.1,2.1,0,0,1-.233.442,35.094,35.094,0,0,0-1.248,5.118c-8.461,12.453-5.761,25.248-5.3,27.75,1.578,8.591,4.834,17.593,8.289,25.573,3.046,7.037,7.157,13.8,12.88,18.974,6.611,5.976,15.429,8.946,23.334,12.749a1,1,0,0,0,1.272-.591c.063-.155.124-.306.185-.46.053.02.107.045.16.065C381.252,989.552,382,988.26,381.174,987.787Z" transform="translate(-317.332 -892.037)" fill="#c4ca00"/>
        <path id="Trazado_9319" data-name="Trazado 9319" d="M378.736,987.157c-4.337-8.788-.051-12.922-.316-18.7-.184-4.028,2.634-32.1,4.391-42.136a30.64,30.64,0,0,0,.008-12.836,14.388,14.388,0,0,0-1.427-3.511c-.686-1.168-1.813-2.082-2.143-3.445-.348-1.435.289-3.012.659-4.369.266-.979.5-1.964.743-2.943a1.818,1.818,0,0,0-.91-1.115,9.7,9.7,0,0,0-3.486.554,6.5,6.5,0,0,0-1.491,1.689c-.55,1.881-1,3.754-2.474,5.383-.785.869-5.243,5.531-7.27,11.172-2.621,7.294-5.066,35.734-2.728,45.26,1.348,11.369,6.662,17.811,13.466,26.906a1.31,1.31,0,0,0,1.561.354l.758-.468A1.387,1.387,0,0,0,378.736,987.157Z" transform="translate(-308.088 -891.99)" fill="#ecde00"/>
        <path id="Trazado_9320" data-name="Trazado 9320" d="M378.736,987.157c-4.337-8.788-.051-12.922-.316-18.7-.184-4.028,2.634-32.1,4.391-42.136a30.64,30.64,0,0,0,.008-12.836,14.388,14.388,0,0,0-1.427-3.511c-.686-1.168-1.813-2.082-2.143-3.445-.348-1.435.289-3.012.659-4.369.266-.979.5-1.964.743-2.943a1.818,1.818,0,0,0-.91-1.115,9.7,9.7,0,0,0-3.486.554,6.5,6.5,0,0,0-1.491,1.689c-.55,1.881-1,3.754-2.474,5.383-.785.869-5.243,5.531-7.27,11.172-2.621,7.294-5.066,35.734-2.728,45.26,1.348,11.369,6.662,17.811,13.466,26.906a1.31,1.31,0,0,0,1.561.354l.758-.468A1.387,1.387,0,0,0,378.736,987.157Z" transform="translate(-308.088 -891.99)" fill="#f3fa00"/>
        <path id="Trazado_9321" data-name="Trazado 9321" d="M374.628,948.239c2.254-9.953,4.918-19.609,3.665-29.9-.946-7.765-1.056-13.278,1.047-20.226a10.559,10.559,0,0,0-1.585.141,9.909,9.909,0,0,0-1.5.4,6.469,6.469,0,0,0-1.491,1.688c-.55,1.881-1,3.754-2.474,5.383-.785.87-5.243,5.531-7.27,11.172-2.621,7.294-5.066,35.734-2.728,45.258,1.348,11.37,6.662,17.812,13.466,26.908a1.308,1.308,0,0,0,1.561.354l.758-.468a1.921,1.921,0,0,0,.376-.312C372.418,975.478,371.326,962.822,374.628,948.239Z" transform="translate(-308.088 -891.986)" fill="#ecde00"/>
        <path id="Trazado_9322" data-name="Trazado 9322" d="M366.24,941.8c.715-11.782,4.426-21.781,7.176-33.061.6-2.447.849-5.99,1.689-9.109-.048.072-.107.134-.153.208-.55,1.881-1,3.754-2.474,5.383-.785.87-5.208,5.543-7.27,11.172-5.648,15.413-5.066,35.734-2.728,45.258,1.348,11.37,6.662,17.812,13.466,26.908a1.308,1.308,0,0,0,1.561.354l.6-.374C369.767,974.294,365.167,959.453,366.24,941.8Z" transform="translate(-308.274 -891.482)" fill="#c4ca00"/>
        <path id="Trazado_9323" data-name="Trazado 9323" d="M374.4,911.508c-2.776,10.381-5.978,19.784-6.628,30.641a72.454,72.454,0,0,0,3.2,26.524,65.5,65.5,0,0,1,1.569-20.9c2.254-9.953,4.918-19.609,3.665-29.9-.859-7.052-1.01-12.258.542-18.359C375.261,903.075,375.166,908.638,374.4,911.508Z" transform="translate(-306.004 -891.52)" fill="#ffec00"/>
        <path id="Trazado_9324" data-name="Trazado 9324" d="M377,898.256a.583.583,0,0,0-.65-.266,1.508,1.508,0,0,0-.936-.008,9.185,9.185,0,0,1-2.018.326c-.531.056-1.108.136-1.317.725A2.355,2.355,0,0,0,373.2,901.6c.918.3,2.284-.4,3.049-.878A1.7,1.7,0,0,0,377,898.256Z" transform="translate(-304.551 -892.052)" fill="#948f00"/>
        <path id="Trazado_9325" data-name="Trazado 9325" d="M362.458,893.893a.584.584,0,0,0-.642-.285,1.5,1.5,0,0,0-.935-.036,9.256,9.256,0,0,1-2.027.268c-.533.04-1.111.1-1.337.685a2.354,2.354,0,0,0,1.052,2.595c.908.326,2.3-.338,3.072-.787A1.7,1.7,0,0,0,362.458,893.893Z" transform="translate(-309.391 -893.513)" fill="#948f00"/>
        <path id="Trazado_9326" data-name="Trazado 9326" d="M344.478,901.051a2.312,2.312,0,0,0,.059-1.094.838.838,0,0,0-.079-.414c0-.012,0-.025-.007-.039-.013-.037-.048-.045-.069-.072a.8.8,0,0,0-.128-.185,4.971,4.971,0,0,0-1.178-.6,9.5,9.5,0,0,0-1.662-.651,1.515,1.515,0,0,0-1.686.751.547.547,0,0,0,.092.546,6.358,6.358,0,0,0,2.162,1.449c.569.294,1.323.835,1.987.541A.391.391,0,0,0,344.478,901.051Z" transform="translate(-315.282 -892.037)" fill="#8c8700"/>
      </g>
      <g id="Grupo_2654" data-name="Grupo 2654" transform="translate(10.607 196.499)">
        <g id="Grupo_2652" data-name="Grupo 2652" transform="translate(55.544 24.637)">
          <path id="Trazado_9327" data-name="Trazado 9327" d="M371.472,1024.919c.234-.061.472-.131.706-.2a.853.853,0,0,1,.432-.12,55.342,55.342,0,0,0,5.744-2.014,15.179,15.179,0,0,1,6.076-7.894c4.55-2.84,8.432-5.628,11.343-10.058,3.662-5.572,11.462-23.258,12.592-25.383,1.761-3.313,7.645-10.89,8.375-11.967.95-1.4,1.116-3.186,1.445-4.879q.224-.881.473-1.758a8.076,8.076,0,0,1,2.388-.5c.238-.008.557-.012.9.007a2.6,2.6,0,0,1,1.235,1.774,1.654,1.654,0,0,0,.095.409,29.414,29.414,0,0,1-.1,4.429,30.738,30.738,0,0,1-1.709,23.692,103.027,103.027,0,0,1-12.282,18.993c-4,5.061-8.809,9.672-14.581,12.64-6.668,3.429-14.477,3.94-21.726,5.326a.844.844,0,0,1-.9-.757c-.017-.137-.033-.276-.051-.413-.048.005-.1.015-.145.019C371.026,1026.338,370.694,1025.126,371.472,1024.919Z" transform="translate(-371.027 -960.094)" fill="#c4ca00"/>
          <path id="Trazado_9328" data-name="Trazado 9328" d="M371.472,1021.866c.234-.061.472-.131.706-.2a.854.854,0,0,1,.432-.12,55.313,55.313,0,0,0,5.744-2.014,15.188,15.188,0,0,1,6.076-7.9c4.55-2.837,8.432-5.627,11.343-10.057,3.662-5.572,11.462-23.258,12.592-25.383a71.883,71.883,0,0,1,4.608-6.867c2.03,16.327-5.621,32.2-16.9,44.544-2.125,2.324-4.955,4.8-7.525,7.5-5.1,1.457-10.526,2.006-15.67,2.989a.844.844,0,0,1-.9-.757c-.017-.137-.033-.276-.051-.413-.048.005-.1.015-.145.019C371.026,1023.285,370.694,1022.073,371.472,1021.866Z" transform="translate(-371.027 -957.041)" fill="#a8b900"/>
          <path id="Trazado_9329" data-name="Trazado 9329" d="M384.514,1023.734c6.79-3.964,12.439-10.425,16.63-16.995a67.781,67.781,0,0,0,9.308-21.127c1.9-8.372,4.43-16.821,5.872-25.277a7,7,0,0,1,1.305-.188c.238-.008.557-.012.9.007a2.6,2.6,0,0,1,1.235,1.774,1.654,1.654,0,0,0,.095.409,29.414,29.414,0,0,1-.1,4.429,30.738,30.738,0,0,1-1.709,23.692,103.027,103.027,0,0,1-12.282,18.993c-4,5.061-8.809,9.672-14.581,12.64a38.628,38.628,0,0,1-9.877,3.269A34.917,34.917,0,0,0,384.514,1023.734Z" transform="translate(-367.612 -960.094)" fill="#f3fa00"/>
          <path id="Trazado_9330" data-name="Trazado 9330" d="M415.525,966.765a29.581,29.581,0,0,0,.1-4.428,1.654,1.654,0,0,1-.095-.409,2.6,2.6,0,0,0-1.235-1.774c-.246-.013-.468-.013-.669-.011-.528,5.346-.285,10.806-.865,16.143-.254,13.171-8.817,26.937-18.686,37.087A79.623,79.623,0,0,0,408.578,999.7a79.836,79.836,0,0,0,5.236-9.237A30.745,30.745,0,0,0,415.525,966.765Z" transform="translate(-363.374 -960.093)" fill="#ffea00"/>
          <path id="Trazado_9331" data-name="Trazado 9331" d="M406.616,961.924a1.932,1.932,0,0,1,.189-.9.713.713,0,0,1,.153-.32c.007-.009.008-.02.015-.031.019-.027.049-.025.072-.043a.633.633,0,0,1,.144-.123,4.206,4.206,0,0,1,1.086-.232,8.064,8.064,0,0,1,1.493-.17,1.272,1.272,0,0,1,1.207.975.46.46,0,0,1-.193.424,5.359,5.359,0,0,1-2.071.711c-.525.116-1.256.393-1.732.011A.329.329,0,0,1,406.616,961.924Z" transform="translate(-359.209 -960.106)" fill="#8c8700"/>
        </g>
        <g id="Grupo_2653" data-name="Grupo 2653" transform="translate(0 12.466)">
          <path id="Trazado_9332" data-name="Trazado 9332" d="M385.514,1027.907c-.26-.088-.52-.185-.779-.277a.971.971,0,0,0-.476-.169,62.382,62.382,0,0,1-6.3-2.72,17.077,17.077,0,0,0-6.191-9.368c-4.891-3.555-9.033-7-11.947-12.22-3.666-6.562-11-27.092-12.1-29.573-1.71-3.868-7.715-12.865-8.448-14.136-.954-1.653-1-3.675-1.227-5.608q-.18-1.011-.389-2.017a9.046,9.046,0,0,0-2.647-.754c-.269-.028-.627-.057-1.014-.064a2.937,2.937,0,0,0-1.536,1.9,1.992,1.992,0,0,1-.14.454,33.448,33.448,0,0,0-.256,4.993c-5.681,13.122-.891,24.565-.019,26.815a115.923,115.923,0,0,0,12.271,22.353c4.091,6.014,9.125,11.585,15.381,15.383,7.227,4.387,15.978,5.579,24.027,7.709a.955.955,0,0,0,1.082-.779l.089-.461c.055.008.108.023.162.032C385.9,1029.539,386.373,1028.2,385.514,1027.907Z" transform="translate(-329.329 -950.958)" fill="#f3fa00"/>
          <path id="Trazado_9333" data-name="Trazado 9333" d="M382.315,1024.3c-.26-.088-.52-.185-.779-.277a.971.971,0,0,0-.476-.169,62.382,62.382,0,0,1-6.3-2.72,17.077,17.077,0,0,0-6.191-9.368c-4.891-3.555-9.033-7-11.947-12.22-3.666-6.562-11-27.092-12.1-29.573a81.07,81.07,0,0,0-4.624-8.1c-3.627,18.224,3.686,36.7,15.369,51.49,2.2,2.785,5.187,5.8,7.859,9.033,5.624,2.045,11.688,3.089,17.4,4.6a.955.955,0,0,0,1.082-.779l.089-.461c.055.008.108.023.162.032C382.7,1025.928,383.174,1024.589,382.315,1024.3Z" transform="translate(-326.13 -947.348)" fill="#a8b900"/>
          <path id="Trazado_9334" data-name="Trazado 9334" d="M367.08,1025.273c-7.32-5-13.152-12.717-17.33-20.446-4.115-7.61-7.446-15.918-8.749-24.523-1.448-9.578-3.607-19.291-4.536-28.926a7.85,7.85,0,0,0-1.455-.314c-.269-.028-.627-.057-1.014-.064a2.937,2.937,0,0,0-1.536,1.9,1.992,1.992,0,0,1-.14.454,33.448,33.448,0,0,0-.256,4.993c-5.681,13.122-.891,24.565-.019,26.815a115.923,115.923,0,0,0,12.271,22.353c4.091,6.014,9.125,11.585,15.381,15.383a43.493,43.493,0,0,0,10.854,4.46A39.2,39.2,0,0,1,367.08,1025.273Z" transform="translate(-329.329 -950.958)" fill="#ffec00"/>
          <path id="Trazado_9335" data-name="Trazado 9335" d="M385.514,1027.907c-.26-.088-.52-.185-.779-.277a.971.971,0,0,0-.476-.169c-1.789-.653-3.574-1.431-5.343-2.274-13.863-1.936-24.879-12.476-32.545-24.015-4.718-7.1-8.818-15.18-10.882-23.488-2.169-8.732-.513-17.76-.739-26.643-.226-.019-.476-.037-.754-.041a2.937,2.937,0,0,0-1.536,1.9,1.992,1.992,0,0,1-.14.454,33.448,33.448,0,0,0-.256,4.993c-5.681,13.122-.891,24.565-.019,26.815a115.923,115.923,0,0,0,12.271,22.353c4.091,6.014,9.125,11.585,15.381,15.383,7.227,4.387,15.978,5.579,24.027,7.709a.955.955,0,0,0,1.082-.779l.089-.461c.055.008.108.023.162.032C385.9,1029.539,386.373,1028.2,385.514,1027.907Z" transform="translate(-329.329 -950.958)" fill="#c4ca00"/>
          <path id="Trazado_9336" data-name="Trazado 9336" d="M336.9,953.268a2.192,2.192,0,0,0-.14-1.03.78.78,0,0,0-.147-.372c-.007-.012-.007-.023-.013-.036-.019-.032-.053-.033-.077-.055a.8.8,0,0,0-.152-.149,4.772,4.772,0,0,0-1.2-.346,9.263,9.263,0,0,0-1.666-.31,1.445,1.445,0,0,0-1.44,1,.515.515,0,0,0,.184.493,6.017,6.017,0,0,0,2.273.964c.583.172,1.383.541,1.95.149A.374.374,0,0,0,336.9,953.268Z" transform="translate(-328.426 -950.969)" fill="#8c8700"/>
        </g>
        <path id="Trazado_9337" data-name="Trazado 9337" d="M391.97,954.652a.716.716,0,0,1,.346,1.389A.716.716,0,0,1,391.97,954.652Z" transform="translate(-308.701 -937.287)" fill="#f3fa00"/>
        <path id="Trazado_9338" data-name="Trazado 9338" d="M368.414,1030.264c12.936-11.02,20.1-24.28,20.939-41.458.627-12.926-.823-25.8,6.421-36.908a75.068,75.068,0,0,0-1.174-9.106.753.753,0,0,1,.056-.473,2.454,2.454,0,0,0,1.015.083c-.227.027.438.163.535.185a4.734,4.734,0,0,0,1.19.155,5.472,5.472,0,0,0,1.956-.446,5.376,5.376,0,0,1,1.408,2.419,33.162,33.162,0,0,1,1.188,7.575c.013.015.029.019.043.035,19.925,23.872,4.79,83.058-32.006,79.868a1.274,1.274,0,0,1-.558-.2C368.48,1032.159,367.5,1031.041,368.414,1030.264Z" transform="translate(-316.471 -941.383)" fill="#f3fa00"/>
        <path id="Trazado_9339" data-name="Trazado 9339" d="M396.66,1001.954c-7.939,8.335-16.991,11.566-27.116,13.167-.377.334-.743.674-1.131,1-.912.777.067,1.894,1.012,1.732a1.274,1.274,0,0,0,.558.2c19.583,1.7,33.029-14.272,38.321-33.182A67.607,67.607,0,0,1,396.66,1001.954Z" transform="translate(-316.471 -927.244)" fill="#c4ca00"/>
        <path id="Trazado_9340" data-name="Trazado 9340" d="M389.788,973.186c-.678,6.856-1.272,13.7-3.041,20.381a47.447,47.447,0,0,1-7.252,15.48,55.362,55.362,0,0,0,6.057-23.234c.582-12-.613-23.956,5.014-34.5C391.322,958.629,390.511,965.873,389.788,973.186Z" transform="translate(-312.671 -938.389)" fill="#c4ca00"/>
        <path id="Trazado_9341" data-name="Trazado 9341" d="M391.131,1013.382c-.514,1.168-1.079,2.287-1.684,3.368,6.956-7.57,11.3-17.32,13.841-27.561,1.748-13.816-.754-27.855-8.273-36.864-.013-.016-.029-.02-.043-.035a33.162,33.162,0,0,0-1.188-7.575,5.376,5.376,0,0,0-1.408-2.419,5.472,5.472,0,0,1-1.956.446,4.734,4.734,0,0,1-1.19-.155l-.18-.04c1.171,5.521,2.214,11.04,2.948,16.564C396.179,976.834,398.575,996.457,391.131,1013.382Z" transform="translate(-309.497 -941.383)" fill="#ffea00"/>
        <path id="Trazado_9342" data-name="Trazado 9342" d="M368.54,1028.629c4.99-7.863,1.367-12.193,2.206-17.621.585-3.784.793-30.564.157-40.211a29.139,29.139,0,0,1,1.3-12.117,13.763,13.763,0,0,1,1.705-3.172c.767-1.034,1.925-1.784,2.375-3.038.476-1.319.035-2.871-.176-4.189-.152-.95-.268-1.9-.4-2.852a1.727,1.727,0,0,1,.972-.96,9.132,9.132,0,0,1,3.234.87,6.171,6.171,0,0,1,1.235,1.742,11.893,11.893,0,0,0,1.785,5.328c.651.9,4.384,5.743,5.721,11.269,1.73,7.147,1.135,34.235-2.045,42.992-2.434,10.6-8.107,16.149-15.457,24.056a1.245,1.245,0,0,1-1.509.18l-.669-.518A1.313,1.313,0,0,1,368.54,1028.629Z" transform="translate(-316.371 -940.661)" fill="#ecde00"/>
        <path id="Trazado_9343" data-name="Trazado 9343" d="M368.54,1028.629c4.99-7.863,1.367-12.193,2.206-17.621.585-3.784.793-30.564.157-40.211a29.139,29.139,0,0,1,1.3-12.117,13.763,13.763,0,0,1,1.705-3.172c.767-1.034,1.925-1.784,2.375-3.038.476-1.319.035-2.871-.176-4.189-.152-.95-.268-1.9-.4-2.852a1.727,1.727,0,0,1,.972-.96,9.132,9.132,0,0,1,3.234.87,6.171,6.171,0,0,1,1.235,1.742,11.893,11.893,0,0,0,1.785,5.328c.651.9,4.384,5.743,5.721,11.269,1.73,7.147,1.135,34.235-2.045,42.992-2.434,10.6-8.107,16.149-15.457,24.056a1.245,1.245,0,0,1-1.509.18l-.669-.518A1.313,1.313,0,0,1,368.54,1028.629Z" transform="translate(-316.371 -940.661)" fill="#a8b900"/>
        <path id="Trazado_9344" data-name="Trazado 9344" d="M376.314,992.295c-1.112-9.62-2.641-19-.408-28.59,1.686-7.236,2.354-12.428,1.078-19.2a10,10,0,0,1,1.481.29,9.686,9.686,0,0,1,1.375.528,6.17,6.17,0,0,1,1.235,1.742,11.893,11.893,0,0,0,1.785,5.328c.651.9,4.384,5.743,5.721,11.269,1.73,7.147,1.135,34.235-2.045,42.992-2.434,10.6-8.107,16.149-15.457,24.056a1.245,1.245,0,0,1-1.509.18l-.669-.518a1.842,1.842,0,0,1-.322-.33C375.619,1018.225,377.942,1006.386,376.314,992.295Z" transform="translate(-316.296 -940.648)" fill="#f3fa00"/>
        <path id="Trazado_9345" data-name="Trazado 9345" d="M384.9,986.959c.527-11.192-1.955-21-3.4-31.92-.313-2.37-.189-5.74-.665-8.768.039.073.088.139.125.212a11.893,11.893,0,0,0,1.785,5.328c.651.9,4.349,5.751,5.721,11.269,3.758,15.112,1.135,34.235-2.045,42.992-2.434,10.6-8.107,16.149-15.457,24.056a1.245,1.245,0,0,1-1.509.18l-.534-.414C378.253,1017.28,384.11,1003.731,384.9,986.959Z" transform="translate(-316.182 -940.063)" fill="#ffec00"/>
        <path id="Trazado_9346" data-name="Trazado 9346" d="M376.725,957.426c1.561,10.074,3.623,19.27,3.129,29.583a68.881,68.881,0,0,1-5.733,24.718,62.156,62.156,0,0,0,.653-19.884c-1.112-9.62-2.641-19-.408-28.59,1.532-6.573,2.206-11.47,1.364-17.384C376.773,949.38,376.293,954.639,376.725,957.426Z" transform="translate(-314.754 -940.196)" fill="#c4ca00"/>
        <path id="Trazado_9347" data-name="Trazado 9347" d="M374.127,944.53a.557.557,0,0,1,.641-.188,1.412,1.412,0,0,1,.885.087,8.817,8.817,0,0,0,1.872.509c.5.105,1.032.238,1.17.814a2.239,2.239,0,0,1-1.325,2.307c-.9.192-2.115-.61-2.788-1.131A1.606,1.606,0,0,1,374.127,944.53Z" transform="translate(-314.575 -940.714)" fill="#948f00"/>
        <path id="Trazado_9348" data-name="Trazado 9348" d="M388.3,941.86a.557.557,0,0,1,.635-.206,1.418,1.418,0,0,1,.887.06,8.823,8.823,0,0,0,1.886.454c.5.091,1.038.208,1.192.779a2.239,2.239,0,0,1-1.257,2.344c-.891.219-2.133-.547-2.82-1.048A1.606,1.606,0,0,1,388.3,941.86Z" transform="translate(-309.86 -941.61)" fill="#948f00"/>
        <path id="Trazado_9349" data-name="Trazado 9349" d="M352.784,954.7a.717.717,0,0,0-.39,1.379A.717.717,0,0,0,352.784,954.7Z" transform="translate(-321.836 -937.272)" fill="#f3fa00"/>
        <path id="Trazado_9350" data-name="Trazado 9350" d="M384.487,1031.2c-12.569-11.4-19.3-24.862-19.575-42.055-.205-12.938,1.666-25.76-5.212-37.079A75.554,75.554,0,0,1,361.171,943a.755.755,0,0,0-.04-.474,2.457,2.457,0,0,1-1.018.052c.225.035-.444.15-.541.17a4.818,4.818,0,0,1-1.195.12,5.49,5.49,0,0,1-1.939-.5,5.4,5.4,0,0,0-1.485,2.376,33.125,33.125,0,0,0-1.436,7.537c-.015.013-.031.017-.044.032-20.7,23.275-7.5,82.877,29.381,80.774a1.266,1.266,0,0,0,.563-.18C384.358,1033.09,385.374,1032,384.487,1031.2Z" transform="translate(-324.563 -941.361)" fill="#ffec00"/>
        <path id="Trazado_9351" data-name="Trazado 9351" d="M356.9,973.368c.453,6.874.825,13.728,2.374,20.462a47.288,47.288,0,0,0,6.743,15.685,55.232,55.232,0,0,1-5.295-23.4c-.19-12.017,1.395-23.927-3.886-34.632C355.845,958.772,356.419,966.037,356.9,973.368Z" transform="translate(-320.375 -938.332)" fill="#a8b900"/>
        <path id="Trazado_9352" data-name="Trazado 9352" d="M367.173,1019.544c-5.114-7.036-8.492-15.828-10.5-24.254-4.235-17.8-1.2-35.2,3.078-52.579l-.181.035a4.818,4.818,0,0,1-1.195.12,5.49,5.49,0,0,1-1.939-.5,5.4,5.4,0,0,0-1.485,2.376,33.125,33.125,0,0,0-1.436,7.537c-.015.013-.031.017-.044.032-20.7,23.275-7.5,82.877,29.381,80.774a1.266,1.266,0,0,0,.563-.18,1.19,1.19,0,0,0,.721-.091C377.859,1029.284,371.8,1025.911,367.173,1019.544Z" transform="translate(-324.563 -941.361)" fill="#c4ca00"/>
        <path id="Trazado_9353" data-name="Trazado 9353" d="M379.025,1029.391c-4.732-8.006-.967-12.227-1.629-17.677-.461-3.8.206-30.572,1.156-40.2a29.1,29.1,0,0,0-.906-12.148,13.667,13.667,0,0,0-1.6-3.221c-.733-1.056-1.865-1.84-2.275-3.106-.432-1.332.06-2.872.313-4.183.182-.946.33-1.894.494-2.839a1.724,1.724,0,0,0-.94-.99,9.646,9.646,0,0,0-1.87.289,9.745,9.745,0,0,0-1.391.486,6.173,6.173,0,0,0-1.291,1.705,11.941,11.941,0,0,1-1.958,5.272c-.682.879-4.569,5.611-6.088,11.095-1.963,7.092-2.253,34.186.639,43.032,2.086,10.665,7.576,16.38,14.665,24.5a1.243,1.243,0,0,0,1.5.224l.685-.5A1.315,1.315,0,0,0,379.025,1029.391Z" transform="translate(-319.298 -940.474)" fill="#ecde00"/>
        <path id="Trazado_9354" data-name="Trazado 9354" d="M379.025,1029.391c-4.732-8.006-.967-12.227-1.629-17.677-.461-3.8.206-30.572,1.156-40.2a29.1,29.1,0,0,0-.906-12.148,13.667,13.667,0,0,0-1.6-3.221c-.733-1.056-1.865-1.84-2.275-3.106-.432-1.332.06-2.872.313-4.183.182-.946.33-1.894.494-2.839a1.724,1.724,0,0,0-.94-.99,9.646,9.646,0,0,0-1.87.289,9.745,9.745,0,0,0-1.391.486,6.173,6.173,0,0,0-1.291,1.705,11.941,11.941,0,0,1-1.958,5.272c-.682.879-4.569,5.611-6.088,11.095-1.963,7.092-2.253,34.186.639,43.032,2.086,10.665,7.576,16.38,14.665,24.5a1.243,1.243,0,0,0,1.5.224l.685-.5A1.315,1.315,0,0,0,379.025,1029.391Z" transform="translate(-319.298 -940.474)" fill="#f3fa00"/>
        <path id="Trazado_9355" data-name="Trazado 9355" d="M372.366,992.845c1.425-9.582,3.261-18.913,1.34-28.564-1.448-7.281-1.946-12.491-.449-19.219a10.023,10.023,0,0,0-1.491.248,9.582,9.582,0,0,0-1.391.486,6.153,6.153,0,0,0-1.291,1.705,11.941,11.941,0,0,1-1.958,5.272c-.682.879-4.569,5.611-6.088,11.095-1.963,7.092-2.253,34.186.639,43.032,2.086,10.665,7.576,16.38,14.665,24.5a1.243,1.243,0,0,0,1.5.224l.685-.5a1.771,1.771,0,0,0,.333-.321C372.214,1018.783,370.279,1006.883,372.366,992.845Z" transform="translate(-319.298 -940.464)" fill="#ecde00"/>
        <path id="Trazado_9356" data-name="Trazado 9356" d="M364.06,987.285c-.161-11.2,2.64-20.932,4.441-31.806.39-2.358.376-5.731.95-8.742-.04.071-.092.135-.131.208a11.941,11.941,0,0,1-1.958,5.272c-.682.879-4.536,5.62-6.088,11.095-4.249,15-2.253,34.186.639,43.032,2.086,10.665,7.576,16.38,14.665,24.5a1.243,1.243,0,0,0,1.5.224l.546-.4C369.713,1017.788,364.3,1004.073,364.06,987.285Z" transform="translate(-319.533 -939.908)" fill="#c4ca00"/>
        <path id="Trazado_9357" data-name="Trazado 9357" d="M369.569,957.938c-1.889,10.024-4.251,19.154-4.093,29.476a68.744,68.744,0,0,0,4.923,24.875,62.165,62.165,0,0,1,0-19.894c1.425-9.582,3.261-18.913,1.34-28.564-1.315-6.614-1.829-11.529-.794-17.415C369.785,949.9,370.091,955.166,369.569,957.938Z" transform="translate(-317.328 -940.014)" fill="#ffec00"/>
        <path id="Trazado_9358" data-name="Trazado 9358" d="M371.849,945.116a.557.557,0,0,0-.635-.207,1.419,1.419,0,0,0-.887.061,8.825,8.825,0,0,1-1.888.453c-.5.091-1.038.208-1.195.779a2.233,2.233,0,0,0,1.249,2.346c.89.217,2.134-.547,2.824-1.05A1.61,1.61,0,0,0,371.849,945.116Z" transform="translate(-316.752 -940.529)" fill="#948f00"/>
        <path id="Trazado_9359" data-name="Trazado 9359" d="M357.774,942.03a.557.557,0,0,0-.629-.225,1.425,1.425,0,0,0-.888.035,8.826,8.826,0,0,1-1.9.4c-.5.076-1.044.177-1.217.743a2.234,2.234,0,0,0,1.18,2.382c.883.242,2.149-.485,2.853-.966A1.61,1.61,0,0,0,357.774,942.03Z" transform="translate(-321.439 -941.564)" fill="#948f00"/>
      </g>
    </g>
    <rect id="Rectngulo_827" data-name="Rectngulo 827" width="232.389" height="37.068" transform="translate(159.887 1699.968)" fill="#354c49"/>
    <rect id="Rectngulo_828" data-name="Rectngulo 828" width="65.582" height="17.108" transform="translate(308.16 1708.582)" fill="#fff"/>
    <rect id="Rectngulo_829" data-name="Rectngulo 829" width="8.911" height="4.455" transform="translate(179.847 1708.582)" fill="#fff"/>
    <rect id="Rectngulo_830" data-name="Rectngulo 830" width="8.911" height="4.455" transform="translate(191.876 1708.582)" fill="#fff"/>
    <rect id="Rectngulo_831" data-name="Rectngulo 831" width="8.911" height="4.455" transform="translate(179.847 1717.046)" fill="#fff"/>
    <rect id="Rectngulo_832" data-name="Rectngulo 832" width="8.911" height="4.455" transform="translate(191.876 1717.046)" fill="#fff"/>
    <rect id="Rectngulo_833" data-name="Rectngulo 833" width="6.31" height="3.155" transform="translate(207.803 1728.875)" fill="#fff"/>
    <rect id="Rectngulo_834" data-name="Rectngulo 834" width="6.31" height="3.155" transform="translate(216.321 1728.875)" fill="#fff"/>
  </g>
</svg>
