<svg xmlns="http://www.w3.org/2000/svg" width="876" height="227" viewBox="0 0 876 227">
  <g id="Grupo_7753" data-name="Grupo 7753" transform="translate(-154 -1354)">
    <rect id="Rectángulo_1846" data-name="Rectángulo 1846" width="876" height="227" transform="translate(154 1354)" fill="#fed97b"/>
    <g id="Grupo_7575" data-name="Grupo 7575" transform="translate(26 173)">
      <g id="Rectángulo_1845" data-name="Rectángulo 1845" transform="translate(421 1217)" fill="#fff" stroke="#3b1f10" stroke-width="2">
        <rect width="405" height="49" stroke="none"/>
        <rect x="1" y="1" width="403" height="47" fill="none"/>
      </g>
      <g id="Rectángulo_1844" data-name="Rectángulo 1844" transform="translate(421 1264)" fill="#e2e2e2" stroke="#3b1f10" stroke-width="2" opacity="0.995">
        <rect width="405" height="102" stroke="none"/>
        <rect x="1" y="1" width="403" height="100" fill="none"/>
      </g>
      <path id="Trazado_11629" data-name="Trazado 11629" d="M-36-82.263H369.547" transform="translate(457 1311)" fill="#e0e0e0" stroke="#8b8b8b" stroke-width="1" stroke-dasharray="6"/>
      <path id="Trazado_11630" data-name="Trazado 11630" d="M-36-82.263H369.547" transform="translate(457 1337)" fill="#e0e0e0" stroke="#8b8b8b" stroke-width="1" stroke-dasharray="6"/>
      <g id="Grupo_7529" data-name="Grupo 7529" transform="translate(145 -39)">
        <g id="Grupo_7528" data-name="Grupo 7528" transform="translate(132.082 1065.183)">
          <path id="Trazado_11621" data-name="Trazado 11621" d="M91.749,170.817l23.773.914,3.272.385h.048q16.412,3.657,23.629,10.153a56.635,56.635,0,0,1,11.02,13.091,81.445,81.445,0,0,1,6.3,12.512,119.409,119.409,0,0,1,7.171,25.409,223.385,223.385,0,0,1,2.647,26.708,45.082,45.082,0,0,0,.77,7.171,203.152,203.152,0,0,0,5.824,23.437,121.891,121.891,0,0,0,10.008,23.2q6.209,11.262,19.106,19.394h-.048q4.956,3.08,10.587,5.919l.433.482-.048.626-.481.432q-18.191,6.449-34.361,10.444-10.779,2.645-21.318,4.571l-.145.048a1.344,1.344,0,0,1-.915-.336A66.961,66.961,0,0,1,142.9,338.143a125.964,125.964,0,0,1-10.058-18.913l-20.693,4.283q-12.607,2.311-25.169,3.9l-9.913.913h-.145l-1.684-.1h-.048A35.052,35.052,0,0,1,62.2,323.946a47.106,47.106,0,0,1-14.967-13.378,92.17,92.17,0,0,1-13.426-26.661v-.048a127.347,127.347,0,0,1-5.679-30.51l-.1-1.492a128.43,128.43,0,0,1,2.165-29.6,87.088,87.088,0,0,1,10.155-27.191v.048a22.97,22.97,0,0,1,1.491-2.406v-.048a49.254,49.254,0,0,1,20.742-17.228h.1a96.583,96.583,0,0,1,29.067-4.62m37.729,7.026a90.258,90.258,0,0,0-10.829-2.7L105.8,173.993a155.393,155.393,0,0,0-24.736.336,101.145,101.145,0,0,0-10.635,1.829,30.365,30.365,0,0,1,19.345,7.074,61.748,61.748,0,0,1,14.293,16.843,96.541,96.541,0,0,1,9.48,22.137,107.018,107.018,0,0,1,3.755,20.02q1.3,14.823,3.993,29.356a253.224,253.224,0,0,0,8.374,32.434,89.939,89.939,0,0,0,4.958,12.273l1.491,3.177A104.66,104.66,0,0,0,148.054,340.4a60.953,60.953,0,0,0,12.367,12.513q16.362-3.467,32.532-7.845,9.673-2.6,19.154-5.534a46.831,46.831,0,0,1-19.491-12.9,80.641,80.641,0,0,1-16.121-26.179,186.222,186.222,0,0,1-8.71-31.04,67.259,67.259,0,0,1-1.059-9.434,236.04,236.04,0,0,0-2.6-26.082,111.132,111.132,0,0,0-8.325-28.1,78.8,78.8,0,0,0-5.391-10.01q-7.024-13.618-20.933-17.95M90.93,185.976a29.625,29.625,0,0,0-24.3-8.182,20.167,20.167,0,0,0-3.7.818,32.151,32.151,0,0,0-6.3,3.369,49,49,0,0,0-14.1,14.293,76.163,76.163,0,0,0-9.432,26.083,150.594,150.594,0,0,0-2.022,29.452,142.743,142.743,0,0,0,1.4,14.245A104.351,104.351,0,0,0,38.716,289.2,85.261,85.261,0,0,0,51.95,311.819,36.948,36.948,0,0,0,68.794,323.61a27.113,27.113,0,0,0,24.735-4.138,46.49,46.49,0,0,0,11.695-13.524,86.213,86.213,0,0,0,8.9-23,106.612,106.612,0,0,0,2.646-24.061,160.321,160.321,0,0,0-2.069-25.122l-.337-2.261a100.288,100.288,0,0,0-8.421-25.12,69.172,69.172,0,0,0-15.016-20.4M119.805,270l-.818-4.524-.77-5.293q-.53,25.313-10.587,44.033-8.325,15.351-19.683,20.116l14.244-2.022,1.108-.192q14.436-2.358,29.837-6.016a103.476,103.476,0,0,1-7.6-20.548q-3.08-11.068-5.727-25.554M83.664,231.164q5.533,8.517,6.592,20.549.917,12.03-3.319,20.548a21.576,21.576,0,0,1-3.754,5.486,10.884,10.884,0,0,1-7.8,3.321q-7.17.05-12.9-8.71-5.581-8.519-6.5-20.549-1.011-12.032,3.224-20.6,4.331-8.807,11.6-8.759a11.933,11.933,0,0,1,7.026,2.358,22.213,22.213,0,0,1,5.823,6.353m-6.689-5.294a10.548,10.548,0,0,0-6.16-2.021q-6.449,0-10.4,7.988-4.041,8.229-3.079,19.876.915,11.646,6.305,19.875,5.244,8.035,11.742,8.133a9.773,9.773,0,0,0,6.785-2.888,24.045,24.045,0,0,1-5.1-5.775q-5.487-8.373-6.4-20.212-1.009-11.838,3.176-20.26a19.748,19.748,0,0,1,3.129-4.716" fill="#5e4b41"/>
          <path id="Trazado_11622" data-name="Trazado 11622" d="M129.478,177.843q13.908,4.329,20.933,17.95A78.8,78.8,0,0,1,155.8,205.8a111.132,111.132,0,0,1,8.325,28.1,236.04,236.04,0,0,1,2.6,26.082,67.259,67.259,0,0,0,1.059,9.434,186.222,186.222,0,0,0,8.71,31.04,80.641,80.641,0,0,0,16.121,26.179,46.831,46.831,0,0,0,19.491,12.9q-9.48,2.934-19.154,5.534-16.17,4.379-32.532,7.845A60.953,60.953,0,0,1,148.054,340.4a104.66,104.66,0,0,1-11.935-20.933l-1.491-3.177a89.939,89.939,0,0,1-4.958-12.273,253.224,253.224,0,0,1-8.374-32.434q-2.694-14.535-3.993-29.356a107.018,107.018,0,0,0-3.755-20.02,96.541,96.541,0,0,0-9.48-22.137,61.748,61.748,0,0,0-14.293-16.843,30.365,30.365,0,0,0-19.345-7.074,101.145,101.145,0,0,1,10.635-1.829,155.393,155.393,0,0,1,24.736-.336l12.848,1.155a90.258,90.258,0,0,1,10.829,2.7" fill="#fff"/>
          <path id="Trazado_11623" data-name="Trazado 11623" d="M90.93,185.976a69.172,69.172,0,0,1,15.016,20.4,100.288,100.288,0,0,1,8.421,25.12l.337,2.261a160.321,160.321,0,0,1,2.069,25.122,106.612,106.612,0,0,1-2.646,24.061,86.213,86.213,0,0,1-8.9,23,46.49,46.49,0,0,1-11.695,13.524,27.113,27.113,0,0,1-24.735,4.138A36.948,36.948,0,0,1,51.95,311.819,85.261,85.261,0,0,1,38.716,289.2a104.351,104.351,0,0,1-6.256-23.147,142.743,142.743,0,0,1-1.4-14.245,150.594,150.594,0,0,1,2.022-29.452,76.163,76.163,0,0,1,9.432-26.083,49,49,0,0,1,14.1-14.293,32.151,32.151,0,0,1,6.3-3.369,20.167,20.167,0,0,1,3.7-.818,29.625,29.625,0,0,1,24.3,8.182m-7.266,45.188a22.213,22.213,0,0,0-5.823-6.353,11.933,11.933,0,0,0-7.026-2.358q-7.266-.048-11.6,8.759-4.234,8.566-3.224,20.6.915,12.031,6.5,20.549,5.727,8.757,12.9,8.71a10.884,10.884,0,0,0,7.8-3.321,21.576,21.576,0,0,0,3.754-5.486q4.233-8.517,3.319-20.548-1.057-12.031-6.592-20.549" fill="#dadad3"/>
          <path id="Trazado_11624" data-name="Trazado 11624" d="M103.3,322.118l-1.108.192-14.244,2.022q11.356-4.766,19.683-20.116,10.059-18.722,10.587-44.033l.77,5.293.818,4.524q.481,22.473-4.813,34.408-5.485,12.128-11.693,17.71" fill="#e9eae8"/>
          <path id="Trazado_11625" data-name="Trazado 11625" d="M103.3,322.118q6.207-5.583,11.693-17.71,5.3-11.934,4.813-34.408,2.647,14.484,5.727,25.554a103.476,103.476,0,0,0,7.6,20.548q-15.4,3.658-29.837,6.016" fill="#d8dad6"/>
          <path id="Trazado_11626" data-name="Trazado 11626" d="M76.975,225.87a19.748,19.748,0,0,0-3.129,4.716q-4.185,8.423-3.176,20.26.915,11.838,6.4,20.212a24.045,24.045,0,0,0,5.1,5.775,9.773,9.773,0,0,1-6.785,2.888q-6.5-.1-11.742-8.133-5.391-8.229-6.305-19.875-.961-11.646,3.079-19.876,3.947-7.988,10.4-7.988a10.548,10.548,0,0,1,6.16,2.021" fill="#7d6557"/>
        </g>
        <path id="Trazado_11627" data-name="Trazado 11627" d="M-244.456-58s46.513,2.18,53.685,88.422,50.273,85.87,50.273,85.87" transform="translate(457 1296)" fill="none" stroke="#707070" stroke-width="1" stroke-dasharray="3"/>
        <path id="Trazado_11628" data-name="Trazado 11628" d="M-244.456-58s41.6-.043,48.77,86.2,52.736,81.395,52.736,81.395" transform="translate(481 1296)" fill="none" stroke="#707070" stroke-width="1" stroke-dasharray="3"/>
      </g>
    </g>
  </g>
</svg>
