<svg xmlns="http://www.w3.org/2000/svg" xmlns:xlink="http://www.w3.org/1999/xlink" width="510.953" height="350.426" viewBox="0 0 510.953 350.426">
  <defs>
    <clipPath id="clip-path">
      <rect id="Rectángulo_1929" data-name="Rectángulo 1929" width="4.449" height="99.534" transform="translate(584.228 156.501)" fill="#fff" stroke="#161615" stroke-miterlimit="10" stroke-width="1.043"/>
    </clipPath>
  </defs>
  <g id="Grupo_7754" data-name="Grupo 7754" transform="translate(-154 -1809.614)">
    <g id="Grupo_7574" data-name="Grupo 7574" transform="translate(0 176)">
      <path id="Trazado_11631" data-name="Trazado 11631" d="M0,81.395s252.734.178,316.185.116C454.708,81.378,510.9,165.49,510.953,221.6c.05,52.632-59.481,140.334-194.5,140.464C274.734,362.1,0,362.382,0,362.382Z" transform="translate(154 1552.219)" fill="#fed97b"/>
      <g id="Grupo_7573" data-name="Grupo 7573" transform="translate(-188.158 1537.879)">
        <g id="Grupo_7535" data-name="Grupo 7535">
          <path id="Trazado_11646" data-name="Trazado 11646" d="M552.686,446.16c-11.48,0-30.371-2.822-34.5-7.922a4.169,4.169,0,0,1-.956-3.586c-.132-.7-3.857-3.937-18.568-5.609a67.614,67.614,0,0,0-7.433-.5c-5.4,0-6.006,1.061-6.543,2a5.8,5.8,0,0,1-2.069,2.307,10.247,10.247,0,0,1-5.264,1.1c-10.059,0-30.321-7.009-37.7-16.7a2.431,2.431,0,0,1-.38-2.211c.725-2.264,3.993-12.941,8.515-27.717,14.608-47.73,45.006-147.053,54.024-172.816,5.956-17.018,17.762-38.294,21.643-45.286.491-.884.839-1.508,1.008-1.826.321-1.531,1.908-10.626,2.878-16.258a2.424,2.424,0,0,1,1.014-1.586,2.46,2.46,0,0,1,1.449-.428c.451.005,5.87.01,28.76.01,32.88,0,82.142-.011,82.142-.011a2.428,2.428,0,0,1,2.376,1.924c1.464,6.9,3.189,14.6,3.623,15.909.065.1.164.246.292.44,6.276,9.467,18.21,29.769,27.6,59.381,7.549,23.8,31.962,98.541,48.115,147.995,7.066,21.636,12.173,37.267,13.133,40.269a2.427,2.427,0,0,1-.671,2.529c-8.718,7.993-23.356,11.633-33.267,11.633h0c-4.7,0-10.64-.812-12.414-4.662-.223-.146-1.28-.7-4.59-.7-10.02,0-24.241,4.457-26.135,6.891a5.791,5.791,0,0,1-1.475,4.414c-5.024,6.06-23.61,9.781-34.724,9.781-7.472,0-11.352-1.6-11.859-4.9-.363-2.361-5.492-3.769-13.72-3.769-3.457,0-6.672.234-8.8.391-.643.046-1.177.086-1.576.107a2.008,2.008,0,0,1-.269,0c-.429-.023-.95-.035-1.541-.035-8.311,0-14.257,1.908-14.542,3.172C569.309,444.109,563.56,446.16,552.686,446.16Z" fill="#161615"/>
        </g>
        <g id="Grupo_7538" data-name="Grupo 7538">
          <g id="Grupo_7536" data-name="Grupo 7536">
            <path id="Trazado_11647" data-name="Trazado 11647" d="M672.284,227.508c-12.138-38.272-23.345-53.551-28.5-59.754-36.344,2.088-81.294,3.122-116.237.155-5.2,6.342-16.209,26.732-23.443,47.4-11.766,33.618-59.412,190.776-62.517,200.471,8.267,10.852,34.454,18.182,39.784,14.983,2.584-1.547-.46-6.182,17.567-4.131,12.965,1.475,21.487,4.68,20.666,8.527-1.476,6.928,46.3,13,48.291,4.2,1.024-4.528,14.239-5.266,18.587-5.024,4.348-.242,25.415-2.562,26.629,5.328,1.06,6.885,44.929.215,43.213-8.873-1.032-5.467,32.9-13.052,35.342-7.338,2.671,6.244,29.47,3.7,41.869-7.668C730.434,406.084,683.21,261.964,672.284,227.508Z" fill="#fff" stroke="#161615" stroke-miterlimit="10" stroke-width="1.214"/>
            <path id="Trazado_11648" data-name="Trazado 11648" d="M482.92,428.445s.194-.99.562-2.847.909-4.58,1.544-8.057c1.275-6.951,3.1-16.881,5.282-28.8s4.77-25.812,7.522-40.7c2.828-14.879,5.847-30.748,8.864-46.619,3.117-15.85,6.254-31.7,9.316-46.532,1.5-7.424,3.035-14.581,4.5-21.365,1.436-6.793,2.9-13.191,4.222-19.1,1.285-5.92,2.672-11.3,3.808-16.092,1.152-4.786,2.323-8.919,3.2-12.341.427-1.715.9-3.222,1.3-4.534s.743-2.429,1.019-3.335c.555-1.81.849-2.775.849-2.775s-.277.971-.8,2.791c-.261.911-.581,2.032-.958,3.351s-.824,2.831-1.221,4.554c-.815,3.439-1.908,7.586-2.972,12.391-1.043,4.81-2.327,10.209-3.566,16.138-1.26,5.925-2.66,12.334-4.024,19.139s-2.835,13.973-4.34,21.393c-3.009,14.84-6.089,30.7-9.156,46.554-6.149,31.715-12.3,63.43-16.908,87.217-2.312,11.895-4.33,21.787-5.752,28.711-.7,3.465-1.289,6.178-1.691,8.027S482.92,428.445,482.92,428.445Z" fill="#161615"/>
            <path id="Trazado_11649" data-name="Trazado 11649" d="M519.862,433.881s1.493-13.717,3.732-34.293c1.166-10.283,2.527-22.277,3.985-35.131,1.5-12.848,3.1-26.553,4.7-40.258,1.692-13.693,3.382-27.388,4.968-40.226,1.631-12.834,3.153-24.811,4.457-35.077,2.705-20.523,4.509-34.2,4.509-34.2s-1.531,13.712-3.829,34.281c-1.2,10.278-2.6,22.27-4.092,35.117-1.533,12.844-3.172,26.545-4.808,40.244-1.654,13.7-3.309,27.4-4.861,40.24-1.592,12.838-3.079,24.819-4.354,35.09C521.626,420.193,519.862,433.881,519.862,433.881Z" fill="#161615"/>
            <path id="Trazado_11650" data-name="Trazado 11650" d="M691.665,423.447s-.785-3.906-2.157-10.744c-1.4-6.83-3.4-16.588-5.808-28.3-2.447-11.7-5.3-25.347-8.363-39.972-1.566-7.3-3.185-14.852-4.831-22.52-1.7-7.658-3.357-15.453-5.138-23.219-1.741-7.774-3.443-15.558-5.238-23.192-1.756-7.644-3.5-15.162-5.287-22.415q-1.312-5.445-2.577-10.694-1.316-5.229-2.57-10.216t-2.444-9.67q-1.257-4.665-2.423-9t-2.227-8.28c-.758-2.615-1.476-5.1-2.151-7.427-1.364-4.659-2.473-8.747-3.612-12.042-2.162-6.629-3.4-10.417-3.4-10.417s1.307,3.765,3.592,10.354c1.2,3.277,2.387,7.343,3.839,11.979q1.077,3.481,2.29,7.393,1.105,3.933,2.324,8.258t2.52,8.98q1.233,4.674,2.547,9.65t2.677,10.195q1.293,5.238,2.637,10.687c1.809,7.251,3.583,14.767,5.365,22.408,1.822,7.632,3.556,15.413,5.321,23.185s3.384,15.578,5.058,23.244c1.619,7.676,3.213,15.23,4.755,22.543,3.023,14.635,5.714,28.32,8,40.053s4.071,21.537,5.341,28.392C690.952,419.527,691.665,423.447,691.665,423.447Z" fill="#161615"/>
            <path id="Trazado_11651" data-name="Trazado 11651" d="M656.323,430.785s-2.285-14.51-5.713-36.275c-1.667-10.891-3.612-23.6-5.7-37.209-2.042-13.619-4.219-28.147-6.4-42.672-2.124-14.535-4.249-29.071-6.241-42.7-1.948-13.632-3.767-26.356-5.327-37.262-3.023-21.827-5.04-36.378-5.04-36.378s2.287,14.51,5.716,36.277c1.667,10.89,3.611,23.6,5.693,37.208,2.043,13.619,4.219,28.145,6.4,42.672,2.123,14.535,4.246,29.071,6.237,42.7,1.948,13.632,3.77,26.357,5.328,37.261C654.308,416.234,656.323,430.785,656.323,430.785Z" fill="#161615"/>
            <path id="Trazado_11652" data-name="Trazado 11652" d="M567.894,439.354s-.074-16.5-.184-41.252c-.029-6.188.023-12.891.077-19.983s.121-14.568.186-22.3c.161-15.473.334-31.977.505-48.479.27-16.5.538-33,.791-48.471.3-15.468.582-29.9.821-42.28.676-24.746,1.126-41.242,1.126-41.242s-.178,16.5-.444,41.254c-.131,12.376-.287,26.814-.452,42.283-.2,15.47-.416,31.97-.629,48.472s-.455,33-.668,48.463c-.18,15.468-.56,29.9-.632,42.281C568.094,422.852,567.894,439.354,567.894,439.354Z" fill="#161615"/>
            <path id="Trazado_11653" data-name="Trazado 11653" d="M613.11,439.658s-1.408-16.494-3.521-41.236c-.507-6.186-1.057-12.889-1.641-19.979-.531-7.091-1.011-14.578-1.51-22.322-1-15.49-2.058-32.012-3.122-48.535-.526-8.262-.946-16.528-1.413-24.662s-.9-16.142-1.332-23.889c-.83-15.5-1.6-29.961-2.266-42.359-1.252-24.8-2.087-41.333-2.087-41.333s1.107,16.517,2.769,41.293c.771,12.391,1.671,26.849,2.634,42.338.459,7.746.932,15.75,1.413,23.884s.993,16.394,1.493,24.654c1.008,16.521,2.016,33.043,2.959,48.531.465,7.744.915,15.232,1.342,22.33.511,7.1.993,13.8,1.441,19.994C611.975,423.141,613.11,439.658,613.11,439.658Z" fill="#161615"/>
          </g>
          <path id="Trazado_11654" data-name="Trazado 11654" d="M636.321,151.522c-30.9,6.536-76.326,5.443-101.4-.067Z" fill="#fff" stroke="#161615" stroke-miterlimit="10" stroke-width="1.214"/>
          <path id="Trazado_11655" data-name="Trazado 11655" d="M530.984,151.448l-.036.157c12.153,2.368,28.461,3.9,45.78,4.318C559.35,155.495,542.991,153.906,530.984,151.448Z" fill="#fff" stroke="#161615" stroke-miterlimit="10" stroke-width="1.214"/>
          <path id="Trazado_11656" data-name="Trazado 11656" d="M639.869,151.786l-.049-.207c-15.529,3.06-34.474,4.434-53,4.464C605.308,156.022,624.21,154.708,639.869,151.786Z" fill="#fff" stroke="#161615" stroke-miterlimit="10" stroke-width="1.214"/>
          <path id="Trazado_11657" data-name="Trazado 11657" d="M586.822,156.043c-3.387,0-6.759-.039-10.094-.12C580.063,156.005,583.435,156.048,586.822,156.043Z" fill="#fff" stroke="#161615" stroke-linecap="round" stroke-linejoin="round" stroke-width="1.214"/>
          <path id="Trazado_11658" data-name="Trazado 11658" d="M644.542,168.057c-.443-.532-3.834-16.509-3.834-16.509-15.659,2.922-35.4,4.474-53.886,4.495-3.387.005-6.759-.038-10.094-.12-17.319-.419-34.841-1.95-46.994-4.318,0,0-2.84,16.447-2.973,16.609C567.243,174.8,607.135,175.436,644.542,168.057Z" fill="#fff" stroke="#161615" stroke-linecap="round" stroke-linejoin="round" stroke-width="1.214"/>
          <g id="Grupo_7537" data-name="Grupo 7537">
            <path id="Trazado_11659" data-name="Trazado 11659" d="M587.2,171.4c-.816,0-1.624,0-2.432-.009a.455.455,0,0,1,0-.91h0q1.207.009,2.413.009a.459.459,0,0,1,.46.455A.45.45,0,0,1,587.2,171.4Zm2.429-.009a.456.456,0,0,1,0-.911q1.215-.009,2.425-.028a.464.464,0,0,1,.462.448.457.457,0,0,1-.449.463c-.807.012-1.619.021-2.43.028Zm-7.285-.027h-.007q-1.214-.018-2.431-.045a.456.456,0,0,1-.445-.465.428.428,0,0,1,.465-.446c.809.018,1.619.033,2.424.046a.455.455,0,0,1-.006.91Zm12.141-.048a.455.455,0,0,1-.01-.91q1.212-.027,2.424-.065a.467.467,0,0,1,.469.441.455.455,0,0,1-.44.47q-1.215.036-2.432.064Zm-17-.06h-.014q-1.215-.036-2.43-.081a.455.455,0,1,1,.033-.909c.809.029,1.615.056,2.423.08a.455.455,0,0,1-.012.91Zm21.852-.089a.455.455,0,0,1-.018-.91q1.213-.048,2.422-.1a.455.455,0,1,1,.042.909q-1.212.057-2.429.1Zm-26.706-.089h-.02c-.808-.036-1.62-.074-2.431-.115a.455.455,0,0,1-.431-.478.448.448,0,0,1,.478-.431q1.212.062,2.424.114a.455.455,0,0,1-.02.91Zm31.556-.138a.455.455,0,0,1-.023-.91q1.209-.066,2.42-.142a.458.458,0,0,1,.481.426.452.452,0,0,1-.424.482q-1.213.078-2.427.143Zm-36.408-.107h-.026q-1.213-.07-2.428-.148a.456.456,0,0,1-.425-.484.469.469,0,0,1,.483-.425c.807.052,1.616.1,2.422.148a.455.455,0,0,1-.026.91Zm41.255-.2a.455.455,0,0,1-.031-.909q1.208-.086,2.418-.182a.466.466,0,0,1,.489.417.457.457,0,0,1-.418.491q-1.211.1-2.425.182Zm-46.1-.113-.033,0q-1.209-.085-2.425-.18a.455.455,0,0,1-.418-.489.461.461,0,0,1,.49-.419q1.209.095,2.419.18a.456.456,0,0,1-.033.91Zm50.945-.271a.455.455,0,0,1-.038-.909c.8-.071,1.609-.145,2.413-.222a.455.455,0,0,1,.088.9q-1.209.118-2.423.224Zm-55.787-.106a.243.243,0,0,1-.039,0q-1.212-.1-2.424-.212a.454.454,0,0,1-.411-.5.448.448,0,0,1,.494-.412q1.209.111,2.417.212a.455.455,0,0,1-.037.909Zm60.621-.361a.455.455,0,0,1-.047-.908q1.206-.126,2.41-.263a.455.455,0,0,1,.1.9q-1.207.138-2.417.265A.377.377,0,0,1,618.715,169.785Zm-65.46-.079a.338.338,0,0,1-.045,0c-.807-.078-1.612-.159-2.42-.243a.455.455,0,0,1,.094-.906q1.208.126,2.413.243a.455.455,0,0,1-.042.908Zm70.284-.469a.455.455,0,0,1-.055-.907q1.206-.147,2.406-.305a.455.455,0,0,1,.118.9c-.8.105-1.609.207-2.412.305A.365.365,0,0,1,623.539,169.237Zm-75.116-.032a.449.449,0,0,1-.051,0q-1.207-.132-2.417-.273a.455.455,0,0,1,.106-.9q1.206.14,2.411.272a.455.455,0,0,1-.049.908Zm-4.827-.56a.362.362,0,0,1-.056,0q-1.2-.146-2.413-.3a.455.455,0,1,1,.116-.9c.8.1,1.607.2,2.407.3a.455.455,0,0,1-.054.907Zm84.758-.039a.456.456,0,0,1-.062-.907q1.2-.167,2.4-.346a.456.456,0,1,1,.135.9q-1.2.179-2.406.348A.461.461,0,0,1,628.354,168.606Zm-89.578-.579a.415.415,0,0,1-.061,0q-1.2-.16-2.409-.33a.455.455,0,1,1,.126-.9q1.2.168,2.4.33a.455.455,0,0,1-.059.906Zm94.38-.137a.455.455,0,0,1-.07-.9q1.2-.189,2.392-.389a.455.455,0,1,1,.15.9q-1.2.2-2.4.391A.594.594,0,0,1,633.156,167.89Zm-99.191-.536a.5.5,0,0,1-.067-.005c-.8-.116-1.6-.236-2.405-.358a.454.454,0,0,1-.382-.518.448.448,0,0,1,.517-.382q1.2.182,2.4.357a.455.455,0,0,1-.065.906Zm103.98-.265a.455.455,0,0,1-.078-.9q1.192-.21,2.384-.431a.455.455,0,1,1,.166.895q-1.2.222-2.393.433A.5.5,0,0,1,637.945,167.089Zm-108.785-.463a.426.426,0,0,1-.071-.006q-1.2-.187-2.4-.384a.454.454,0,0,1-.376-.523.461.461,0,0,1,.523-.376q1.2.2,2.4.383a.456.456,0,0,1-.07.906Zm113.559-.422a.455.455,0,0,1-.088-.9l.609-.119a.456.456,0,0,1,.176.894l-.609.119A.533.533,0,0,1,642.719,166.2Z" fill="#161615"/>
          </g>
        </g>
        <g id="Grupo_7539" data-name="Grupo 7539">
          <path id="Trazado_11660" data-name="Trazado 11660" d="M586.451,435.291a.739.739,0,0,1-.737-.738v-278.5a.737.737,0,1,1,1.474,0v278.5A.739.739,0,0,1,586.451,435.291Z" fill="#161615"/>
        </g>
        <g id="Grupo_7572" data-name="Grupo 7572">
          <g id="Grupo_7570" data-name="Grupo 7570">
            <g id="Grupo_7569" data-name="Grupo 7569">
              <rect id="Rectángulo_1847" data-name="Rectángulo 1847" width="4.449" height="99.534" transform="translate(584.228 156.501)" fill="#fff"/>
              <g id="Grupo_7568" data-name="Grupo 7568" clip-path="url(#clip-path)">
                <g id="Grupo_7567" data-name="Grupo 7567">
                  <g id="Grupo_7540" data-name="Grupo 7540">
                    <rect id="Rectángulo_1848" data-name="Rectángulo 1848" width="7.461" height="3.368" transform="translate(582.628 250.959)" fill="none"/>
                    <rect id="Rectángulo_1849" data-name="Rectángulo 1849" width="4.839" height="1.553" transform="translate(585.25 252.774)" fill="#464545"/>
                    <rect id="Rectángulo_1850" data-name="Rectángulo 1850" width="4.838" height="1.554" transform="translate(582.628 250.959)" fill="#464545"/>
                  </g>
                  <g id="Grupo_7541" data-name="Grupo 7541">
                    <rect id="Rectángulo_1851" data-name="Rectángulo 1851" width="7.461" height="3.369" transform="translate(582.628 247.292)" fill="none"/>
                    <rect id="Rectángulo_1852" data-name="Rectángulo 1852" width="4.839" height="1.554" transform="translate(585.25 249.107)" fill="#464545"/>
                    <rect id="Rectángulo_1853" data-name="Rectángulo 1853" width="4.838" height="1.554" transform="translate(582.628 247.292)" fill="#464545"/>
                  </g>
                  <g id="Grupo_7542" data-name="Grupo 7542">
                    <rect id="Rectángulo_1854" data-name="Rectángulo 1854" width="7.461" height="3.368" transform="translate(582.628 243.627)" fill="none"/>
                    <rect id="Rectángulo_1855" data-name="Rectángulo 1855" width="4.839" height="1.553" transform="translate(585.25 245.442)" fill="#464545"/>
                    <rect id="Rectángulo_1856" data-name="Rectángulo 1856" width="4.838" height="1.553" transform="translate(582.628 243.627)" fill="#464545"/>
                  </g>
                  <g id="Grupo_7543" data-name="Grupo 7543">
                    <rect id="Rectángulo_1857" data-name="Rectángulo 1857" width="7.461" height="3.368" transform="translate(582.628 239.961)" fill="none"/>
                    <rect id="Rectángulo_1858" data-name="Rectángulo 1858" width="4.839" height="1.553" transform="translate(585.25 241.775)" fill="#464545"/>
                    <rect id="Rectángulo_1859" data-name="Rectángulo 1859" width="4.838" height="1.554" transform="translate(582.628 239.961)" fill="#464545"/>
                  </g>
                  <g id="Grupo_7544" data-name="Grupo 7544">
                    <rect id="Rectángulo_1860" data-name="Rectángulo 1860" width="7.461" height="3.368" transform="translate(582.628 236.295)" fill="none"/>
                    <rect id="Rectángulo_1861" data-name="Rectángulo 1861" width="4.839" height="1.554" transform="translate(585.25 238.11)" fill="#464545"/>
                    <rect id="Rectángulo_1862" data-name="Rectángulo 1862" width="4.838" height="1.553" transform="translate(582.628 236.295)" fill="#464545"/>
                  </g>
                  <g id="Grupo_7545" data-name="Grupo 7545">
                    <rect id="Rectángulo_1863" data-name="Rectángulo 1863" width="7.461" height="3.368" transform="translate(582.628 232.629)" fill="none"/>
                    <rect id="Rectángulo_1864" data-name="Rectángulo 1864" width="4.839" height="1.553" transform="translate(585.25 234.444)" fill="#464545"/>
                    <rect id="Rectángulo_1865" data-name="Rectángulo 1865" width="4.838" height="1.553" transform="translate(582.628 232.629)" fill="#464545"/>
                  </g>
                  <g id="Grupo_7546" data-name="Grupo 7546">
                    <rect id="Rectángulo_1866" data-name="Rectángulo 1866" width="7.461" height="3.368" transform="translate(582.628 228.962)" fill="none"/>
                    <rect id="Rectángulo_1867" data-name="Rectángulo 1867" width="4.839" height="1.553" transform="translate(585.25 230.777)" fill="#464545"/>
                    <rect id="Rectángulo_1868" data-name="Rectángulo 1868" width="4.838" height="1.553" transform="translate(582.628 228.962)" fill="#464545"/>
                  </g>
                  <g id="Grupo_7547" data-name="Grupo 7547">
                    <rect id="Rectángulo_1869" data-name="Rectángulo 1869" width="7.461" height="3.368" transform="translate(582.628 225.297)" fill="none"/>
                    <rect id="Rectángulo_1870" data-name="Rectángulo 1870" width="4.839" height="1.554" transform="translate(585.25 227.112)" fill="#464545"/>
                    <rect id="Rectángulo_1871" data-name="Rectángulo 1871" width="4.838" height="1.553" transform="translate(582.628 225.297)" fill="#464545"/>
                  </g>
                  <g id="Grupo_7548" data-name="Grupo 7548">
                    <rect id="Rectángulo_1872" data-name="Rectángulo 1872" width="7.461" height="3.368" transform="translate(582.628 221.631)" fill="none"/>
                    <rect id="Rectángulo_1873" data-name="Rectángulo 1873" width="4.839" height="1.554" transform="translate(585.25 223.445)" fill="#464545"/>
                    <rect id="Rectángulo_1874" data-name="Rectángulo 1874" width="4.838" height="1.553" transform="translate(582.628 221.631)" fill="#464545"/>
                  </g>
                  <g id="Grupo_7549" data-name="Grupo 7549">
                    <rect id="Rectángulo_1875" data-name="Rectángulo 1875" width="7.461" height="3.368" transform="translate(582.628 217.965)" fill="none"/>
                    <rect id="Rectángulo_1876" data-name="Rectángulo 1876" width="4.839" height="1.553" transform="translate(585.25 219.78)" fill="#464545"/>
                    <rect id="Rectángulo_1877" data-name="Rectángulo 1877" width="4.838" height="1.554" transform="translate(582.628 217.965)" fill="#464545"/>
                  </g>
                  <g id="Grupo_7550" data-name="Grupo 7550">
                    <rect id="Rectángulo_1878" data-name="Rectángulo 1878" width="7.461" height="3.369" transform="translate(582.628 214.299)" fill="none"/>
                    <rect id="Rectángulo_1879" data-name="Rectángulo 1879" width="4.839" height="1.554" transform="translate(585.25 216.114)" fill="#464545"/>
                    <rect id="Rectángulo_1880" data-name="Rectángulo 1880" width="4.838" height="1.554" transform="translate(582.628 214.299)" fill="#464545"/>
                  </g>
                  <g id="Grupo_7551" data-name="Grupo 7551">
                    <rect id="Rectángulo_1881" data-name="Rectángulo 1881" width="7.461" height="3.368" transform="translate(582.628 210.634)" fill="none"/>
                    <rect id="Rectángulo_1882" data-name="Rectángulo 1882" width="4.839" height="1.553" transform="translate(585.25 212.449)" fill="#464545"/>
                    <rect id="Rectángulo_1883" data-name="Rectángulo 1883" width="4.838" height="1.553" transform="translate(582.628 210.634)" fill="#464545"/>
                  </g>
                  <g id="Grupo_7552" data-name="Grupo 7552">
                    <rect id="Rectángulo_1884" data-name="Rectángulo 1884" width="7.461" height="3.368" transform="translate(582.628 206.967)" fill="none"/>
                    <rect id="Rectángulo_1885" data-name="Rectángulo 1885" width="4.839" height="1.553" transform="translate(585.25 208.782)" fill="#464545"/>
                    <rect id="Rectángulo_1886" data-name="Rectángulo 1886" width="4.838" height="1.554" transform="translate(582.628 206.967)" fill="#464545"/>
                  </g>
                  <g id="Grupo_7553" data-name="Grupo 7553">
                    <rect id="Rectángulo_1887" data-name="Rectángulo 1887" width="7.461" height="3.369" transform="translate(582.628 203.301)" fill="none"/>
                    <rect id="Rectángulo_1888" data-name="Rectángulo 1888" width="4.839" height="1.554" transform="translate(585.25 205.116)" fill="#464545"/>
                    <rect id="Rectángulo_1889" data-name="Rectángulo 1889" width="4.838" height="1.554" transform="translate(582.628 203.301)" fill="#464545"/>
                  </g>
                  <g id="Grupo_7554" data-name="Grupo 7554">
                    <rect id="Rectángulo_1890" data-name="Rectángulo 1890" width="7.461" height="3.368" transform="translate(582.628 199.636)" fill="none"/>
                    <rect id="Rectángulo_1891" data-name="Rectángulo 1891" width="4.839" height="1.553" transform="translate(585.25 201.451)" fill="#464545"/>
                    <rect id="Rectángulo_1892" data-name="Rectángulo 1892" width="4.838" height="1.553" transform="translate(582.628 199.636)" fill="#464545"/>
                  </g>
                  <g id="Grupo_7555" data-name="Grupo 7555">
                    <rect id="Rectángulo_1893" data-name="Rectángulo 1893" width="7.461" height="3.368" transform="translate(582.628 195.969)" fill="none"/>
                    <rect id="Rectángulo_1894" data-name="Rectángulo 1894" width="4.839" height="1.553" transform="translate(585.25 197.784)" fill="#464545"/>
                    <rect id="Rectángulo_1895" data-name="Rectángulo 1895" width="4.838" height="1.554" transform="translate(582.628 195.969)" fill="#464545"/>
                  </g>
                  <g id="Grupo_7556" data-name="Grupo 7556">
                    <rect id="Rectángulo_1896" data-name="Rectángulo 1896" width="7.461" height="3.368" transform="translate(582.628 192.304)" fill="none"/>
                    <rect id="Rectángulo_1897" data-name="Rectángulo 1897" width="4.839" height="1.554" transform="translate(585.25 194.119)" fill="#464545"/>
                    <rect id="Rectángulo_1898" data-name="Rectángulo 1898" width="4.838" height="1.553" transform="translate(582.628 192.304)" fill="#464545"/>
                  </g>
                  <g id="Grupo_7557" data-name="Grupo 7557">
                    <rect id="Rectángulo_1899" data-name="Rectángulo 1899" width="7.461" height="3.368" transform="translate(582.628 188.638)" fill="none"/>
                    <rect id="Rectángulo_1900" data-name="Rectángulo 1900" width="4.839" height="1.553" transform="translate(585.25 190.453)" fill="#464545"/>
                    <rect id="Rectángulo_1901" data-name="Rectángulo 1901" width="4.838" height="1.553" transform="translate(582.628 188.638)" fill="#464545"/>
                  </g>
                  <g id="Grupo_7558" data-name="Grupo 7558">
                    <rect id="Rectángulo_1902" data-name="Rectángulo 1902" width="7.461" height="3.369" transform="translate(582.628 184.972)" fill="none"/>
                    <rect id="Rectángulo_1903" data-name="Rectángulo 1903" width="4.839" height="1.554" transform="translate(585.25 186.787)" fill="#464545"/>
                    <rect id="Rectángulo_1904" data-name="Rectángulo 1904" width="4.838" height="1.554" transform="translate(582.628 184.972)" fill="#464545"/>
                  </g>
                  <g id="Grupo_7559" data-name="Grupo 7559">
                    <rect id="Rectángulo_1905" data-name="Rectángulo 1905" width="7.461" height="3.368" transform="translate(582.628 181.306)" fill="none"/>
                    <rect id="Rectángulo_1906" data-name="Rectángulo 1906" width="4.839" height="1.554" transform="translate(585.25 183.121)" fill="#464545"/>
                    <rect id="Rectángulo_1907" data-name="Rectángulo 1907" width="4.838" height="1.553" transform="translate(582.628 181.306)" fill="#464545"/>
                  </g>
                  <g id="Grupo_7560" data-name="Grupo 7560">
                    <rect id="Rectángulo_1908" data-name="Rectángulo 1908" width="7.461" height="3.368" transform="translate(582.628 177.64)" fill="none"/>
                    <rect id="Rectángulo_1909" data-name="Rectángulo 1909" width="4.839" height="1.554" transform="translate(585.25 179.454)" fill="#464545"/>
                    <rect id="Rectángulo_1910" data-name="Rectángulo 1910" width="4.838" height="1.553" transform="translate(582.628 177.64)" fill="#464545"/>
                  </g>
                  <g id="Grupo_7561" data-name="Grupo 7561">
                    <rect id="Rectángulo_1911" data-name="Rectángulo 1911" width="7.461" height="3.368" transform="translate(582.628 173.974)" fill="none"/>
                    <rect id="Rectángulo_1912" data-name="Rectángulo 1912" width="4.839" height="1.553" transform="translate(585.25 175.789)" fill="#464545"/>
                    <rect id="Rectángulo_1913" data-name="Rectángulo 1913" width="4.838" height="1.554" transform="translate(582.628 173.974)" fill="#464545"/>
                  </g>
                  <g id="Grupo_7562" data-name="Grupo 7562">
                    <rect id="Rectángulo_1914" data-name="Rectángulo 1914" width="7.461" height="3.369" transform="translate(582.628 170.308)" fill="none"/>
                    <rect id="Rectángulo_1915" data-name="Rectángulo 1915" width="4.839" height="1.554" transform="translate(585.25 172.123)" fill="#464545"/>
                    <rect id="Rectángulo_1916" data-name="Rectángulo 1916" width="4.838" height="1.554" transform="translate(582.628 170.308)" fill="#464545"/>
                  </g>
                  <g id="Grupo_7563" data-name="Grupo 7563">
                    <rect id="Rectángulo_1917" data-name="Rectángulo 1917" width="7.461" height="3.368" transform="translate(582.628 166.643)" fill="none"/>
                    <rect id="Rectángulo_1918" data-name="Rectángulo 1918" width="4.839" height="1.553" transform="translate(585.25 168.458)" fill="#464545"/>
                    <rect id="Rectángulo_1919" data-name="Rectángulo 1919" width="4.838" height="1.553" transform="translate(582.628 166.643)" fill="#464545"/>
                  </g>
                  <g id="Grupo_7564" data-name="Grupo 7564">
                    <rect id="Rectángulo_1920" data-name="Rectángulo 1920" width="7.461" height="3.368" transform="translate(582.628 162.976)" fill="none"/>
                    <rect id="Rectángulo_1921" data-name="Rectángulo 1921" width="4.839" height="1.553" transform="translate(585.25 164.791)" fill="#464545"/>
                    <rect id="Rectángulo_1922" data-name="Rectángulo 1922" width="4.838" height="1.554" transform="translate(582.628 162.976)" fill="#464545"/>
                  </g>
                  <g id="Grupo_7565" data-name="Grupo 7565">
                    <rect id="Rectángulo_1923" data-name="Rectángulo 1923" width="7.461" height="3.368" transform="translate(582.628 159.311)" fill="none"/>
                    <rect id="Rectángulo_1924" data-name="Rectángulo 1924" width="4.839" height="1.554" transform="translate(585.25 161.126)" fill="#464545"/>
                    <rect id="Rectángulo_1925" data-name="Rectángulo 1925" width="4.838" height="1.553" transform="translate(582.628 159.311)" fill="#464545"/>
                  </g>
                  <g id="Grupo_7566" data-name="Grupo 7566">
                    <rect id="Rectángulo_1926" data-name="Rectángulo 1926" width="7.461" height="3.368" transform="translate(582.628 155.645)" fill="none"/>
                    <rect id="Rectángulo_1927" data-name="Rectángulo 1927" width="4.839" height="1.553" transform="translate(585.25 157.46)" fill="#464545"/>
                    <rect id="Rectángulo_1928" data-name="Rectángulo 1928" width="4.838" height="1.553" transform="translate(582.628 155.645)" fill="#464545"/>
                  </g>
                </g>
              </g>
              <rect id="Rectángulo_1930" data-name="Rectángulo 1930" width="4.449" height="99.534" transform="translate(584.228 156.501)" fill="none" stroke="#161615" stroke-miterlimit="10" stroke-width="1.043"/>
            </g>
          </g>
          <g id="Grupo_7571" data-name="Grupo 7571">
            <path id="Trazado_11661" data-name="Trazado 11661" d="M588.9,158.242a2.545,2.545,0,0,0-4.865-.032c-.842,1.876-.683,1.733-.685,2.282s.763,1.541.734,1.975-.039,2.232-.039,2.232l2.381.043,2.384-.013s.007-1.8-.013-2.231.76-1.412.762-1.964S589.716,160.129,588.9,158.242Z" fill="#fff" stroke="#161615" stroke-width="0.594"/>
            <path id="Trazado_11662" data-name="Trazado 11662" d="M588.356,164.614a1.965,1.965,0,1,1-1.847-2.477A2.218,2.218,0,0,1,588.356,164.614Zm-1.952,1.914c.793.017,1.458-.845,1.482-1.924s-.606-1.969-1.394-1.987-1.456.845-1.479,1.922.6,1.971,1.391,1.989Z" fill="#fff" stroke="#161615" stroke-width="0.594"/>
            <rect id="Rectángulo_1931" data-name="Rectángulo 1931" width="7.996" height="2.066" transform="translate(585.393 164.591) rotate(-89.637)" fill="#fff" stroke="#161615" stroke-width="0.594"/>
            <rect id="Rectángulo_1932" data-name="Rectángulo 1932" width="17.604" height="3.307" transform="translate(584.777 184.586) rotate(-89.873)" fill="#fff" stroke="#161615" stroke-width="0.594"/>
          </g>
        </g>
      </g>
      <g id="Grupo_7534" data-name="Grupo 7534" transform="translate(154 1663.255)">
        <path id="Trazado_11632" data-name="Trazado 11632" d="M251.138,302.782c20.974-29.7,27.576-96.549,27.576-96.549s-66.222,10.023-94.85,32.439S87.4,336.947,87.4,336.947s2.445,38.7,16.718,52.841l-.046.047c14.769,13.628,53.687,14.154,53.687,14.154S230.166,332.485,251.138,302.782Z" transform="translate(-48.143 -197.804)" fill="#777" opacity="0.2"/>
        <path id="Trazado_11633" data-name="Trazado 11633" d="M237.734,284.017c20.974-29.7,27.575-96.55,27.575-96.55s-66.222,10.023-94.85,32.439-96.466,98.275-96.466,98.275,2.445,38.7,16.718,52.841l-.046.047c14.769,13.628,53.687,14.154,53.687,14.154S216.761,313.719,237.734,284.017Z" transform="translate(-40.759 -187.467)" fill="#fff"/>
        <g id="Grupo_7531" data-name="Grupo 7531" transform="translate(62.162 42.608)" opacity="0.7">
          <path id="Trazado_11634" data-name="Trazado 11634" d="M175.742,310.689c-5.03,4.571-41.788,45.525-36.9,54.883s14.988,16.368,14.988,16.368l87.755-91.088S229.41,261.919,175.742,310.689Z" transform="translate(-138.399 -282.332)" fill="#a265ea" opacity="0.7"/>
          <path id="Trazado_11635" data-name="Trazado 11635" d="M270.225,390.607c-4.316,5.249-43.4,43.988-52.99,39.565s-17.09-14.162-17.09-14.162l86.637-92.152S316.282,334.591,270.225,390.607Z" transform="translate(-172.412 -305.206)" fill="#a265ea" opacity="0.7"/>
        </g>
        <g id="Grupo_7532" data-name="Grupo 7532" transform="translate(82.271 87.752)">
          <path id="Trazado_11636" data-name="Trazado 11636" d="M236.869,435.225a27.265,27.265,0,1,1-1.312-38.535A27.264,27.264,0,0,1,236.869,435.225Z" transform="translate(-186.756 -386.426)" fill="#00a99a"/>
          <path id="Trazado_11637" data-name="Trazado 11637" d="M192.744,435.1a30.2,30.2,0,1,1,42.686-1.456A30.238,30.238,0,0,1,192.744,435.1Zm37.222-39.849a24.327,24.327,0,1,0,1.171,34.382A24.355,24.355,0,0,0,229.966,395.252Z" transform="translate(-183.171 -382.841)" fill="#fff"/>
        </g>
        <path id="Trazado_11638" data-name="Trazado 11638" d="M0,601.485c26.244-4.771,51.113-29.517,51.454-29.862l5.7,5.651a147.374,147.374,0,0,1-30.07,22.449c-9.493,5.26-18.571,8.561-27.085,9.894Z" transform="translate(0 -399.08)" fill="#fff"/>
        <path id="Trazado_11639" data-name="Trazado 11639" d="M190.588,341.722c17.961-18.432,42.3-28.029,55.138-41.136,12.325-12.586,16.48-58.934,16.791-62.594l.15-.161-.139.02c.006-.062.01-.116.01-.116l-.124.134c-3.632.559-49.592,7.861-61.308,21.012-12.2,13.7-20.119,38.638-37.285,57.812s-38.7,40.69-52.871,44.585c-.459,13.9,23.984,37.727,38.758,36.227C152.627,383.1,172.625,360.154,190.588,341.722Z" transform="translate(-61.114 -215.157)" fill="#9878c1"/>
        <g id="Grupo_7533" data-name="Grupo 7533" transform="translate(147.28 56.87)">
          <path id="Trazado_11640" data-name="Trazado 11640" d="M338.661,336.124a4.925,4.925,0,0,1-6.961.237h0a4.924,4.924,0,0,1-.237-6.96l10.759-11.518a4.923,4.923,0,0,1,6.96-.238h0a4.926,4.926,0,0,1,.238,6.962Z" transform="translate(-329.137 -315.315)" fill="#b2b1af"/>
          <path id="Trazado_11641" data-name="Trazado 11641" d="M333.835,337.46a5.929,5.929,0,0,1-4.332-9.975l10.758-11.518a5.926,5.926,0,0,1,8.378-.286,5.928,5.928,0,0,1,.287,8.38l-10.759,11.518A5.948,5.948,0,0,1,333.835,337.46Zm10.76-21.369a3.884,3.884,0,0,0-2.867,1.245L330.97,328.855a3.921,3.921,0,0,0,2.866,6.6,3.883,3.883,0,0,0,2.866-1.244l10.758-11.518a3.923,3.923,0,0,0-2.864-6.6Z" transform="translate(-327.91 -314.085)" fill="#fff"/>
        </g>
        <path id="Trazado_11642" data-name="Trazado 11642" d="M304.754,380.715a8.47,8.47,0,0,1-11.972.406l-8.925-8.335a8.471,8.471,0,0,1-.408-11.973h0a8.472,8.472,0,0,1,11.974-.409l8.924,8.337a8.472,8.472,0,0,1,.407,11.974Z" transform="translate(-154.882 -281.474)" fill="#a265ea"/>
        <path id="Trazado_11643" data-name="Trazado 11643" d="M308.484,392.052a6.564,6.564,0,0,1-9.278.316l-6.915-6.459,15.875-3.134a6.564,6.564,0,0,1,.317,9.277Z" transform="translate(-161.01 -295.053)" fill="#efefef" opacity="0.3"/>
        <path id="Trazado_11644" data-name="Trazado 11644" d="M425.686,257.507a4.531,4.531,0,1,1-.218-6.4A4.532,4.532,0,0,1,425.686,257.507Z" transform="translate(-230.171 -221.849)" fill="#b2b1af"/>
        <path id="Trazado_11645" data-name="Trazado 11645" d="M426.394,257.474a4.527,4.527,0,0,1-6.579-5.821,4.578,4.578,0,0,0-.751.643,4.531,4.531,0,1,0,7.33,5.177Z" transform="translate(-230.171 -222.824)" fill="#969595"/>
      </g>
    </g>
  </g>
</svg>
