<svg xmlns="http://www.w3.org/2000/svg" width="410" height="361.481" viewBox="0 0 410 361.481">
  <g id="Grupo_3092" data-name="Grupo 3092" transform="translate(-5.215 -10.245)">
    <path id="Trazado_10766" data-name="Trazado 10766" d="M411.886,199.526c-7.095-19.778-18.265-25.8-28.89-38.482-12.977-15.494-21.73-26.757-18.361-46.686C370.141,81.794,372.5.578,286.287,11.194c-30.9,3.8-55.318,27.484-73.083,51.122C198.089,82.429,170.9,84.2,149.014,88.891c-26.891,5.761-54.282,14.464-79.161,27.216C18.613,142.369,3.309,180.122,5.4,228.426c.631,14.594,2.7,37.582,27.349,64.48,33.274,36.305,81.625,41.166,139.819,24.494,13.321-3.817,25.913-9.8,39.016-14.31a184.187,184.187,0,0,1,42.107-9.143c33.425-3.232,68.071,2.614,100.135-7.365a105.661,105.661,0,0,0,44.785-27.776C413.926,242.765,419.374,220.4,411.886,199.526Z" transform="translate(0 0)" fill="#69cfc5" opacity="0.46"/>
    <g id="Grupo_3092-2" data-name="Grupo 3092" transform="translate(175.573 166.967)">
      <path id="Trazado_10767" data-name="Trazado 10767" d="M170.181,271.577a21.86,21.86,0,0,1-.624-7.528c.672-5.935,5.042-9.3,7.806-14.4,2.235-4.125,3.234-8.647,4.107-13.058.473-2.389,1.547-4.736,2.131-7.106a.946.946,0,0,1,.725.739c1.354,6.951,2.319,14.475-.477,21.462-1.381,3.451-3.614,6.625-5.357,9.942a31.937,31.937,0,0,0-3.613,13.81c-.043,1.007-1.7.924-1.729-.044a32.323,32.323,0,0,1,.772-7.95c-.384.941-.747,1.888-1.143,2.827A2.285,2.285,0,0,1,170.181,271.577Z" transform="translate(-144.952 -126.09)" fill="#b5d61d"/>
      <path id="Trazado_10768" data-name="Trazado 10768" d="M161.55,173.874a473.3,473.3,0,0,1,11.424,59.373.952.952,0,0,0,1.878.015,80.494,80.494,0,0,0-10.059-56.125c-.476-1.247-.956-2.493-1.453-3.733C162.96,172.457,161.278,172.822,161.55,173.874Z" transform="translate(-146.43 -136.649)" fill="#94c024"/>
      <path id="Trazado_10769" data-name="Trazado 10769" d="M154.964,312.161c2.107-5,6.676-8.624,9.064-13.534a55.967,55.967,0,0,0,4.672-17.213c1.818-13.626,2.266-27.553,2.945-41.273q2-40.406,2.423-80.828-.664-7.425-1.368-14.839a1.55,1.55,0,0,1,1.557-1.724c.335-.586,1.375-.581,1.391.24,0,.129,0,.26.006.389a1.6,1.6,0,0,1,.285.777c2.763,27.984,5.695,55.911,5.664,84.072q-.014,12.728-.885,25.4,0,2.993-.008,5.983c-.011,10.684-1.452,22.487.761,33,.927,4.4,3.031,8.21,4.288,12.045a14.342,14.342,0,0,1,1.476,11.395c-2.4,7.933-10.576,11.062-18.175,10.421a1.636,1.636,0,0,1-.944-.378,28.162,28.162,0,0,1-3.7-.133,1.749,1.749,0,0,1-1.348-.879C157.017,323.874,152.088,318.983,154.964,312.161Z" transform="translate(-147.81 -142.339)" fill="#80af1b"/>
      <path id="Trazado_10770" data-name="Trazado 10770" d="M162.708,217.611c.841,3.636,1.674,7.3,2.45,10.971a1.782,1.782,0,0,0,.059.4c.037.14.075.28.113.42,2.965,14.248,4.942,28.748,2.59,43.221a1.1,1.1,0,0,0,2.172.375,130.839,130.839,0,0,0,3.125-24.08,1.344,1.344,0,0,0,.089-.628c-.02-.193-.052-.388-.074-.583.128-13.058-2.636-25.83-11.047-36.772-.783-1.018-2.664-.116-2.051,1.113Q161.5,214.779,162.708,217.611Z" transform="translate(-146.711 -129.631)" fill="#80af1b"/>
      <path id="Trazado_10771" data-name="Trazado 10771" d="M170.175,312.31c-1.412-2.1-3.17-4.047-3.581-6.677-.419-2.679.777-5.236,1.345-7.791.593-2.673.873-5.292-.617-7.659-.235-.373-.847-.044-.751.368,1.1,4.695-1.019,8.807-.959,13.482.045,3.4,1.832,6.336,4.02,8.749C169.947,313.127,170.431,312.692,170.175,312.31Z" transform="translate(-145.667 -114.804)" fill="#9a9a9a"/>
      <path id="Trazado_10772" data-name="Trazado 10772" d="M165.767,290.089a.385.385,0,0,0-.757.146c.466,4.513-3.114,7.759-5.454,11.065a14.422,14.422,0,0,0-2.6,7.266.333.333,0,0,0,.664.057c.546-4.822,3.294-7.246,6.1-10.767A8.73,8.73,0,0,0,165.767,290.089Z" transform="translate(-147.281 -114.85)" fill="#9a9a9a"/>
      <path id="Trazado_10773" data-name="Trazado 10773" d="M184.571,308.681A14.783,14.783,0,0,1,180.1,301.6c-.515-1.911-.483-3.89-.82-5.829a14.1,14.1,0,0,0-4.507-8.049c-.364-.337-.936.3-.586.66a14.277,14.277,0,0,1,3.817,6.607c.5,2.081.388,4.256.936,6.33a16.447,16.447,0,0,0,5.109,8.115C184.488,309.828,185,309.069,184.571,308.681Z" transform="translate(-144.089 -115.25)" fill="#9a9a9a"/>
      <path id="Trazado_10774" data-name="Trazado 10774" d="M187.766,298.487a11.561,11.561,0,0,0-2.884-3.164c-2.117-1.548-5.049-2.131-5.854-5.074-.136-.5-.979-.562-.965.051.063,2.7,1.878,3.966,4.091,5.044,4.608,2.246,7,5.669,6.668,11.072a.353.353,0,0,0,.7.062A11.414,11.414,0,0,0,187.766,298.487Z" transform="translate(-143.346 -114.834)" fill="#9a9a9a"/>
      <path id="Trazado_10775" data-name="Trazado 10775" d="M174.255,307.28c-1.754-3.226-1.994-5.682-1.447-9.352a8.614,8.614,0,0,0-.675-5.833.425.425,0,0,0-.763.376c1.373,3.054-.117,5.95-.052,9.079a12.853,12.853,0,0,0,2.175,6.105C173.764,308.129,174.522,307.774,174.255,307.28Z" transform="translate(-144.604 -114.46)" fill="#9a9a9a"/>
      <path id="Trazado_10776" data-name="Trazado 10776" d="M179.413,298.873c-.037-.367-.653-.343-.637.033.17,4.208-1.89,6.893-3.1,10.667a14.047,14.047,0,0,0-.078,8.086c.129.481.873.351.752-.146-1.007-4.148-.119-7.322,1.657-11.011A13.7,13.7,0,0,0,179.413,298.873Z" transform="translate(-143.909 -113.202)" fill="#9a9a9a"/>
      <path id="Trazado_10777" data-name="Trazado 10777" d="M182.176,285.421c-.122-.346-.707-.155-.6.2,1.007,3.447,5.5,5.191,5.376,9.011-.017.518.762.591.782.068C187.888,290.522,183.423,288.957,182.176,285.421Z" transform="translate(-142.694 -115.696)" fill="#9a9a9a"/>
      <path id="Trazado_10778" data-name="Trazado 10778" d="M163.231,296.357c-1.917,1.744-4.743,1.924-6.791,3.6a11.463,11.463,0,0,0-3.857,5.81.383.383,0,0,0,.717.273,12.5,12.5,0,0,1,5.047-6.353c1.746-1.038,3.782-1.38,5.29-2.828C163.935,296.571,163.54,296.076,163.231,296.357Z" transform="translate(-148.1 -113.638)" fill="#9a9a9a"/>
      <path id="Trazado_10779" data-name="Trazado 10779" d="M158.583,289.984c.348-.236.044-.777-.319-.554a6.27,6.27,0,0,0-2.6,3.659c-1.228,3.455-3.081,5.647-6.587,6.935a.388.388,0,0,0,.2.751,9.243,9.243,0,0,0,5.163-3.3C156.23,295.211,156.112,291.667,158.583,289.984Z" transform="translate(-148.802 -114.924)" fill="#9a9a9a"/>
    </g>
  </g>
</svg>
