<svg xmlns="http://www.w3.org/2000/svg" width="409.57" height="359.995" viewBox="0 0 409.57 359.995">
  <g id="Grupo_3380" data-name="Grupo 3380" transform="translate(317.57 5003.5)">
    <path id="Trazado_10782" data-name="Trazado 10782" d="M411.459,199.327c-7.087-19.757-18.246-25.77-28.86-38.442-12.964-15.478-21.707-26.729-18.342-46.636,5.5-32.53,7.855-113.661-78.266-103.056-30.867,3.8-55.26,27.455-73.006,51.068-15.1,20.092-42.261,21.863-64.123,26.547C122,94.564,94.637,103.257,69.785,116,18.6,142.23,3.311,179.943,5.4,228.2c.631,14.579,2.694,37.542,27.32,64.412,33.239,36.267,81.539,41.123,139.672,24.469,13.307-3.813,25.886-9.792,38.975-14.295a183.993,183.993,0,0,1,42.063-9.133c33.389-3.228,68,2.611,100.03-7.358A105.55,105.55,0,0,0,398.2,258.545C413.5,242.521,418.939,220.181,411.459,199.327Z" transform="translate(-322.785 -5013.745)" fill="#69cfc5" opacity="0.46"/>
    <g id="Grupo_3095" data-name="Grupo 3095" transform="translate(-234.834 -4915.47)">
      <g id="Grupo_3094" data-name="Grupo 3094">
        <path id="Trazado_10783" data-name="Trazado 10783" d="M176.647,197.975a1.772,1.772,0,0,0,1.478,2.018.778.778,0,0,0,.968.936c6.674-2.494,13.341-3.905,19.685-7.319,6.579-3.538,12.8-7.965,19.947-10.311,9.305-3.054,16.671-1.1,24.293,4.693a80.66,80.66,0,0,0,19.226,11A1.24,1.24,0,0,0,264,197.8c.146-9.915-2.18-22.125-10.053-29.017-2.011-1.761-3.839-1.906-6.4-1.939-3.616-.047-6.19-1.615-9.152-3.456a27.456,27.456,0,0,0-15.581-4.171C200.366,159.479,180,175.387,176.647,197.975Z" transform="translate(-56.204 -70.685)" fill="#6a9d13"/>
        <path id="Trazado_10784" data-name="Trazado 10784" d="M92.448,222.048c12.262-8.253,25.094-13.363,39.438-16.656,6.373-1.463,12.355-3.328,17.987-6.715,5.139-3.092,11.7-7.614,17.754-5.838a9.538,9.538,0,0,1,3.5,2.8c1,1.262,3.516.759,3.225-1.128a26.1,26.1,0,0,0-16.155-20.548c-9.734-3.736-18.62-.882-27.02,4.434-5.282,3.342-11.082,4.717-16.575,7.527a37.906,37.906,0,0,0-10.485,8.082c-6.887,7.441-10.538,16.685-13.917,26.076A1.559,1.559,0,0,0,92.448,222.048Z" transform="translate(-72.231 -68.268)" fill="#789714"/>
        <path id="Trazado_10785" data-name="Trazado 10785" d="M85.792,171.043c6.232-5.341,13.005-10.918,21.005-13.3,4.366-1.3,8.459-.781,12.916-1.025,2.259-.123,4.463-.736,6.722-.834a26.719,26.719,0,0,1,7.873,1.217c10.039,2.615,19.1,5.839,27.059,12.7,6.8,5.864,13.734,12.469,17.309,20.86a1.779,1.779,0,0,0,1.787,1.084.575.575,0,0,0,.636-.159,1.557,1.557,0,0,0,.922-1.633c-.081-.964-.186-1.926-.28-2.89,1.15-11.312.519-23.418-6.213-32.978-2.852-4.047-6.847-7.194-11.8-8.1-3.847-.7-7.025-.594-10.557-2.6-3.134-1.784-6.124-3.718-9.409-5.234-11.345-5.231-23.776-6.323-34.922-.032-11.985,6.766-18.906,19.3-25.282,30.98C82.868,170.376,84.614,172.053,85.792,171.043Z" transform="translate(-73.47 -75.392)" fill="#6a9d13"/>
        <path id="Trazado_10786" data-name="Trazado 10786" d="M75.029,129.921c-.153,3.039,2.28,4.439,4.994,4.608,5.509.345,11.622-1.3,17.078-1.989,5.874-.744,11.755-1.64,17.662-2.076,12.575-.927,23.53,2.728,34.206,9.2,8.823,5.348,16.928,12.37,22.308,21.264,4.429,7.321,5.909,16.837,13.831,21.436,1.292.75,2.521-.539,2.542-1.762a209.662,209.662,0,0,0-1.154-25.9,66.263,66.263,0,0,0-2.1-19.262,42.429,42.429,0,0,0-17.755-24.726c-18.232-11.876-40.977-13.305-61.659-7.463a44.1,44.1,0,0,0-23.518,16.178C79.352,122.191,75.209,126.321,75.029,129.921Z" transform="translate(-75.022 -81.668)" fill="#80af1b"/>
        <path id="Trazado_10787" data-name="Trazado 10787" d="M175.445,161.843a1.689,1.689,0,0,0,3.057.8c2.72-1.2,4.315-3.884,6.05-6.338a126.226,126.226,0,0,0,7.788-12.564c2.51-4.612,4.453-9.453,6.771-14.152a28.5,28.5,0,0,1,10.975-11.789c8.9-5.676,17.275-9.657,27.97-10.009,10.758-.353,21.522-.549,32.283-.819a1.54,1.54,0,0,0,.884-2.663c-9.522-8.58-21.157-16.946-34.046-19.278-5.28-.954-10.885-.67-15.712,1.845-3.306,1.722-5.92,4.325-9.514,5.543-3.044,1.03-6.322,1.216-9.389,2.189C176.123,102.982,172.4,138.738,175.445,161.843Z" transform="translate(-56.59 -84.519)" fill="#a5c82b"/>
        <path id="Trazado_10788" data-name="Trazado 10788" d="M180.18,177.939c-.178,1.037-.327,2.085-.427,3.149-.148,1.594,1.95,3.1,3.122,1.528,5.358-7.2,10.709-14.761,17.956-20.209,7.629-5.735,16.132-6.215,24.918-8.913,4.477-1.375,8.624-3.636,13.093-5.024,5.005-1.555,10.078-1.336,15.241-1,5.71.367,11.269,1.166,16,4.642a50.707,50.707,0,0,1,9.968,10.48c.778,1.022,2.8.907,2.95-.6,1.166-12.112-6.341-26.349-14.39-35.051-9.217-9.966-22.8-13.117-35.869-10.411-12.616,2.611-26.78,10.219-34.483,20.78-8.624,11.826-14.164,26-18.4,39.9A.625.625,0,0,0,180.18,177.939Z" transform="translate(-55.627 -78.763)" fill="#80af1b"/>
        <path id="Trazado_10789" data-name="Trazado 10789" d="M177.641,147.663a107.12,107.12,0,0,1,15.668-32.237c6.984-9.525,14.987-15.223,26.562-17.742,13.2-2.875,27.491-4.167,40.2,1.252.788.335.2,1.515-.59,1.191-7.864-3.23-16.438-3.567-24.8-2.587-6.941.815-14.2,2.02-20.721,4.594-13.953,5.5-22.585,20.057-28.39,33.18-12.939,29.246-12.4,62.377-12.131,93.728.011,1.205-1.835,1.371-1.884.147C170.455,201.83,169.549,174.182,177.641,147.663Z" transform="translate(-57.275 -82.541)" fill="#80af1b"/>
        <path id="Trazado_10790" data-name="Trazado 10790" d="M173.249,205.135a185.121,185.121,0,0,1,5.542-20.444A102.573,102.573,0,0,1,195.3,153.562c13.126-16.48,33.039-27.583,54.536-24.1,11.3,1.833,21.342,7.53,27.929,16.952.506.723-.595,1.45-1.126.762-8.081-10.47-21.289-15.867-34.326-15.907-13.364-.04-25.815,5.753-35.727,14.48-10.239,9.015-17.476,20.714-22.525,33.29a159.435,159.435,0,0,0-7.193,23.494c-.852,3.682-1.6,7.387-2.319,11.1-.723,3.751-1,7.809-2.5,11.335a1.043,1.043,0,0,1-1.959-.378C169.671,218.337,171.928,211.249,173.249,205.135Z" transform="translate(-57.424 -76.314)" fill="#719716"/>
        <path id="Trazado_10791" data-name="Trazado 10791" d="M198.634,175.831c9.458-6.06,20.861-9.5,32.13-8.493,5.811.519,12.132,2.133,16.986,5.49,4.949,3.422,7.624,8.661,9.859,14.079.326.788-.891,1.191-1.235.435-2.652-5.849-6.476-11.182-12.336-14.126a36.6,36.6,0,0,0-17.15-3.418,52.289,52.289,0,0,0-29.736,10.67c-9.394,6.982-16.087,16.951-20.17,27.839-4.441,11.843-5.054,23.978-5.42,36.472a1.116,1.116,0,0,1-2.223.175C166.06,219.595,176.623,189.935,198.634,175.831Z" transform="translate(-57.663 -69.213)" fill="#7ba819"/>
        <path id="Trazado_10792" data-name="Trazado 10792" d="M99.306,207.352c7.568-9.141,17.872-15.352,28.264-20.851,9.949-5.265,21.637-9.255,32.776-5.359,10.085,3.527,15.619,13.156,18.807,22.785,3.812,11.511,6.092,24.523,5.075,36.651-.133,1.58-2.7,1.4-2.769-.155-.482-11.265-1.086-22.1-4.268-33.014-3-10.271-8.3-20.988-19.444-24.044-10.982-3.013-21.927,1.541-31.563,6.484-9.384,4.815-18.871,10.339-25.855,18.4C99.754,208.909,98.747,208.026,99.306,207.352Z" transform="translate(-70.555 -66.914)" fill="#72870f"/>
        <path id="Trazado_10793" data-name="Trazado 10793" d="M93.474,155.714c10.392-8.353,22.522-14.682,36.21-13.036,14.155,1.7,26.11,10.568,35.122,21.155a77.129,77.129,0,0,1,17.982,38.083c2.657,15.438,3.7,32.355,1.805,47.932-.206,1.69-3.012,1.553-3.018-.169-.04-14.482.279-28.682-1.38-43.12-1.612-14.02-6.01-25.975-14.584-37.251-8.4-11.053-19.51-20.747-33.464-23.613-14.12-2.9-26.639,3.255-37.924,11.129C93.507,157.323,92.811,156.246,93.474,155.714Z" transform="translate(-71.654 -73.797)" fill="#82aa17"/>
        <path id="Trazado_10794" data-name="Trazado 10794" d="M91.1,120.575c10.211-6.534,22.259-7.429,34.082-6.538,6.525.492,13.562.985,19.808,3.018,5.951,1.937,11.367,5.645,16.011,9.781,20.357,18.132,26.007,46.742,26.116,72.831.075,17.784-1.439,35.556-1.709,53.339-.032,2.144-3.311,2.522-3.385.3-.919-27.447,4.271-54.863-.73-82.176-2.259-12.338-7.076-24.384-14.774-34.35A56.957,56.957,0,0,0,152.68,123.79c-5.969-3.9-12.2-5.386-19.178-6.336-13.925-1.9-28.973-3-41.661,4.2C91.12,122.06,90.375,121.036,91.1,120.575Z" transform="translate(-72.1 -79.106)" fill="#719716"/>
        <path id="Trazado_10795" data-name="Trazado 10795" d="M165.591,226.092c-.626,7.271,1.076,14.388,1.225,21.651.254,12.411-3.24,25.236,2.144,37.036.6,1.324,2.78,1.445,3.04-.224a284.171,284.171,0,0,0,3.182-47.224c-.109-8.634-1.729-16.269-.74-24.867.6-5.209,1.828-19.572.761-27.73C175.061,183.648,167.1,208.5,165.591,226.092Z" transform="translate(-58.274 -65.966)" fill="#98c40e"/>
        <path id="Trazado_10796" data-name="Trazado 10796" d="M189.968,295.851c-3.256-3.559-8.013-5.578-10.029-10.2-1.6-3.673-2.023-7.973-2.324-11.935-1.119-14.7,2.795-38.207-4.742-44.641-5.138-4.388-8.715-3.464-11.125-.606a12.82,12.82,0,0,1,4.49,6.881,14.536,14.536,0,0,1,.553,6.566c.789,5.141.072,7.953-.094,13.149-.193,6.036-.375,12.075-.585,18.111-.12,3.448.45,8.121-1.547,11.153-1.172,1.778-2.752,3-3.622,5.017-5.88,13.669,16.086,29.884,27.917,22.284C194.825,307.8,194.384,300.681,189.968,295.851Z" transform="translate(-59.291 -58.307)" fill="#80af1b"/>
      </g>
      <path id="Trazado_10797" data-name="Trazado 10797" d="M163.791,284.6a4.747,4.747,0,0,0-4.781,2.769c-.826,1.726-.778,3.346-2.291,4.753a10.839,10.839,0,0,1-5.183,2.233c-.352.079-.255.648.1.569,2.151-.475,4.441-1.1,5.979-2.855a10.2,10.2,0,0,0,1.542-3.1,6.206,6.206,0,0,1,4.655-3.867A.258.258,0,0,0,163.791,284.6Z" transform="translate(-60.892 -47.471)" fill="#9a9a9a"/>
      <path id="Trazado_10798" data-name="Trazado 10798" d="M185.594,295.352c-.09-.289-.519-.121-.478.161.325,2.2,3.278,2.381,3.5,4.652.031.32.476.26.52-.027C189.479,297.855,186.183,297.229,185.594,295.352Z" transform="translate(-54.633 -45.501)" fill="#9a9a9a"/>
      <path id="Trazado_10799" data-name="Trazado 10799" d="M159.546,291.911c-.123-1.957-1.409-3.845-.216-5.742.155-.247-.192-.5-.359-.262a3.851,3.851,0,0,0-.551,3.112c.418,2.36.908,4.132-.2,6.43-.158.325.35.508.507.193A7.146,7.146,0,0,0,159.546,291.911Z" transform="translate(-59.62 -47.24)" fill="#9a9a9a"/>
      <path id="Trazado_10800" data-name="Trazado 10800" d="M164.685,288.742a3.9,3.9,0,0,0-1.985,2.077c-.613,1.549.012,3.78-1.7,4.714-.319.174-.084.7.239.523a3.182,3.182,0,0,0,1.56-2.336c.383-1.8.273-3.493,2.135-4.435C165.268,289.114,165.025,288.575,164.685,288.742Z" transform="translate(-59.127 -46.703)" fill="#9a9a9a"/>
      <path id="Trazado_10801" data-name="Trazado 10801" d="M170.878,293.316c-2.145-.748-3.758,1.8-4.267,3.628-.49,1.764-.324,3.643-1.176,5.3-1.009,1.965-2.81,2.765-4.683,3.617-.244.111-.121.549.146.468a8.681,8.681,0,0,0,5.327-3.959,18.3,18.3,0,0,0,1.231-3.934,11.882,11.882,0,0,1,.644-2.106c.705-1.478,1.551-1.747,2.8-2.417A.336.336,0,0,0,170.878,293.316Z" transform="translate(-59.169 -45.875)" fill="#9a9a9a"/>
      <path id="Trazado_10802" data-name="Trazado 10802" d="M177.5,311.681c-.935-1.391-2.1-2.68-2.37-4.421-.277-1.773.514-3.467.89-5.158.393-1.771.58-3.5-.408-5.07-.155-.248-.562-.03-.5.243.73,3.108-.676,5.83-.635,8.926a8.967,8.967,0,0,0,2.661,5.792A.238.238,0,0,0,177.5,311.681Z" transform="translate(-56.603 -45.182)" fill="#9a9a9a"/>
      <path id="Trazado_10803" data-name="Trazado 10803" d="M174.574,296.969a.255.255,0,0,0-.5.1c.309,2.987-2.062,5.135-3.61,7.325a9.554,9.554,0,0,0-1.72,4.811.221.221,0,0,0,.44.038c.361-3.193,2.181-4.8,4.037-7.128A5.786,5.786,0,0,0,174.574,296.969Z" transform="translate(-57.665 -45.211)" fill="#9a9a9a"/>
      <path id="Trazado_10804" data-name="Trazado 10804" d="M170.232,293.178a7.545,7.545,0,0,0-3.922,2.207c-1.557,1.653-2.044,4.139-4.206,5.177-2.309,1.111-4.01-.256-6.215-.609a2.872,2.872,0,0,0-3.1,1.152c-.148.228.155.552.354.337,1.785-1.934,4.057-.014,6.028.309a5.521,5.521,0,0,0,3.763-.762,7.5,7.5,0,0,0,2.5-2.976,9.192,9.192,0,0,1,4.943-4.379C170.625,293.537,170.49,293.121,170.232,293.178Z" transform="translate(-60.628 -45.876)" fill="#9a9a9a"/>
      <path id="Trazado_10805" data-name="Trazado 10805" d="M187.034,309.277a9.79,9.79,0,0,1-2.957-4.685c-.341-1.266-.32-2.575-.544-3.86a9.325,9.325,0,0,0-2.983-5.327c-.242-.224-.62.2-.389.436a9.437,9.437,0,0,1,2.527,4.375c.334,1.377.257,2.817.621,4.191a10.891,10.891,0,0,0,3.381,5.373C186.98,310.036,187.316,309.533,187.034,309.277Z" transform="translate(-55.564 -45.475)" fill="#9a9a9a"/>
      <path id="Trazado_10806" data-name="Trazado 10806" d="M189.153,302.53a7.647,7.647,0,0,0-1.909-2.1c-1.4-1.025-3.342-1.41-3.876-3.36-.09-.329-.648-.372-.639.034.043,1.784,1.243,2.625,2.708,3.34,3.052,1.486,4.636,3.752,4.415,7.329a.234.234,0,0,0,.466.04A7.553,7.553,0,0,0,189.153,302.53Z" transform="translate(-55.075 -45.202)" fill="#9a9a9a"/>
      <path id="Trazado_10807" data-name="Trazado 10807" d="M180.2,308.353a8.732,8.732,0,0,1-.958-6.191,5.71,5.71,0,0,0-.447-3.861.281.281,0,0,0-.5.248c.909,2.023-.078,3.94-.036,6.011a8.523,8.523,0,0,0,1.44,4.043C179.878,308.915,180.38,308.679,180.2,308.353Z" transform="translate(-55.903 -44.955)" fill="#9a9a9a"/>
      <path id="Trazado_10808" data-name="Trazado 10808" d="M183.621,302.791c-.025-.243-.433-.228-.422.021.113,2.786-1.252,4.564-2.053,7.063a9.3,9.3,0,0,0-.052,5.352c.087.32.578.233.5-.1-.667-2.746-.079-4.846,1.1-7.29A9.066,9.066,0,0,0,183.621,302.791Z" transform="translate(-55.446 -44.127)" fill="#9a9a9a"/>
      <path id="Trazado_10809" data-name="Trazado 10809" d="M181.589,308.62c-.081-.229-.469-.1-.4.134.667,2.282,3.641,3.437,3.559,5.966-.011.344.5.391.517.045C185.371,312,182.414,310.962,181.589,308.62Z" transform="translate(-55.361 -43.038)" fill="#9a9a9a"/>
      <path id="Trazado_10810" data-name="Trazado 10810" d="M172.891,301.124c-1.268,1.154-3.14,1.274-4.5,2.382a7.585,7.585,0,0,0-2.553,3.846.254.254,0,0,0,.474.181,8.273,8.273,0,0,1,3.341-4.206c1.157-.687,2.5-.914,3.5-1.873C173.357,301.265,173.1,300.938,172.891,301.124Z" transform="translate(-58.204 -44.414)" fill="#9a9a9a"/>
      <path id="Trazado_10811" data-name="Trazado 10811" d="M167.427,301.656c-.027-1.909-1.57-3.678-1.006-5.574.079-.268-.3-.417-.4-.151a4.142,4.142,0,0,0,.2,2.962,6.813,6.813,0,0,1-.479,6.315.257.257,0,0,0,.415.3A6.11,6.11,0,0,0,167.427,301.656Z" transform="translate(-58.228 -45.391)" fill="#9a9a9a"/>
      <path id="Trazado_10812" data-name="Trazado 10812" d="M166.1,294.337c-2.053,2.117-6.651.856-7.62,4.287a.23.23,0,0,0,.429.164c1.527-3.081,5.5-1.685,7.5-4.154C166.57,294.441,166.275,294.158,166.1,294.337Z" transform="translate(-59.568 -45.671)" fill="#9a9a9a"/>
    </g>
  </g>
</svg>
