<svg xmlns="http://www.w3.org/2000/svg" width="410" height="365.638" viewBox="0 0 410 365.638">
  <g id="Grupo_3105" data-name="Grupo 3105" transform="translate(-430.954 -10.245)">
    <path id="Trazado_10813" data-name="Trazado 10813" d="M837.625,199.526c-7.1-19.778-18.265-25.8-28.89-38.482-12.977-15.494-21.73-26.757-18.361-46.686C795.88,81.794,798.238.578,712.026,11.194c-30.9,3.8-55.318,27.484-73.083,51.122C623.828,82.429,596.638,84.2,574.751,88.891c-26.89,5.761-54.281,14.464-79.16,27.216-51.239,26.262-66.543,64.015-64.453,112.319.631,14.594,2.7,37.582,27.349,64.48,33.274,36.305,81.624,41.166,139.819,24.494,13.321-3.817,25.913-9.8,39.016-14.31a184.187,184.187,0,0,1,42.107-9.143c33.425-3.232,68.071,2.614,100.135-7.365a105.661,105.661,0,0,0,44.785-27.776C839.665,242.765,845.113,220.4,837.625,199.526Z" transform="translate(0 0)" fill="#69cfc5" opacity="0.46"/>
    <g id="Grupo_3104" data-name="Grupo 3104" transform="translate(504.351 29.125)">
      <g id="Grupo_3100" data-name="Grupo 3100" transform="translate(145.557 233.545)">
        <path id="Trazado_10814" data-name="Trazado 10814" d="M623.933,284.663a10.472,10.472,0,0,1-.053-3.619c.514-2.815,2.714-4.28,4.2-6.629a21.74,21.74,0,0,0,2.388-6.109c.3-1.127.893-2.214,1.25-3.328a.455.455,0,0,1,.322.377c.421,3.367.638,7-.925,10.245a53.533,53.533,0,0,1-2.884,4.578,15.33,15.33,0,0,0-2.177,6.484c-.052.48-.842.387-.825-.077a15.517,15.517,0,0,1,.628-3.775c-.214.438-.418.878-.637,1.315A1.1,1.1,0,0,1,623.933,284.663Z" transform="translate(-613.963 -215.176)" fill="#b5d61d"/>
        <path id="Trazado_10815" data-name="Trazado 10815" d="M622.8,237.743a226.6,226.6,0,0,1,3.531,28.756.457.457,0,0,0,.9.069,38.573,38.573,0,0,0-2.984-27.159c-.186-.611-.376-1.223-.573-1.832C623.52,237.112,622.7,237.231,622.8,237.743Z" transform="translate(-614.141 -220.339)" fill="#94c024"/>
        <path id="Trazado_10816" data-name="Trazado 10816" d="M616.038,303.537c1.171-2.322,3.473-3.906,4.774-6.175a26.827,26.827,0,0,0,2.793-8.077c1.312-6.454,1.98-13.1,2.75-19.635q2.269-19.251,3.787-38.562-.075-3.572-.171-7.138a.744.744,0,0,1,.8-.775c.179-.268.676-.233.657.16,0,.063-.006.125-.01.186a.771.771,0,0,1,.11.381c.412,13.467.9,26.915-.026,40.375q-.422,6.085-1.249,12.114-.1,1.431-.2,2.861c-.354,5.106-1.426,10.7-.711,15.8a52.353,52.353,0,0,0,1.659,5.9,6.869,6.869,0,0,1,.335,5.5c-1.4,3.714-5.416,4.944-9.028,4.39a.786.786,0,0,1-.439-.211,13.582,13.582,0,0,1-1.765-.184.838.838,0,0,1-.616-.464C616.638,309.2,614.442,306.7,616.038,303.537Z" transform="translate(-615.5 -223.002)" fill="#80af1b"/>
        <path id="Trazado_10817" data-name="Trazado 10817" d="M621.932,258.688c.284,1.767.564,3.543.814,5.325a.917.917,0,0,0,.015.193l.04.2c.955,6.908,1.427,13.9-.167,20.746a.529.529,0,0,0,1.026.25A62.756,62.756,0,0,0,625.938,274a.653.653,0,0,0,.062-.3c0-.093-.012-.187-.015-.28.486-6.24-.42-12.435-4.086-17.939-.341-.511-1.268-.142-1.016.465Q621.445,257.3,621.932,258.688Z" transform="translate(-614.504 -216.992)" fill="#80af1b"/>
      </g>
      <g id="Grupo_3102" data-name="Grupo 3102">
        <g id="Grupo_3101" data-name="Grupo 3101">
          <path id="Trazado_10818" data-name="Trazado 10818" d="M613.981,162.476a2.037,2.037,0,0,0,1.928,2.137.9.9,0,0,0,1.218.959c7.346-3.64,14.813-6.038,21.675-10.691,7.115-4.824,13.715-10.622,21.622-14.148,10.294-4.59,18.956-3.214,28.362,2.519a92.856,92.856,0,0,0,23.3,10.33,1.426,1.426,0,0,0,1.873-1.567c-1-11.37-5.1-25.073-14.917-32.038-2.511-1.78-4.619-1.731-7.549-1.469-4.146.371-7.278-1.121-10.883-2.881a31.613,31.613,0,0,0-18.327-2.944C636.609,115.621,615.162,136.225,613.981,162.476Z" transform="translate(-470.226 -10.075)" fill="#6a9d13"/>
          <path id="Trazado_10819" data-name="Trazado 10819" d="M517.323,191.505C531,181.4,545.5,174.876,561.824,170.368c7.253-2,14.036-4.449,20.339-8.629,5.752-3.813,13.064-9.342,20.117-7.605a10.958,10.958,0,0,1,4.163,3.044c1.21,1.4,4.083.694,3.652-1.459a30.032,30.032,0,0,0-19.61-22.809c-11.379-3.8-21.452-.076-30.842,6.459-5.9,4.109-12.5,5.982-18.676,9.49a43.622,43.622,0,0,0-11.649,9.819c-7.543,8.9-11.272,19.714-14.685,30.682C514.138,190.958,515.778,192.646,517.323,191.505Z" transform="translate(-488.766 -6.539)" fill="#789714"/>
          <path id="Trazado_10820" data-name="Trazado 10820" d="M506.966,131.974c7.03-6.307,14.678-12.9,23.818-15.851,4.99-1.61,9.712-1.12,14.834-1.516,2.6-.2,5.116-.963,7.713-1.135a30.748,30.748,0,0,1,9.091,1.195c11.616,2.744,22.125,6.219,31.462,13.906,7.978,6.569,16.127,13.988,20.458,23.546a2.047,2.047,0,0,0,2.085,1.2.663.663,0,0,0,.728-.2,1.794,1.794,0,0,0,1.019-1.9c-.119-1.107-.265-2.212-.4-3.317,1.028-13.043-.014-26.956-8.009-37.779-3.386-4.583-8.064-8.1-13.783-9.007-4.444-.707-8.1-.5-12.213-2.721-3.652-1.971-7.142-4.118-10.962-5.776-13.19-5.723-27.521-6.654-40.178.874-13.613,8.1-21.248,22.7-28.278,36.3C503.585,131.282,505.637,133.166,506.966,131.974Z" transform="translate(-490.697 -14.611)" fill="#6a9d13"/>
          <path id="Trazado_10821" data-name="Trazado 10821" d="M492.817,86.517c-.021,3.5,2.846,4.988,5.975,5.046,6.351.119,13.3-2.077,19.534-3.148,6.715-1.151,13.431-2.479,20.2-3.277,14.412-1.7,27.19,1.951,39.79,8.852,10.413,5.7,20.085,13.369,26.72,23.322,5.461,8.194,7.642,19.059,16.982,23.947,1.523.8,2.871-.747,2.834-2.155a241.291,241.291,0,0,0-2.633-29.716,76.23,76.23,0,0,0-3.39-22.038c-3.808-11.652-11.068-21.275-21.66-27.532-21.559-12.734-47.781-13.23-71.264-5.472a50.77,50.77,0,0,0-26.223,19.786C497.4,77.412,492.843,82.37,492.817,86.517Z" transform="translate(-492.817 -21.855)" fill="#80af1b"/>
          <path id="Trazado_10822" data-name="Trazado 10822" d="M608.463,117.924a1.943,1.943,0,0,0,3.553.761c3.067-1.517,4.766-4.683,6.638-7.592a145.408,145.408,0,0,0,8.319-14.839c2.653-5.428,4.643-11.092,7.071-16.611,2.681-6.092,6.622-10.32,12.023-14.107,9.947-6.975,19.375-11.974,31.651-12.918,12.351-.949,24.716-1.716,37.073-2.569a1.772,1.772,0,0,0,.883-3.106C704.3,37.557,690.5,28.526,675.561,26.5c-6.118-.832-12.548-.222-17.971,2.913-3.714,2.146-6.587,5.271-10.659,6.852-3.447,1.338-7.207,1.718-10.684,2.991C606.275,50.218,603.8,91.515,608.463,117.924Z" transform="translate(-471.599 -26.158)" fill="#a5c82b"/>
          <path id="Trazado_10823" data-name="Trazado 10823" d="M615.735,136.468c-.151,1.2-.271,2.413-.331,3.641-.09,1.841,2.4,3.469,3.666,1.6,5.8-8.548,11.568-17.511,19.625-24.139,8.482-6.979,18.233-7.959,28.2-11.5,5.078-1.807,9.731-4.615,14.8-6.436,5.675-2.04,11.518-2.043,17.47-1.921,6.584.135,13.015.772,18.634,4.531,4.643,3.1,8.438,7.284,11.987,11.545.946,1.135,3.27.9,3.361-.844.731-13.982-8.618-29.972-18.31-39.572-11.1-10.992-26.873-13.93-41.762-10.161-14.374,3.638-30.275,13.1-38.6,25.63-9.32,14.031-14.974,30.6-19.147,46.795A.721.721,0,0,0,615.735,136.468Z" transform="translate(-469.979 -19.54)" fill="#80af1b"/>
          <path id="Trazado_10824" data-name="Trazado 10824" d="M611.015,101.876A123.289,123.289,0,0,1,627.4,64.022c7.551-11.3,16.463-18.256,29.643-21.738,15.035-3.971,31.395-6.177,46.284-.587.924.346.3,1.732-.618,1.4-9.2-3.317-19.078-3.275-28.641-1.724-7.938,1.286-16.221,3.037-23.591,6.325-15.764,7.032-24.955,24.2-30.967,39.577-13.4,34.276-11.116,72.34-9.221,108.369.074,1.386-2.039,1.669-2.158.266C605.485,164.513,603.051,132.771,611.015,101.876Z" transform="translate(-471.79 -23.888)" fill="#80af1b"/>
          <path id="Trazado_10825" data-name="Trazado 10825" d="M608.912,168.147a213.353,213.353,0,0,1,5.341-23.782,118.053,118.053,0,0,1,17.415-36.621c14.26-19.61,36.592-33.378,61.484-30.451,13.082,1.538,24.915,7.58,32.964,18.08.618.807-.611,1.7-1.255.933C715.042,84.677,699.585,79.138,684.6,79.75c-15.368.628-29.39,7.915-40.346,18.448-11.316,10.881-19.047,24.695-24.217,39.408a183.415,183.415,0,0,0-7.086,27.374c-.794,4.277-1.471,8.574-2.107,12.878-.642,4.348-.752,9.028-2.3,13.156a1.2,1.2,0,0,1-2.272-.336C605.464,183.506,607.7,175.243,608.912,168.147Z" transform="translate(-471.696 -16.697)" fill="#719716"/>
          <path id="Trazado_10826" data-name="Trazado 10826" d="M636.952,133.021c10.568-7.443,23.5-11.97,36.511-11.383,6.708.3,14.056,1.839,19.807,5.454,5.862,3.685,9.2,9.573,12.044,15.69.414.89-.965,1.414-1.4.562-3.345-6.591-8.01-12.529-14.895-15.618-6.14-2.755-13.231-3.521-19.89-3.066a60.172,60.172,0,0,0-33.649,13.768c-10.447,8.5-16.116,21.631-20.26,34.355-4.508,13.839-6.949,45.835-6.74,60.217a1.284,1.284,0,0,1-2.546.313C600.886,204.324,612.357,150.346,636.952,133.021Z" transform="translate(-471.944 -8.365)" fill="#7ba819"/>
          <path id="Trazado_10827" data-name="Trazado 10827" d="M524.613,174.2c8.241-10.892,19.773-18.551,31.443-25.4,11.173-6.554,24.41-11.73,37.412-7.814,11.772,3.546,18.619,14.337,22.77,25.248,4.962,13.041,7.418,47.231,6.86,61.227-.072,1.822-3.036,1.746-3.192-.04-1.122-12.926-1.54-44.7-5.748-57.084-3.961-11.658-10.6-23.711-23.568-26.664-12.777-2.909-25.131,2.877-35.96,9.047-10.546,6.009-21.174,12.837-28.8,22.457A.783.783,0,0,1,524.613,174.2Z" transform="translate(-486.92 -5.001)" fill="#72870f"/>
          <path id="Trazado_10828" data-name="Trazado 10828" d="M515.428,115.013C526.954,104.887,540.582,97,556.4,98.2c16.361,1.243,30.552,10.835,41.447,22.551a88.768,88.768,0,0,1,22.594,42.876c3.833,17.616,5.061,56.357,3.669,74.362-.151,1.954-3.384,1.936-3.476-.044-.777-16.647-.3-52.333-2.939-68.848-2.559-16.037-8.219-29.559-18.645-42.093-10.219-12.283-23.475-22.868-39.663-25.46-16.38-2.622-30.463,5.086-43.04,14.707C515.548,116.863,514.694,115.66,515.428,115.013Z" transform="translate(-488.653 -12.748)" fill="#82aa17"/>
          <path id="Trazado_10829" data-name="Trazado 10829" d="M510.979,74.738c11.409-8.026,25.217-9.664,38.853-9.235,7.527.237,15.642.45,22.926,2.471,6.941,1.927,13.355,5.918,18.9,10.438,24.319,19.821,32.256,52.427,33.7,82.415.981,20.442-.685,60.3-.1,80.753.071,2.468-3.679,3.068-3.877.522-2.439-31.508,2.967-82.636-4.16-113.785-3.219-14.07-9.363-27.677-18.716-38.746a65.529,65.529,0,0,0-16.56-14.242c-7.058-4.18-14.3-5.576-22.367-6.318-16.107-1.478-33.463-1.983-47.687,6.925C511.083,76.444,510.174,75.3,510.979,74.738Z" transform="translate(-489.489 -18.833)" fill="#719716"/>
          <path id="Trazado_10830" data-name="Trazado 10830" d="M604.761,199.428c-.418-44.473,7.9-77.343,7.985-77.671l2.481.639c-.083.323-8.318,32.891-7.9,77.008Z" transform="translate(-471.948 -8.333)" fill="#719716"/>
          <path id="Trazado_10831" data-name="Trazado 10831" d="M616.381,106.864a39.064,39.064,0,0,1-3.283,5.41,42.646,42.646,0,0,0-4.517,7.737c-1.586,4.033-1.577,9.05,2.2,11.9a.58.58,0,0,0,.475.1,5.111,5.111,0,0,0,1.534.441c2.725.357,5.258-1.393,6.765-3.362,2.382-3.118,4.531-8.544,4.3-13.085.14-2.419-.942-4.81-1.853-6.991-1.126-2.7-2.3-5.761-4.264-8.031C617.52,100.734,617.647,104.318,616.381,106.864Z" transform="translate(-471.419 -12.208)" fill="#c64930"/>
          <path id="Trazado_10832" data-name="Trazado 10832" d="M616.381,106.864a39.064,39.064,0,0,1-3.283,5.41,42.646,42.646,0,0,0-4.517,7.737c-1.586,4.033-1.577,9.05,2.2,11.9a.579.579,0,0,0,.475.1,5.037,5.037,0,0,0,1.348.4,12.677,12.677,0,0,0,2.035-2.452,36.6,36.6,0,0,0,5.137-14.4,22.136,22.136,0,0,0-.408-7.467,45.127,45.127,0,0,0-1.464-6.9c-.057-.069-.108-.142-.166-.21C617.52,100.734,617.647,104.318,616.381,106.864Z" transform="translate(-471.419 -12.208)" fill="#e26344"/>
          <path id="Trazado_10833" data-name="Trazado 10833" d="M601.563,192.058c-.351,8.393,1.141,35.833,1.679,44.176.917,14.256-2.967,41.267,3.818,54.562.76,1.491,3.27,1.521,3.483-.412a488.073,488.073,0,0,0,1.793-66.543c-.561-9.921-1.986-37.963-1.283-47.9.427-6.019,1.114-22.594-.522-31.919C610.313,142.784,602.415,171.752,601.563,192.058Z" transform="translate(-472.551 -4.189)" fill="#98c40e"/>
          <path id="Trazado_10834" data-name="Trazado 10834" d="M588.66,223.866c-.31,9.241,4.075,13.185,4.358,16.864.075.969.846-1.611.809-2.56-.154-3.958-1.154-3.5.58-9.954.445-1.655,3.672-10.568,8.241-6.4,1.124,1.024,1.583,3.6,1.867,5.016,1.195,5.935.5,9.2.573,15.219.083,6.95-.336,25.992-.274,32.943.036,3.97.928,9.314-1.216,12.9-1.259,2.1-3.012,3.583-3.911,5.951-6.071,16.011,20,33.546,33.219,24.212,6.664-4.7,5.8-12.863.478-18.193-3.921-3.928-9.493-6.008-12.045-11.225-2.025-4.142-2.728-9.064-3.273-13.6-2.028-16.849,2.259-51.927-10.625-65.421-4.569-4.784-14.1-6.6-16.787.808C589.378,213.943,588.935,215.647,588.66,223.866Z" transform="translate(-474.95 7.269)" fill="#80af1b"/>
        </g>
        <path id="Trazado_10835" data-name="Trazado 10835" d="M601.6,285.806a5.463,5.463,0,0,0-5.357,3.424c-.864,2.025-.725,3.886-2.4,5.58-1.577,1.6-3.771,2.261-5.846,2.827-.4.11-.26.759.145.65,2.449-.655,5.05-1.49,6.73-3.584a11.742,11.742,0,0,0,1.618-3.636,7.141,7.141,0,0,1,5.156-4.682A.3.3,0,0,0,601.6,285.806Z" transform="translate(-475.115 22.25)" fill="#9a9a9a"/>
        <path id="Trazado_10836" data-name="Trazado 10836" d="M627.24,296.966c-.119-.327-.6-.113-.542.209.485,2.515,3.889,2.572,4.261,5.172.052.365.561.275.6-.058C631.834,299.648,628.012,299.094,627.24,296.966Z" transform="translate(-467.856 24.303)" fill="#9a9a9a"/>
        <path id="Trazado_10837" data-name="Trazado 10837" d="M597.114,294.339c-.24-2.244-1.814-4.349-.537-6.591.166-.292-.246-.567-.427-.284a4.437,4.437,0,0,0-.476,3.607c.6,2.692,1.253,4.7.091,7.4-.165.382.427.567.593.2A8.227,8.227,0,0,0,597.114,294.339Z" transform="translate(-473.671 22.54)" fill="#9a9a9a"/>
        <path id="Trazado_10838" data-name="Trazado 10838" d="M602.844,290.457a4.491,4.491,0,0,0-2.178,2.487c-.625,1.812.205,4.346-1.718,5.505-.357.216-.061.8.3.588a3.659,3.659,0,0,0,1.676-2.764c.35-2.088.136-4.029,2.23-5.206C603.533,290.854,603.226,290.248,602.844,290.457Z" transform="translate(-473.059 23.112)" fill="#9a9a9a"/>
        <path id="Trazado_10839" data-name="Trazado 10839" d="M610.148,295.44c-2.5-.751-4.231,2.259-4.723,4.386-.473,2.053-.187,4.206-1.084,6.159-1.061,2.311-3.091,3.322-5.2,4.4-.275.139-.112.636.19.53a9.984,9.984,0,0,0,5.925-4.821,20.979,20.979,0,0,0,1.219-4.584,13.834,13.834,0,0,1,.634-2.454c.735-1.735,1.7-2.087,3.1-2.919A.388.388,0,0,0,610.148,295.44Z" transform="translate(-473.019 24.027)" fill="#9a9a9a"/>
        <path id="Trazado_10840" data-name="Trazado 10840" d="M618.7,316.15c-1.145-1.553-2.548-2.974-2.949-4.963-.407-2.025.418-4.011.764-5.976.363-2.054.489-4.056-.725-5.808-.191-.276-.647-.006-.559.3,1,3.537-.482,6.738-.279,10.294a10.314,10.314,0,0,0,3.351,6.525C618.553,316.779,618.908,316.431,618.7,316.15Z" transform="translate(-470.049 24.767)" fill="#9a9a9a"/>
        <path id="Trazado_10841" data-name="Trazado 10841" d="M614.575,299.419a.293.293,0,0,0-.571.138c.505,3.419-2.112,6.009-3.782,8.6a10.985,10.985,0,0,0-1.733,5.617.254.254,0,0,0,.508.021c.255-3.689,2.266-5.626,4.281-8.4A6.653,6.653,0,0,0,614.575,299.419Z" transform="translate(-471.25 24.749)" fill="#9a9a9a"/>
        <path id="Trazado_10842" data-name="Trazado 10842" d="M609.448,295.378a8.687,8.687,0,0,0-4.4,2.735c-1.706,1.979-2.142,4.861-4.574,6.165-2.6,1.392-4.624-.093-7.177-.388a3.3,3.3,0,0,0-3.51,1.482c-.159.268.208.625.425.369,1.954-2.314,4.664-.222,6.945.051a6.349,6.349,0,0,0,4.288-1.067,8.621,8.621,0,0,0,2.724-3.546,10.576,10.576,0,0,1,5.462-5.284C609.915,295.771,609.739,295.3,609.448,295.378Z" transform="translate(-474.744 24.036)" fill="#9a9a9a"/>
        <path id="Trazado_10843" data-name="Trazado 10843" d="M629.6,312.9a11.269,11.269,0,0,1-3.638-5.237c-.454-1.438-.5-2.945-.819-4.41a10.74,10.74,0,0,0-3.7-5.975c-.289-.244-.7.26-.425.521a10.881,10.881,0,0,1,3.126,4.9c.453,1.566.437,3.226.924,4.786a12.522,12.522,0,0,0,4.159,6.007C629.58,313.778,629.941,313.182,629.6,312.9Z" transform="translate(-468.93 24.38)" fill="#9a9a9a"/>
        <path id="Trazado_10844" data-name="Trazado 10844" d="M631.7,305.037a8.82,8.82,0,0,0-2.3-2.314c-1.663-1.107-3.914-1.452-4.625-3.667-.12-.374-.764-.4-.733.071.139,2.05,1.563,2.957,3.282,3.7,3.583,1.554,5.519,4.08,5.446,8.2a.269.269,0,0,0,.537.023A8.694,8.694,0,0,0,631.7,305.037Z" transform="translate(-468.351 24.671)" fill="#9a9a9a"/>
        <path id="Trazado_10845" data-name="Trazado 10845" d="M621.7,312.181a10.052,10.052,0,0,1-1.413-7.07,6.571,6.571,0,0,0-.708-4.417.324.324,0,0,0-.568.311c1.147,2.279.109,4.533.262,6.913a9.81,9.81,0,0,0,1.859,4.574C621.359,312.843,621.924,312.546,621.7,312.181Z" transform="translate(-469.295 24.998)" fill="#9a9a9a"/>
        <path id="Trazado_10846" data-name="Trazado 10846" d="M625.276,305.628c-.039-.279-.508-.24-.484.046.271,3.2-1.208,5.311-2,8.223a10.693,10.693,0,0,0,.21,6.156c.115.362.676.238.568-.136-.905-3.123-.336-5.568.893-8.436A10.445,10.445,0,0,0,625.276,305.628Z" transform="translate(-468.65 25.913)" fill="#9a9a9a"/>
        <path id="Trazado_10847" data-name="Trazado 10847" d="M623.308,312.4c-.1-.259-.543-.095-.452.176.882,2.589,4.359,3.767,4.393,6.68,0,.4.6.424.6.025C627.826,316.1,624.375,315.056,623.308,312.4Z" transform="translate(-468.574 27.188)" fill="#9a9a9a"/>
        <path id="Trazado_10848" data-name="Trazado 10848" d="M612.9,304.288c-1.4,1.392-3.545,1.623-5.048,2.966a8.734,8.734,0,0,0-2.742,4.551.292.292,0,0,0,.554.184,9.517,9.517,0,0,1,3.63-5c1.294-.849,2.832-1.177,3.932-2.33C613.445,304.427,613.127,304.064,612.9,304.288Z" transform="translate(-471.882 25.686)" fill="#9a9a9a"/>
        <path id="Trazado_10849" data-name="Trazado 10849" d="M606.665,305.13c-.128-2.194-1.992-4.149-1.439-6.358a.244.244,0,0,0-.463-.153,4.776,4.776,0,0,0,.378,3.4,7.833,7.833,0,0,1-.233,7.282.3.3,0,0,0,.494.327A7.043,7.043,0,0,0,606.665,305.13Z" transform="translate(-471.977 24.61)" fill="#9a9a9a"/>
        <path id="Trazado_10850" data-name="Trazado 10850" d="M604.778,296.84c-2.254,2.538-7.605,1.319-8.545,5.313a.264.264,0,0,0,.5.166c1.6-3.619,6.243-2.215,8.417-5.154C605.321,296.936,604.968,296.626,604.778,296.84Z" transform="translate(-473.537 24.297)" fill="#9a9a9a"/>
      </g>
      <g id="Grupo_3103" data-name="Grupo 3103" transform="translate(41.451 174.762)">
        <path id="Trazado_10851" data-name="Trazado 10851" d="M585.816,246.848a.93.93,0,0,0,.889.967.409.409,0,0,0,.56.433c3.339-1.688,6.737-2.811,9.851-4.961,3.229-2.228,6.219-4.9,9.814-6.537,4.681-2.134,8.639-1.539,12.952,1.042a42.356,42.356,0,0,0,10.673,4.627.651.651,0,0,0,.849-.723c-.5-5.185-2.42-11.423-6.929-14.565a4.492,4.492,0,0,0-3.45-.641,8.966,8.966,0,0,1-4.978-1.274,14.426,14.426,0,0,0-8.375-1.274C595.967,225.379,586.256,234.862,585.816,246.848Z" transform="translate(-516.928 -164.07)" fill="#6a9d13"/>
        <path id="Trazado_10852" data-name="Trazado 10852" d="M542.188,257.983A60.17,60.17,0,0,1,561.809,247a31.463,31.463,0,0,0,9-4.548c2.5-1.911,5.664-4.652,8.929-4.075a5.005,5.005,0,0,1,1.989,1.26c.593.6,1.879.192,1.618-.776a13.7,13.7,0,0,0-9.623-9.789c-5.3-1.387-9.77.617-13.848,3.878-2.563,2.051-5.511,3.1-8.216,4.891a19.922,19.922,0,0,0-5,4.825c-3.164,4.283-4.534,9.321-5.753,14.418A.819.819,0,0,0,542.188,257.983Z" transform="translate(-525.308 -163.17)" fill="#789714"/>
        <path id="Trazado_10853" data-name="Trazado 10853" d="M535.891,232.2c2.944-3.149,6.156-6.453,10.194-8.159,2.2-.933,4.371-.9,6.683-1.284,1.172-.2,2.287-.643,3.461-.826a14.043,14.043,0,0,1,4.18.18c5.391.782,10.308,1.941,14.86,5.063,3.89,2.666,7.892,5.713,10.244,9.885a.935.935,0,0,0,1,.463.305.305,0,0,0,.324-.12.82.82,0,0,0,.387-.906c-.1-.5-.209-1-.313-1.493-.056-5.97-1.087-12.254-5.154-16.853a9.854,9.854,0,0,0-6.628-3.544c-2.048-.144-3.7.1-5.661-.747-1.739-.75-3.412-1.586-5.214-2.187-6.225-2.074-12.778-1.923-18.231,2.006-5.865,4.226-8.75,11.172-11.4,17.635C534.326,232.026,535.335,232.8,535.891,232.2Z" transform="translate(-526.484 -166.577)" fill="#6a9d13"/>
        <path id="Trazado_10854" data-name="Trazado 10854" d="M527.759,203.547c.1,1.595,1.448,2.184,2.874,2.115,2.9-.139,5.992-1.35,8.8-2.028,3.022-.728,6.04-1.536,9.1-2.106,6.51-1.214,12.44.061,18.388,2.82a34.13,34.13,0,0,1,12.877,9.807c2.736,3.565,4.06,8.446,8.462,10.389.718.317,1.285-.428,1.224-1.068a109.961,109.961,0,0,0-2.1-13.451,34.77,34.77,0,0,0-2.214-9.933,22.274,22.274,0,0,0-10.7-11.878c-10.2-5.143-22.159-4.571-32.617-.324a23.17,23.17,0,0,0-11.34,9.807C529.567,199.262,527.644,201.657,527.759,203.547Z" transform="translate(-527.754 -171.391)" fill="#80af1b"/>
        <path id="Trazado_10855" data-name="Trazado 10855" d="M582.6,215.69a.887.887,0,0,0,1.627.326c1.391-.71,2.148-2.164,2.985-3.5a66.2,66.2,0,0,0,3.712-6.819c1.179-2.493,2.055-5.089,3.132-7.621a14.969,14.969,0,0,1,5.406-6.506c4.5-3.24,8.774-5.575,14.371-6.076,5.63-.5,11.269-.924,16.9-1.383a.809.809,0,0,0,.384-1.423c-5.246-4.218-11.6-8.261-18.422-9.1a12.864,12.864,0,0,0-8.185,1.432c-1.681,1-2.976,2.443-4.824,3.188-1.565.63-3.279.825-4.858,1.425C581.218,184.805,580.323,203.665,582.6,215.69Z" transform="translate(-517.708 -173.456)" fill="#a5c82b"/>
        <path id="Trazado_10856" data-name="Trazado 10856" d="M585.216,228.471c-.032.552-.05,1.107-.04,1.669.015.84,1.2,1.507,1.718.616,2.38-4.068,4.735-8.325,8.2-11.589,3.649-3.436,8.06-4.179,12.49-6.1,2.257-.976,4.29-2.4,6.543-3.381a21.77,21.77,0,0,1,7.9-1.406c3-.139,5.95-.044,8.623,1.5a26.618,26.618,0,0,1,5.81,4.893c.465.489,1.516.311,1.506-.486-.094-6.389-4.837-13.385-9.543-17.462-5.389-4.667-12.661-5.525-19.326-3.356-6.434,2.094-13.387,6.886-16.8,12.846-3.818,6.673-5.888,14.39-7.3,21.89A.328.328,0,0,0,585.216,228.471Z" transform="translate(-517.081 -169.955)" fill="#80af1b"/>
        <path id="Trazado_10857" data-name="Trazado 10857" d="M583.162,208.245a56.285,56.285,0,0,1,7.263-17.368c3.381-5.2,7.408-8.425,13.4-10.088,6.839-1.9,14.292-3,21.119-.533.423.153.148.789-.274.643a26.081,26.081,0,0,0-13.081-.624,43.855,43.855,0,0,0-10.729,3.021c-7.154,3.3-11.25,11.186-13.906,18.238-5.92,15.718-4.66,33.076-3.59,49.507.042.631-.921.772-.984.133C581,236.86,579.7,222.389,583.162,208.245Z" transform="translate(-517.836 -172.454)" fill="#80af1b"/>
        <path id="Trazado_10858" data-name="Trazado 10858" d="M582.9,243.157a97.357,97.357,0,0,1,1.708-10.992,53.851,53.851,0,0,1,6.816-17.206c5.9-9.363,15.647-16.312,27.071-15.737a21.8,21.8,0,0,1,15.561,7.23c.3.349-.228.791-.545.463-4.824-5-12.032-7.049-18.838-6.313-6.979.752-13.142,4.5-17.811,9.628a45.556,45.556,0,0,0-9.828,18.681,83.714,83.714,0,0,0-2.394,12.681c-.231,1.972-.409,3.95-.567,5.928a29.275,29.275,0,0,1-.647,6.062.547.547,0,0,1-1.044-.083C581.8,250.255,582.57,246.424,582.9,243.157Z" transform="translate(-517.607 -168.659)" fill="#719716"/>
        <path id="Trazado_10859" data-name="Trazado 10859" d="M595.784,234.119a27.235,27.235,0,0,1,16.278-6.3,18.927,18.927,0,0,1,9.185,1.882c2.782,1.5,4.481,4.079,5.962,6.778.216.393-.4.674-.619.3a14.663,14.663,0,0,0-7.258-6.66,19.219,19.219,0,0,0-9.151-.79,27.454,27.454,0,0,0-14.9,7.292,32.021,32.021,0,0,0-8.915,15.7c-1.633,6.439-1.249,12.809-.717,19.352a.586.586,0,0,1-1.15.221C581.315,258.851,585.111,242.757,595.784,234.119Z" transform="translate(-517.377 -163.321)" fill="#7ba819"/>
        <path id="Trazado_10860" data-name="Trazado 10860" d="M545.093,249.846c3.422-5.21,8.44-9.049,13.546-12.522,4.888-3.323,10.759-6.084,16.8-4.7,5.468,1.256,8.915,5.963,11.137,10.8a49.736,49.736,0,0,1,4.772,18.837c.023.832-1.33.887-1.455.078-.9-5.852-1.847-11.474-4.141-16.985-2.158-5.188-5.55-10.474-11.543-11.424-5.906-.936-11.355,2.075-16.1,5.213-4.62,3.057-9.252,6.49-12.43,11.1A.357.357,0,0,1,545.093,249.846Z" transform="translate(-524.533 -162.492)" fill="#72870f"/>
        <path id="Trazado_10861" data-name="Trazado 10861" d="M539.194,223.074c4.94-4.962,10.906-8.97,18.146-8.9,7.488.069,14.242,4,19.56,9.009a40.512,40.512,0,0,1,11.593,18.836,88.943,88.943,0,0,1,3.718,24.917.8.8,0,0,1-1.584.085c-.86-7.556-1.516-14.987-3.219-22.427a38.164,38.164,0,0,0-9.772-18.6c-5.027-5.283-11.385-9.7-18.835-10.387-7.539-.7-13.718,3.243-19.152,8.006C539.3,223.912,538.879,223.39,539.194,223.074Z" transform="translate(-525.641 -165.865)" fill="#82aa17"/>
        <path id="Trazado_10862" data-name="Trazado 10862" d="M535.8,197.51c4.951-4,11.189-5.168,17.411-5.388a45.034,45.034,0,0,1,10.515.428,24.328,24.328,0,0,1,8.924,4.177c11.676,8.286,16.283,22.893,17.851,36.5,1.069,9.278,1.309,18.643,2.2,27.941.107,1.121-1.583,1.509-1.75.356-2.069-14.274-.949-28.886-5.142-42.853a41.817,41.817,0,0,0-9.7-17.074,29.941,29.941,0,0,0-7.974-5.982,23.245,23.245,0,0,0-10.378-2.2c-7.378-.183-15.3.115-21.5,4.6C535.9,198.283,535.451,197.792,535.8,197.51Z" transform="translate(-526.277 -169.995)" fill="#719716"/>
        <path id="Trazado_10863" data-name="Trazado 10863" d="M579.591,247.289c.132,5.3,1.932,10.305,2.621,15.539,1.178,8.942-.317,18.484,4.517,26.574.542.908,2.125.821,2.177-.406a206.44,206.44,0,0,0-1.485-34.358c-.771-6.228-2.554-11.612-2.528-17.9.015-3.81-.249-14.281-1.673-20.087C583.029,215.878,579.273,234.46,579.591,247.289Z" transform="translate(-518.093 -165.407)" fill="#98c40e"/>
        <path id="Trazado_10864" data-name="Trazado 10864" d="M572.757,257.574c.195,5.835,3.123,8.134,3.456,10.441.088.607.465-1.05.4-1.647-.263-2.487-.873-2.157-.052-6.3.21-1.062,1.867-6.813,4.921-4.378.751.6,1.15,2.2,1.388,3.082,1,3.689.7,5.777,1,9.564.345,4.374.7,8.75,1.03,13.126.189,2.5.975,5.829-.224,8.178-.7,1.379-1.746,2.384-2.213,3.914-3.151,10.342,14.011,20.292,21.947,13.855,4-3.245,3.112-8.348-.464-11.482-2.636-2.309-6.234-3.385-8.061-6.565a27.062,27.062,0,0,1-2.635-8.433c-1.986-10.53-.578-25.17-9.263-33.129-3.079-2.821-9.161-3.564-10.542,1.216C572.793,251.293,572.585,252.385,572.757,257.574Z" transform="translate(-519.374 -160.013)" fill="#80af1b"/>
        <path id="Trazado_10865" data-name="Trazado 10865" d="M583.392,289.639a3.449,3.449,0,0,0-3.231,2.384c-.459,1.312-.294,2.478-1.274,3.616a7.862,7.862,0,0,1-3.564,2.026c-.247.087-.132.489.119.4a7.7,7.7,0,0,0,4.089-2.541,7.386,7.386,0,0,0,.866-2.36A4.51,4.51,0,0,1,583.449,290,.188.188,0,0,0,583.392,289.639Z" transform="translate(-518.91 -151.795)" fill="#9a9a9a"/>
        <path id="Trazado_10866" data-name="Trazado 10866" d="M600.1,295.5c-.088-.2-.384-.045-.332.155.412,1.564,2.558,1.457,2.9,3.079.049.228.367.149.374-.062C603.1,297,600.672,296.811,600.1,295.5Z" transform="translate(-514.329 -150.719)" fill="#9a9a9a"/>
        <path id="Trazado_10867" data-name="Trazado 10867" d="M580.994,295.119c-.246-1.4-1.325-2.664-.616-4.129.093-.191-.179-.348-.281-.161a2.8,2.8,0,0,0-.148,2.292c.491,1.671.987,2.91.369,4.66-.087.247.293.338.382.1A5.18,5.18,0,0,0,580.994,295.119Z" transform="translate(-518.055 -151.588)" fill="#9a9a9a"/>
        <path id="Trazado_10868" data-name="Trazado 10868" d="M584.4,292.455a2.83,2.83,0,0,0-1.267,1.659c-.318,1.167.312,2.729-.851,3.54-.216.151,0,.509.215.358a2.315,2.315,0,0,0,.94-1.813c.132-1.33-.084-2.544,1.185-3.374C584.85,292.676,584.63,292.307,584.4,292.455Z" transform="translate(-517.604 -151.276)" fill="#9a9a9a"/>
        <path id="Trazado_10869" data-name="Trazado 10869" d="M589.164,295.329c-1.61-.368-2.57,1.6-2.791,2.963-.212,1.312.058,2.656-.425,3.925-.571,1.5-1.807,2.222-3.091,2.989-.167.1-.044.4.142.326a6.312,6.312,0,0,0,3.53-3.286,13.268,13.268,0,0,0,.574-2.94,8.587,8.587,0,0,1,.3-1.572c.39-1.124.98-1.386,1.828-1.97A.244.244,0,0,0,589.164,295.329Z" transform="translate(-517.494 -150.742)" fill="#9a9a9a"/>
        <path id="Trazado_10870" data-name="Trazado 10870" d="M595.494,307.951a8.232,8.232,0,0,1-2.067-3c-.342-1.259.095-2.545.23-3.8a4.686,4.686,0,0,0-.7-3.628c-.132-.166-.407.024-.339.215.777,2.187-.02,4.265.257,6.5a6.509,6.509,0,0,0,2.386,3.97C595.429,308.353,595.637,308.119,595.494,307.951Z" transform="translate(-515.662 -150.336)" fill="#9a9a9a"/>
        <path id="Trazado_10871" data-name="Trazado 10871" d="M592.126,297.619a.186.186,0,0,0-.355.11c.463,2.133-1.077,3.875-2.02,5.58a6.94,6.94,0,0,0-.855,3.612.16.16,0,0,0,.32-.008c.006-2.334,1.191-3.639,2.344-5.471A4.205,4.205,0,0,0,592.126,297.619Z" transform="translate(-516.355 -150.331)" fill="#9a9a9a"/>
        <path id="Trazado_10872" data-name="Trazado 10872" d="M588.754,295.38a5.487,5.487,0,0,0-2.655,1.909c-.992,1.318-1.145,3.152-2.623,4.075-1.578.987-2.916.136-4.537.058a2.086,2.086,0,0,0-2.149,1.081c-.089.176.157.386.282.215,1.134-1.54,2.929-.336,4.379-.26a4.006,4.006,0,0,0,2.655-.853,5.45,5.45,0,0,0,1.567-2.349,6.678,6.678,0,0,1,3.219-3.558C589.066,295.609,588.936,295.32,588.754,295.38Z" transform="translate(-518.615 -150.726)" fill="#9a9a9a"/>
        <path id="Trazado_10873" data-name="Trazado 10873" d="M602.255,305.443a7.116,7.116,0,0,1-2.512-3.145c-.348-.887-.437-1.835-.7-2.744a6.782,6.782,0,0,0-2.582-3.609c-.192-.141-.432.193-.246.346a6.873,6.873,0,0,1,2.176,2.957c.351.968.41,2.015.783,2.977a7.907,7.907,0,0,0,2.874,3.609C602.276,306,602.479,305.607,602.255,305.443Z" transform="translate(-515.002 -150.625)" fill="#9a9a9a"/>
        <path id="Trazado_10874" data-name="Trazado 10874" d="M603.243,300.4a5.547,5.547,0,0,0-1.547-1.36c-1.094-.629-2.527-.751-3.068-2.117-.091-.23-.5-.216-.458.076.173,1.286,1.108,1.8,2.223,2.195a5.1,5.1,0,0,1,3.775,4.939.17.17,0,0,0,.339-.007A5.488,5.488,0,0,0,603.243,300.4Z" transform="translate(-514.626 -150.466)" fill="#9a9a9a"/>
        <path id="Trazado_10875" data-name="Trazado 10875" d="M597.248,305.322a6.346,6.346,0,0,1-1.188-4.395,4.146,4.146,0,0,0-.632-2.753.2.2,0,0,0-.345.219c.819,1.388.26,2.851.457,4.344a6.192,6.192,0,0,0,1.363,2.8C597.059,305.753,597.4,305.542,597.248,305.322Z" transform="translate(-515.207 -150.22)" fill="#9a9a9a"/>
        <path id="Trazado_10876" data-name="Trazado 10876" d="M599.154,301.058c-.037-.174-.33-.129-.3.05.3,2-.539,3.4-.916,5.264a6.751,6.751,0,0,0,.392,3.87c.088.223.435.122.351-.109a7.306,7.306,0,0,1,.209-5.353A6.591,6.591,0,0,0,599.154,301.058Z" transform="translate(-514.693 -149.686)" fill="#9a9a9a"/>
        <path id="Trazado_10877" data-name="Trazado 10877" d="M598.269,305.395c-.077-.159-.348-.037-.278.129.664,1.595,2.9,2.19,3.048,4.023.02.249.4.242.377-.009C601.271,307.531,599.052,307.02,598.269,305.395Z" transform="translate(-514.66 -148.871)" fill="#9a9a9a"/>
        <path id="Trazado_10878" data-name="Trazado 10878" d="M591.322,300.77c-.823.936-2.165,1.172-3.056,2.081a5.525,5.525,0,0,0-1.535,2.983.184.184,0,0,0,.357.093,6.013,6.013,0,0,1,2.076-3.305,12.258,12.258,0,0,0,2.379-1.633C591.67,300.835,591.455,300.619,591.322,300.77Z" transform="translate(-516.758 -149.729)" fill="#9a9a9a"/>
        <path id="Trazado_10879" data-name="Trazado 10879" d="M587.471,301.513c-.173-1.376-1.43-2.531-1.173-3.945.036-.2-.252-.278-.3-.077a3.012,3.012,0,0,0,.381,2.124,4.947,4.947,0,0,1,.16,4.6.187.187,0,0,0,.324.185A4.445,4.445,0,0,0,587.471,301.513Z" transform="translate(-516.906 -150.352)" fill="#9a9a9a"/>
        <path id="Trazado_10880" data-name="Trazado 10880" d="M585.905,296.425c-1.313,1.693-4.735,1.151-5.16,3.706a.167.167,0,0,0,.324.084c.855-2.348,3.839-1.659,5.085-3.6C586.251,296.463,586.016,296.282,585.905,296.425Z" transform="translate(-517.874 -150.539)" fill="#9a9a9a"/>
      </g>
    </g>
  </g>
</svg>
