<svg xmlns="http://www.w3.org/2000/svg" width="1144.309" height="402.171" viewBox="0 0 1144.309 402.171">
  <g id="Grupo_3053" data-name="Grupo 3053" transform="translate(-276 -272)">
    <g id="Grupo_3052" data-name="Grupo 3052" transform="translate(276 259.984)">
      <path id="Trazado_10277" data-name="Trazado 10277" d="M995.712,268.115C518.759,163.712.8,202.865.8,202.865l33.516-.232c46.423-1.571,198.824-.319,332.553,7.138,153.921,8.582,35.442,13.289,36.455,16.348s66.074-.139,78.985,7.241-47.847,10.252-31.138,13.614,64.555,12.957,42.531,14.433-37.974,11.809-5.317,14.023,85.062,15.861,82.783,11.252-86.58-16.418-55.442-17.894,88.859.738,66.834-3.691-106.326-14.1-88.858-18.123,135.946.41,109.364-5.495-157.212-14.761-144.3-19.19,32.657-11.531,183.793,3.83,314.424,44.145,314.424,44.145l38.734,19.751Z" fill="#8fd1c9"/>
      <g id="Grupo_2921" data-name="Grupo 2921">
        <path id="Trazado_10278" data-name="Trazado 10278" d="M183.45,217.306c0,1-2.636,1.8-5.886,1.8s-5.886-.808-5.886-1.8,2.635-1.8,5.886-1.8S183.45,216.31,183.45,217.306Z" fill="#8fd1c9"/>
        <path id="Trazado_10279" data-name="Trazado 10279" d="M195.791,213.705c0,1-2.635,1.8-5.886,1.8s-5.886-.808-5.886-1.8,2.636-1.8,5.886-1.8S195.791,212.709,195.791,213.705Z" fill="#8fd1c9"/>
        <ellipse id="Elipse_862" data-name="Elipse 862" cx="5.886" cy="1.804" rx="5.886" ry="1.804" transform="translate(240.98 208.293)" fill="#8fd1c9"/>
        <path id="Trazado_10280" data-name="Trazado 10280" d="M310.151,211.9c0,1-2.635,1.8-5.886,1.8s-5.886-.808-5.886-1.8,2.635-1.8,5.886-1.8S310.151,210.9,310.151,211.9Z" fill="#8fd1c9"/>
        <path id="Trazado_10281" data-name="Trazado 10281" d="M209.272,220.012c0,.5-1.318.9-2.943.9s-2.943-.4-2.943-.9,1.318-.9,2.943-.9S209.272,219.514,209.272,220.012Z" fill="#8fd1c9"/>
        <ellipse id="Elipse_863" data-name="Elipse 863" cx="2.943" cy="0.902" rx="2.943" ry="0.902" transform="translate(214.304 222.679)" fill="#8fd1c9"/>
        <path id="Trazado_10282" data-name="Trazado 10282" d="M231.677,220.914c0,.5-1.318.9-2.943.9s-2.943-.4-2.943-.9,1.317-.9,2.943-.9S231.677,220.416,231.677,220.914Z" fill="#8fd1c9"/>
        <path id="Trazado_10283" data-name="Trazado 10283" d="M258.638,213.705c0,.5-1.318.9-2.943.9s-2.943-.4-2.943-.9,1.318-.9,2.943-.9S258.638,213.207,258.638,213.705Z" fill="#8fd1c9"/>
        <ellipse id="Elipse_864" data-name="Elipse 864" cx="2.943" cy="0.902" rx="2.943" ry="0.902" transform="translate(268.701 209.195)" fill="#8fd1c9"/>
        <path id="Trazado_10284" data-name="Trazado 10284" d="M313.094,216.411c0,.5-1.318.9-2.943.9s-2.943-.4-2.943-.9,1.318-.9,2.943-.9S313.094,215.913,313.094,216.411Z" fill="#8fd1c9"/>
        <path id="Trazado_10285" data-name="Trazado 10285" d="M365.394,216.411c0,1-2.635,1.8-5.886,1.8s-5.886-.808-5.886-1.8,2.636-1.8,5.886-1.8S365.394,215.415,365.394,216.411Z" fill="#8fd1c9"/>
        <path id="Trazado_10286" data-name="Trazado 10286" d="M392.468,216.411c0,1-2.635,1.8-5.886,1.8s-5.886-.808-5.886-1.8,2.635-1.8,5.886-1.8S392.468,215.415,392.468,216.411Z" fill="#8fd1c9"/>
        <path id="Trazado_10287" data-name="Trazado 10287" d="M368.337,220.921c0,.5-1.317.9-2.943.9s-2.943-.4-2.943-.9,1.318-.9,2.943-.9S368.337,220.423,368.337,220.921Z" fill="#8fd1c9"/>
        <path id="Trazado_10288" data-name="Trazado 10288" d="M352.969,226.576c0,.5-1.317.9-2.943.9s-2.943-.4-2.943-.9,1.318-.9,2.943-.9S352.969,226.078,352.969,226.576Z" fill="#8fd1c9"/>
        <ellipse id="Elipse_865" data-name="Elipse 865" cx="2.943" cy="0.902" rx="2.943" ry="0.902" transform="translate(371.67 233.055)" fill="#8fd1c9"/>
        <path id="Trazado_10289" data-name="Trazado 10289" d="M316.833,228.38c0,.5-1.318.9-2.943.9s-2.943-.4-2.943-.9,1.318-.9,2.943-.9S316.833,227.882,316.833,228.38Z" fill="#8fd1c9"/>
        <ellipse id="Elipse_866" data-name="Elipse 866" cx="2.943" cy="0.902" rx="2.943" ry="0.902" transform="translate(322.814 216.411)" fill="#8fd1c9"/>
        <ellipse id="Elipse_867" data-name="Elipse 867" cx="2.943" cy="0.902" rx="2.943" ry="0.902" transform="translate(346.253 211.901)" fill="#8fd1c9"/>
        <ellipse id="Elipse_868" data-name="Elipse 868" cx="5.886" cy="1.804" rx="5.886" ry="1.804" transform="translate(552.634 225.184)" fill="#8fd1c9"/>
        <ellipse id="Elipse_869" data-name="Elipse 869" cx="5.886" cy="1.804" rx="5.886" ry="1.804" transform="translate(579.707 225.184)" fill="#8fd1c9"/>
        <path id="Trazado_10290" data-name="Trazado 10290" d="M567.348,231.5c0,.5-1.317.9-2.943.9s-2.943-.4-2.943-.9,1.318-.9,2.943-.9S567.348,231,567.348,231.5Z" fill="#8fd1c9"/>
        <path id="Trazado_10291" data-name="Trazado 10291" d="M626.165,242.844c0,.5-1.318.9-2.943.9s-2.943-.4-2.943-.9,1.317-.9,2.943-.9S626.165,242.346,626.165,242.844Z" fill="#8fd1c9"/>
        <path id="Trazado_10292" data-name="Trazado 10292" d="M625.522,256.045c0,.5-1.317.9-2.943.9s-2.943-.4-2.943-.9,1.318-.9,2.943-.9S625.522,255.547,625.522,256.045Z" fill="#8fd1c9"/>
        <path id="Trazado_10293" data-name="Trazado 10293" d="M647.607,247.264c0,.5-1.318.9-2.943.9s-2.943-.4-2.943-.9,1.318-.9,2.943-.9S647.607,246.766,647.607,247.264Z" fill="#8fd1c9"/>
        <path id="Trazado_10294" data-name="Trazado 10294" d="M551.15,223.38c0,.5-1.318.9-2.943.9s-2.943-.4-2.943-.9,1.318-.9,2.943-.9S551.15,222.882,551.15,223.38Z" fill="#8fd1c9"/>
        <path id="Trazado_10295" data-name="Trazado 10295" d="M641.721,279.752c0,1-2.635,1.8-5.886,1.8s-5.886-.807-5.886-1.8,2.635-1.8,5.886-1.8S641.721,278.756,641.721,279.752Z" fill="#8fd1c9"/>
        <path id="Trazado_10296" data-name="Trazado 10296" d="M668.795,279.752c0,1-2.635,1.8-5.886,1.8s-5.886-.807-5.886-1.8,2.635-1.8,5.886-1.8S668.795,278.756,668.795,279.752Z" fill="#8fd1c9"/>
        <ellipse id="Elipse_870" data-name="Elipse 870" cx="5.886" cy="1.804" rx="5.886" ry="1.804" transform="translate(641.721 236.775)" fill="#8fd1c9"/>
        <path id="Trazado_10297" data-name="Trazado 10297" d="M644.664,284.262c0,.5-1.318.9-2.943.9s-2.943-.4-2.943-.9,1.318-.9,2.943-.9S644.664,283.764,644.664,284.262Z" fill="#8fd1c9"/>
        <ellipse id="Elipse_871" data-name="Elipse 871" cx="2.943" cy="0.902" rx="2.943" ry="0.902" transform="translate(622.579 275.242)" fill="#8fd1c9"/>
        <path id="Trazado_10298" data-name="Trazado 10298" d="M296.992,215.509c0,.5-1.318.9-2.943.9s-2.943-.4-2.943-.9,1.317-.9,2.943-.9S296.992,215.011,296.992,215.509Z" fill="#8fd1c9"/>
      </g>
      <g id="Grupo_2956" data-name="Grupo 2956">
        <g id="Grupo_2955" data-name="Grupo 2955">
          <g id="Grupo_2953" data-name="Grupo 2953">
            <g id="Grupo_2922" data-name="Grupo 2922">
              <path id="Trazado_10299" data-name="Trazado 10299" d="M34.311,277.687c0,1.362-3.5,2.465-7.817,2.465s-7.817-1.1-7.817-2.465,3.5-2.465,7.817-2.465S34.311,276.326,34.311,277.687Z" fill="#8fd1c9"/>
            </g>
            <g id="Grupo_2923" data-name="Grupo 2923">
              <path id="Trazado_10300" data-name="Trazado 10300" d="M50.7,272.766c0,1.361-3.5,2.465-7.817,2.465s-7.817-1.1-7.817-2.465,3.5-2.465,7.817-2.465S50.7,271.4,50.7,272.766Z" fill="#8fd1c9"/>
            </g>
            <g id="Grupo_2924" data-name="Grupo 2924">
              <path id="Trazado_10301" data-name="Trazado 10301" d="M125.017,280.13c0,1.362-3.5,2.465-7.817,2.465s-7.817-1.1-7.817-2.465,3.5-2.465,7.817-2.465S125.017,278.769,125.017,280.13Z" fill="#8fd1c9"/>
            </g>
            <g id="Grupo_2925" data-name="Grupo 2925">
              <path id="Trazado_10302" data-name="Trazado 10302" d="M192.906,271.334c0,1.361-3.5,2.465-7.816,2.465s-7.817-1.1-7.817-2.465,3.5-2.465,7.817-2.465S192.906,269.972,192.906,271.334Z" fill="#8fd1c9"/>
            </g>
            <g id="Grupo_2926" data-name="Grupo 2926">
              <path id="Trazado_10303" data-name="Trazado 10303" d="M68.6,281.385c0,.681-1.75,1.232-3.909,1.232s-3.908-.551-3.908-1.232,1.75-1.233,3.908-1.233S68.6,280.7,68.6,281.385Z" fill="#8fd1c9"/>
            </g>
            <g id="Grupo_2927" data-name="Grupo 2927">
              <path id="Trazado_10304" data-name="Trazado 10304" d="M83.1,286.262c0,.681-1.75,1.233-3.909,1.233s-3.908-.552-3.908-1.233,1.75-1.233,3.908-1.233S83.1,285.581,83.1,286.262Z" fill="#8fd1c9"/>
            </g>
            <g id="Grupo_2928" data-name="Grupo 2928">
              <path id="Trazado_10305" data-name="Trazado 10305" d="M98.358,282.617c0,.681-1.75,1.233-3.908,1.233s-3.909-.552-3.909-1.233,1.75-1.232,3.909-1.232S98.358,281.937,98.358,282.617Z" fill="#8fd1c9"/>
            </g>
            <g id="Grupo_2929" data-name="Grupo 2929">
              <path id="Trazado_10306" data-name="Trazado 10306" d="M132.834,285.061c0,.68-1.75,1.232-3.909,1.232s-3.908-.552-3.908-1.232,1.75-1.233,3.908-1.233S132.834,284.38,132.834,285.061Z" fill="#8fd1c9"/>
            </g>
            <g id="Grupo_2930" data-name="Grupo 2930">
              <ellipse id="Elipse_872" data-name="Elipse 872" cx="3.908" cy="1.233" rx="3.908" ry="1.233" transform="translate(146.198 278.898)" fill="#8fd1c9"/>
            </g>
            <g id="Grupo_2931" data-name="Grupo 2931">
              <ellipse id="Elipse_873" data-name="Elipse 873" cx="3.908" cy="1.233" rx="3.908" ry="1.233" transform="translate(188.998 276.264)" fill="#8fd1c9"/>
            </g>
            <g id="Grupo_2932" data-name="Grupo 2932">
              <path id="Trazado_10307" data-name="Trazado 10307" d="M265.435,286.7c0,1.361-3.5,2.465-7.817,2.465s-7.817-1.1-7.817-2.465,3.5-2.465,7.817-2.465S265.435,285.334,265.435,286.7Z" fill="#8fd1c9"/>
            </g>
            <g id="Grupo_2933" data-name="Grupo 2933">
              <path id="Trazado_10308" data-name="Trazado 10308" d="M302.749,310.437c0,1.361-3.5,2.465-7.817,2.465s-7.817-1.1-7.817-2.465,3.5-2.465,7.817-2.465S302.749,309.075,302.749,310.437Z" fill="#8fd1c9"/>
            </g>
            <g id="Grupo_2934" data-name="Grupo 2934">
              <ellipse id="Elipse_874" data-name="Elipse 874" cx="3.908" cy="1.233" rx="3.908" ry="1.233" transform="translate(261.526 291.626)" fill="#8fd1c9"/>
            </g>
            <g id="Grupo_2935" data-name="Grupo 2935">
              <path id="Trazado_10309" data-name="Trazado 10309" d="M248.934,300.587c0,.681-1.75,1.232-3.909,1.232s-3.908-.551-3.908-1.232,1.75-1.233,3.908-1.233S248.934,299.906,248.934,300.587Z" fill="#8fd1c9"/>
            </g>
            <g id="Grupo_2936" data-name="Grupo 2936">
              <path id="Trazado_10310" data-name="Trazado 10310" d="M281.586,310.673c0,.681-1.75,1.233-3.909,1.233s-3.908-.552-3.908-1.233,1.75-1.233,3.908-1.233S281.586,309.992,281.586,310.673Z" fill="#8fd1c9"/>
            </g>
            <g id="Grupo_2937" data-name="Grupo 2937">
              <ellipse id="Elipse_875" data-name="Elipse 875" cx="3.908" cy="1.233" rx="3.908" ry="1.233" transform="translate(202.302 303.882)" fill="#8fd1c9"/>
            </g>
            <g id="Grupo_2938" data-name="Grupo 2938">
              <path id="Trazado_10311" data-name="Trazado 10311" d="M217.54,278.729c0,.681-1.75,1.233-3.909,1.233s-3.908-.552-3.908-1.233,1.75-1.232,3.908-1.232S217.54,278.049,217.54,278.729Z" fill="#8fd1c9"/>
            </g>
            <g id="Grupo_2939" data-name="Grupo 2939">
              <ellipse id="Elipse_876" data-name="Elipse 876" cx="3.908" cy="1.233" rx="3.908" ry="1.233" transform="translate(240.014 280.533)" fill="#8fd1c9"/>
            </g>
            <g id="Grupo_2940" data-name="Grupo 2940">
              <path id="Trazado_10312" data-name="Trazado 10312" d="M537.418,336.961c0,1.362-3.5,2.466-7.817,2.466s-7.817-1.1-7.817-2.466,3.5-2.465,7.817-2.465S537.418,335.6,537.418,336.961Z" fill="#8fd1c9"/>
            </g>
            <g id="Grupo_2941" data-name="Grupo 2941">
              <path id="Trazado_10313" data-name="Trazado 10313" d="M573.373,336.961c0,1.362-3.5,2.466-7.817,2.466s-7.817-1.1-7.817-2.466,3.5-2.465,7.817-2.465S573.373,335.6,573.373,336.961Z" fill="#8fd1c9"/>
            </g>
            <g id="Grupo_2942" data-name="Grupo 2942">
              <path id="Trazado_10314" data-name="Trazado 10314" d="M541.326,343.124c0,.681-1.75,1.233-3.908,1.233s-3.909-.552-3.909-1.233,1.75-1.232,3.909-1.232S541.326,342.444,541.326,343.124Z" fill="#8fd1c9"/>
            </g>
            <g id="Grupo_2943" data-name="Grupo 2943">
              <path id="Trazado_10315" data-name="Trazado 10315" d="M619.436,358.63c0,.681-1.75,1.233-3.908,1.233s-3.908-.552-3.908-1.233,1.749-1.233,3.908-1.233S619.436,357.949,619.436,358.63Z" fill="#8fd1c9"/>
            </g>
            <g id="Grupo_2944" data-name="Grupo 2944">
              <ellipse id="Elipse_877" data-name="Elipse 877" cx="3.908" cy="1.233" rx="3.908" ry="1.233" transform="translate(579.769 371.123)" fill="#8fd1c9"/>
            </g>
            <g id="Grupo_2945" data-name="Grupo 2945">
              <ellipse id="Elipse_878" data-name="Elipse 878" cx="3.908" cy="1.233" rx="3.908" ry="1.233" transform="translate(645.787 364.67)" fill="#8fd1c9"/>
            </g>
            <g id="Grupo_2946" data-name="Grupo 2946">
              <path id="Trazado_10316" data-name="Trazado 10316" d="M519.814,332.031c0,.681-1.75,1.233-3.909,1.233S512,332.712,512,332.031s1.75-1.233,3.908-1.233S519.814,331.35,519.814,332.031Z" fill="#8fd1c9"/>
            </g>
            <g id="Grupo_2947" data-name="Grupo 2947">
              <path id="Trazado_10317" data-name="Trazado 10317" d="M610.586,371.005c0,1.361-3.5,2.465-7.817,2.465s-7.816-1.1-7.816-2.465,3.5-2.466,7.816-2.466S610.586,369.643,610.586,371.005Z" fill="#8fd1c9"/>
            </g>
            <g id="Grupo_2948" data-name="Grupo 2948">
              <path id="Trazado_10318" data-name="Trazado 10318" d="M609.234,342.639c0,1.362-3.5,2.465-7.816,2.465s-7.817-1.1-7.817-2.465,3.5-2.465,7.817-2.465S609.234,341.278,609.234,342.639Z" fill="#8fd1c9"/>
            </g>
            <g id="Grupo_2949" data-name="Grupo 2949">
              <ellipse id="Elipse_879" data-name="Elipse 879" cx="7.817" cy="2.465" rx="7.817" ry="2.465" transform="translate(640.096 350.337)" fill="#8fd1c9"/>
            </g>
            <g id="Grupo_2950" data-name="Grupo 2950">
              <path id="Trazado_10319" data-name="Trazado 10319" d="M614.495,377.168c0,.68-1.75,1.232-3.909,1.232s-3.908-.552-3.908-1.232,1.75-1.233,3.908-1.233S614.495,376.487,614.495,377.168Z" fill="#8fd1c9"/>
            </g>
            <g id="Grupo_2951" data-name="Grupo 2951">
              <path id="Trazado_10320" data-name="Trazado 10320" d="M592.982,366.074c0,.681-1.75,1.233-3.908,1.233s-3.908-.552-3.908-1.233,1.749-1.232,3.908-1.232S592.982,365.393,592.982,366.074Z" fill="#8fd1c9"/>
            </g>
            <g id="Grupo_2952" data-name="Grupo 2952">
              <path id="Trazado_10321" data-name="Trazado 10321" d="M183.769,287.526c0,.681-1.75,1.232-3.908,1.232s-3.909-.551-3.909-1.232,1.75-1.233,3.909-1.233S183.769,286.845,183.769,287.526Z" fill="#8fd1c9"/>
            </g>
          </g>
          <g id="Grupo_2954" data-name="Grupo 2954">
            <path id="Trazado_10322" data-name="Trazado 10322" d="M171.678,253.629,7.907,264.535c43.616-2.872,128.568-7.765,254.88,10.895,173.2,25.587,24.6,5.9,29.523,16.73s126.455,11.809,191.651,29.523-13.531-9.841-47.974-16.73-9.841-14.761,107.758,13.777C630.108,339.689,764.5,389.307,829.8,414.187h22.454C483.223,228.66,171.678,253.629,171.678,253.629Z" fill="#8fd1c9"/>
          </g>
        </g>
      </g>
      <path id="Trazado_10323" data-name="Trazado 10323" d="M130.088,369.32s19.305-13.841,236.3,15.355,306.042-29.9,579.127-29.9l198.8,55.97L0,413.832Z" fill="#72b7ae"/>
      <g id="Grupo_2957" data-name="Grupo 2957" opacity="0.14">
        <path id="Trazado_10324" data-name="Trazado 10324" d="M402.17,64.132a12.123,12.123,0,0,0-10.182,5.45,16.786,16.786,0,0,0-22.147-12.115,16.779,16.779,0,1,0-33.123-.338A13.9,13.9,0,0,0,315,67.686a13.847,13.847,0,0,0-16.423,13.275l114.461.567a12.116,12.116,0,0,0-10.866-17.4Z" fill="#fff"/>
        <path id="Trazado_10325" data-name="Trazado 10325" d="M922.638,111.849a22.955,22.955,0,0,0-19.284,10.321,31.8,31.8,0,0,0-41.947-22.946,31.779,31.779,0,1,0-62.735-.64,26.328,26.328,0,0,0-41.136,20,26.222,26.222,0,0,0-31.1,25.142L943.218,144.8a22.945,22.945,0,0,0-20.58-32.947Z" fill="#fff"/>
        <path id="Trazado_10326" data-name="Trazado 10326" d="M206.242,56.572a18.77,18.77,0,0,0-15.769,8.44,26,26,0,0,0-34.3-18.763,25.986,25.986,0,1,0-51.3-.523,21.529,21.529,0,0,0-33.638,16.35A21.443,21.443,0,0,0,45.8,82.635l177.267.878a18.762,18.762,0,0,0-16.828-26.941Z" fill="#fff"/>
        <path id="Trazado_10327" data-name="Trazado 10327" d="M945.6,57.349A20.883,20.883,0,0,1,963.15,66.74a28.928,28.928,0,0,1,38.164-20.876,28.912,28.912,0,1,1,57.075-.582,23.954,23.954,0,0,1,37.426,18.191,23.86,23.86,0,0,1,28.3,22.874l-197.232.978A20.877,20.877,0,0,1,945.6,57.349Z" fill="#fff"/>
        <path id="Trazado_10328" data-name="Trazado 10328" d="M570.785,114.943a26.871,26.871,0,0,0-52.523-7.511A23.164,23.164,0,0,0,495.8,129.851h90.124A16.664,16.664,0,0,0,570.785,114.943Z" fill="#fff"/>
        <path id="Trazado_10329" data-name="Trazado 10329" d="M614.8,152.02A21.527,21.527,0,0,1,656.881,146a18.555,18.555,0,0,1,18,17.959h-72.2A13.349,13.349,0,0,1,614.8,152.02Z" fill="#fff"/>
        <path id="Trazado_10330" data-name="Trazado 10330" d="M715.369,55.084A25.336,25.336,0,0,0,665.846,48a21.842,21.842,0,0,0-21.182,21.139h84.978A15.714,15.714,0,0,0,715.369,55.084Z" fill="#fff"/>
      </g>
      <g id="Grupo_2958" data-name="Grupo 2958">
        <path id="Trazado_10331" data-name="Trazado 10331" d="M82.517,183.663a.372.372,0,0,0,.35.391.161.161,0,0,0,.22.174,30.687,30.687,0,0,0,3.876-2,26.388,26.388,0,0,1,3.862-2.639,4.925,4.925,0,0,1,5.1.421,16.446,16.446,0,0,0,4.2,1.867.258.258,0,0,0,.334-.291c-.2-2.093-.952-4.611-2.726-5.879a1.727,1.727,0,0,0-1.358-.259,3.46,3.46,0,0,1-1.958-.515,5.546,5.546,0,0,0-3.3-.514A9.8,9.8,0,0,0,82.517,183.663Z" fill="#8fd1c9"/>
        <path id="Trazado_10332" data-name="Trazado 10332" d="M62.054,188.521a23.541,23.541,0,0,1,7.72-4.431,12.294,12.294,0,0,0,3.541-1.836c.985-.772,2.229-1.878,3.514-1.645a1.959,1.959,0,0,1,.782.508c.233.243.74.078.637-.313a5.467,5.467,0,0,0-3.787-3.952c-2.084-.559-3.844.25-5.448,1.566-1.009.828-2.168,1.253-3.233,1.974a7.921,7.921,0,0,0-1.969,1.948,15.776,15.776,0,0,0-2.264,5.82C61.477,188.46,61.791,188.75,62.054,188.521Z" fill="#8fd1c9"/>
        <path id="Trazado_10333" data-name="Trazado 10333" d="M59.115,176.74a12.557,12.557,0,0,1,4.01-3.294,10.736,10.736,0,0,1,2.63-.518c.461-.078.9-.259,1.362-.333a5.4,5.4,0,0,1,1.644.073,12.97,12.97,0,0,1,5.847,2.043,12.676,12.676,0,0,1,4.031,3.991.366.366,0,0,0,.391.187.116.116,0,0,0,.127-.049.334.334,0,0,0,.153-.366c-.039-.2-.083-.4-.124-.6-.022-2.41-.427-4.946-2.028-6.8a3.847,3.847,0,0,0-2.607-1.431,5.957,5.957,0,0,1-2.227-.3c-.684-.3-1.343-.641-2.052-.883a7.569,7.569,0,0,0-7.173.81c-2.307,1.706-3.443,4.509-4.486,7.119C58.5,176.668,58.9,176.981,59.115,176.74Z" fill="#8fd1c9"/>
        <path id="Trazado_10334" data-name="Trazado 10334" d="M55.415,163.229c.038.644.57.882,1.131.854a19.221,19.221,0,0,0,3.462-.819c1.189-.294,2.377-.62,3.58-.85a11.348,11.348,0,0,1,7.235,1.139,13.469,13.469,0,0,1,5.066,3.958c1.077,1.439,1.6,3.41,3.329,4.194.283.128.506-.173.482-.431a45.593,45.593,0,0,0-.827-5.43A14.37,14.37,0,0,0,78,161.835a8.92,8.92,0,0,0-4.21-4.8,15.2,15.2,0,0,0-12.834-.131,9.2,9.2,0,0,0-4.461,3.959C56.126,161.5,55.37,162.466,55.415,163.229Z" fill="#8fd1c9"/>
        <path id="Trazado_10335" data-name="Trazado 10335" d="M80.946,167.3a.347.347,0,0,0,.64.132,3.489,3.489,0,0,0,1.175-1.414,26.9,26.9,0,0,0,1.46-2.753c.465-1.006.809-2.054,1.233-3.076a6.012,6.012,0,0,1,2.127-2.626,10.893,10.893,0,0,1,5.654-2.453c2.215-.2,4.434-.373,6.65-.558a.329.329,0,0,0,.152-.574c-2.064-1.7-4.562-3.335-7.248-3.675a4.955,4.955,0,0,0-3.221.578,14.292,14.292,0,0,1-1.9,1.287c-.616.255-1.29.333-1.912.575C80.4,154.83,80.049,162.443,80.946,167.3Z" fill="#8fd1c9"/>
        <path id="Trazado_10336" data-name="Trazado 10336" d="M82.221,173.87c-.013.222-.019.447-.016.673.006.34.472.608.676.249a20.179,20.179,0,0,1,3.228-4.678c1.436-1.387,3.171-1.687,4.914-2.461.888-.394,1.688-.967,2.574-1.365a8.369,8.369,0,0,1,3.107-.567,5.863,5.863,0,0,1,3.393.6,10.545,10.545,0,0,1,2.286,1.975c.183.2.6.125.592-.2-.036-2.58-1.9-5.4-3.754-7.049a7.612,7.612,0,0,0-7.6-1.355,12.35,12.35,0,0,0-6.608,5.185,28.794,28.794,0,0,0-2.87,8.836A.132.132,0,0,0,82.221,173.87Z" fill="#8fd1c9"/>
        <path id="Trazado_10337" data-name="Trazado 10337" d="M81.116,164.7a23.031,23.031,0,0,1,2.857-7.01,8.746,8.746,0,0,1,5.274-4.073c2.691-.766,5.623-1.21,8.309-.215.167.062.059.318-.108.259a10.016,10.016,0,0,0-5.146-.251,16.91,16.91,0,0,0-4.222,1.219c-2.814,1.332-4.426,4.515-5.471,7.362-2.329,6.345-1.833,13.351-1.412,19.984.016.255-.363.312-.387.054C80.263,176.247,79.755,170.406,81.116,164.7Z" fill="#8fd1c9"/>
        <path id="Trazado_10338" data-name="Trazado 10338" d="M81.105,180.321a40,40,0,0,1,.672-4.438,22.077,22.077,0,0,1,2.682-6.945c2.32-3.78,6.156-6.585,10.651-6.352a8.489,8.489,0,0,1,6.122,2.918.142.142,0,0,1-.214.187,8.847,8.847,0,0,0-7.412-2.549,11.155,11.155,0,0,0-7.008,3.887,18.553,18.553,0,0,0-3.867,7.541,34.516,34.516,0,0,0-.941,5.119c-.092.8-.162,1.594-.224,2.392a12.168,12.168,0,0,1-.254,2.447.214.214,0,0,1-.411-.034A16.183,16.183,0,0,1,81.105,180.321Z" fill="#8fd1c9"/>
        <path id="Trazado_10339" data-name="Trazado 10339" d="M86.262,178.827a10.562,10.562,0,0,1,6.4-2.541,7.288,7.288,0,0,1,3.614.76,6.284,6.284,0,0,1,2.346,2.736c.084.158-.156.272-.244.12a5.829,5.829,0,0,0-2.856-2.688,7.4,7.4,0,0,0-3.6-.319,10.707,10.707,0,0,0-5.864,2.944,13.015,13.015,0,0,0-3.507,6.338,24.034,24.034,0,0,0-.282,7.811.231.231,0,0,1-.453.089C80.57,188.811,82.063,182.314,86.262,178.827Z" fill="#8fd1c9"/>
        <path id="Trazado_10340" data-name="Trazado 10340" d="M63.5,185.51a18.816,18.816,0,0,1,5.329-5.054c1.923-1.342,4.233-2.456,6.61-1.9,2.151.508,3.507,2.407,4.381,4.362a20.476,20.476,0,0,1,1.878,7.6c.009.335-.523.358-.572.031A29.512,29.512,0,0,0,79.5,183.7c-.849-2.094-2.184-4.228-4.542-4.612-2.324-.377-4.468.838-6.334,2.1a17.509,17.509,0,0,0-4.891,4.481C63.63,185.828,63.4,185.665,63.5,185.51Z" fill="#8fd1c9"/>
        <path id="Trazado_10341" data-name="Trazado 10341" d="M60.745,173.342c1.944-2,4.291-3.621,7.14-3.594a11.558,11.558,0,0,1,7.7,3.636,16.426,16.426,0,0,1,4.561,7.6,36.775,36.775,0,0,1,1.463,10.058.315.315,0,0,1-.623.034,83.378,83.378,0,0,0-1.267-9.053,15.539,15.539,0,0,0-3.844-7.508,11.988,11.988,0,0,0-7.411-4.193c-2.966-.281-5.4,1.309-7.535,3.232C60.789,173.68,60.621,173.469,60.745,173.342Z" fill="#8fd1c9"/>
        <path id="Trazado_10342" data-name="Trazado 10342" d="M59.16,161.355a11.019,11.019,0,0,1,6.851-2.174,17.3,17.3,0,0,1,4.137.172,9.473,9.473,0,0,1,3.511,1.687c4.594,3.344,6.407,9.24,7.024,14.735.421,3.746.515,7.526.865,11.279.042.453-.623.609-.689.143-.814-5.761-.373-11.66-2.023-17.3a17,17,0,0,0-3.817-6.892,11.8,11.8,0,0,0-3.137-2.414,8.94,8.94,0,0,0-4.083-.887c-2.9-.074-6.019.046-8.461,1.858C59.2,161.667,59.023,161.469,59.16,161.355Z" fill="#8fd1c9"/>
        <path id="Trazado_10343" data-name="Trazado 10343" d="M79.61,183.3c.052,2.14.76,4.159,1.031,6.272.464,3.61-.125,7.461,1.777,10.727a.453.453,0,0,0,.857-.164,85.472,85.472,0,0,0-.585-13.869c-.3-2.514-1.005-4.687-1-7.225a43.867,43.867,0,0,0-.658-8.109A55.974,55.974,0,0,0,79.61,183.3Z" fill="#8fd1c9"/>
      </g>
      <g id="Grupo_2959" data-name="Grupo 2959">
        <path id="Trazado_10344" data-name="Trazado 10344" d="M157.338,183.663a.372.372,0,0,0,.349.391.162.162,0,0,0,.221.174,30.824,30.824,0,0,0,3.876-2,26.324,26.324,0,0,1,3.861-2.639,4.925,4.925,0,0,1,5.1.421,16.453,16.453,0,0,0,4.2,1.867.258.258,0,0,0,.334-.291c-.2-2.093-.953-4.611-2.726-5.879a1.728,1.728,0,0,0-1.358-.259,3.463,3.463,0,0,1-1.959-.515,5.545,5.545,0,0,0-3.295-.514A9.8,9.8,0,0,0,157.338,183.663Z" fill="#8fd1c9"/>
        <path id="Trazado_10345" data-name="Trazado 10345" d="M136.875,188.521a23.52,23.52,0,0,1,7.72-4.431,12.32,12.32,0,0,0,3.541-1.836c.985-.772,2.228-1.878,3.513-1.645a1.952,1.952,0,0,1,.782.508c.234.243.74.078.637-.313a5.466,5.466,0,0,0-3.786-3.952c-2.084-.559-3.844.25-5.448,1.566-1.009.828-2.169,1.253-3.233,1.974a7.921,7.921,0,0,0-1.969,1.948,15.776,15.776,0,0,0-2.264,5.82C136.3,188.46,136.612,188.75,136.875,188.521Z" fill="#8fd1c9"/>
        <path id="Trazado_10346" data-name="Trazado 10346" d="M133.935,176.74a12.55,12.55,0,0,1,4.011-3.294,10.729,10.729,0,0,1,2.629-.518c.462-.078.9-.259,1.362-.333a5.408,5.408,0,0,1,1.645.073,12.979,12.979,0,0,1,5.847,2.043,12.673,12.673,0,0,1,4.03,3.991.366.366,0,0,0,.392.187.117.117,0,0,0,.127-.049.333.333,0,0,0,.152-.366c-.038-.2-.082-.4-.123-.6-.022-2.41-.427-4.946-2.028-6.8a3.849,3.849,0,0,0-2.607-1.431,5.965,5.965,0,0,1-2.228-.3c-.684-.3-1.342-.641-2.051-.883a7.568,7.568,0,0,0-7.173.81c-2.308,1.706-3.443,4.509-4.486,7.119C133.319,176.668,133.716,176.981,133.935,176.74Z" fill="#8fd1c9"/>
        <path id="Trazado_10347" data-name="Trazado 10347" d="M130.236,163.229c.038.644.569.882,1.13.854a19.181,19.181,0,0,0,3.462-.819c1.19-.294,2.377-.62,3.58-.85a11.348,11.348,0,0,1,7.235,1.139,13.472,13.472,0,0,1,5.067,3.958c1.076,1.439,1.6,3.41,3.329,4.194.282.128.505-.173.482-.431a45.6,45.6,0,0,0-.828-5.43,14.3,14.3,0,0,0-.871-4.009,8.921,8.921,0,0,0-4.21-4.8,15.193,15.193,0,0,0-12.833-.131,9.193,9.193,0,0,0-4.462,3.959C130.947,161.5,130.191,162.466,130.236,163.229Z" fill="#8fd1c9"/>
        <path id="Trazado_10348" data-name="Trazado 10348" d="M155.767,167.3a.347.347,0,0,0,.64.132,3.479,3.479,0,0,0,1.174-1.414,26.914,26.914,0,0,0,1.461-2.753c.464-1.006.808-2.054,1.232-3.076a6.012,6.012,0,0,1,2.127-2.626,10.9,10.9,0,0,1,5.654-2.453c2.216-.2,4.434-.373,6.651-.558a.329.329,0,0,0,.151-.574c-2.064-1.7-4.562-3.335-7.248-3.675a4.953,4.953,0,0,0-3.22.578,14.423,14.423,0,0,1-1.9,1.287c-.616.255-1.29.333-1.912.575C155.222,154.83,154.87,162.443,155.767,167.3Z" fill="#8fd1c9"/>
        <path id="Trazado_10349" data-name="Trazado 10349" d="M157.042,173.87c-.013.222-.02.447-.016.673.006.34.471.608.676.249a20.175,20.175,0,0,1,3.227-4.678c1.436-1.387,3.171-1.687,4.914-2.461.888-.394,1.689-.967,2.575-1.365a8.362,8.362,0,0,1,3.107-.567,5.866,5.866,0,0,1,3.393.6A10.544,10.544,0,0,1,177.2,168.3c.183.2.6.125.592-.2-.037-2.58-1.9-5.4-3.755-7.049a7.611,7.611,0,0,0-7.6-1.355,12.352,12.352,0,0,0-6.609,5.185,28.821,28.821,0,0,0-2.87,8.836A.134.134,0,0,0,157.042,173.87Z" fill="#8fd1c9"/>
        <path id="Trazado_10350" data-name="Trazado 10350" d="M155.936,164.7a23.033,23.033,0,0,1,2.858-7.01,8.743,8.743,0,0,1,5.274-4.073c2.69-.766,5.623-1.21,8.309-.215.166.062.058.318-.108.259a10.019,10.019,0,0,0-5.147-.251,16.915,16.915,0,0,0-4.221,1.219c-2.815,1.332-4.426,4.515-5.471,7.362-2.33,6.345-1.834,13.351-1.413,19.984.016.255-.362.312-.387.054C155.084,176.247,154.576,170.406,155.936,164.7Z" fill="#8fd1c9"/>
        <path id="Trazado_10351" data-name="Trazado 10351" d="M155.925,180.321a40.477,40.477,0,0,1,.672-4.438,22.077,22.077,0,0,1,2.682-6.945c2.32-3.78,6.157-6.585,10.651-6.352a8.49,8.49,0,0,1,6.123,2.918.142.142,0,0,1-.214.187,8.847,8.847,0,0,0-7.412-2.549,11.155,11.155,0,0,0-7.008,3.887,18.553,18.553,0,0,0-3.867,7.541,34.518,34.518,0,0,0-.942,5.119c-.091.8-.161,1.594-.223,2.392a12.1,12.1,0,0,1-.255,2.447.214.214,0,0,1-.411-.034A16.184,16.184,0,0,1,155.925,180.321Z" fill="#8fd1c9"/>
        <path id="Trazado_10352" data-name="Trazado 10352" d="M161.083,178.827a10.559,10.559,0,0,1,6.405-2.541,7.293,7.293,0,0,1,3.614.76,6.282,6.282,0,0,1,2.345,2.736c.085.158-.156.272-.244.12a5.831,5.831,0,0,0-2.855-2.688,7.4,7.4,0,0,0-3.6-.319,10.7,10.7,0,0,0-5.864,2.944,13.024,13.024,0,0,0-3.508,6.338,24.062,24.062,0,0,0-.282,7.811.23.23,0,0,1-.452.089C155.39,188.811,156.883,182.314,161.083,178.827Z" fill="#8fd1c9"/>
        <path id="Trazado_10353" data-name="Trazado 10353" d="M138.323,185.51a18.82,18.82,0,0,1,5.33-5.054c1.923-1.342,4.233-2.456,6.609-1.9,2.152.508,3.508,2.407,4.382,4.362a20.5,20.5,0,0,1,1.878,7.6c.008.335-.523.358-.573.031a29.412,29.412,0,0,0-1.629-6.856c-.849-2.094-2.183-4.228-4.541-4.612-2.324-.377-4.468.838-6.335,2.1a17.505,17.505,0,0,0-4.89,4.481C138.451,185.828,138.224,185.665,138.323,185.51Z" fill="#8fd1c9"/>
        <path id="Trazado_10354" data-name="Trazado 10354" d="M135.566,173.342c1.944-2,4.291-3.621,7.14-3.594a11.553,11.553,0,0,1,7.7,3.636,16.426,16.426,0,0,1,4.561,7.6,36.776,36.776,0,0,1,1.464,10.058.315.315,0,0,1-.624.034,83.13,83.13,0,0,0-1.266-9.053,15.549,15.549,0,0,0-3.845-7.508,11.983,11.983,0,0,0-7.41-4.193c-2.967-.281-5.4,1.309-7.536,3.232C135.61,173.68,135.442,173.469,135.566,173.342Z" fill="#8fd1c9"/>
        <path id="Trazado_10355" data-name="Trazado 10355" d="M133.981,161.355a11.016,11.016,0,0,1,6.85-2.174,17.293,17.293,0,0,1,4.137.172,9.469,9.469,0,0,1,3.512,1.687c4.594,3.344,6.406,9.24,7.023,14.735.421,3.746.515,7.526.865,11.279.042.453-.622.609-.688.143-.814-5.761-.373-11.66-2.023-17.3a17,17,0,0,0-3.817-6.892,11.8,11.8,0,0,0-3.138-2.414,8.938,8.938,0,0,0-4.083-.887c-2.9-.074-6.019.046-8.46,1.858C134.02,161.667,133.843,161.469,133.981,161.355Z" fill="#8fd1c9"/>
        <path id="Trazado_10356" data-name="Trazado 10356" d="M154.43,183.3c.052,2.14.76,4.159,1.031,6.272.464,3.61-.124,7.461,1.778,10.727a.452.452,0,0,0,.856-.164,85.471,85.471,0,0,0-.584-13.869c-.3-2.514-1.005-4.687-.995-7.225a44.042,44.042,0,0,0-.658-8.109A55.88,55.88,0,0,0,154.43,183.3Z" fill="#8fd1c9"/>
      </g>
      <g id="Grupo_2981" data-name="Grupo 2981">
        <g id="Grupo_2980" data-name="Grupo 2980">
          <g id="Grupo_2961" data-name="Grupo 2961">
            <g id="Grupo_2960" data-name="Grupo 2960">
              <path id="Trazado_10357" data-name="Trazado 10357" d="M192.475,349.092c-.009.267.2.576.469.555-.023.156.138.335.3.248a40.657,40.657,0,0,0,5.2-2.844,35.2,35.2,0,0,1,5.185-3.748c2.472-1.224,4.563-.882,6.842.6a21.483,21.483,0,0,0,5.638,2.653.354.354,0,0,0,.448-.414c-.263-2.973-1.278-6.55-3.66-8.351a2.22,2.22,0,0,0-1.822-.368,4.453,4.453,0,0,1-2.63-.73,7.088,7.088,0,0,0-4.424-.731A13.626,13.626,0,0,0,192.475,349.092Z" fill="#72b7ae"/>
            </g>
          </g>
          <g id="Grupo_2963" data-name="Grupo 2963">
            <g id="Grupo_2962" data-name="Grupo 2962">
              <path id="Trazado_10358" data-name="Trazado 10358" d="M165,355.993a31.172,31.172,0,0,1,10.365-6.3,16.164,16.164,0,0,0,4.753-2.608c1.323-1.1,2.993-2.667,4.718-2.336a2.629,2.629,0,0,1,1.05.722.5.5,0,0,0,.855-.445,7.592,7.592,0,0,0-5.084-5.613c-2.8-.794-5.161.354-7.315,2.224-1.354,1.176-2.911,1.78-4.34,2.8a10.958,10.958,0,0,0-2.644,2.767,23.2,23.2,0,0,0-3.039,8.266C164.227,355.906,164.648,356.318,165,355.993Z" fill="#72b7ae"/>
            </g>
          </g>
          <g id="Grupo_2965" data-name="Grupo 2965">
            <g id="Grupo_2964" data-name="Grupo 2964">
              <path id="Trazado_10359" data-name="Trazado 10359" d="M161.055,339.259c1.555-1.8,3.252-3.7,5.385-4.678a13.679,13.679,0,0,1,3.53-.736c.619-.112,1.208-.369,1.828-.473a6.855,6.855,0,0,1,2.208.1,16.807,16.807,0,0,1,7.85,2.9,17.523,17.523,0,0,1,5.412,5.668.48.48,0,0,0,.525.266.154.154,0,0,0,.171-.069.484.484,0,0,0,.205-.519c-.052-.286-.111-.571-.166-.856-.029-3.424-.574-7.026-2.723-9.664a5.1,5.1,0,0,0-3.5-2.031,7.582,7.582,0,0,1-2.991-.429c-.918-.43-1.8-.909-2.754-1.254-3.289-1.189-6.75-1.1-9.631,1.151-3.1,2.423-4.622,6.4-6.023,10.111C160.228,339.156,160.761,339.6,161.055,339.259Z" fill="#72b7ae"/>
            </g>
          </g>
          <g id="Grupo_2967" data-name="Grupo 2967">
            <g id="Grupo_2966" data-name="Grupo 2966">
              <path id="Trazado_10360" data-name="Trazado 10360" d="M156.087,320.068a1.286,1.286,0,0,0,1.519,1.213,24.747,24.747,0,0,0,4.648-1.163c1.6-.417,3.191-.881,4.806-1.207a14.5,14.5,0,0,1,9.714,1.617,18.27,18.27,0,0,1,6.8,5.623c1.445,2.044,2.145,4.842,4.47,5.956.379.181.679-.245.647-.612a68.04,68.04,0,0,0-1.111-7.713,21.394,21.394,0,0,0-1.169-5.7,12.476,12.476,0,0,0-5.653-6.81c-5.39-2.948-11.706-2.621-17.23-.185a12.589,12.589,0,0,0-5.99,5.623C157.043,317.611,156.027,318.985,156.087,320.068Z" fill="#72b7ae"/>
            </g>
          </g>
          <g id="Grupo_2969" data-name="Grupo 2969">
            <g id="Grupo_2968" data-name="Grupo 2968">
              <path id="Trazado_10361" data-name="Trazado 10361" d="M190.366,325.846a.459.459,0,0,0,.859.187,4.88,4.88,0,0,0,1.577-2.008,38.993,38.993,0,0,0,1.961-3.91c.623-1.429,1.086-2.917,1.655-4.369a8.449,8.449,0,0,1,2.856-3.73c2.377-1.858,4.634-3.2,7.591-3.484,2.974-.289,5.953-.53,8.929-.793.373-.033.474-.58.2-.816-2.771-2.418-6.125-4.736-9.731-5.219a6.344,6.344,0,0,0-4.324.821,19.175,19.175,0,0,1-2.549,1.828c-.826.361-1.732.473-2.566.817C189.635,308.138,189.161,318.951,190.366,325.846Z" fill="#72b7ae"/>
            </g>
          </g>
          <g id="Grupo_2971" data-name="Grupo 2971">
            <g id="Grupo_2970" data-name="Grupo 2970">
              <path id="Trazado_10362" data-name="Trazado 10362" d="M192.078,335.182c-.017.316-.027.635-.021.957.007.482.632.864.907.353a28.709,28.709,0,0,1,4.333-6.644c1.928-1.97,4.258-2.4,6.6-3.5,1.192-.56,2.266-1.374,3.457-1.938a10.677,10.677,0,0,1,4.171-.807,7.509,7.509,0,0,1,4.555.858,14.406,14.406,0,0,1,3.069,2.806.45.45,0,0,0,.795-.279c-.049-3.664-2.555-7.675-5.04-10.012a9.79,9.79,0,0,0-10.209-1.925,16.77,16.77,0,0,0-8.873,7.365,42.625,42.625,0,0,0-3.853,12.551A.19.19,0,0,0,192.078,335.182Z" fill="#72b7ae"/>
            </g>
          </g>
          <g id="Grupo_2972" data-name="Grupo 2972">
            <path id="Trazado_10363" data-name="Trazado 10363" d="M190.594,322.152a33.834,33.834,0,0,1,3.836-9.958,11.855,11.855,0,0,1,7.081-5.784c3.612-1.089,7.549-1.719,11.156-.306.223.088.078.453-.145.369a12.746,12.746,0,0,0-6.91-.358,21.783,21.783,0,0,0-5.668,1.732c-3.779,1.892-5.942,6.414-7.346,10.457-3.127,9.012-2.461,18.964-1.9,28.385.022.362-.487.443-.519.076C189.449,338.559,188.767,330.262,190.594,322.152Z" fill="#72b7ae"/>
          </g>
          <g id="Grupo_2973" data-name="Grupo 2973">
            <path id="Trazado_10364" data-name="Trazado 10364" d="M190.578,344.345a60.331,60.331,0,0,1,.9-6.3,32.447,32.447,0,0,1,3.6-9.865c3.115-5.368,8.265-9.353,14.3-9.023a11.167,11.167,0,0,1,8.22,4.146c.162.2-.12.453-.287.265a11.493,11.493,0,0,0-9.952-3.62,14.778,14.778,0,0,0-9.408,5.52,26.933,26.933,0,0,0-5.193,10.712,51.74,51.74,0,0,0-1.264,7.27c-.122,1.131-.216,2.264-.3,3.4a18.188,18.188,0,0,1-.341,3.475.284.284,0,0,1-.552-.048A24.3,24.3,0,0,1,190.578,344.345Z" fill="#72b7ae"/>
          </g>
          <g id="Grupo_2974" data-name="Grupo 2974">
            <path id="Trazado_10365" data-name="Trazado 10365" d="M197.5,342.224a13.755,13.755,0,0,1,8.6-3.609,9.336,9.336,0,0,1,4.852,1.078,8.807,8.807,0,0,1,3.149,3.887.185.185,0,1,1-.327.171,8.019,8.019,0,0,0-3.834-3.818,9.4,9.4,0,0,0-4.834-.454,14.091,14.091,0,0,0-7.873,4.182,18.8,18.8,0,0,0-4.709,9,36.12,36.12,0,0,0-.379,11.1c.032.425-.511.554-.607.126C189.86,356.4,191.865,347.176,197.5,342.224Z" fill="#72b7ae"/>
          </g>
          <g id="Grupo_2975" data-name="Grupo 2975">
            <path id="Trazado_10366" data-name="Trazado 10366" d="M166.946,351.716a25.92,25.92,0,0,1,7.156-7.179c2.582-1.906,5.683-3.489,8.873-2.693,2.889.721,4.71,3.419,5.883,6.2a30.445,30.445,0,0,1,2.521,10.8.386.386,0,0,1-.768.045,43.9,43.9,0,0,0-2.187-9.739c-1.14-2.974-2.932-6.005-6.1-6.55-3.12-.537-6,1.189-8.5,2.989a24.059,24.059,0,0,0-6.567,6.365C167.118,352.168,166.813,351.936,166.946,351.716Z" fill="#72b7ae"/>
          </g>
          <g id="Grupo_2976" data-name="Grupo 2976">
            <path id="Trazado_10367" data-name="Trazado 10367" d="M163.244,334.432c2.61-2.845,5.761-5.142,9.586-5.1,3.955.039,7.523,2.3,10.332,5.164a23.619,23.619,0,0,1,6.124,10.8,55,55,0,0,1,1.964,14.285.421.421,0,0,1-.837.05,124.687,124.687,0,0,0-1.7-12.859,22.557,22.557,0,0,0-5.161-10.665c-2.656-3.029-6.015-5.561-9.95-5.955-3.983-.4-7.246,1.859-10.117,4.59C163.3,334.913,163.078,334.613,163.244,334.432Z" fill="#72b7ae"/>
          </g>
          <g id="Grupo_2977" data-name="Grupo 2977">
            <path id="Trazado_10368" data-name="Trazado 10368" d="M161.116,317.406c2.615-2.294,5.911-2.962,9.2-3.088a21.923,21.923,0,0,1,5.554.245,12.429,12.429,0,0,1,4.714,2.4c6.169,4.75,8.6,13.125,9.43,20.929.565,5.32.692,10.69,1.162,16.021.056.643-.836.865-.925.2-1.093-8.184-.5-16.561-2.716-24.57a24.561,24.561,0,0,0-5.125-9.789,15.977,15.977,0,0,0-4.212-3.43,11.468,11.468,0,0,0-5.482-1.259c-3.9-.1-8.081.066-11.359,2.64A.191.191,0,0,1,161.116,317.406Z" fill="#72b7ae"/>
          </g>
          <g id="Grupo_2979" data-name="Grupo 2979">
            <g id="Grupo_2978" data-name="Grupo 2978">
              <path id="Trazado_10369" data-name="Trazado 10369" d="M188.572,348.579c.069,3.04,1.02,5.908,1.384,8.909.623,5.127-.167,10.6,2.386,15.237a.6.6,0,0,0,1.15-.233,128.335,128.335,0,0,0-.785-19.7c-.407-3.57-1.349-6.657-1.335-10.262a66.075,66.075,0,0,0-.884-11.517C190.388,330.569,188.4,341.223,188.572,348.579Z" fill="#72b7ae"/>
            </g>
          </g>
        </g>
      </g>
      <g id="Grupo_3003" data-name="Grupo 3003">
        <g id="Grupo_3002" data-name="Grupo 3002">
          <g id="Grupo_2983" data-name="Grupo 2983">
            <g id="Grupo_2982" data-name="Grupo 2982">
              <path id="Trazado_10370" data-name="Trazado 10370" d="M99.446,353.816a.891.891,0,0,0,.837.936c-.041.262.246.565.528.419,3.147-1.633,6.35-2.719,9.285-4.8,3.043-2.154,5.861-4.737,9.249-6.322,4.411-2.063,8.142-1.487,12.208,1.008a39.383,39.383,0,0,0,10.059,4.474.619.619,0,0,0,.8-.7c-.47-5.013-2.281-11.046-6.53-14.083a4.146,4.146,0,0,0-3.252-.621,8.279,8.279,0,0,1-4.691-1.231,13.288,13.288,0,0,0-7.893-1.233C109.013,333.058,99.861,342.228,99.446,353.816Z" fill="#72b7ae"/>
            </g>
          </g>
          <g id="Grupo_2985" data-name="Grupo 2985">
            <g id="Grupo_2984" data-name="Grupo 2984">
              <path id="Trazado_10371" data-name="Trazado 10371" d="M50.43,365.454a56.318,56.318,0,0,1,18.493-10.616,29.391,29.391,0,0,0,8.481-4.4c2.36-1.849,5.339-4.5,8.416-3.941a4.7,4.7,0,0,1,1.874,1.218c.559.581,1.771.186,1.525-.75A13.1,13.1,0,0,0,80.15,337.5c-4.993-1.34-9.209.6-13.051,3.751-2.416,1.983-5.194,3-7.744,4.728a18.991,18.991,0,0,0-4.717,4.666c-2.982,4.141-4.273,9.012-5.422,13.941C49.048,365.307,49.8,366,50.43,365.454Z" fill="#72b7ae"/>
            </g>
          </g>
          <g id="Grupo_2987" data-name="Grupo 2987">
            <g id="Grupo_2986" data-name="Grupo 2986">
              <path id="Trazado_10372" data-name="Trazado 10372" d="M43.389,337.234c2.774-3.045,5.8-6.24,9.607-7.89,2.077-.9,4.119-.869,6.3-1.241,1.1-.189,2.156-.622,3.262-.8a12.872,12.872,0,0,1,3.94.174c5.081.756,9.714,1.877,14,4.895,3.666,2.578,7.438,5.524,9.654,9.558a.874.874,0,0,0,.939.448.281.281,0,0,0,.3-.116.8.8,0,0,0,.365-.876c-.093-.482-.2-.962-.3-1.443-.052-5.773-1.023-11.849-4.857-16.3a9.217,9.217,0,0,0-6.245-3.426c-1.931-.139-3.488.094-5.336-.723-1.639-.725-3.215-1.534-4.914-2.114-5.867-2.006-12.043-1.86-17.182,1.94-5.527,4.086-8.247,10.8-10.746,17.052C41.914,337.06,42.864,337.809,43.389,337.234Z" fill="#72b7ae"/>
            </g>
          </g>
          <g id="Grupo_2989" data-name="Grupo 2989">
            <g id="Grupo_2988" data-name="Grupo 2988">
              <path id="Trazado_10373" data-name="Trazado 10373" d="M34.526,304.868c.091,1.543,1.365,2.113,2.709,2.047,2.729-.135,5.647-1.307,8.293-1.961,2.849-.7,5.693-1.486,8.575-2.037,6.136-1.173,11.725.059,17.331,2.727a32.277,32.277,0,0,1,12.135,9.483c2.579,3.447,3.827,8.167,7.975,10.045.676.306,1.211-.414,1.154-1.033a108.7,108.7,0,0,0-1.982-13.006,34.37,34.37,0,0,0-2.086-9.6,21.362,21.362,0,0,0-10.085-11.485c-9.617-4.973-20.885-4.42-30.741-.313a22,22,0,0,0-10.686,9.483C36.231,300.725,34.419,303.042,34.526,304.868Z" fill="#72b7ae"/>
            </g>
          </g>
          <g id="Grupo_2991" data-name="Grupo 2991">
            <g id="Grupo_2990" data-name="Grupo 2990">
              <path id="Trazado_10374" data-name="Trazado 10374" d="M95.683,314.613a.83.83,0,0,0,1.533.316c1.311-.687,2.025-2.093,2.814-3.387a64.672,64.672,0,0,0,3.5-6.593c1.112-2.41,1.937-4.92,2.952-7.369a14.4,14.4,0,0,1,5.095-6.291c4.241-3.132,8.269-5.39,13.544-5.874,5.306-.487,10.621-.894,15.931-1.338a.788.788,0,0,0,.363-1.376c-4.945-4.078-10.928-7.987-17.363-8.8a11.857,11.857,0,0,0-7.713,1.385c-1.586.967-2.805,2.362-4.548,3.082-1.475.609-3.09.8-4.579,1.378C94.379,284.75,93.534,302.986,95.683,314.613Z" fill="#72b7ae"/>
            </g>
          </g>
          <g id="Grupo_2993" data-name="Grupo 2993">
            <g id="Grupo_2992" data-name="Grupo 2992">
              <path id="Trazado_10375" data-name="Trazado 10375" d="M98.737,330.357c-.03.534-.047,1.071-.038,1.614.014.813,1.129,1.457,1.62.6,2.243-3.934,4.462-8.05,7.73-11.206,3.44-3.322,7.6-4.04,11.771-5.894,2.128-.945,4.044-2.318,6.167-3.269a20.038,20.038,0,0,1,7.443-1.36c2.829-.134,5.608-.043,8.127,1.447a25.218,25.218,0,0,1,5.476,4.731c.438.472,1.429.3,1.418-.47-.087-6.179-4.558-12.944-8.993-16.885-5.079-4.514-11.932-5.343-18.214-3.246-6.064,2.025-12.617,6.658-15.83,12.421-3.6,6.451-5.549,13.914-6.875,21.166A.318.318,0,0,0,98.737,330.357Z" fill="#72b7ae"/>
            </g>
          </g>
          <g id="Grupo_2994" data-name="Grupo 2994">
            <path id="Trazado_10376" data-name="Trazado 10376" d="M96.09,308.383a55.168,55.168,0,0,1,6.845-16.793c3.186-5.029,6.982-8.146,12.632-9.755,6.445-1.835,13.469-2.9,19.9-.515.4.148.14.763-.258.621a23.992,23.992,0,0,0-12.328-.6,40.491,40.491,0,0,0-10.112,2.921c-6.742,3.19-10.6,10.815-13.106,17.634-5.579,15.2-4.392,31.981-3.383,47.869.039.611-.868.748-.927.129C94.048,336.053,92.83,322.06,96.09,308.383Z" fill="#72b7ae"/>
          </g>
          <g id="Grupo_2995" data-name="Grupo 2995">
            <path id="Trazado_10377" data-name="Trazado 10377" d="M96.062,345.81a96.354,96.354,0,0,1,1.611-10.629,52.892,52.892,0,0,1,6.424-16.637c5.557-9.053,14.747-15.773,25.513-15.216a20.341,20.341,0,0,1,14.666,6.991.341.341,0,0,1-.513.448,21.185,21.185,0,0,0-17.755-6.105c-6.577.728-12.386,4.349-16.786,9.309a44.441,44.441,0,0,0-9.263,18.064A82.8,82.8,0,0,0,97.7,344.3c-.218,1.907-.386,3.819-.535,5.732a29.073,29.073,0,0,1-.609,5.861.513.513,0,0,1-.985-.081C95.023,352.674,95.747,348.969,96.062,345.81Z" fill="#72b7ae"/>
          </g>
          <g id="Grupo_2996" data-name="Grupo 2996">
            <path id="Trazado_10378" data-name="Trazado 10378" d="M108.417,342.233a25.3,25.3,0,0,1,15.342-6.086,17.443,17.443,0,0,1,8.657,1.819c2.622,1.45,4.223,3.944,5.618,6.554.2.379-.373.651-.583.288-1.625-2.8-3.8-5.281-6.841-6.438a17.676,17.676,0,0,0-8.623-.765,25.632,25.632,0,0,0-14.046,7.051,31.18,31.18,0,0,0-8.4,15.181c-1.538,6.226-1.178,12.386-.676,18.713a.552.552,0,0,1-1.084.212C94.781,366.147,98.358,350.585,108.417,342.233Z" fill="#72b7ae"/>
          </g>
          <g id="Grupo_2997" data-name="Grupo 2997">
            <path id="Trazado_10379" data-name="Trazado 10379" d="M53.9,358.241c3.225-5.037,7.955-8.749,12.767-12.107,4.606-3.214,10.139-5.883,15.831-4.541,5.154,1.216,8.4,5.765,10.5,10.447a49.07,49.07,0,0,1,4.5,18.215c.022.8-1.253.858-1.37.076-.852-5.659-1.741-11.1-3.9-16.424-2.035-5.016-5.231-10.128-10.879-11.046-5.567-.9-10.7,2.006-15.173,5.041-4.355,2.956-8.72,6.275-11.716,10.734C54.205,359,53.662,358.613,53.9,358.241Z" fill="#72b7ae"/>
          </g>
          <g id="Grupo_2998" data-name="Grupo 2998">
            <path id="Trazado_10380" data-name="Trazado 10380" d="M47.295,329.093c4.656-4.8,10.278-8.672,17.1-8.608,7.057.066,13.422,3.872,18.434,8.71a39.343,39.343,0,0,1,10.925,18.214A88.009,88.009,0,0,1,97.261,371.5a.755.755,0,0,1-1.493.084c-.811-7.307-1.429-14.492-3.034-21.686a37.231,37.231,0,0,0-9.208-17.985c-4.738-5.108-10.73-9.379-17.752-10.044-7.105-.673-12.928,3.135-18.049,7.742C47.4,329.9,47,329.4,47.295,329.093Z" fill="#72b7ae"/>
          </g>
          <g id="Grupo_2999" data-name="Grupo 2999">
            <path id="Trazado_10381" data-name="Trazado 10381" d="M43.5,300.38c4.666-3.869,10.545-5,16.41-5.208a41.365,41.365,0,0,1,9.909.413,22.684,22.684,0,0,1,8.411,4.04c11.005,8.012,15.346,22.135,16.824,35.3,1.008,8.972,1.234,18.026,2.072,27.017.1,1.084-1.491,1.459-1.649.344-1.95-13.8-.894-27.931-4.846-41.436a40.732,40.732,0,0,0-9.143-16.51,28.276,28.276,0,0,0-7.516-5.783,21.426,21.426,0,0,0-9.78-2.124c-6.955-.177-14.418.111-20.266,4.452C43.591,301.129,43.168,300.653,43.5,300.38Z" fill="#72b7ae"/>
          </g>
          <g id="Grupo_3001" data-name="Grupo 3001">
            <g id="Grupo_3000" data-name="Grupo 3000">
              <path id="Trazado_10382" data-name="Trazado 10382" d="M92.482,352.951c.124,5.126,1.82,9.964,2.47,15.024,1.111,8.647-.3,17.873,4.257,25.7a1.085,1.085,0,0,0,2.052-.393,204.667,204.667,0,0,0-1.4-33.222c-.726-6.021-2.406-11.227-2.382-17.307.015-3.684-.235-13.809-1.577-19.423C95.723,322.578,92.182,340.546,92.482,352.951Z" fill="#72b7ae"/>
            </g>
          </g>
        </g>
      </g>
      <g id="Grupo_3025" data-name="Grupo 3025">
        <g id="Grupo_3024" data-name="Grupo 3024">
          <g id="Grupo_3005" data-name="Grupo 3005">
            <g id="Grupo_3004" data-name="Grupo 3004">
              <path id="Trazado_10383" data-name="Trazado 10383" d="M375.6,353.816a.891.891,0,0,0,.837.936c-.041.262.246.565.528.419,3.147-1.633,6.349-2.719,9.284-4.8,3.044-2.154,5.861-4.737,9.25-6.322,4.411-2.063,8.142-1.487,12.208,1.008a39.376,39.376,0,0,0,10.058,4.474.618.618,0,0,0,.8-.7c-.47-5.013-2.28-11.046-6.529-14.083a4.148,4.148,0,0,0-3.253-.621,8.283,8.283,0,0,1-4.691-1.231,13.287,13.287,0,0,0-7.893-1.233C385.168,333.058,376.016,342.228,375.6,353.816Z" fill="#72b7ae"/>
            </g>
          </g>
          <g id="Grupo_3007" data-name="Grupo 3007">
            <g id="Grupo_3006" data-name="Grupo 3006">
              <path id="Trazado_10384" data-name="Trazado 10384" d="M326.585,365.454a56.314,56.314,0,0,1,18.492-10.616,29.4,29.4,0,0,0,8.482-4.4c2.359-1.849,5.338-4.5,8.415-3.941a4.705,4.705,0,0,1,1.875,1.218c.559.581,1.771.186,1.525-.75a13.1,13.1,0,0,0-9.07-9.466c-4.993-1.34-9.208.6-13.051,3.751-2.416,1.983-5.194,3-7.743,4.728a18.991,18.991,0,0,0-4.717,4.666c-2.982,4.141-4.273,9.012-5.423,13.941C325.2,365.307,325.955,366,326.585,365.454Z" fill="#72b7ae"/>
            </g>
          </g>
          <g id="Grupo_3009" data-name="Grupo 3009">
            <g id="Grupo_3008" data-name="Grupo 3008">
              <path id="Trazado_10385" data-name="Trazado 10385" d="M319.543,337.234c2.774-3.045,5.8-6.24,9.607-7.89,2.077-.9,4.119-.869,6.3-1.241,1.1-.189,2.156-.622,3.262-.8a12.873,12.873,0,0,1,3.94.174c5.08.756,9.714,1.877,14.005,4.895,3.666,2.578,7.437,5.524,9.654,9.558a.873.873,0,0,0,.938.448.282.282,0,0,0,.305-.116.8.8,0,0,0,.365-.876c-.093-.482-.2-.962-.3-1.443-.052-5.773-1.023-11.849-4.857-16.3a9.219,9.219,0,0,0-6.246-3.426c-1.93-.139-3.488.094-5.335-.723-1.639-.725-3.216-1.534-4.914-2.114-5.868-2.006-12.043-1.86-17.183,1.94-5.526,4.086-8.246,10.8-10.745,17.052C318.068,337.06,319.019,337.809,319.543,337.234Z" fill="#72b7ae"/>
            </g>
          </g>
          <g id="Grupo_3011" data-name="Grupo 3011">
            <g id="Grupo_3010" data-name="Grupo 3010">
              <path id="Trazado_10386" data-name="Trazado 10386" d="M310.681,304.868c.091,1.543,1.364,2.113,2.708,2.047,2.73-.135,5.648-1.307,8.294-1.961,2.849-.7,5.693-1.486,8.575-2.037,6.136-1.173,11.725.059,17.33,2.727a32.272,32.272,0,0,1,12.136,9.483c2.579,3.447,3.826,8.167,7.974,10.045.677.306,1.212-.414,1.155-1.033a109.114,109.114,0,0,0-1.982-13.006,34.371,34.371,0,0,0-2.086-9.6A21.366,21.366,0,0,0,354.7,290.044c-9.617-4.973-20.885-4.42-30.741-.313a22,22,0,0,0-10.686,9.483C312.385,300.725,310.573,303.042,310.681,304.868Z" fill="#72b7ae"/>
            </g>
          </g>
          <g id="Grupo_3013" data-name="Grupo 3013">
            <g id="Grupo_3012" data-name="Grupo 3012">
              <path id="Trazado_10387" data-name="Trazado 10387" d="M371.838,314.613a.83.83,0,0,0,1.533.316c1.31-.687,2.024-2.093,2.814-3.387a64.671,64.671,0,0,0,3.5-6.593c1.112-2.41,1.937-4.92,2.952-7.369a14.4,14.4,0,0,1,5.1-6.291c4.241-3.132,8.269-5.39,13.544-5.874,5.306-.487,10.62-.894,15.93-1.338a.788.788,0,0,0,.363-1.376c-4.944-4.078-10.928-7.987-17.362-8.8a11.861,11.861,0,0,0-7.714,1.385c-1.585.967-2.8,2.362-4.547,3.082-1.475.609-3.09.8-4.579,1.378C370.533,284.75,369.689,302.986,371.838,314.613Z" fill="#72b7ae"/>
            </g>
          </g>
          <g id="Grupo_3015" data-name="Grupo 3015">
            <g id="Grupo_3014" data-name="Grupo 3014">
              <path id="Trazado_10388" data-name="Trazado 10388" d="M374.892,330.357c-.031.534-.047,1.071-.038,1.614.014.813,1.129,1.457,1.619.6,2.243-3.934,4.463-8.05,7.731-11.206,3.44-3.322,7.6-4.04,11.771-5.894,2.127-.945,4.044-2.318,6.167-3.269a20.034,20.034,0,0,1,7.443-1.36c2.829-.134,5.607-.043,8.127,1.447a25.237,25.237,0,0,1,5.475,4.731c.439.472,1.429.3,1.419-.47-.088-6.179-4.559-12.944-8.993-16.885-5.079-4.514-11.933-5.343-18.214-3.246-6.065,2.025-12.617,6.658-15.83,12.421-3.6,6.451-5.549,13.914-6.875,21.166A.317.317,0,0,0,374.892,330.357Z" fill="#72b7ae"/>
            </g>
          </g>
          <g id="Grupo_3016" data-name="Grupo 3016">
            <path id="Trazado_10389" data-name="Trazado 10389" d="M372.244,308.383a55.193,55.193,0,0,1,6.845-16.793c3.187-5.029,6.983-8.146,12.633-9.755,6.444-1.835,13.469-2.9,19.9-.515.4.148.14.763-.259.621a23.989,23.989,0,0,0-12.327-.6,40.479,40.479,0,0,0-10.112,2.921c-6.743,3.19-10.6,10.815-13.106,17.634-5.579,15.2-4.392,31.981-3.383,47.869.038.611-.869.748-.927.129C370.2,336.053,368.985,322.06,372.244,308.383Z" fill="#72b7ae"/>
          </g>
          <g id="Grupo_3017" data-name="Grupo 3017">
            <path id="Trazado_10390" data-name="Trazado 10390" d="M372.217,345.81a96.586,96.586,0,0,1,1.61-10.629,52.892,52.892,0,0,1,6.424-16.637c5.558-9.053,14.747-15.773,25.514-15.216a20.338,20.338,0,0,1,14.665,6.991.34.34,0,0,1-.512.448,21.186,21.186,0,0,0-17.755-6.105c-6.577.728-12.386,4.349-16.786,9.309a44.441,44.441,0,0,0-9.263,18.064,82.8,82.8,0,0,0-2.256,12.261c-.218,1.907-.386,3.819-.535,5.732a29,29,0,0,1-.61,5.861.512.512,0,0,1-.984-.081C371.178,352.674,371.9,348.969,372.217,345.81Z" fill="#72b7ae"/>
          </g>
          <g id="Grupo_3018" data-name="Grupo 3018">
            <path id="Trazado_10391" data-name="Trazado 10391" d="M384.572,342.233a25.293,25.293,0,0,1,15.342-6.086,17.446,17.446,0,0,1,8.657,1.819c2.621,1.45,4.223,3.944,5.618,6.554.2.379-.374.651-.584.288-1.624-2.8-3.8-5.281-6.84-6.438a17.68,17.68,0,0,0-8.624-.765,25.633,25.633,0,0,0-14.045,7.051,31.182,31.182,0,0,0-8.4,15.181c-1.538,6.226-1.177,12.386-.675,18.713a.552.552,0,0,1-1.084.212C370.936,366.147,374.513,350.585,384.572,342.233Z" fill="#72b7ae"/>
          </g>
          <g id="Grupo_3019" data-name="Grupo 3019">
            <path id="Trazado_10392" data-name="Trazado 10392" d="M330.054,358.241c3.224-5.037,7.954-8.749,12.766-12.107,4.607-3.214,10.14-5.883,15.832-4.541,5.154,1.216,8.4,5.765,10.5,10.447a49.071,49.071,0,0,1,4.5,18.215c.021.8-1.253.858-1.371.076-.852-5.659-1.741-11.1-3.9-16.424-2.034-5.016-5.231-10.128-10.879-11.046-5.566-.9-10.7,2.006-15.173,5.041-4.354,2.956-8.719,6.275-11.715,10.734C330.36,359,329.816,358.613,330.054,358.241Z" fill="#72b7ae"/>
          </g>
          <g id="Grupo_3020" data-name="Grupo 3020">
            <path id="Trazado_10393" data-name="Trazado 10393" d="M323.449,329.093c4.657-4.8,10.279-8.672,17.1-8.608,7.057.066,13.422,3.872,18.434,8.71a39.337,39.337,0,0,1,10.926,18.214,88.047,88.047,0,0,1,3.5,24.091.755.755,0,0,1-1.493.084c-.811-7.307-1.43-14.492-3.034-21.686a37.231,37.231,0,0,0-9.208-17.985c-4.738-5.108-10.731-9.379-17.752-10.044-7.1-.673-12.928,3.135-18.05,7.742C323.554,329.9,323.152,329.4,323.449,329.093Z" fill="#72b7ae"/>
          </g>
          <g id="Grupo_3021" data-name="Grupo 3021">
            <path id="Trazado_10394" data-name="Trazado 10394" d="M319.652,300.38c4.667-3.869,10.546-5,16.41-5.208a41.371,41.371,0,0,1,9.91.413,22.7,22.7,0,0,1,8.411,4.04c11.005,8.012,15.346,22.135,16.824,35.3,1.008,8.972,1.234,18.026,2.072,27.017.1,1.084-1.491,1.459-1.649.344-1.95-13.8-.894-27.931-4.846-41.436a40.732,40.732,0,0,0-9.143-16.51,28.292,28.292,0,0,0-7.516-5.783,21.426,21.426,0,0,0-9.78-2.124c-6.955-.177-14.418.111-20.267,4.452C319.745,301.129,319.323,300.653,319.652,300.38Z" fill="#72b7ae"/>
          </g>
          <g id="Grupo_3023" data-name="Grupo 3023">
            <g id="Grupo_3022" data-name="Grupo 3022">
              <path id="Trazado_10395" data-name="Trazado 10395" d="M368.637,352.951c.124,5.126,1.82,9.964,2.47,15.024,1.11,8.647-.3,17.873,4.257,25.7a1.085,1.085,0,0,0,2.052-.393,204.667,204.667,0,0,0-1.4-33.222c-.726-6.021-2.406-11.227-2.382-17.307.014-3.684-.235-13.809-1.577-19.423C371.877,322.578,368.337,340.546,368.637,352.951Z" fill="#72b7ae"/>
            </g>
          </g>
        </g>
      </g>
      <g id="Grupo_3047" data-name="Grupo 3047">
        <g id="Grupo_3046" data-name="Grupo 3046">
          <g id="Grupo_3027" data-name="Grupo 3027">
            <g id="Grupo_3026" data-name="Grupo 3026">
              <path id="Trazado_10396" data-name="Trazado 10396" d="M950.257,324.105a.89.89,0,0,0,.837.935c-.041.263.246.565.528.419,3.147-1.633,6.349-2.718,9.284-4.8,3.044-2.155,5.861-4.737,9.25-6.322,4.411-2.063,8.142-1.488,12.208,1.008a39.411,39.411,0,0,0,10.058,4.474.619.619,0,0,0,.8-.7c-.47-5.013-2.28-11.045-6.529-14.083a4.148,4.148,0,0,0-3.253-.62,8.284,8.284,0,0,1-4.691-1.232,13.287,13.287,0,0,0-7.893-1.232C959.824,303.346,950.672,312.516,950.257,324.105Z" fill="#72b7ae"/>
            </g>
          </g>
          <g id="Grupo_3029" data-name="Grupo 3029">
            <g id="Grupo_3028" data-name="Grupo 3028">
              <path id="Trazado_10397" data-name="Trazado 10397" d="M901.241,335.742a56.329,56.329,0,0,1,18.492-10.615,29.424,29.424,0,0,0,8.482-4.4c2.359-1.848,5.338-4.5,8.416-3.941a4.709,4.709,0,0,1,1.874,1.218c.559.581,1.771.186,1.525-.75a13.1,13.1,0,0,0-9.07-9.466c-4.993-1.34-9.208.6-13.051,3.751-2.416,1.983-5.194,3-7.743,4.728a19,19,0,0,0-4.717,4.667c-2.982,4.141-4.273,9.011-5.423,13.94C899.859,335.6,900.611,336.29,901.241,335.742Z" fill="#72b7ae"/>
            </g>
          </g>
          <g id="Grupo_3031" data-name="Grupo 3031">
            <g id="Grupo_3030" data-name="Grupo 3030">
              <path id="Trazado_10398" data-name="Trazado 10398" d="M894.2,307.522c2.774-3.045,5.8-6.24,9.607-7.89,2.078-.9,4.12-.868,6.3-1.241,1.1-.188,2.156-.621,3.262-.8a12.9,12.9,0,0,1,3.94.173c5.081.757,9.714,1.877,14.005,4.895,3.666,2.579,7.437,5.524,9.654,9.559a.873.873,0,0,0,.938.447.282.282,0,0,0,.3-.116.8.8,0,0,0,.365-.876c-.093-.482-.2-.962-.3-1.443-.052-5.773-1.023-11.849-4.857-16.3a9.223,9.223,0,0,0-6.246-3.426c-1.93-.138-3.488.094-5.335-.723-1.639-.724-3.216-1.533-4.914-2.114-5.868-2.005-12.043-1.86-17.182,1.94-5.527,4.086-8.247,10.8-10.746,17.052C892.724,307.349,893.675,308.1,894.2,307.522Z" fill="#72b7ae"/>
            </g>
          </g>
          <g id="Grupo_3033" data-name="Grupo 3033">
            <g id="Grupo_3032" data-name="Grupo 3032">
              <path id="Trazado_10399" data-name="Trazado 10399" d="M885.337,275.157c.091,1.542,1.364,2.112,2.709,2.046,2.729-.135,5.647-1.306,8.293-1.961,2.849-.7,5.693-1.486,8.575-2.037,6.136-1.172,11.725.059,17.33,2.728a32.27,32.27,0,0,1,12.136,9.482c2.579,3.447,3.826,8.167,7.974,10.045.677.306,1.212-.414,1.155-1.032a109.033,109.033,0,0,0-1.982-13.006,34.374,34.374,0,0,0-2.086-9.605,21.36,21.36,0,0,0-10.085-11.484c-9.617-4.973-20.885-4.42-30.741-.313a22,22,0,0,0-10.686,9.483C887.041,271.013,885.229,273.33,885.337,275.157Z" fill="#72b7ae"/>
            </g>
          </g>
          <g id="Grupo_3035" data-name="Grupo 3035">
            <g id="Grupo_3034" data-name="Grupo 3034">
              <path id="Trazado_10400" data-name="Trazado 10400" d="M946.494,284.9a.83.83,0,0,0,1.533.316c1.31-.686,2.024-2.092,2.814-3.386a64.586,64.586,0,0,0,3.5-6.594c1.112-2.41,1.937-4.92,2.952-7.369a14.4,14.4,0,0,1,5.095-6.29c4.241-3.133,8.269-5.391,13.544-5.875,5.306-.487,10.621-.894,15.93-1.338a.788.788,0,0,0,.363-1.375c-4.944-4.079-10.928-7.988-17.362-8.8a11.868,11.868,0,0,0-7.714,1.385c-1.585.967-2.8,2.362-4.547,3.082-1.475.61-3.09.8-4.579,1.379C945.189,255.038,944.345,273.274,946.494,284.9Z" fill="#72b7ae"/>
            </g>
          </g>
          <g id="Grupo_3037" data-name="Grupo 3037">
            <g id="Grupo_3036" data-name="Grupo 3036">
              <path id="Trazado_10401" data-name="Trazado 10401" d="M949.548,300.646c-.031.534-.047,1.071-.038,1.613.014.813,1.129,1.457,1.619.6,2.243-3.934,4.463-8.05,7.731-11.206,3.44-3.322,7.6-4.041,11.771-5.895,2.127-.944,4.044-2.318,6.167-3.269a20.054,20.054,0,0,1,7.443-1.36c2.829-.134,5.607-.042,8.127,1.447a25.264,25.264,0,0,1,5.475,4.731c.439.472,1.429.3,1.419-.47-.088-6.178-4.559-12.943-8.993-16.885-5.079-4.514-11.933-5.343-18.214-3.246-6.064,2.025-12.617,6.659-15.83,12.421-3.6,6.452-5.549,13.915-6.875,21.167A.318.318,0,0,0,949.548,300.646Z" fill="#72b7ae"/>
            </g>
          </g>
          <g id="Grupo_3038" data-name="Grupo 3038">
            <path id="Trazado_10402" data-name="Trazado 10402" d="M946.9,278.672a55.181,55.181,0,0,1,6.845-16.793c3.187-5.03,6.983-8.147,12.633-9.755,6.444-1.836,13.469-2.9,19.9-.515.4.148.14.762-.259.621a23.989,23.989,0,0,0-12.327-.6,40.478,40.478,0,0,0-10.112,2.921c-6.743,3.19-10.6,10.816-13.106,17.634-5.579,15.2-4.392,31.982-3.383,47.869.038.611-.869.748-.927.129C944.858,306.341,943.641,292.348,946.9,278.672Z" fill="#72b7ae"/>
          </g>
          <g id="Grupo_3039" data-name="Grupo 3039">
            <path id="Trazado_10403" data-name="Trazado 10403" d="M946.873,316.1a96.629,96.629,0,0,1,1.61-10.629,52.878,52.878,0,0,1,6.424-16.636c5.558-9.054,14.747-15.773,25.514-15.217a20.336,20.336,0,0,1,14.665,6.992.34.34,0,0,1-.512.447,21.192,21.192,0,0,0-17.755-6.1c-6.577.729-12.386,4.349-16.786,9.31a44.43,44.43,0,0,0-9.263,18.063,82.793,82.793,0,0,0-2.256,12.262c-.218,1.906-.386,3.818-.535,5.731a29.067,29.067,0,0,1-.609,5.861.513.513,0,0,1-.985-.081C945.834,322.962,946.557,319.258,946.873,316.1Z" fill="#72b7ae"/>
          </g>
          <g id="Grupo_3040" data-name="Grupo 3040">
            <path id="Trazado_10404" data-name="Trazado 10404" d="M959.228,312.522a25.288,25.288,0,0,1,15.342-6.087,17.457,17.457,0,0,1,8.657,1.819c2.621,1.45,4.223,3.945,5.618,6.554.2.379-.374.651-.584.289-1.624-2.8-3.8-5.281-6.84-6.439a17.692,17.692,0,0,0-8.624-.765,25.634,25.634,0,0,0-14.045,7.052,31.178,31.178,0,0,0-8.4,15.181c-1.538,6.225-1.177,12.385-.675,18.712a.552.552,0,0,1-1.084.212C945.592,336.435,949.169,320.873,959.228,312.522Z" fill="#72b7ae"/>
          </g>
          <g id="Grupo_3041" data-name="Grupo 3041">
            <path id="Trazado_10405" data-name="Trazado 10405" d="M904.71,328.53c3.224-5.038,7.954-8.75,12.766-12.107,4.607-3.215,10.14-5.884,15.832-4.541,5.154,1.215,8.4,5.765,10.5,10.447a49.062,49.062,0,0,1,4.5,18.214c.021.8-1.253.858-1.371.076-.852-5.658-1.741-11.094-3.9-16.423-2.034-5.017-5.231-10.128-10.879-11.047-5.566-.9-10.7,2.006-15.173,5.041-4.354,2.956-8.719,6.275-11.715,10.735C905.016,329.291,904.472,328.9,904.71,328.53Z" fill="#72b7ae"/>
          </g>
          <g id="Grupo_3042" data-name="Grupo 3042">
            <path id="Trazado_10406" data-name="Trazado 10406" d="M898.1,299.381c4.657-4.8,10.279-8.672,17.1-8.608,7.057.066,13.422,3.872,18.434,8.71A39.342,39.342,0,0,1,944.567,317.7a88.062,88.062,0,0,1,3.505,24.092.755.755,0,0,1-1.493.083c-.811-7.307-1.429-14.492-3.034-21.686a37.23,37.23,0,0,0-9.208-17.985c-4.738-5.108-10.731-9.378-17.752-10.043-7.105-.673-12.928,3.135-18.05,7.741C898.21,300.192,897.808,299.687,898.1,299.381Z" fill="#72b7ae"/>
          </g>
          <g id="Grupo_3043" data-name="Grupo 3043">
            <path id="Trazado_10407" data-name="Trazado 10407" d="M894.308,270.669c4.667-3.87,10.546-5,16.41-5.209a41.371,41.371,0,0,1,9.91.414,22.676,22.676,0,0,1,8.411,4.04c11.005,8.011,15.346,22.134,16.824,35.3,1.008,8.972,1.234,18.027,2.072,27.017.1,1.085-1.491,1.459-1.649.344-1.95-13.8-.894-27.93-4.846-41.436a40.728,40.728,0,0,0-9.143-16.509,28.276,28.276,0,0,0-7.516-5.784,21.425,21.425,0,0,0-9.78-2.124c-6.955-.177-14.418.112-20.267,4.452C894.4,271.417,893.979,270.942,894.308,270.669Z" fill="#72b7ae"/>
          </g>
          <g id="Grupo_3045" data-name="Grupo 3045">
            <g id="Grupo_3044" data-name="Grupo 3044">
              <path id="Trazado_10408" data-name="Trazado 10408" d="M943.293,323.239c.124,5.126,1.82,9.964,2.47,15.024,1.11,8.647-.3,17.873,4.257,25.7a1.085,1.085,0,0,0,2.052-.392,204.68,204.68,0,0,0-1.4-33.223c-.726-6.021-2.406-11.227-2.382-17.307.014-3.684-.235-13.809-1.577-19.422C946.533,292.867,942.993,310.835,943.293,323.239Z" fill="#72b7ae"/>
            </g>
          </g>
        </g>
      </g>
      <g id="Grupo_3048" data-name="Grupo 3048">
        <path id="Trazado_10409" data-name="Trazado 10409" d="M298.255,183.663a.373.373,0,0,0,.35.391c-.017.109.1.235.22.174a30.686,30.686,0,0,0,3.876-2,26.388,26.388,0,0,1,3.862-2.639,4.925,4.925,0,0,1,5.1.421,16.446,16.446,0,0,0,4.2,1.867.258.258,0,0,0,.334-.291c-.2-2.093-.952-4.611-2.726-5.879a1.725,1.725,0,0,0-1.357-.259,3.461,3.461,0,0,1-1.959-.515,5.546,5.546,0,0,0-3.295-.514A9.8,9.8,0,0,0,298.255,183.663Z" fill="#8fd1c9"/>
        <path id="Trazado_10410" data-name="Trazado 10410" d="M277.793,188.521a23.52,23.52,0,0,1,7.72-4.431,12.3,12.3,0,0,0,3.54-1.836c.985-.772,2.229-1.878,3.514-1.645a1.959,1.959,0,0,1,.782.508c.234.243.74.078.637-.313a5.468,5.468,0,0,0-3.786-3.952c-2.085-.559-3.845.25-5.449,1.566-1.008.828-2.168,1.253-3.232,1.974a7.925,7.925,0,0,0-1.97,1.948,15.756,15.756,0,0,0-2.263,5.82C277.216,188.46,277.53,188.75,277.793,188.521Z" fill="#8fd1c9"/>
        <path id="Trazado_10411" data-name="Trazado 10411" d="M274.853,176.74a12.549,12.549,0,0,1,4.011-3.294,10.719,10.719,0,0,1,2.629-.518c.461-.078.9-.259,1.362-.333a5.411,5.411,0,0,1,1.645.073,12.971,12.971,0,0,1,5.846,2.043,12.676,12.676,0,0,1,4.031,3.991.366.366,0,0,0,.391.187.118.118,0,0,0,.128-.049.333.333,0,0,0,.152-.366c-.039-.2-.082-.4-.124-.6-.021-2.41-.427-4.946-2.027-6.8a3.849,3.849,0,0,0-2.608-1.431,5.957,5.957,0,0,1-2.227-.3c-.684-.3-1.342-.641-2.052-.883a7.569,7.569,0,0,0-7.173.81c-2.307,1.706-3.442,4.509-4.486,7.119C274.237,176.668,274.634,176.981,274.853,176.74Z" fill="#8fd1c9"/>
        <path id="Trazado_10412" data-name="Trazado 10412" d="M271.153,163.229c.038.644.57.882,1.131.854a19.221,19.221,0,0,0,3.462-.819c1.189-.294,2.377-.62,3.58-.85a11.348,11.348,0,0,1,7.235,1.139,13.461,13.461,0,0,1,5.066,3.958c1.077,1.439,1.6,3.41,3.329,4.194.283.128.506-.173.482-.431a45.389,45.389,0,0,0-.827-5.43,14.37,14.37,0,0,0-.871-4.009,8.92,8.92,0,0,0-4.21-4.8,15.2,15.2,0,0,0-12.834-.131,9.2,9.2,0,0,0-4.461,3.959C271.865,161.5,271.108,162.466,271.153,163.229Z" fill="#8fd1c9"/>
        <path id="Trazado_10413" data-name="Trazado 10413" d="M296.684,167.3a.347.347,0,0,0,.64.132,3.481,3.481,0,0,0,1.175-1.414,26.911,26.911,0,0,0,1.461-2.753c.464-1.006.808-2.054,1.232-3.076a6.012,6.012,0,0,1,2.127-2.626,10.893,10.893,0,0,1,5.654-2.453c2.215-.2,4.434-.373,6.651-.558a.329.329,0,0,0,.151-.574c-2.064-1.7-4.562-3.335-7.248-3.675a4.951,4.951,0,0,0-3.22.578,14.369,14.369,0,0,1-1.9,1.287c-.616.255-1.29.333-1.911.575C296.14,154.83,295.787,162.443,296.684,167.3Z" fill="#8fd1c9"/>
        <path id="Trazado_10414" data-name="Trazado 10414" d="M297.959,173.87c-.012.222-.019.447-.015.673.005.34.471.608.676.249a20.176,20.176,0,0,1,3.227-4.678c1.436-1.387,3.171-1.687,4.914-2.461.888-.394,1.688-.967,2.575-1.365a8.362,8.362,0,0,1,3.107-.567,5.862,5.862,0,0,1,3.392.6,10.521,10.521,0,0,1,2.286,1.975c.183.2.6.125.592-.2-.036-2.58-1.9-5.4-3.754-7.049a7.612,7.612,0,0,0-7.6-1.355,12.35,12.35,0,0,0-6.608,5.185,28.793,28.793,0,0,0-2.87,8.836A.133.133,0,0,0,297.959,173.87Z" fill="#8fd1c9"/>
        <path id="Trazado_10415" data-name="Trazado 10415" d="M296.854,164.7a23.007,23.007,0,0,1,2.858-7.01,8.744,8.744,0,0,1,5.273-4.073c2.691-.766,5.623-1.21,8.309-.215.167.062.059.318-.108.259a10.015,10.015,0,0,0-5.146-.251,16.915,16.915,0,0,0-4.221,1.219c-2.815,1.332-4.427,4.515-5.472,7.362-2.329,6.345-1.833,13.351-1.412,19.984.016.255-.363.312-.387.054C296,176.247,295.493,170.406,296.854,164.7Z" fill="#8fd1c9"/>
        <path id="Trazado_10416" data-name="Trazado 10416" d="M296.843,180.321a40.236,40.236,0,0,1,.672-4.438,22.076,22.076,0,0,1,2.682-6.945c2.32-3.78,6.156-6.585,10.651-6.352a8.488,8.488,0,0,1,6.122,2.918.142.142,0,0,1-.214.187,8.846,8.846,0,0,0-7.412-2.549,11.15,11.15,0,0,0-7.007,3.887,18.555,18.555,0,0,0-3.868,7.541,34.648,34.648,0,0,0-.941,5.119c-.091.8-.161,1.594-.224,2.392a12.093,12.093,0,0,1-.254,2.447.214.214,0,0,1-.411-.034A16.184,16.184,0,0,1,296.843,180.321Z" fill="#8fd1c9"/>
        <path id="Trazado_10417" data-name="Trazado 10417" d="M302,178.827a10.564,10.564,0,0,1,6.4-2.541,7.288,7.288,0,0,1,3.614.76,6.284,6.284,0,0,1,2.346,2.736c.085.158-.156.272-.244.12a5.831,5.831,0,0,0-2.855-2.688,7.4,7.4,0,0,0-3.6-.319,10.7,10.7,0,0,0-5.863,2.944,13.016,13.016,0,0,0-3.508,6.338,24.034,24.034,0,0,0-.282,7.811.23.23,0,0,1-.452.089C296.308,188.811,297.8,182.314,302,178.827Z" fill="#8fd1c9"/>
        <path id="Trazado_10418" data-name="Trazado 10418" d="M279.241,185.51a18.83,18.83,0,0,1,5.329-5.054c1.924-1.342,4.233-2.456,6.61-1.9,2.151.508,3.507,2.407,4.382,4.362a20.475,20.475,0,0,1,1.877,7.6c.009.335-.523.358-.572.031a29.513,29.513,0,0,0-1.629-6.856c-.849-2.094-2.184-4.228-4.542-4.612-2.323-.377-4.468.838-6.334,2.1a17.509,17.509,0,0,0-4.891,4.481C279.369,185.828,279.142,185.665,279.241,185.51Z" fill="#8fd1c9"/>
        <path id="Trazado_10419" data-name="Trazado 10419" d="M276.484,173.342c1.943-2,4.291-3.621,7.139-3.594a11.555,11.555,0,0,1,7.7,3.636,16.426,16.426,0,0,1,4.561,7.6,36.735,36.735,0,0,1,1.463,10.058.315.315,0,0,1-.623.034,83.38,83.38,0,0,0-1.267-9.053,15.539,15.539,0,0,0-3.844-7.508,11.988,11.988,0,0,0-7.411-4.193c-2.966-.281-5.4,1.309-7.535,3.232C276.527,173.68,276.36,173.469,276.484,173.342Z" fill="#8fd1c9"/>
        <path id="Trazado_10420" data-name="Trazado 10420" d="M274.9,161.355a11.017,11.017,0,0,1,6.85-2.174,17.3,17.3,0,0,1,4.137.172,9.465,9.465,0,0,1,3.511,1.687c4.6,3.344,6.407,9.24,7.024,14.735.421,3.746.515,7.526.865,11.279.042.453-.623.609-.688.143-.815-5.761-.374-11.66-2.023-17.3a17,17,0,0,0-3.818-6.892,11.781,11.781,0,0,0-3.137-2.414,8.94,8.94,0,0,0-4.083-.887c-2.9-.074-6.019.046-8.461,1.858C274.937,161.667,274.761,161.469,274.9,161.355Z" fill="#8fd1c9"/>
        <path id="Trazado_10421" data-name="Trazado 10421" d="M295.348,183.3c.052,2.14.76,4.159,1.031,6.272.464,3.61-.125,7.461,1.777,10.727a.453.453,0,0,0,.857-.164,85.36,85.36,0,0,0-.585-13.869c-.3-2.514-1-4.687-.994-7.225a44.041,44.041,0,0,0-.658-8.109A55.879,55.879,0,0,0,295.348,183.3Z" fill="#8fd1c9"/>
      </g>
      <g id="Grupo_3049" data-name="Grupo 3049">
        <path id="Trazado_10422" data-name="Trazado 10422" d="M352.519,183.663a.372.372,0,0,0,.349.391.162.162,0,0,0,.221.174,30.821,30.821,0,0,0,3.876-2,26.325,26.325,0,0,1,3.861-2.639,4.925,4.925,0,0,1,5.1.421,16.453,16.453,0,0,0,4.2,1.867.258.258,0,0,0,.334-.291c-.2-2.093-.953-4.611-2.726-5.879a1.728,1.728,0,0,0-1.358-.259,3.463,3.463,0,0,1-1.959-.515,5.545,5.545,0,0,0-3.295-.514A9.8,9.8,0,0,0,352.519,183.663Z" fill="#8fd1c9"/>
        <path id="Trazado_10423" data-name="Trazado 10423" d="M332.056,188.521a23.52,23.52,0,0,1,7.72-4.431,12.306,12.306,0,0,0,3.541-1.836c.985-.772,2.228-1.878,3.513-1.645a1.956,1.956,0,0,1,.783.508c.233.243.739.078.636-.313a5.466,5.466,0,0,0-3.786-3.952c-2.084-.559-3.844.25-5.448,1.566-1.009.828-2.169,1.253-3.233,1.974a7.922,7.922,0,0,0-1.969,1.948,15.776,15.776,0,0,0-2.264,5.82C331.479,188.46,331.793,188.75,332.056,188.521Z" fill="#8fd1c9"/>
        <path id="Trazado_10424" data-name="Trazado 10424" d="M329.116,176.74a12.549,12.549,0,0,1,4.011-3.294,10.728,10.728,0,0,1,2.629-.518c.462-.078.9-.259,1.362-.333a5.408,5.408,0,0,1,1.645.073,12.974,12.974,0,0,1,5.847,2.043,12.673,12.673,0,0,1,4.03,3.991.366.366,0,0,0,.392.187.117.117,0,0,0,.127-.049.333.333,0,0,0,.152-.366c-.038-.2-.082-.4-.123-.6-.022-2.41-.427-4.946-2.028-6.8a3.849,3.849,0,0,0-2.607-1.431,5.965,5.965,0,0,1-2.228-.3c-.684-.3-1.342-.641-2.051-.883a7.568,7.568,0,0,0-7.173.81c-2.307,1.706-3.443,4.509-4.486,7.119C328.5,176.668,328.9,176.981,329.116,176.74Z" fill="#8fd1c9"/>
        <path id="Trazado_10425" data-name="Trazado 10425" d="M325.417,163.229c.038.644.569.882,1.13.854a19.211,19.211,0,0,0,3.463-.819c1.189-.294,2.376-.62,3.579-.85a11.348,11.348,0,0,1,7.235,1.139,13.472,13.472,0,0,1,5.067,3.958c1.076,1.439,1.6,3.41,3.329,4.194.282.128.505-.173.482-.431a45.6,45.6,0,0,0-.828-5.43,14.3,14.3,0,0,0-.871-4.009,8.917,8.917,0,0,0-4.21-4.8,15.193,15.193,0,0,0-12.833-.131,9.193,9.193,0,0,0-4.462,3.959C326.128,161.5,325.372,162.466,325.417,163.229Z" fill="#8fd1c9"/>
        <path id="Trazado_10426" data-name="Trazado 10426" d="M350.948,167.3a.347.347,0,0,0,.64.132,3.479,3.479,0,0,0,1.174-1.414,26.911,26.911,0,0,0,1.461-2.753c.464-1.006.809-2.054,1.232-3.076a6.012,6.012,0,0,1,2.127-2.626,10.9,10.9,0,0,1,5.654-2.453c2.216-.2,4.434-.373,6.651-.558a.329.329,0,0,0,.152-.574c-2.065-1.7-4.563-3.335-7.249-3.675a4.953,4.953,0,0,0-3.22.578,14.425,14.425,0,0,1-1.9,1.287c-.616.255-1.29.333-1.912.575C350.4,154.83,350.051,162.443,350.948,167.3Z" fill="#8fd1c9"/>
        <path id="Trazado_10427" data-name="Trazado 10427" d="M352.223,173.87c-.013.222-.02.447-.016.673.006.34.471.608.676.249a20.176,20.176,0,0,1,3.227-4.678c1.436-1.387,3.172-1.687,4.914-2.461.888-.394,1.689-.967,2.575-1.365a8.362,8.362,0,0,1,3.107-.567,5.866,5.866,0,0,1,3.393.6,10.545,10.545,0,0,1,2.286,1.975c.183.2.6.125.592-.2-.037-2.58-1.9-5.4-3.754-7.049a7.613,7.613,0,0,0-7.6-1.355,12.352,12.352,0,0,0-6.609,5.185,28.848,28.848,0,0,0-2.87,8.836A.134.134,0,0,0,352.223,173.87Z" fill="#8fd1c9"/>
        <path id="Trazado_10428" data-name="Trazado 10428" d="M351.118,164.7a23.03,23.03,0,0,1,2.857-7.01,8.743,8.743,0,0,1,5.274-4.073c2.69-.766,5.623-1.21,8.309-.215.166.062.058.318-.108.259a10.016,10.016,0,0,0-5.146-.251,16.911,16.911,0,0,0-4.222,1.219c-2.815,1.332-4.426,4.515-5.471,7.362-2.33,6.345-1.834,13.351-1.413,19.984.016.255-.362.312-.387.054C350.265,176.247,349.757,170.406,351.118,164.7Z" fill="#8fd1c9"/>
        <path id="Trazado_10429" data-name="Trazado 10429" d="M351.106,180.321a40.477,40.477,0,0,1,.672-4.438,22.076,22.076,0,0,1,2.682-6.945c2.32-3.78,6.157-6.585,10.651-6.352a8.49,8.49,0,0,1,6.123,2.918.142.142,0,0,1-.214.187,8.847,8.847,0,0,0-7.412-2.549,11.155,11.155,0,0,0-7.008,3.887,18.553,18.553,0,0,0-3.867,7.541,34.524,34.524,0,0,0-.942,5.119c-.091.8-.161,1.594-.223,2.392a12.1,12.1,0,0,1-.255,2.447.214.214,0,0,1-.411-.034A16.184,16.184,0,0,1,351.106,180.321Z" fill="#8fd1c9"/>
        <path id="Trazado_10430" data-name="Trazado 10430" d="M356.264,178.827a10.559,10.559,0,0,1,6.4-2.541,7.293,7.293,0,0,1,3.614.76,6.282,6.282,0,0,1,2.345,2.736c.085.158-.156.272-.244.12a5.831,5.831,0,0,0-2.855-2.688,7.4,7.4,0,0,0-3.6-.319,10.7,10.7,0,0,0-5.864,2.944,13.024,13.024,0,0,0-3.508,6.338,24.062,24.062,0,0,0-.282,7.811.23.23,0,0,1-.452.089C350.571,188.811,352.065,182.314,356.264,178.827Z" fill="#8fd1c9"/>
        <path id="Trazado_10431" data-name="Trazado 10431" d="M333.5,185.51a18.82,18.82,0,0,1,5.33-5.054c1.923-1.342,4.233-2.456,6.609-1.9,2.152.508,3.508,2.407,4.382,4.362a20.5,20.5,0,0,1,1.878,7.6c.009.335-.523.358-.573.031A29.413,29.413,0,0,0,349.5,183.7c-.849-2.094-2.183-4.228-4.541-4.612-2.324-.377-4.468.838-6.335,2.1a17.505,17.505,0,0,0-4.89,4.481C333.632,185.828,333.4,185.665,333.5,185.51Z" fill="#8fd1c9"/>
        <path id="Trazado_10432" data-name="Trazado 10432" d="M330.747,173.342c1.944-2,4.291-3.621,7.14-3.594a11.553,11.553,0,0,1,7.7,3.636,16.426,16.426,0,0,1,4.561,7.6,36.738,36.738,0,0,1,1.464,10.058.315.315,0,0,1-.624.034,83.137,83.137,0,0,0-1.266-9.053,15.541,15.541,0,0,0-3.845-7.508,11.983,11.983,0,0,0-7.41-4.193c-2.967-.281-5.4,1.309-7.536,3.232C330.791,173.68,330.623,173.469,330.747,173.342Z" fill="#8fd1c9"/>
        <path id="Trazado_10433" data-name="Trazado 10433" d="M329.162,161.355a11.017,11.017,0,0,1,6.851-2.174,17.286,17.286,0,0,1,4.136.172,9.47,9.47,0,0,1,3.512,1.687c4.594,3.344,6.406,9.24,7.023,14.735.421,3.746.515,7.526.865,11.279.043.453-.622.609-.688.143-.814-5.761-.373-11.66-2.023-17.3a17,17,0,0,0-3.817-6.892,11.8,11.8,0,0,0-3.138-2.414,8.938,8.938,0,0,0-4.083-.887c-2.9-.074-6.019.046-8.46,1.858C329.2,161.667,329.024,161.469,329.162,161.355Z" fill="#8fd1c9"/>
        <path id="Trazado_10434" data-name="Trazado 10434" d="M349.612,183.3c.051,2.14.759,4.159,1.031,6.272.463,3.61-.125,7.461,1.777,10.727a.452.452,0,0,0,.856-.164,85.473,85.473,0,0,0-.584-13.869c-.3-2.514-1-4.687-.995-7.225a44.041,44.041,0,0,0-.658-8.109A55.841,55.841,0,0,0,349.612,183.3Z" fill="#8fd1c9"/>
      </g>
      <g id="Grupo_3050" data-name="Grupo 3050">
        <path id="Trazado_10435" data-name="Trazado 10435" d="M553.8,194.084a.372.372,0,0,0,.35.391.162.162,0,0,0,.22.175,30.826,30.826,0,0,0,3.876-2,26.377,26.377,0,0,1,3.861-2.639,4.927,4.927,0,0,1,5.1.421,16.449,16.449,0,0,0,4.2,1.868.258.258,0,0,0,.334-.292c-.2-2.093-.952-4.611-2.726-5.879a1.731,1.731,0,0,0-1.358-.259,3.459,3.459,0,0,1-1.958-.514,5.546,5.546,0,0,0-3.295-.515A9.8,9.8,0,0,0,553.8,194.084Z" fill="#8fd1c9"/>
        <path id="Trazado_10436" data-name="Trazado 10436" d="M533.335,198.943a23.525,23.525,0,0,1,7.72-4.432,12.244,12.244,0,0,0,3.541-1.836c.985-.772,2.229-1.878,3.514-1.645a1.971,1.971,0,0,1,.782.508c.233.243.74.078.637-.313a5.471,5.471,0,0,0-3.787-3.952c-2.084-.559-3.844.25-5.448,1.566-1.009.828-2.168,1.254-3.233,1.974a7.923,7.923,0,0,0-1.969,1.948,15.775,15.775,0,0,0-2.264,5.82C532.758,198.881,533.072,199.171,533.335,198.943Z" fill="#8fd1c9"/>
        <path id="Trazado_10437" data-name="Trazado 10437" d="M530.4,187.162a12.544,12.544,0,0,1,4.01-3.294,10.689,10.689,0,0,1,2.63-.518c.461-.079.9-.26,1.362-.333a5.371,5.371,0,0,1,1.644.072,12.971,12.971,0,0,1,5.847,2.044,12.662,12.662,0,0,1,4.031,3.99.363.363,0,0,0,.391.187.117.117,0,0,0,.127-.048.335.335,0,0,0,.153-.366c-.039-.2-.083-.4-.124-.6-.022-2.41-.427-4.946-2.028-6.8a3.845,3.845,0,0,0-2.607-1.43,5.958,5.958,0,0,1-2.227-.3c-.684-.3-1.343-.64-2.052-.883a7.571,7.571,0,0,0-7.173.81c-2.307,1.706-3.443,4.51-4.486,7.119C529.78,187.089,530.177,187.4,530.4,187.162Z" fill="#8fd1c9"/>
        <path id="Trazado_10438" data-name="Trazado 10438" d="M526.7,173.65c.038.644.57.882,1.131.854a19.3,19.3,0,0,0,3.462-.818c1.189-.294,2.377-.621,3.58-.851a11.355,11.355,0,0,1,7.235,1.139,13.481,13.481,0,0,1,5.066,3.959c1.077,1.439,1.6,3.409,3.329,4.193.283.128.506-.173.482-.431a45.623,45.623,0,0,0-.827-5.43,14.372,14.372,0,0,0-.871-4.009,8.921,8.921,0,0,0-4.21-4.795,15.192,15.192,0,0,0-12.834-.13,9.185,9.185,0,0,0-4.461,3.959C527.407,171.92,526.651,172.887,526.7,173.65Z" fill="#8fd1c9"/>
        <path id="Trazado_10439" data-name="Trazado 10439" d="M552.227,177.718a.347.347,0,0,0,.64.132,3.489,3.489,0,0,0,1.175-1.414,26.9,26.9,0,0,0,1.46-2.752c.465-1.006.809-2.054,1.233-3.077a6.012,6.012,0,0,1,2.127-2.626,10.892,10.892,0,0,1,5.654-2.452c2.215-.2,4.434-.373,6.65-.559a.329.329,0,0,0,.152-.574c-2.064-1.7-4.562-3.335-7.248-3.674a4.949,4.949,0,0,0-3.221.578,14.284,14.284,0,0,1-1.9,1.286c-.616.255-1.29.333-1.912.576C551.683,165.251,551.33,172.864,552.227,177.718Z" fill="#8fd1c9"/>
        <path id="Trazado_10440" data-name="Trazado 10440" d="M553.5,184.291c-.013.223-.019.447-.016.674.006.339.472.608.676.249a20.164,20.164,0,0,1,3.228-4.679c1.436-1.387,3.171-1.686,4.914-2.46.888-.4,1.688-.968,2.574-1.365a8.37,8.37,0,0,1,3.107-.568,5.865,5.865,0,0,1,3.393.6,10.544,10.544,0,0,1,2.286,1.975c.183.2.6.126.592-.2-.036-2.579-1.9-5.4-3.754-7.049a7.614,7.614,0,0,0-7.6-1.355,12.351,12.351,0,0,0-6.608,5.185,28.831,28.831,0,0,0-2.871,8.837A.133.133,0,0,0,553.5,184.291Z" fill="#8fd1c9"/>
        <path id="Trazado_10441" data-name="Trazado 10441" d="M552.4,175.117a23.042,23.042,0,0,1,2.857-7.01,8.746,8.746,0,0,1,5.274-4.073c2.691-.766,5.623-1.21,8.309-.215.167.062.058.319-.108.26a10.016,10.016,0,0,0-5.146-.252,16.87,16.87,0,0,0-4.222,1.22c-2.814,1.331-4.426,4.515-5.471,7.361-2.329,6.345-1.834,13.352-1.412,19.984.016.255-.363.312-.387.054C551.544,186.669,551.036,180.827,552.4,175.117Z" fill="#8fd1c9"/>
        <path id="Trazado_10442" data-name="Trazado 10442" d="M552.386,190.742a39.959,39.959,0,0,1,.672-4.437,22.072,22.072,0,0,1,2.682-6.946c2.32-3.779,6.156-6.584,10.651-6.352a8.487,8.487,0,0,1,6.122,2.919.142.142,0,0,1-.214.186,8.843,8.843,0,0,0-7.412-2.548,11.149,11.149,0,0,0-7.008,3.886,18.553,18.553,0,0,0-3.867,7.541,34.538,34.538,0,0,0-.941,5.119c-.092.8-.162,1.594-.224,2.393a12.175,12.175,0,0,1-.254,2.447.214.214,0,0,1-.411-.034A16.192,16.192,0,0,1,552.386,190.742Z" fill="#8fd1c9"/>
        <path id="Trazado_10443" data-name="Trazado 10443" d="M557.543,189.249a10.562,10.562,0,0,1,6.4-2.541,7.277,7.277,0,0,1,3.614.759,6.285,6.285,0,0,1,2.346,2.736c.084.159-.156.272-.244.121a5.82,5.82,0,0,0-2.856-2.688,7.374,7.374,0,0,0-3.6-.319,10.7,10.7,0,0,0-5.864,2.943,13.015,13.015,0,0,0-3.507,6.338,24.039,24.039,0,0,0-.282,7.812.231.231,0,0,1-.453.088C551.851,199.232,553.344,192.735,557.543,189.249Z" fill="#8fd1c9"/>
        <path id="Trazado_10444" data-name="Trazado 10444" d="M534.784,195.932a18.82,18.82,0,0,1,5.329-5.055c1.923-1.342,4.233-2.456,6.61-1.9,2.151.507,3.507,2.406,4.381,4.361a20.477,20.477,0,0,1,1.878,7.6c.009.336-.523.358-.572.032a29.508,29.508,0,0,0-1.629-6.857c-.849-2.094-2.184-4.228-4.542-4.611-2.324-.378-4.468.837-6.334,2.1a17.5,17.5,0,0,0-4.891,4.482C534.911,196.249,534.684,196.087,534.784,195.932Z" fill="#8fd1c9"/>
        <path id="Trazado_10445" data-name="Trazado 10445" d="M532.026,183.763c1.944-2,4.291-3.62,7.14-3.594a11.559,11.559,0,0,1,7.7,3.637,16.418,16.418,0,0,1,4.561,7.6,36.774,36.774,0,0,1,1.463,10.058.315.315,0,0,1-.623.035A83.383,83.383,0,0,0,551,192.448a15.543,15.543,0,0,0-3.844-7.508c-1.978-2.132-4.48-3.915-7.411-4.193-2.966-.281-5.4,1.309-7.535,3.232C532.07,184.1,531.9,183.891,532.026,183.763Z" fill="#8fd1c9"/>
        <path id="Trazado_10446" data-name="Trazado 10446" d="M530.441,171.776a11.025,11.025,0,0,1,6.851-2.174,17.244,17.244,0,0,1,4.137.173,9.471,9.471,0,0,1,3.511,1.686c4.594,3.345,6.407,9.241,7.024,14.735.421,3.746.515,7.526.865,11.279.042.453-.623.609-.689.144-.814-5.762-.373-11.66-2.023-17.3a17.006,17.006,0,0,0-3.817-6.893,11.8,11.8,0,0,0-3.137-2.414,8.941,8.941,0,0,0-4.083-.887c-2.9-.074-6.019.047-8.461,1.859C530.48,172.089,530.3,171.89,530.441,171.776Z" fill="#8fd1c9"/>
        <path id="Trazado_10447" data-name="Trazado 10447" d="M550.891,193.723c.052,2.14.76,4.16,1.031,6.272.464,3.61-.125,7.462,1.777,10.728a.453.453,0,0,0,.857-.164,85.49,85.49,0,0,0-.585-13.87c-.3-2.513-1.005-4.687-.995-7.225a43.852,43.852,0,0,0-.658-8.108A55.953,55.953,0,0,0,550.891,193.723Z" fill="#8fd1c9"/>
      </g>
      <g id="Grupo_3051" data-name="Grupo 3051">
        <path id="Trazado_10448" data-name="Trazado 10448" d="M609.347,201.71a.371.371,0,0,0,.349.391c-.017.109.1.236.221.175a30.965,30.965,0,0,0,3.876-2,26.324,26.324,0,0,1,3.861-2.639,4.925,4.925,0,0,1,5.1.421,16.49,16.49,0,0,0,4.2,1.868.259.259,0,0,0,.334-.292c-.2-2.093-.952-4.611-2.726-5.879a1.732,1.732,0,0,0-1.358-.259,3.457,3.457,0,0,1-1.958-.514,5.55,5.55,0,0,0-3.3-.515A9.8,9.8,0,0,0,609.347,201.71Z" fill="#8fd1c9"/>
        <path id="Trazado_10449" data-name="Trazado 10449" d="M588.884,206.569a23.505,23.505,0,0,1,7.72-4.432,12.257,12.257,0,0,0,3.541-1.836c.985-.772,2.228-1.878,3.513-1.645a1.966,1.966,0,0,1,.783.508c.233.243.739.078.636-.313a5.469,5.469,0,0,0-3.786-3.952c-2.084-.559-3.844.25-5.448,1.566-1.009.828-2.169,1.254-3.233,1.974a7.922,7.922,0,0,0-1.969,1.948,15.776,15.776,0,0,0-2.264,5.82C588.307,206.507,588.621,206.8,588.884,206.569Z" fill="#8fd1c9"/>
        <path id="Trazado_10450" data-name="Trazado 10450" d="M585.944,194.787a12.547,12.547,0,0,1,4.011-3.293,10.681,10.681,0,0,1,2.629-.518c.462-.079.9-.26,1.362-.333a5.376,5.376,0,0,1,1.645.072,12.976,12.976,0,0,1,5.847,2.044,12.659,12.659,0,0,1,4.03,3.99.364.364,0,0,0,.392.187.117.117,0,0,0,.127-.049.332.332,0,0,0,.152-.365c-.038-.2-.082-.4-.123-.6-.022-2.41-.427-4.946-2.028-6.8a3.847,3.847,0,0,0-2.607-1.43,5.966,5.966,0,0,1-2.228-.3c-.684-.3-1.342-.64-2.051-.883a7.571,7.571,0,0,0-7.173.81c-2.307,1.706-3.443,4.51-4.486,7.119C585.329,194.715,585.725,195.028,585.944,194.787Z" fill="#8fd1c9"/>
        <path id="Trazado_10451" data-name="Trazado 10451" d="M582.245,181.276c.038.644.569.882,1.13.854a19.292,19.292,0,0,0,3.463-.818c1.189-.294,2.376-.621,3.579-.851a11.354,11.354,0,0,1,7.235,1.139,13.474,13.474,0,0,1,5.067,3.959c1.076,1.439,1.6,3.409,3.329,4.193.282.128.505-.173.482-.431a45.638,45.638,0,0,0-.828-5.43,14.3,14.3,0,0,0-.871-4.009,8.916,8.916,0,0,0-4.21-4.795,15.19,15.19,0,0,0-12.833-.13,9.183,9.183,0,0,0-4.462,3.959C582.956,179.546,582.2,180.513,582.245,181.276Z" fill="#8fd1c9"/>
        <path id="Trazado_10452" data-name="Trazado 10452" d="M607.776,185.344a.347.347,0,0,0,.64.132,3.479,3.479,0,0,0,1.174-1.414,27.019,27.019,0,0,0,1.461-2.752c.464-1.007.809-2.054,1.232-3.077a6.012,6.012,0,0,1,2.127-2.626,10.9,10.9,0,0,1,5.654-2.452c2.216-.2,4.434-.373,6.651-.559a.329.329,0,0,0,.152-.574c-2.065-1.7-4.563-3.335-7.249-3.674a4.947,4.947,0,0,0-3.22.578,14.416,14.416,0,0,1-1.9,1.286c-.616.255-1.29.333-1.912.576C607.231,172.877,606.879,180.49,607.776,185.344Z" fill="#8fd1c9"/>
        <path id="Trazado_10453" data-name="Trazado 10453" d="M609.051,191.917c-.013.223-.02.447-.016.673.006.34.471.609.676.249a20.174,20.174,0,0,1,3.227-4.678c1.436-1.387,3.172-1.687,4.914-2.46.889-.4,1.689-.968,2.575-1.365a8.363,8.363,0,0,1,3.107-.568,5.866,5.866,0,0,1,3.393.6,10.544,10.544,0,0,1,2.286,1.975c.183.2.6.125.592-.2-.037-2.579-1.9-5.4-3.754-7.049a7.615,7.615,0,0,0-7.6-1.355,12.357,12.357,0,0,0-6.609,5.185,28.852,28.852,0,0,0-2.87,8.837A.133.133,0,0,0,609.051,191.917Z" fill="#8fd1c9"/>
        <path id="Trazado_10454" data-name="Trazado 10454" d="M607.946,182.743a23.041,23.041,0,0,1,2.857-7.01,8.744,8.744,0,0,1,5.274-4.073c2.69-.766,5.623-1.21,8.309-.215.166.062.058.319-.108.26a10.016,10.016,0,0,0-5.146-.252,16.911,16.911,0,0,0-4.222,1.219c-2.815,1.332-4.426,4.516-5.471,7.362-2.33,6.345-1.834,13.352-1.413,19.984.016.255-.362.312-.387.054C607.093,194.294,606.585,188.453,607.946,182.743Z" fill="#8fd1c9"/>
        <path id="Trazado_10455" data-name="Trazado 10455" d="M607.934,198.368a40.423,40.423,0,0,1,.672-4.437,22.072,22.072,0,0,1,2.682-6.946c2.32-3.779,6.157-6.584,10.651-6.352a8.487,8.487,0,0,1,6.123,2.919.142.142,0,0,1-.214.186,8.843,8.843,0,0,0-7.412-2.548,11.149,11.149,0,0,0-7.008,3.886,18.553,18.553,0,0,0-3.867,7.541,34.548,34.548,0,0,0-.942,5.119c-.091.8-.161,1.594-.223,2.393a12.109,12.109,0,0,1-.255,2.447.214.214,0,0,1-.411-.034A16.189,16.189,0,0,1,607.934,198.368Z" fill="#8fd1c9"/>
        <path id="Trazado_10456" data-name="Trazado 10456" d="M613.092,196.875a10.559,10.559,0,0,1,6.405-2.541,7.281,7.281,0,0,1,3.614.759,6.282,6.282,0,0,1,2.345,2.736c.085.159-.156.272-.243.121a5.825,5.825,0,0,0-2.856-2.688,7.388,7.388,0,0,0-3.6-.32,10.7,10.7,0,0,0-5.864,2.944,13.024,13.024,0,0,0-3.508,6.338,24.065,24.065,0,0,0-.282,7.812.23.23,0,0,1-.452.088C607.4,206.858,608.893,200.361,613.092,196.875Z" fill="#8fd1c9"/>
        <path id="Trazado_10457" data-name="Trazado 10457" d="M590.332,203.558a18.824,18.824,0,0,1,5.33-5.055c1.923-1.342,4.233-2.456,6.609-1.9,2.152.507,3.508,2.406,4.382,4.361a20.5,20.5,0,0,1,1.878,7.6c.009.336-.523.358-.573.032a29.406,29.406,0,0,0-1.629-6.857c-.849-2.094-2.183-4.228-4.541-4.611-2.324-.378-4.468.837-6.334,2.1a17.484,17.484,0,0,0-4.891,4.482C590.46,203.875,590.233,203.713,590.332,203.558Z" fill="#8fd1c9"/>
        <path id="Trazado_10458" data-name="Trazado 10458" d="M587.575,191.389c1.944-2,4.291-3.62,7.14-3.594a11.554,11.554,0,0,1,7.695,3.637,16.418,16.418,0,0,1,4.561,7.6,36.737,36.737,0,0,1,1.464,10.058.316.316,0,0,1-.624.035,83.125,83.125,0,0,0-1.266-9.054,15.545,15.545,0,0,0-3.845-7.508c-1.977-2.132-4.479-3.915-7.41-4.193-2.967-.281-5.4,1.309-7.536,3.232C587.619,191.727,587.451,191.517,587.575,191.389Z" fill="#8fd1c9"/>
        <path id="Trazado_10459" data-name="Trazado 10459" d="M585.99,179.4a11.017,11.017,0,0,1,6.851-2.174,17.286,17.286,0,0,1,4.136.172,9.47,9.47,0,0,1,3.512,1.687c4.594,3.345,6.406,9.241,7.023,14.735.421,3.746.515,7.526.865,11.279.043.453-.622.609-.688.144-.814-5.762-.373-11.66-2.023-17.3a17.008,17.008,0,0,0-3.817-6.892,11.8,11.8,0,0,0-3.138-2.414,8.938,8.938,0,0,0-4.083-.887c-2.9-.074-6.019.047-8.46,1.859C586.029,179.715,585.852,179.516,585.99,179.4Z" fill="#8fd1c9"/>
        <path id="Trazado_10460" data-name="Trazado 10460" d="M606.44,201.349c.051,2.14.759,4.16,1.031,6.272.463,3.61-.125,7.462,1.777,10.727a.452.452,0,0,0,.856-.163,85.489,85.489,0,0,0-.584-13.87c-.3-2.513-1.005-4.687-.995-7.225a44.027,44.027,0,0,0-.658-8.108A55.82,55.82,0,0,0,606.44,201.349Z" fill="#8fd1c9"/>
      </g>
    </g>
  </g>
</svg>
